<?xml version="1.0" encoding="utf-8"?>
<!-- Generator: Adobe Illustrator 15.1.0, SVG Export Plug-In . SVG Version: 6.00 Build 0)  -->
<!DOCTYPE svg PUBLIC "-//W3C//DTD SVG 1.1//EN" "http://www.w3.org/Graphics/SVG/1.1/DTD/svg11.dtd">
<svg version="1.1" id="Layer_2" xmlns="http://www.w3.org/2000/svg" xmlns:xlink="http://www.w3.org/1999/xlink" x="0px" y="0px"
	 width="52px" height="52px" viewBox="0 0 52 52" enable-background="new 0 0 52 52" xml:space="preserve">
<g>
	<path d="M12.013,11.835c-1.766,2.42-2.61,4.633-2.738,7.177c-0.068,1.346,0.03,2.711,0.284,3.949
		c0.289,1.413,0.794,2.309,1.627,3.469c1.264,1.76,3.617,3.096,6.994,3.972c3.532,0.915,7.11,0.991,10.473,0.991l1.511,0.007
		c0.002,0,0.002,0,0.002,0c2.138,0,4.38-0.117,6.21-1.52c1.032-0.79,1.871-1.753,2.685-2.686l0.923-1.037
		c0.828-0.908,1.682-1.848,2.146-3.09c1.007-2.706,0.991-5.62-0.013-8.481l0.011-0.025l-0.025-0.012
		c-0.097-0.276-0.193-0.553-0.31-0.827c-1.489-3.513-3.298-5.434-6.246-6.63c-2.668-1.082-5.65-1.018-8.41-0.982
		c-0.513,0.007-1.021,0.014-1.519,0.014c-2.249,0-3.96,0.222-5.548,0.721c-0.78,0.246-1.552,0.539-2.137,0.767
		c-0.087,0.034-0.199,0.072-0.322,0.116c-0.462,0.161-1.095,0.381-1.418,0.64C15.993,8.465,15.84,8.55,15.696,8.63
		c-0.117,0.065-0.227,0.127-0.356,0.191C14.163,9.411,13.043,10.424,12.013,11.835z M10.098,19.053
		c0.024-0.484,0.083-0.95,0.162-1.408c0.46,0.392,1.107,0.656,1.403,0.774c0.141,0.056,0.264,0.083,0.398,0.132
		c-0.519,0.238-0.935,0.504-1.019,0.559c-0.387,0.251-0.687,0.552-0.935,0.879C10.105,19.677,10.083,19.366,10.098,19.053z
		 M39.374,25.602l-0.934,1.051c-0.788,0.901-1.599,1.833-2.564,2.571c-1.626,1.247-3.712,1.352-5.712,1.352l-1.511-0.008
		c-3.309,0-6.828-0.074-10.266-0.966c-3.186-0.825-5.383-2.055-6.531-3.654c-0.784-1.091-1.23-1.879-1.49-3.154
		c-0.065-0.317-0.091-0.66-0.134-0.992c0.013-0.035,0.045-0.059,0.049-0.098c0.08-0.804,0.476-1.427,1.209-1.904
		c0.684-0.444,1.662-0.874,2.109-0.821c0.03,0.002,0.058-0.005,0.086-0.009c0.157,0.025,0.311,0.067,0.471,0.082
		c0.504,0.049,0.986,0.074,1.449,0.074c1.589,0,2.953-0.291,4.214-0.889c0.072-0.034,0.136-0.083,0.207-0.119
		c0.093,0.045,0.184,0.12,0.309,0.245c0.098,0.097,0.196,0.194,0.306,0.276c0.422,0.318,0.912,0.425,1.25,0.459
		c1.424,0.146,2.059-0.682,2.544-1.466c0.376-0.608,0.686-0.838,0.85-0.851c0.03-0.001,0.117-0.01,0.261,0.16
		c0.167,0.194,0.249,0.433,0.338,0.686c0.165,0.473,0.37,1.062,1.177,1.325c0.53,0.173,1.146,0.256,1.906,0.256
		c0.2,0,0.41-0.006,0.632-0.017c0.196-0.01,0.419-0.039,0.653-0.07c0.396-0.051,0.835-0.103,1.131-0.052
		c1.02,0.393,2.045,0.577,3.355,0.58c0.009,0,0.018,0,0.026,0c0.633,0,1.247-0.07,1.837-0.191v0.001
		c0.206,0.037,0.412,0.069,0.615,0.101c1.084,0.169,2.107,0.328,2.923,1.116c0.432,0.416,0.648,1.087,0.753,1.576
		c0.067,0.311,0.095,0.55,0.046,0.856c-0.014,0.079-0.048,0.173-0.078,0.27c-0.062,0.186-0.117,0.375-0.124,0.559
		C40.344,24.519,39.874,25.054,39.374,25.602z M41.644,21.873c-0.144-0.577-0.411-1.289-0.931-1.789
		c-0.728-0.702-1.561-0.993-2.405-1.169c0.687-0.31,1.315-0.71,1.855-1.201c0.648-0.588,1.073-1.298,1.434-2.026
		C42.179,17.778,42.2,19.877,41.644,21.873z M35.236,7.855c2.724,1.105,4.403,2.898,5.796,6.188
		c0.073,0.169,0.127,0.339,0.191,0.508l-0.009,0.021c-0.438,0.951-0.852,1.849-1.605,2.532c-1.208,1.095-2.974,1.722-4.847,1.722
		c-0.007,0-0.014,0-0.021,0c-1.133-0.002-2.03-0.151-2.901-0.463c-0.041-0.029-0.084-0.055-0.133-0.069
		c-0.032-0.009-0.066-0.01-0.099-0.018c-0.084-0.033-0.17-0.057-0.254-0.094l-0.441-0.188c-0.79-0.33-1.604-0.671-2.112-1.305
		c-0.807-1.008-0.761-2.479-0.717-3.902c0.01-0.316,0.02-0.627,0.02-0.927l-0.007-0.955c-0.007-0.688-0.014-1.351,0.017-2.016
		c0.004-0.104-0.007-0.443-0.02-0.838c-0.013-0.386-0.027-0.818-0.029-1.126c0.223-0.002,0.442-0.006,0.665-0.006
		C30.91,6.919,33.209,7.032,35.236,7.855z M27.146,6.933c0.031,0,0.063,0,0.094-0.001c0.003,0.315,0.017,0.756,0.029,1.147
		c0.013,0.364,0.024,0.676,0.02,0.772c-0.03,0.68-0.023,1.359-0.017,2.062l0.007,0.947c0,0.291-0.01,0.593-0.02,0.901
		c-0.046,1.499-0.099,3.198,0.897,4.443c0.424,0.528,0.971,0.868,1.548,1.148c-0.048,0.004-0.105,0.014-0.149,0.016
		c-0.953,0.05-1.669-0.014-2.24-0.199c-0.401-0.13-0.495-0.356-0.654-0.813c-0.104-0.299-0.223-0.638-0.489-0.949
		c-0.342-0.403-0.708-0.468-0.95-0.447c-0.51,0.039-0.997,0.444-1.488,1.238c-0.496,0.802-0.893,1.169-1.761,1.08
		c-0.329-0.033-0.626-0.139-0.835-0.297c-0.08-0.06-0.15-0.132-0.221-0.202c-0.034-0.034-0.081-0.07-0.118-0.105
		c1.052-0.701,1.901-1.626,2.355-2.612c0.172-0.373,0.298-0.73,0.427-1.094c0.103-0.29,0.206-0.585,0.338-0.896
		c0.301-0.706,0.454-1.649,0.454-2.805c0-0.33,0.007-0.72,0.015-1.133c0.014-0.712,0.026-1.498,0.006-2.154
		c0.394-0.018,0.792-0.032,1.224-0.032C26.12,6.947,26.63,6.94,27.146,6.933z M15.708,9.559c0.142-0.071,0.262-0.138,0.39-0.209
		c0.134-0.075,0.275-0.154,0.529-0.289c0.286-0.22,0.845-0.415,1.254-0.557c0.134-0.047,0.254-0.088,0.35-0.125
		c0.573-0.223,1.329-0.51,2.085-0.749c0.986-0.31,2.045-0.496,3.255-0.595c0.019,0.63,0.006,1.392-0.006,2.084
		c-0.008,0.417-0.016,0.813-0.016,1.148c0,1.03-0.134,1.888-0.387,2.482c-0.141,0.329-0.25,0.639-0.358,0.946
		c-0.12,0.34-0.237,0.675-0.398,1.024c-0.51,1.108-1.608,2.145-2.938,2.775c-1.488,0.706-3.149,0.938-5.231,0.74
		c-0.743-0.072-1.441-0.25-2.267-0.579c-1.385-0.553-1.395-0.912-1.394-0.915l-0.113-0.018c0.392-1.469,1.1-2.87,2.217-4.4
		C13.617,11.036,14.665,10.081,15.708,9.559z"/>
	<path d="M15.685,13.395c0.075,0.417,0.152,0.847,0.691,1.301c0.505,0.425,1.088,0.64,1.731,0.64c0.211,0,0.429-0.023,0.647-0.071
		c1.369-0.295,1.579-1.523,1.746-2.51c0.024-0.138,0.047-0.275,0.073-0.407l0.107-0.547l-0.5,0.249
		c-0.552,0.276-2.155,0.79-3.249,0.79c-0.469,0-0.79-0.097-0.904-0.273l-1.354-2.089l0.866,2.333
		C15.618,13.018,15.652,13.209,15.685,13.395z M19.945,12.745c-0.157,0.919-0.33,1.772-1.306,1.983
		c-0.719,0.153-1.37,0.001-1.909-0.453c-0.385-0.323-0.433-0.582-0.503-0.97C17.132,13.555,18.942,13.124,19.945,12.745z"/>
	<path d="M31.23,12.642c0.023,0.058,0.066,0.103,0.116,0.131c0.547,1.245,1.4,1.892,2.486,1.892c0.127,0,0.256-0.008,0.389-0.026
		c1.156-0.154,2.258-1.129,2.095-2.496l-0.026-0.225l-0.226-0.017c-0.529-0.039-0.972,0.125-1.407,0.284
		c-0.285,0.104-0.556,0.202-0.839,0.243c-0.502,0.076-0.923-0.065-1.367-0.212c-0.326-0.108-0.663-0.22-1.041-0.244l-0.337-0.021
		l0.05,0.335C31.138,12.396,31.173,12.509,31.23,12.642z M32.279,12.738c0.462,0.152,0.987,0.324,1.616,0.234
		c0.339-0.049,0.65-0.162,0.948-0.271c0.32-0.115,0.622-0.226,0.938-0.251c-0.025,0.902-0.811,1.535-1.633,1.644
		c-1,0.133-1.764-0.366-2.272-1.483C32.01,12.648,32.143,12.692,32.279,12.738z"/>
	<path d="M25.738,21.37c-1.042-0.195-2.668,0.662-3.265,1.011c-0.258,0.152-0.451,0.33-0.601,0.479l-0.098,0.108l-0.054,0.089
		c-0.134,0.359-0.099,0.721,0.1,1.044c0.445,0.724,1.619,1.109,2.255,1.182c0.129,0.015,0.257,0.022,0.383,0.022
		c1.025,0,1.903-0.489,2.407-1.341c0.318-0.537,0.369-1.138,0.138-1.649C26.78,21.823,26.319,21.479,25.738,21.37z M26.394,23.684
		c-0.461,0.778-1.287,1.162-2.256,1.053c-0.556-0.063-1.528-0.4-1.849-0.923c-0.103-0.168-0.125-0.335-0.068-0.52l0.049-0.055
		c0.116-0.115,0.277-0.263,0.482-0.384c0.422-0.247,1.972-1.106,2.885-0.945c0.409,0.077,0.717,0.301,0.867,0.632
		C26.659,22.887,26.62,23.303,26.394,23.684z"/>
	<path d="M23.283,34.07c0.074,0,0.135-0.059,0.137-0.133c0.002-0.076-0.058-0.14-0.133-0.142c-1.022-0.028-2.101-0.224-3.143-0.412
		c-0.223-0.04-0.443-0.081-0.662-0.118c-0.29-0.051-0.587-0.098-0.886-0.144c-1.406-0.22-2.859-0.447-4.029-1.177l-0.315-0.195
		c-1.064-0.662-2.07-1.287-3.05-2.069c-1.646-1.312-2.735-2.178-3.392-4.152c-0.872-2.618-0.731-5.413-0.595-8.117
		c0.159-3.156,0.813-5.254,2.258-7.24c0.199-0.274,0.377-0.545,0.553-0.811c0.437-0.665,0.851-1.293,1.516-1.845
		c0.989-0.818,2.53-1.721,3.624-1.6c0.076,0.007,0.144-0.045,0.152-0.12c0.009-0.075-0.045-0.144-0.12-0.152
		c-1.514-0.181-3.457,1.353-3.831,1.661c-0.698,0.579-1.122,1.223-1.571,1.906C9.622,9.472,9.446,9.74,9.25,10.01
		c-1.479,2.034-2.148,4.174-2.311,7.389c-0.137,2.729-0.279,5.55,0.609,8.217c0.684,2.051,1.857,2.986,3.495,4.291
		c0.979,0.781,2.039,1.44,3.063,2.076l0.315,0.196c1.217,0.759,2.699,0.99,4.132,1.215c0.298,0.046,0.593,0.092,0.881,0.143
		c0.218,0.037,0.438,0.078,0.661,0.118c1.052,0.19,2.142,0.387,3.184,0.416C23.28,34.07,23.282,34.07,23.283,34.07z"/>
	<path d="M38.65,6.527c0.532,0.375,0.921,0.672,1.294,0.989c0.812,0.686,1.729,1.547,2.393,2.727
		c1.152,2.044,1.346,4.237,1.477,6.891c0.148,2.967-0.075,5.598-0.681,8.042c-0.446,1.803-1.396,3.333-2.678,4.308
		c-0.549,0.418-1.176,0.77-1.781,1.108c-0.416,0.234-0.848,0.477-1.253,0.739c-1.803,1.173-3.47,1.835-4.95,1.968
		c-0.077,0.007-0.133,0.073-0.125,0.148c0.005,0.071,0.064,0.125,0.136,0.125c0.004,0,0.009,0,0.013-0.001
		c1.528-0.136,3.236-0.812,5.077-2.011c0.396-0.257,0.824-0.496,1.238-0.729c0.613-0.343,1.246-0.699,1.811-1.129
		c1.331-1.013,2.317-2.597,2.779-4.461c0.611-2.47,0.837-5.127,0.688-8.122c-0.133-2.69-0.33-4.915-1.511-7.013
		c-0.685-1.217-1.624-2.099-2.454-2.8c-0.383-0.323-0.775-0.624-1.313-1.004c-0.281-0.197-0.862-0.649-0.977-0.771
		c0-0.004-0.002-0.009-0.004-0.013c-0.03-0.07-0.116-0.1-0.181-0.071l-0.077,0.037l-0.009,0.08
		C37.55,5.687,37.917,6.011,38.65,6.527z"/>
	<path d="M17.583,5.505c0.043,0,0.086-0.021,0.113-0.059c0.297-0.434,0.971-0.499,1.681-0.488h0c0.076,0,0.137-0.062,0.137-0.137
		c0-0.076-0.061-0.138-0.137-0.138C18.606,4.695,17.84,4.751,17.47,5.29c-0.043,0.062-0.027,0.148,0.036,0.191
		C17.529,5.497,17.557,5.505,17.583,5.505z"/>
	<path d="M21.394,4.607c0.053,0.015,0.115,0.021,0.184,0.021c0.264,0,0.636-0.09,1.025-0.185c0.328-0.08,0.667-0.162,0.893-0.174
		c0.341-0.018,0.736,0.03,1.119,0.077c0.409,0.05,0.798,0.1,1.089,0.059c0.076-0.01,0.129-0.079,0.119-0.154
		c-0.01-0.076-0.084-0.128-0.154-0.119c-0.259,0.032-0.628-0.011-1.021-0.06c-0.394-0.048-0.801-0.095-1.166-0.079
		c-0.252,0.013-0.588,0.095-0.944,0.182c-0.416,0.101-0.89,0.215-1.073,0.167c-0.073-0.019-0.149,0.024-0.168,0.097
		C21.276,4.513,21.32,4.588,21.394,4.607z"/>
	<path d="M27.608,4.132c3.203,0,5.685,0.246,7.588,0.75c0.011,0.003,0.023,0.005,0.034,0.005c0.062,0,0.115-0.041,0.133-0.102
		c0.02-0.073-0.023-0.148-0.097-0.168c-1.927-0.512-4.431-0.76-7.658-0.76c-0.076,0-0.137,0.062-0.137,0.138
		S27.532,4.132,27.608,4.132z"/>
	<path d="M46.571,36.418c0.898-0.655,1.719-1.412,2.427-2.291c3.916-4.859,2.83-11.37,2.019-17.128
		C50.004,9.81,46.181,3.011,38.646,1.351c-7.611-1.677-16.655-1.729-24.321-0.504C7.816,1.887,3.018,6.983,0.731,12.924
		c-0.946,8.437-2.278,16.505,5.455,22.001c0.284,0.201,0.591,0.368,0.888,0.551c-3.037,0.678-5.258,4.223-5.248,7.142
		c0.019,5.317,6.769,7.225,11.069,6.48c2.13-0.369,4.141-1.143,5.429-2.962c2.641,3.052,7.036,4.472,10.977,3.816
		c2.077-0.346,3.337-1.351,4.118-2.702c3.477,3.385,10.083,3.581,13.579,0.166C49.882,44.604,50.738,38.23,46.571,36.418z
		 M2.849,12.643c1.475-3.831,3.834-6.923,7.263-9.226C14.16,0.7,20.309,1.425,24.964,1.53c6.605,0.15,13.358-0.247,18.714,4.307
		C48.249,9.723,49,17.05,49.444,22.596c0.386,4.835,0.253,9.236-3.605,12.643c-6.248,5.515-17.959,3.92-25.472,2.801
		c-4.789-0.714-9.364-1.91-13.366-4.754C0.241,28.481,2.06,19.683,2.849,12.643z M39.528,42.26c0.968,0.782,2.309,0.758,3.665-0.04
		c-0.224,0.632-0.944,1.149-1.485,1.344c-0.834,0.301-1.83,0.152-2.538-0.372c-0.783-0.581-1.262-1.19-1.601-2.039
		c-0.084-0.207-0.157-0.957-0.131-1.377c0.607-0.091,1.208-0.199,1.802-0.324c-0.283,0.504-0.441,1.025-0.411,1.495
		C38.863,41.471,39.099,41.912,39.528,42.26z M24.538,39.836c1.236,0.124,2.538,0.226,3.887,0.291
		c-0.019,0.869-0.23,1.877-0.816,2.486c-0.337,0.351-0.765,0.543-1.277,0.522c-0.821-0.007-1.484-0.703-1.777-1.39
		C24.361,41.294,24.327,40.412,24.538,39.836z M12.42,43.146c-0.842,2.933-3.068-0.042-3.883-1.382
		c1.023-0.142,1.98-0.527,2.716-1.344c0.752-0.836,0.756-1.922,0.344-2.864c0.267,0.088,0.538,0.165,0.809,0.244
		c-0.101,0.075-0.168,0.154-0.151,0.237C12.606,39.78,12.924,41.39,12.42,43.146z M5.462,46.506c-1.93-1.514-2.35-4.201-1.783-6.438
		c0.486-1.922,2.607-4.693,5.066-3.67c0.095,0.045,0.189,0.09,0.285,0.136c1.74,0.997,1.629,4.793-1.049,4.623
		C7.814,41.146,6.512,41.36,6.67,41.7c0.875,1.876,2.603,4.079,4.935,3.308c3.052-1.009,2.85-4.127,2.361-6.776
		c1.129,0.273,2.274,0.489,3.417,0.677c0.358,2.324,0.505,4.724-0.344,6.959C15.423,50.123,8.255,48.695,5.462,46.506z
		 M28.813,49.208c-3.574,0.595-7.737-1.666-9.713-4.551c-0.018-0.027-0.054-0.04-0.082-0.06c0.479-1.681,0.321-3.698,0.065-5.429
		c1.034,0.146,2.062,0.28,3.062,0.403c0.586,0.072,1.203,0.142,1.836,0.209c-0.227,0.748-0.14,1.698,0.065,2.18
		c0.363,0.852,1.208,1.715,2.278,1.724c0.007,0,0.016,0,0.023,0c0.658,0,1.214-0.232,1.656-0.691
		c0.686-0.715,0.938-1.854,0.966-2.838c1.364,0.055,2.763,0.059,4.166,0.007C33.069,43.705,33.161,48.485,28.813,49.208z
		 M46.231,46.21c-2.646,3.872-9.574,2.835-12.124-0.525c-0.006-0.008-0.015-0.01-0.021-0.016c0.513-1.705,0.59-3.693,0.637-5.589
		c0.731-0.054,1.459-0.132,2.183-0.228c-0.045,0.613,0.088,1.347,0.152,1.505c0.38,0.949,0.914,1.63,1.785,2.275
		c0.558,0.413,1.266,0.631,1.968,0.631c0.369,0,0.736-0.06,1.081-0.183c1.024-0.367,2.041-1.348,1.91-2.441l-0.056-0.466
		l-0.378,0.276c-0.629,0.456-2.229,1.407-3.495,0.383c-0.305-0.248-0.473-0.558-0.496-0.922c-0.036-0.563,0.262-1.156,0.616-1.618
		c1.845-0.442,3.59-1.079,5.149-1.96C48.991,38.558,48.03,43.582,46.231,46.21z"/>
</g>
</svg>
