<?xml version="1.0" encoding="utf-8"?>
<!-- Generator: Adobe Illustrator 15.1.0, SVG Export Plug-In . SVG Version: 6.00 Build 0)  -->
<!DOCTYPE svg PUBLIC "-//W3C//DTD SVG 1.1//EN" "http://www.w3.org/Graphics/SVG/1.1/DTD/svg11.dtd">
<svg version="1.1" id="Layer_1" xmlns="http://www.w3.org/2000/svg" xmlns:xlink="http://www.w3.org/1999/xlink" x="0px" y="0px"
	 width="52px" height="52px" viewBox="0 0 52 52" enable-background="new 0 0 52 52" xml:space="preserve">
<g>
	<path d="M51.039,15.846C50.412,9.1,47.909,3.906,41.211,1.372c-2.765-1.046-5.653-0.733-8.576-0.885
		c-5.391-0.279-10.685-0.641-16.08-0.23C11.044,0.675,6.241,1.794,3.473,6.839c-3.608,6.575-4.573,18.537-2.095,25.619
		c3.751,10.719,22.161,9.453,31.06,8.797c5.471-0.402,12.482-0.891,16.52-4.979C53.7,31.47,51.592,21.676,51.039,15.846
		c-0.041-0.428-1.533-0.124-1.485,0.389c0.508,5.341,1.244,10.696,0.029,16.001c-1.784,7.795-12.079,7.982-18.713,8.408
		c-8.858,0.57-22.498,0.982-27.591-7.676c-3.041-5.17-1.477-13.357-0.52-18.856c0.565-3.246,1.422-6.554,3.337-9.301
		c2.707-3.883,8.98-3.771,13.246-4.013c3.625-0.206,7.29,0.111,10.905,0.341c3.743,0.238,7.306-0.035,10.845,1.305
		c5.988,2.266,7.931,8.061,8.462,13.791C49.594,16.662,51.086,16.358,51.039,15.846z"/>
</g>
<g>
	<g>
		<path d="M9.051,39.671c-0.474,2.143-3.52,2.234-5.29,2.891c-1.171,0.436-2.071,1.223-2.832,2.191
			c-2.353,2.99,0.073,6.857,3.553,7.057c3.169,0.182,6.413,0,9.592-0.01c1.525-0.006,3.247-0.018,4.676-0.643
			c3.977-1.742,2.549-6.412,2.549-9.928c0-0.242-1.932,0.014-1.932,0.518c0,1.381,0.127,2.754,0.204,4.133
			c0.188,3.379-0.598,5.105-4.227,5.195c-3.686,0.09-10.987,1.373-13.035-2.359c-1.882-3.432,1.963-5.764,4.609-6.562
			c1.519-0.457,3.646-1.105,4.031-2.848C11.027,38.96,9.148,39.231,9.051,39.671L9.051,39.671z"/>
	</g>
</g>
<g>
	<g>
		<path d="M42.884,39.169c-1.343,2.098,1.848,2.561,3.305,3.076c1.8,0.635,3.056,1.875,3.68,3.668
			c0.78,2.242,0.228,4.795-2.544,5.105c-2.665,0.299-7.257,1.162-9.59-0.119c-3.214-1.764,0.026-7.668-1.101-10.254
			c-0.186-0.426-2.058,0.229-1.932,0.518c1.389,3.188-2.468,9.215,2.253,10.836c1.179,0.404,2.563,0.246,3.779,0.152
			c2.207-0.168,4.439-0.277,6.639-0.525c3.259-0.365,4.992-2.182,4.585-5.539c-0.24-1.979-1.56-3.256-3.211-4.16
			c-1.21-0.664-5.303-1.029-3.963-3.119C44.885,38.651,43.179,38.708,42.884,39.169L42.884,39.169z"/>
	</g>
</g>
<g>
	<g>
		<path d="M20.789,49.659c0.05-0.104,0.078-0.215,0.083-0.334c-0.641,0.141-1.281,0.281-1.921,0.422
			c0.346,3.357,4.82,2.221,7.088,2.076c2.602-0.166,5.203,0.459,7.814,0.145c1.632-0.195,1.828-1.457,2.519-2.643
			c0.174-0.297-1.619-0.174-1.91,0.324c-0.984,1.689-1.683,1.609-3.679,1.523c-1.309-0.055-2.612-0.189-3.922-0.182
			c-2.066,0.012-5.669,1.242-5.979-1.762c-0.045-0.438-1.844-0.002-1.921,0.42c-0.005,0.117-0.033,0.229-0.083,0.334
			C18.721,50.378,20.583,50.177,20.789,49.659L20.789,49.659z"/>
	</g>
</g>
<g>
	<path d="M46.157,16.825c-0.504-5.431-2.52-9.612-7.911-11.652c-2.226-0.842-4.552-0.59-6.905-0.712
		c-4.34-0.224-8.602-0.516-12.945-0.186c-4.437,0.337-8.303,1.238-10.532,5.3c-2.905,5.293-3.682,14.924-1.686,20.625
		c3.02,8.629,17.841,7.611,25.005,7.084c4.403-0.324,10.049-0.719,13.3-4.01C48.3,29.404,46.603,21.519,46.157,16.825
		c-0.032-0.345-1.234-0.1-1.195,0.312c0.409,4.301,1.001,8.612,0.023,12.882c-1.437,6.275-9.724,6.428-15.064,6.77
		c-7.132,0.459-18.113,0.791-22.214-6.178c-2.448-4.163-1.189-10.754-0.418-15.182c0.455-2.613,1.145-5.276,2.687-7.488
		c2.179-3.126,7.23-3.037,10.664-3.231c2.918-0.166,5.868,0.09,8.78,0.275c3.014,0.192,5.882-0.028,8.73,1.05
		c4.821,1.824,6.385,6.489,6.812,11.102C44.994,17.482,46.195,17.239,46.157,16.825z"/>
</g>
<g>
	<g>
		<path d="M13.891,40.778c0.323,1.321,0.647,2.605,0.461,3.975c-0.357,2.626-2.987,1.963-4.248,0.58
			c-0.295-0.324-1.145-0.041-0.882,0.434c0.953,1.719,1.814,3.272,3.938,3.602c1.439,0.223,2.942-0.125,3.55-1.569
			c0.532-1.264,1.752-6.503-0.215-7.104c-0.433-0.133-1.139,0.492-0.552,0.672c1.149,0.352,0.339,4.275,0.182,5.079
			c-0.312,1.593-1.041,2.601-2.991,2.104c-1.658-0.423-2.279-1.861-3.031-3.217c-0.294,0.145-0.588,0.289-0.882,0.434
			c1.169,1.284,2.784,2.013,4.463,1.317c2.496-1.034,1.64-4.646,1.171-6.565C14.743,40.053,13.776,40.309,13.891,40.778
			L13.891,40.778z"/>
	</g>
</g>
<g>
	<g>
		<path d="M39.045,40.327c-0.043-0.105-0.085-0.212-0.127-0.318c-0.078-0.195-0.954,0.05-0.967,0.26
			c-0.164,2.905-0.582,7.356,3.114,8.228c3.032,0.715,5.437-1.329,6.055-4.246c0.047-0.219-0.667,0.001-0.749,0.042
			c-1.495,0.75-2.975,2.246-4.413,0.525c-1.164-1.393-0.745-3.346-0.939-4.999c-0.02-0.159-0.993,0.028-0.967,0.26
			c0.211,1.787-0.286,5.285,2.118,5.904c2.076,0.535,3.047-0.741,4.75-1.595c-0.25,0.014-0.5,0.028-0.749,0.042
			c-0.273,1.285-0.777,2.38-1.773,3.269c-1.665,1.484-4.104,0.062-4.947-1.473c-0.987-1.797-0.644-4.262-0.532-6.217
			c-0.322,0.087-0.645,0.173-0.967,0.26c0.043,0.105,0.085,0.212,0.127,0.318C38.162,40.797,39.106,40.483,39.045,40.327
			L39.045,40.327z"/>
	</g>
</g>
<g>
	<g>
		<path d="M23.59,41.1c-0.03,0-0.061,0.001-0.091,0.001c-0.266,0.002-0.674,0.109-0.661,0.441c0.106,2.578,2.193,4.397,4.669,4.189
			c2.315-0.194,4.893-2.037,4.472-4.576c-0.065-0.389-1.034-0.15-0.967,0.26c0.383,2.306-1.982,3.722-4.03,3.727
			c-1.802,0.005-3.11-2.21-3.178-3.858c-0.22,0.147-0.44,0.295-0.661,0.442c0.03,0,0.061-0.001,0.09-0.001
			C23.645,41.721,24.243,41.094,23.59,41.1L23.59,41.1z"/>
	</g>
</g>
<g>
	<g>
		<path d="M26.837,4.833c-0.559,1.039-0.45,2.837-0.581,3.973c-0.359,3.104-0.378,6.26-0.926,9.336
			c-0.905,5.083-7.572,6.175-11.633,6.487c-1.498,0.115-6.153,0.26-6.963-1.247c-0.187-0.347-1.116-0.011-0.889,0.411
			c1.788,3.325,11.975,1.143,14.336,0.18c3.011-1.228,5.123-2.759,6.123-5.919c0.627-1.983,0.465-4.387,0.658-6.446
			c0.171-1.829-0.116-5.006,0.791-6.692C28.001,4.455,27.021,4.49,26.837,4.833L26.837,4.833z"/>
	</g>
</g>
<g>
	<g>
		<path d="M24.457,20.472c0.417,3.697,5.065,3.188,8.009,3.248c2.799,0.058,5.583-0.113,8.377-0.243
			c1.639-0.076,3.254,0.332,4.835-0.149c0.56-0.171,0.468-0.542-0.1-0.369c-2.331,0.71-6.096,0.157-8.515,0.273
			c-2.771,0.134-11.199,0.899-11.641-3.019C25.396,19.974,24.423,20.174,24.457,20.472L24.457,20.472z"/>
	</g>
</g>
<g>
	<g>
		<path d="M5.76,25.127c3.615-0.608,9.14-0.577,11.47,2.644c0.147,0.203,0.771-0.065,0.894-0.195
			c2.799-2.973,10.837-4.509,12.825,0.408c0.099,0.243,0.907,0.009,0.962-0.209c0.981-3.929,10.534-5.12,13.518-2.359
			c0.202,0.188,1.087-0.175,0.906-0.342c-2.594-2.4-7.897-1.618-11.114-0.775c-1.182,0.31-2.462,0.631-3.342,1.557
			c-1.008,1.061-0.119,1.264-0.949-0.181c-0.407-0.709-2.021-0.868-2.612-0.986c-2.747-0.549-7.28-0.717-9.539,1.401
			c-1.378,1.293-2.619-0.986-4.431-1.225c-2.775-0.365-5.651-0.604-8.42-0.138C5.523,24.792,5.084,25.241,5.76,25.127L5.76,25.127z"
			/>
	</g>
</g>
<g>
	<g>
		<path d="M24.9,26.125c-1.541-0.386-3.037,0.172-3.662,1.694c-0.542,1.318-0.201,3.071,1.093,3.809
			c1.844,1.051,4.534-0.276,5.284-2.097c0.891-2.162-1.961-4.411-3.888-3.238c-0.558,0.339,0.242,0.691,0.643,0.447
			c0.523-0.319,1.68,0.445,2.013,0.813c0.81,0.896,0.342,2.224-0.43,2.938c-0.922,0.853-2.635,1.116-3.489,0.062
			c-1.179-1.454-0.224-4.298,1.879-3.772C24.764,26.887,25.488,26.272,24.9,26.125L24.9,26.125z"/>
	</g>
</g>
<g>
	<g>
		<path d="M12.09,27.238c-0.674-0.34-1.641-0.067-1.943,0.65c-0.292,0.692,0.043,1.529,0.71,1.845
			c0.989,0.469,2.704,0.105,3.206-0.917c0.313-0.638-0.228-1.309-0.775-1.574c-0.597-0.29-1.324-0.357-1.979-0.364
			c-0.235-0.002-0.486,0.049-0.683,0.183c-0.146,0.101-0.131,0.237,0.064,0.239c0.847,0.009,1.911,0.097,2.378,0.908
			c0.247,0.428,0.055,0.979-0.364,1.212c-0.274,0.151-0.744,0.066-1.012-0.061c-0.441-0.209-0.656-0.668-0.677-1.136
			c-0.009-0.208,0.043-0.413,0.133-0.6c0.03-0.062,0.075-0.134,0.129-0.178c-0.269,0.219-0.396-0.021-0.095,0.131
			c0.187,0.095,0.441,0.028,0.626-0.041C11.844,27.523,12.261,27.324,12.09,27.238L12.09,27.238z"/>
	</g>
</g>
<g>
	<g>
		<path d="M39.755,26.433c-0.925-0.004-2.09,0.369-2.243,1.422c-0.136,0.939,0.803,1.606,1.602,1.79
			c0.997,0.228,2.797-0.049,3.151-1.203c0.457-1.487-1.807-2.052-2.831-2.071c-0.232-0.004-0.515,0.062-0.631,0.291
			c-0.103,0.203,0.089,0.381,0.289,0.385c0.823,0.015,1.961,0.218,2.231,1.131c0.257,0.864-1.403,0.912-1.868,0.782
			c-0.493-0.139-0.971-0.568-0.972-1.111c-0.001-0.648,0.671-0.739,1.178-0.737C40.202,27.112,40.411,26.436,39.755,26.433
			L39.755,26.433z"/>
	</g>
</g>
<g>
	<g>
		<path d="M6.312,18.556c0.014-0.001,0.028-0.002,0.042-0.003c-0.207,0.012-1.046,0.367-0.489,0.515
			c2.934,0.778,8.3,1.458,10.917-0.691c1.801-1.48,2.377-3.734,2.919-5.917c0.573-2.309,1.364-5.693,0.758-8.032
			c-0.083-0.32-1.05-0.064-0.966,0.259c0.737,2.846-0.462,7.03-1.261,9.774c-0.736,2.524-1.903,4.158-4.813,4.542
			c-2.306,0.305-4.717,0.154-6.957-0.441c-0.163,0.172-0.326,0.343-0.489,0.515c0.374-0.022,0.615-0.055,0.933-0.258
			C7.456,18.468,6.607,18.368,6.312,18.556L6.312,18.556z"/>
	</g>
</g>
<g>
	<g>
		<path d="M6.564,16.223c2.512,0.459,5.915,0.902,8.012-0.979c2.612-2.344,3.35-6.958,3.278-10.283
			c-0.011-0.49-0.985-0.326-0.977,0.083c0.062,2.84-0.561,5.658-1.781,8.222c-1.534,3.225-5.263,2.82-8.189,2.285
			C6.451,15.467,5.919,16.105,6.564,16.223L6.564,16.223z"/>
	</g>
</g>
<g>
	<g>
		<path d="M32.419,5.146c-0.816,1.763-0.924,3.898-1.219,5.813c-0.214,1.382-0.541,3.582,0.511,4.718
			c3.434,3.709,8.918,0.768,13.013,2.314c0.226,0.085,1.1-0.273,0.789-0.391c-3.865-1.46-8.098,0.703-11.898-1.41
			c-1.958-1.088-1.7-3.521-1.46-5.394c0.244-1.897,0.416-4.078,1.22-5.812C33.458,4.805,32.538,4.89,32.419,5.146L32.419,5.146z"/>
	</g>
</g>
<g>
	<g>
		<path d="M35.489,5.133c-1.683,2.324-2.383,5.989-1.127,8.643c1.696,3.584,7.274,1.32,10.153,1.909
			c0.383,0.078,1.146-0.496,0.568-0.614c-2.932-0.599-7.491,1.382-9.587-1.289c-1.682-2.143-0.651-6.409,0.791-8.4
			C36.643,4.891,35.729,4.803,35.489,5.133L35.489,5.133z"/>
	</g>
</g>
</svg>
