<?xml version="1.0" encoding="utf-8"?>
<!-- Generator: Adobe Illustrator 15.1.0, SVG Export Plug-In . SVG Version: 6.00 Build 0)  -->
<!DOCTYPE svg PUBLIC "-//W3C//DTD SVG 1.1//EN" "http://www.w3.org/Graphics/SVG/1.1/DTD/svg11.dtd">
<svg version="1.1" id="Layer_2" xmlns="http://www.w3.org/2000/svg" xmlns:xlink="http://www.w3.org/1999/xlink" x="0px" y="0px"
	 width="52px" height="52px" viewBox="0 0 52 52" enable-background="new 0 0 52 52" xml:space="preserve">
<g>
	<path d="M11.213,35.397c7.045,4.374,20.49,6.607,27.339,0.524c7.111-6.316,6.487-18.947,0.649-25.952
		C34.829,4.725,25.85,5.1,19.271,7.26c-0.087-0.005-0.176-0.004-0.263-0.01l-0.007,0.104c-1.303,0.442-2.516,0.947-3.562,1.498
		c-0.19,0.1-0.267,0.189-0.294,0.271c-3.834,4.088-6.065,6.439-7.219,12.171C7.062,25.59,6.887,32.713,11.213,35.397z
		 M19.163,35.937c-0.053-1.101-0.003-2.223,0.045-3.307c0.047-1.07,0.096-2.178,0.048-3.276l-0.019-0.413
		c-0.037-0.809-0.073-1.611-0.073-2.435c0-0.369-0.038-0.743-0.077-1.115c-0.032-0.305-0.053-0.594-0.061-0.878
		c1.12-0.014,2.247-0.012,3.375,0.001c0.003,0.455-0.025,0.935-0.071,1.417c-0.033,0.354-0.066,0.702-0.08,1.029
		c-0.021,0.49-0.032,0.987-0.041,1.485c-0.012,0.567-0.023,1.135-0.051,1.689c-0.104,2.03-0.118,3.667-0.046,5.152
		c0.01,0.215,0.025,0.427,0.04,0.636c0.026,0.359,0.051,0.717,0.051,1.094c0,0.227-0.026,0.454-0.05,0.68
		c-0.025,0.226-0.042,0.456-0.045,0.689c-0.988-0.144-1.96-0.34-2.9-0.588C19.216,37.173,19.193,36.546,19.163,35.937z
		 M22.936,38.489c-0.004-0.223,0.013-0.455,0.041-0.705c0.028-0.255,0.056-0.515,0.056-0.77c0-0.397-0.027-0.773-0.054-1.151
		c-0.014-0.204-0.028-0.408-0.039-0.619c-0.071-1.456-0.056-3.067,0.046-5.068c0.028-0.564,0.04-1.14,0.052-1.716
		c0.01-0.491,0.02-0.982,0.041-1.466c0.013-0.314,0.045-0.647,0.078-0.986c0.047-0.499,0.077-1.001,0.074-1.491
		c1.669,0.03,3.34,0.074,5.013,0.117c0.463,0.012,0.94,0.022,1.407,0.034c0.008,0.181,0.013,0.361,0.013,0.468v1.197
		c0,0.379-0.033,0.743-0.066,1.109c-0.036,0.394-0.071,0.788-0.071,1.203c0,0.819,0.022,1.625,0.046,2.43
		c0.023,0.795,0.046,1.589,0.046,2.395c0,0.442-0.022,0.875-0.046,1.31c-0.023,0.45-0.046,0.9-0.046,1.36
		c0,0.332,0.021,0.676,0.043,1.024c0.027,0.433,0.046,0.873,0.027,1.291C27.445,38.738,25.166,38.746,22.936,38.489z M33.747,25.969
		c0.011,0.258,0.02,0.504,0.011,0.711c-0.047,0.984-0.045,1.994-0.045,2.97c0,0.756-0.032,1.514-0.067,2.278
		c-0.034,0.782-0.07,1.571-0.07,2.367l0.002,0.315c0,0.528,0.002,1.075-0.046,1.593l-0.011,0.104
		c-0.058,0.587-0.082,0.991-0.071,1.284c-0.953,0.317-1.968,0.563-3.023,0.74c0.007-0.408-0.006-0.818-0.032-1.221
		c-0.02-0.33-0.041-0.658-0.041-0.973c0-0.445,0.023-0.882,0.045-1.317c0.024-0.448,0.048-0.896,0.048-1.353
		c0-0.814-0.023-1.616-0.048-2.419c-0.021-0.796-0.045-1.594-0.045-2.405c0-0.39,0.034-0.76,0.069-1.128
		c0.034-0.391,0.068-0.78,0.068-1.185v-1.197c0-0.103-0.004-0.272-0.011-0.448c1.093,0.027,2.18,0.047,3.283,0.065
		C33.72,25.144,33.73,25.573,33.747,25.969z M34.278,37.297c0.007-0.203,0.025-0.489,0.066-0.906l0.012-0.11
		c0.052-0.557,0.049-1.123,0.049-1.673l-0.002-0.312c0-0.784,0.035-1.561,0.069-2.331c0.036-0.776,0.071-1.547,0.069-2.315
		c0-0.967-0.003-1.966,0.045-2.93c0.009-0.228,0-0.499-0.013-0.784c-0.016-0.399-0.03-0.836,0.02-1.173
		c0.853,0.011,1.702,0.028,2.551,0.028c0.837,0,1.675-0.018,2.514-0.035c0.792-0.017,1.589-0.03,2.388-0.03
		c-0.24,3.204-1.17,6.322-2.78,8.827C38.204,35.207,36.437,36.449,34.278,37.297z M32.934,8.604l-0.002,0.233
		c0,0.223,0.009,0.48,0.018,0.761c0.041,1.297,0.104,3.258-0.688,3.885c-0.296,0.233-0.715,0.273-1.278,0.12
		c-0.88-0.239-0.951-1.362-0.951-2.625c0-0.252-0.014-0.537-0.026-0.836c-0.03-0.692-0.056-1.45,0.065-2.025
		c0.854-0.006,1.696,0.012,2.544,0.096l0.227,0.026c0.032,0.004,0.059,0.005,0.089,0.009C32.934,8.364,32.934,8.481,32.934,8.604z
		 M30.517,7.288c-0.84-0.004-1.677,0.021-2.497,0.047c-0.776,0.026-1.557,0.051-2.34,0.051h-0.341
		c-1.091-0.002-2.146-0.002-3.183-0.018C24.921,6.797,27.816,6.737,30.517,7.288z M23.289,9.145c0.06,1.399,0.16,3.741-0.692,4.479
		c-0.243,0.209-0.566,0.273-0.983,0.193c-1.387-0.263-1.233-2.447-0.958-4.662c0.05-0.399,0.084-0.722,0.103-1.008
		c0.823,0.028,1.661,0.053,2.504,0.058v0.08C23.262,8.518,23.275,8.812,23.289,9.145z M16.516,9.341
		c0.923-0.481,1.902-0.9,2.919-1.246c0.167,0.009,0.335,0.011,0.501,0.02c-0.019,0.258-0.058,0.579-0.103,0.938
		c-0.255,2.05-0.643,5.148,1.625,5.579c0.168,0.032,0.33,0.047,0.485,0.047c0.464,0,0.865-0.144,1.195-0.43
		c1.155-0.999,1.049-3.491,0.979-5.14c-0.014-0.319-0.026-0.601-0.026-0.824V8.209c0.417,0.001,0.822,0.006,1.247,0.006h0.341
		c0.793,0,1.581-0.026,2.366-0.051c0.396-0.013,0.783-0.025,1.169-0.035c-0.101,0.64-0.068,1.378-0.038,2.049
		c0.013,0.286,0.025,0.558,0.025,0.833c0,1.109,0,2.966,1.562,3.39c0.294,0.08,0.57,0.12,0.824,0.12c0.46,0,0.857-0.13,1.186-0.389
		c1.12-0.887,1.053-3.011,1.003-4.562c-0.009-0.271-0.017-0.521-0.017-0.735l0.002-0.223c0-0.096-0.002-0.194-0.005-0.292
		c0.02,0.001,0.035,0.001,0.052,0.002c2.545,1.126,4.723,2.943,6.149,5.591c1.57,2.92,2.272,6.475,2.143,9.982
		c-0.812,0.006-1.643,0.014-2.46,0.03c-3.799,0.078-7.653-0.023-11.377-0.122c-1.713-0.045-3.423-0.09-5.133-0.121
		c-2.575-0.045-5.153,0.01-7.646,0.062c-2.065,0.044-4.198,0.09-6.326,0.075c0.17-1.627,0.474-3.223,0.763-4.662
		C10.799,14.799,13.646,12.393,16.516,9.341z M9.086,24.652c2.158,0.015,4.324-0.031,6.417-0.076
		c0.886-0.019,1.792-0.034,2.696-0.049c0.008,0.32,0.031,0.638,0.064,0.949c0.036,0.343,0.072,0.688,0.072,1.029
		c0,0.836,0.037,1.652,0.074,2.472l0.019,0.412c0.046,1.062-0.002,2.151-0.049,3.203c-0.049,1.104-0.1,2.245-0.044,3.384
		c0.025,0.518,0.038,1.051,0.038,1.579c-3.616-1.098-6.66-2.984-8.104-5.617C9.1,29.803,8.897,27.214,9.086,24.652z"/>
	<path d="M43.025,41.433c9.105-7.066,9.942-23.253,5.067-32.872c-3.054-6.022-8.615-7.551-14.986-8.166
		c-7.491-0.724-15.812-0.671-22.604,2.862c-0.172,0.089-0.295,0.187-0.386,0.286C-1.239,10.61-2.693,28.625,4.043,39.144
		c0.742,1.157,1.662,2.082,2.7,2.834c-0.892,0.44-1.532,1.326-1.897,2.453c-0.83,2.56,0.478,5.249,2.673,6.546
		c3.512,2.074,7.445,0.749,10.012-1.902c1.988,2.783,7.044,2.497,10.047,1.964c1.528-0.271,3.307-0.979,4.314-2.218
		c0.023-0.029,0.056-0.075,0.082-0.11c2.572,2.731,8.147,2.919,11.307,1.74c2.296-0.858,3.244-3.396,3.155-5.659
		C46.349,42.567,44.834,41.579,43.025,41.433z M5.213,36.985c-6.029-9.414-3.457-26.44,6.321-32.515
		c0.074-0.046,0.135-0.091,0.188-0.136C17.63,1.376,24.274,1.58,30.732,1.807c6.91,0.244,13.016,1.997,15.837,8.757
		c4.361,10.455,2.859,28.406-9.639,32.365c-5.003,1.585-12.645,1.416-17.777,0.925C13.393,43.303,8.502,42.12,5.213,36.985z
		 M37.02,46.708c-0.784-0.366-1.405-1.045-1.414-1.929c0.356-0.084,0.708-0.175,1.056-0.271
		C36.235,45.217,36.353,46.146,37.02,46.708z M26.367,47.395c-0.974,0.105-1.8-0.754-2.067-1.645
		c1.108,0.026,2.236,0.025,3.371-0.012C28.138,46.616,27.224,47.304,26.367,47.395z M14.05,44.956
		c0.325-0.064,0.427,0.689,0.45,0.889c0.126,1.07-1.158,1.545-2.025,1.364c-0.423-0.088-0.824-0.281-1.203-0.527
		c0.333-0.013,0.667-0.066,0.991-0.163c0.406-0.118,0.943-0.353,1.152-0.751c0.122-0.229,0.153-0.435,0.143-0.69
		c-0.003-0.079-0.083-0.248-0.18-0.431c0.148,0.03,0.298,0.057,0.447,0.085C13.614,44.885,13.563,45.055,14.05,44.956z
		 M9.753,50.569c-1.729-0.438-2.833-1.764-3.301-3.411c-0.218-0.764-0.413-4.802,1.321-4.51c1.293,0.751,2.727,1.278,4.212,1.668
		c0.363,0.512,0.996,1.788-0.12,1.919c-0.819,0.096-1.639-0.343-2.19-0.911c-0.202-0.197-1.185,0.183-1.005,0.369
		c1.541,1.51,3.45,2.669,5.588,1.629c0.743-0.361,1.271-0.913,1.308-1.764c0.009-0.218-0.031-0.4-0.104-0.55
		c0.962,0.142,1.917,0.251,2.843,0.348C17.091,49.189,13.886,51.621,9.753,50.569z M26.42,50.29c-2.52,0.282-6.635,0.19-7.744-2.44
		c-0.015-0.036-0.048-0.056-0.071-0.083c0.496-0.709,0.896-1.474,1.186-2.268c1.08,0.094,2.214,0.166,3.377,0.214
		c0.205,1.663,1.899,2.365,3.402,2.02c0.898-0.207,2.623-0.92,2.276-2.044c0.932-0.05,1.859-0.126,2.779-0.231
		c0.007,0.01,0.004,0.019,0.011,0.028c0.166,0.195-0.261,1.553-0.3,1.71c-0.005,0.022-0.018,0.041-0.024,0.063
		c-0.134,0.104-0.204,0.221-0.148,0.329c0.004,0.009,0.011,0.016,0.015,0.024C30.443,49.447,28.199,50.091,26.42,50.29z
		 M44.802,46.536c-0.229,2.461-2.372,3.68-4.714,3.729c-2.413,0.051-5.945-0.71-7.238-2.985c0.35-0.712,0.6-1.49,0.455-2.055
		c0.417-0.066,0.831-0.14,1.241-0.221c0.03,1.664,1.805,2.498,3.309,2.622c1.942,0.161,3.561-1.032,3.612-2.994
		c0.003-0.008,0.007-0.015,0.009-0.021c-0.002,0-0.004,0.001-0.006,0.001c0-0.026,0.006-0.05,0.006-0.077
		c0-0.382-0.971-0.035-1.066,0.212c-0.398,1.031-1.655,2.516-2.738,1.268c-0.44-0.505-0.207-1.563,0.356-1.872
		c0.068-0.039,0.114-0.073,0.146-0.106c0.844-0.297,1.651-0.637,2.406-1.028c0.453-0.234,0.885-0.495,1.308-0.768
		C44.402,42.148,44.985,44.542,44.802,46.536z"/>
</g>
</svg>
