<?xml version="1.0" encoding="utf-8"?>
<!-- Generator: Adobe Illustrator 15.1.0, SVG Export Plug-In . SVG Version: 6.00 Build 0)  -->
<!DOCTYPE svg PUBLIC "-//W3C//DTD SVG 1.1//EN" "http://www.w3.org/Graphics/SVG/1.1/DTD/svg11.dtd">
<svg version="1.1" id="Layer_2" xmlns="http://www.w3.org/2000/svg" xmlns:xlink="http://www.w3.org/1999/xlink" x="0px" y="0px"
	 width="52px" height="48.472px" viewBox="0 0 52 48.472" enable-background="new 0 0 52 48.472" xml:space="preserve">
<g>
	<path d="M44.279,34.341c9.808-4.637,8.998-21.383,4.213-29.244c-3.19-5.242-11.828-4.857-17.033-4.841
		c-7.204,0.021-14.264-1.074-21.252,1.11c-0.063,0.02-0.105,0.048-0.16,0.071C9.922,1.47,9.806,1.515,9.712,1.578
		c-5.578,3.696-7.541,8.48-8.877,14.904c-1.035,4.97-2.019,14.427,3.03,17.767c0.675,0.446,1.384,0.81,2.116,1.112
		c-2.105,1.205-3.285,3.416-3.458,5.99c-0.244,3.59,2.221,5.717,5.432,6.379c3.365,0.691,6.913,0.941,9.458-1.703
		c0.183-0.191,0.329-0.409,0.483-0.621c3.116,2.197,6.605,4.08,10.518,2.307c0.997-0.451,1.855-1.109,2.57-1.906
		c4.006,2.803,10.553,3.862,14.717,0.859C50.342,43.32,48.941,36.88,44.279,34.341z M38.215,40.363
		c0.725,0.85,1.825,1.044,2.883,1.164c0.243,0.027,1.192,0.14,1.241,0.089c-0.536,0.571-1.235,0.671-1.976,0.565
		c-1-0.139-1.924-0.654-2.709-1.263c-1.316-1.015-2.445-3.017-1.176-4.271c1.338-0.219,2.653-0.502,3.93-0.867
		c-0.842,0.502-1.637,1.137-1.801,1.344C37.906,38.014,37.361,39.359,38.215,40.363z M2.631,17.655
		C3.497,11.453,5.515,5.96,10.827,2.353c5.724-1.696,11.337-0.979,17.218-0.869c5.882,0.11,13.273-0.945,17.87,3.544
		c3.119,3.049,3.396,8.875,3.582,12.931c0.258,5.624-0.336,11.527-5.295,15.039c-5.64,3.993-15.722,3.095-22.193,2.771
		c-5.069-0.252-10.954,0.305-15.616-1.935C1.075,31.281,1.991,22.247,2.631,17.655z M28.111,39.698
		c-0.629,1.927-2.18,3.454-4.24,2.179c-1.052-0.65-2.04-2.021-2.28-3.225c-0.087-0.438-0.008-1.098-0.084-1.653
		c0.486,0.035,0.979,0.067,1.476,0.097c-0.037,0.852-0.199,1.721,0.066,2.547c0.273,0.853,1.237,1.211,2.06,1.043
		c1.524-0.311,1.842-2.043,1.833-3.433c0.555,0.009,1.111,0.013,1.67,0.007C28.666,38.077,28.354,38.955,28.111,39.698z
		 M25.913,37.229c0.035,0.869-0.013,2.58-0.84,2.846c-0.716,0.229-1.063-0.776-1.126-1.271c-0.069-0.544,0.013-1.1,0.053-1.646
		C24.63,37.186,25.27,37.21,25.913,37.229z M13.289,39.857c-0.603,2.002-2.584,1.854-4.299,1.608
		c1.032-0.321,2.007-0.886,2.261-1.983c0.262-1.137-0.494-2.227-1.359-3.062c0.942,0.148,1.902,0.239,2.869,0.298
		C13.502,37.55,13.624,38.744,13.289,39.857z M12.882,46.688c-3.164,0.312-6.916-0.543-8.059-3.746
		c-0.925-2.592,0.481-6.148,3.211-6.866c0.02-0.005,0.032-0.017,0.051-0.021c0.001,0,0.003,0,0.004,0
		C9,36.753,9.812,37.589,10.17,38.706c0.503,1.569-0.875,2.424-2.234,2.66c-0.15,0.026-0.927,0.344-0.421,0.411
		c1.959,0.272,4.206,0.727,5.859-0.666c1.241-1.043,1.453-3.006,0.64-4.334c1.188,0.043,2.379,0.054,3.553,0.07
		C17.558,40.467,17.547,46.229,12.882,46.688z M18.761,43.893c-0.005-0.002-0.013-0.002-0.017-0.006
		c0.859-2.162,0.884-4.818,0.889-6.99c0.26,0.011,0.52,0.021,0.777,0.035c0.164,0.504,0.095,1.28,0.125,1.674
		c0.066,0.862,0.545,1.584,1.023,2.28c0.989,1.44,2.506,2.229,4.231,2.027c1.254-0.146,2.188-1.079,2.799-2.104
		c0.523-0.882,1.087-2.344,1.062-3.564c0.459-0.01,0.92-0.026,1.381-0.047c0.59,2.228,0.189,5.058-0.836,7.219
		c-0.116,0.113-0.191,0.241-0.202,0.375c-0.095,0.18-0.187,0.363-0.288,0.531C26.872,49.898,21.594,45.975,18.761,43.893z
		 M45.389,45.062c-3.052,3.871-10.13,1.733-13.33-0.744c1.244-2.146,1.67-4.827,1.123-7.262c0.795-0.067,1.588-0.158,2.373-0.268
		c-2.658,2.932,4.478,8.193,7.86,4.587c0.11-0.119-0.017-0.165-0.131-0.171c-1.429-0.066-3.329-0.01-4.21-1.354
		c-0.551-0.84-0.18-1.869,0.316-2.623c0.116-0.18,2.061-1.855,2.172-1.572c0.099,0.246,1.098-0.08,1.021-0.273
		c-0.003-0.009-0.009-0.012-0.014-0.021C45.962,37.189,48.02,41.723,45.389,45.062z"/>
	<path d="M6,25.392c0.673,1.065,1.564,2.094,2.728,3.122c4.016,3.545,9.05,4.062,14.214,3.812c4.416-0.214,9.736,0.354,13.91-1.511
		c8.472-3.78,12.047-16.258,4.279-22.737c-4.49-3.746-13.943-2.443-19.212-2.273c-3.65,0.118-7.652,0.516-11.104,1.792
		c-0.035,0.013-0.053,0.024-0.082,0.036c-0.011,0.004-0.027,0.008-0.036,0.012c-0.013,0.006-0.024,0.015-0.037,0.021
		c-0.022,0.012-0.044,0.023-0.061,0.034c-2.956,1.466-5.268,4.369-5.85,7.612c-0.53,2.956-0.58,5.398,0.101,7.6
		c-0.005,0.021-0.015,0.042-0.019,0.064c-0.033,0.15,0.03,0.247,0.139,0.31c0.145,0.413,0.322,0.816,0.523,1.214
		c-0.006,0.025-0.019,0.046-0.022,0.073l0.064,0.009c0.126,0.243,0.262,0.483,0.41,0.722c-0.005,0.003-0.009,0.004-0.014,0.008
		C5.869,25.359,5.912,25.383,6,25.392z M20.446,18c-0.13-0.344-0.399-0.554-0.617-0.688c-0.213-0.112-0.462-0.21-0.707-0.255
		c-0.257-0.017-0.552-0.097-0.939,0.165l-0.056,0.054l-0.106,0.107c-0.058,0.072-0.102,0.144-0.13,0.224
		c-0.057,0.159-0.06,0.304-0.046,0.426c0.038,0.247,0.128,0.408,0.163,0.637c0.19-0.152,0.253-0.412,0.35-0.564
		c0.103-0.183,0.152-0.158,0.271-0.19c-0.003,0.055,0.445,0.144,0.674,0.312c0.135,0.062,0.194,0.131,0.227,0.164
		c0.048,0.029,0.067,0.138,0.077,0.317c0.003,0.233-0.032,0.562,0.03,0.875c-1.669,0.063-3.313-0.492-5.047-1.453
		c0.011-0.016,0.029-0.031,0.036-0.049c1.178-3.042,7.997-3.175,8.944,0.129c0.004,0.016,0.019,0.023,0.026,0.037
		c-1.231,0.783-2.406,1.193-3.563,1.304c0.132-0.204,0.268-0.399,0.376-0.67C20.503,18.668,20.564,18.35,20.446,18z M10.869,16.574
		c-0.02-0.997,0.178-1.835,0.555-2.536c0.276,0.221,0.553,0.537,0.806,0.828c0.153,0.176,0.301,0.346,0.442,0.49
		c0.025,0.026,0.065,0.06,0.096,0.088c-0.022,0.032-0.046,0.064-0.069,0.096c-0.248,0.358-0.506,0.719-0.77,1.074
		c-0.32-0.078-0.679-0.115-0.959-0.068C10.933,16.553,10.905,16.568,10.869,16.574z M32.48,12.837
		c-0.08,0.087-0.146,0.16-0.219,0.239c0-0.001-0.003-0.002-0.004-0.004c-0.292-0.271-0.562-0.522-0.748-0.726
		c-0.268-0.291-0.529-0.581-0.793-0.871c0.352-0.359,0.623-0.689,0.77-0.983c0.971,0.112,1.621,0.476,2.095,0.981
		c-0.021,0.17-0.292,0.526-0.837,1.085c-0.084,0.086-0.159,0.164-0.217,0.228L32.48,12.837z M30.361,11.086
		c-0.01-0.011-0.021-0.021-0.029-0.033c-0.15-0.166-0.305-0.34-0.48-0.542c0.043-0.004,0.09-0.007,0.131-0.011
		c0.334-0.036,0.638-0.047,0.922-0.044C30.773,10.644,30.584,10.859,30.361,11.086z M29.139,10.555
		c0.024,0.023,0.049,0.045,0.075,0.069c0.075,0.066,0.149,0.133,0.231,0.225c0.164,0.188,0.328,0.375,0.494,0.559
		c0.015,0.017,0.029,0.032,0.045,0.048c-0.422,0.398-0.875,0.788-1.191,1.058c-0.432,0.369-0.771,0.661-0.95,0.86
		c-0.043,0.047-0.104,0.124-0.174,0.212c-0.104-0.123-0.2-0.235-0.319-0.377c-0.227-0.264-0.471-0.55-0.716-0.84
		c0.511-0.55,0.972-1.162,1.37-1.798C28.41,10.573,28.79,10.568,29.139,10.555z M14.804,16.663c-0.222-0.363-0.656-0.75-1.221-1.214
		c-0.039-0.032-0.071-0.059-0.108-0.089c0.366-0.521,0.743-1.041,1.168-1.515c0.057-0.064,0.121-0.123,0.179-0.186
		c0.519,0.505,1.042,1.023,1.474,1.57c-0.002,0.004-0.004,0.006-0.007,0.01c-0.216,0.312-0.663,0.956-0.849,0.986
		C15.213,16.359,15.001,16.505,14.804,16.663z M17.033,11.165c0.208,0.235,0.394,0.544,0.572,0.859
		c0.188,0.332,0.383,0.674,0.617,0.935c0.028,0.032,0.066,0.066,0.097,0.099c-0.281,0.292-0.566,0.583-0.852,0.859
		c-0.231,0.224-0.462,0.448-0.689,0.678c-0.05,0.05-0.106,0.125-0.162,0.196c-0.432-0.529-0.93-1.027-1.426-1.512
		c0.097-0.099,0.19-0.201,0.287-0.298C16.033,12.424,16.598,11.847,17.033,11.165z M17.134,15.5
		c-0.059-0.093-0.127-0.182-0.192-0.273c0.08-0.109,0.152-0.204,0.21-0.262c0.224-0.227,0.453-0.448,0.682-0.669
		c0.285-0.276,0.571-0.569,0.854-0.862c0.212,0.207,0.438,0.42,0.678,0.643c0.246,0.228,0.49,0.458,0.719,0.682
		c-0.121,0.134-0.249,0.261-0.38,0.385C18.838,15.14,17.959,15.26,17.134,15.5z M20.43,14.358c-0.228-0.222-0.466-0.446-0.705-0.668
		c-0.239-0.222-0.463-0.434-0.672-0.638c0.592-0.659,1.104-1.373,1.595-2.086c0.268,0.295,0.531,0.595,0.789,0.89
		c0.198,0.226,0.405,0.455,0.609,0.683c-0.484,0.43-0.891,0.919-1.274,1.402C20.657,14.084,20.543,14.219,20.43,14.358z
		 M20.454,15.135c0.017,0.018,0.034,0.035,0.049,0.053c-0.03-0.003-0.061-0.007-0.091-0.01C20.425,15.163,20.44,15.15,20.454,15.135
		z M21.292,15.31c-0.129-0.181-0.3-0.375-0.489-0.574c0.129-0.156,0.259-0.312,0.383-0.468c0.386-0.485,0.762-0.938,1.212-1.337
		c0.332,0.36,0.676,0.714,1.038,1.05l0.307,0.28c0.002,0.002,0.005,0.004,0.008,0.006c-0.212,0.195-0.415,0.406-0.607,0.617
		c-0.257,0.283-0.51,0.538-0.78,0.752C22.027,15.498,21.667,15.39,21.292,15.31z M24.146,13.915
		c-0.016-0.015-0.033-0.03-0.049-0.044l-0.303-0.276c-0.347-0.322-0.679-0.665-1.001-1.013c0.66-0.546,1.339-1.15,1.849-1.863
		c0.287,0.413,0.725,0.959,1.279,1.623c-0.139,0.138-0.276,0.28-0.419,0.406c-0.324,0.287-0.658,0.571-0.99,0.854
		C24.389,13.706,24.268,13.811,24.146,13.915z M23.534,15.24c0.204-0.224,0.398-0.431,0.604-0.616
		c0.554,0.515,1.175,1.136,1.433,1.664c-0.498,0.601-0.953,1.092-1.177,1.188c-0.316-0.683-0.844-1.207-1.513-1.582
		C23.11,15.687,23.328,15.466,23.534,15.24z M24.426,17.553c-0.003-0.007-0.007-0.016-0.01-0.023c0.009,0.004,0.013,0,0.022,0.007
		L24.426,17.553z M24.537,14.274c0.105-0.091,0.21-0.181,0.317-0.271c0.335-0.285,0.672-0.571,0.999-0.861
		c0.14-0.124,0.273-0.263,0.409-0.397c0.217,0.257,0.443,0.523,0.685,0.807c0.13,0.152,0.263,0.308,0.396,0.463
		c-0.059,0.075-0.116,0.152-0.18,0.237c-0.278,0.368-0.751,0.993-1.235,1.599C25.602,15.312,25.057,14.759,24.537,14.274z
		 M26.291,11.96c-0.446-0.534-0.864-1.05-1.147-1.441c0.795,0.018,1.549,0.037,2.247,0.047
		C27.062,11.058,26.688,11.526,26.291,11.96z M22.44,12.188c-0.203-0.228-0.409-0.455-0.607-0.681
		c-0.286-0.326-0.579-0.656-0.877-0.984c0.002-0.002,0.004-0.005,0.006-0.009c1.078-0.036,2.158-0.032,3.194-0.015
		C23.683,11.13,23.052,11.682,22.44,12.188z M20.247,10.545c0.01,0.01,0.02,0.02,0.029,0.03c-0.493,0.72-1.007,1.441-1.594,2.097
		c-0.021-0.021-0.048-0.047-0.067-0.068c-0.196-0.217-0.368-0.521-0.551-0.841c-0.19-0.336-0.388-0.671-0.625-0.944
		C18.342,10.68,19.288,10.594,20.247,10.545z M15.103,12.607c-0.098,0.098-0.191,0.201-0.289,0.299
		c-0.347-0.34-0.677-0.688-0.985-1.042c0.794-0.39,1.707-0.675,2.693-0.879C16.129,11.57,15.631,12.079,15.103,12.607z
		 M13.351,12.119c0.341,0.401,0.711,0.791,1.096,1.168c-0.065,0.069-0.135,0.134-0.199,0.206c-0.43,0.481-0.808,1-1.174,1.519
		c-0.008-0.007-0.02-0.017-0.027-0.024c-0.134-0.137-0.274-0.298-0.419-0.466c-0.283-0.326-0.594-0.681-0.929-0.937
		C12.12,12.991,12.683,12.511,13.351,12.119z M13.132,15.841c0.012-0.017,0.024-0.034,0.036-0.051
		c0.028,0.023,0.051,0.043,0.08,0.067c0.367,0.301,1.005,0.825,1.159,1.144c-0.217,0.217-0.394,0.457-0.546,0.709
		c-0.444-0.27-0.893-0.557-1.352-0.871c-0.021-0.014-0.054-0.024-0.077-0.037C12.668,16.48,12.91,16.162,13.132,15.841z
		 M27.584,14.57c0.037-0.049,0.07-0.094,0.105-0.142c0.302,0.357,0.553,0.666,0.687,0.85c-0.749,0.259-1.472,0.612-2.153,1.046
		C26.618,15.835,27.064,15.258,27.584,14.57z M28.018,13.997c0.096-0.121,0.174-0.22,0.219-0.272c0.154-0.172,0.5-0.468,0.9-0.81
		c0.443-0.38,0.848-0.735,1.202-1.069c0.261,0.286,0.519,0.571,0.781,0.857c0.194,0.212,0.478,0.474,0.778,0.755
		c0.004,0.003,0.009,0.008,0.013,0.012c-0.336,0.383-0.629,0.747-0.993,1.275l0.01,0.006c-0.683,0.053-1.361,0.176-2.027,0.367
		C28.775,14.915,28.514,14.583,28.018,13.997z M32.297,13.832c0.365,0.346,0.713,0.701,0.926,1.002
		c-0.539-0.086-1.088-0.118-1.637-0.112C31.827,14.391,32.055,14.11,32.297,13.832z M32.646,13.438
		c0.074-0.081,0.143-0.156,0.224-0.245l0.047-0.051c0.056-0.06,0.126-0.133,0.206-0.214c0.346-0.354,0.641-0.683,0.818-0.989
		c0.729,1.091,0.99,2.562,1.775,3.66c-0.597-0.281-1.219-0.491-1.857-0.637l0.035-0.013C33.73,14.508,33.201,13.962,32.646,13.438z
		 M40.023,16.516c-0.446-0.096-1.271,0.157-1.613,0.436c-0.955-1.131-2.264-2.246-2.43-3.344c-0.347-2.279-1.736-3.935-4.274-3.916
		c-5.473,0.04-22.427-2.305-21.873,7.211c-0.166,0.075-0.323,0.158-0.471,0.249c-5.596-9.934,16.955-8.67,22.521-8.907
		c5.557-0.237,8.33,0.755,8.186,6.667C40.055,15.455,40.041,15.988,40.023,16.516z M13.556,18.763
		c1.724,1.522,3.699,1.601,5.885,1.581c1.715-0.015,3.077-0.564,4.541-1.392c0.748-0.423,1.443-1.273,2.047-1.87
		c0.823-0.815,1.767-1.349,2.759-1.659l0.139,0.11c0.048-0.06,0.079-0.109,0.072-0.183c3.194-0.888,6.866,0.564,8.856,3.036
		c0.002,0.004,0.011,0.005,0.015,0.009c0.935,1.528,1.335,3.126,0.935,5.453c-0.011,0.063-0.003,0.115,0.014,0.16
		c-0.266,0.688-0.571,1.374-0.975,2.058c-2.389,4.063-11.029,2.9-15.026,2.92c-3.742,0.021-7.2-0.291-10.458-1.853
		c0.071-0.268,0.137-0.608,0.186-0.984c0.956,0.059,1.918,0.27,2.866,0.379c0.291,0.035,0.992,0.188,1.457,0.088
		c0.089,0.089,0.188,0.195,0.3,0.316c0.391,0.422,0.835,0.901,1.213,1.066c0.157,0.068,0.3,0.096,0.427,0.096
		c0.205,0,0.368-0.07,0.483-0.146c0.41-0.271,0.651-0.894,0.8-1.561l0.478-0.003c0.91-0.009,1.769-0.017,2.581,0.208
		c0.702,0.193,1.342,0.289,1.986,0.289c0.491,0,0.985-0.055,1.509-0.165l0.155-0.032c0.88-0.183,1.876-0.389,2.439-1.349
		c0.646-1.097,0.347-2.284-0.817-3.259c-0.801-0.67-1.956-0.844-3.166-0.477l-0.146,0.044c-1.155,0.352-1.991,0.606-3.181,0.219
		c-0.948-0.308-1.969-0.423-3.21-0.359c-0.991,0.051-1.751,0.289-2.556,0.54l-0.412,0.127c-0.901,0.275-1.841,0.222-2.834,0.166
		c-0.748-0.042-1.52-0.084-2.274,0.023c-0.615,0.089-1.177,0.3-1.722,0.504c-0.296,0.111-0.595,0.224-0.907,0.318
		c-0.137,0.042-0.313,0.078-0.507,0.118c-0.271,0.056-0.573,0.121-0.862,0.212c-0.034-0.12-0.06-0.247-0.07-0.391
		C6.558,22.861,6.533,22.48,6.6,22.157c0.651-1.375,2.284-2.424,3.757-1.848c0.542,0.212,1.788-0.568,0.916-0.91
		c-1.299-0.508-2.827-0.217-4.08,0.536C9.164,18.452,10.943,16.456,13.556,18.763z M11.092,26.45
		c-0.202-0.243-0.384-0.518-0.568-0.8c-0.214-0.328-0.448-0.65-0.713-0.945c0.495-0.27,1.297-0.252,2.206-0.127
		c0.145,0.364,0.042,1.619-0.131,2.332C11.619,26.771,11.356,26.607,11.092,26.45z M12.564,24.663
		c1.128,0.193,2.351,0.488,3.335,0.588c0.038,0.066,0.08,0.127,0.118,0.193c0.174,0.301,0.37,0.603,0.611,0.892
		c-0.004,0-0.007,0.001-0.012,0.001c-0.238-0.003-0.476-0.029-0.712-0.053c-0.445-0.044-0.889-0.106-1.332-0.167
		c-0.658-0.09-1.328-0.223-1.993-0.252C12.622,25.432,12.624,25.005,12.564,24.663z M17.198,26.202
		c-0.279-0.273-0.47-0.589-0.663-0.921c0.275-0.002,0.524-0.027,0.721-0.096c0.866-0.3,1.699-0.475,2.522-0.573
		c-0.048,1.123-0.272,2.566-0.777,2.898c-0.081,0.051-0.201,0.102-0.41,0.008c-0.277-0.119-0.716-0.595-1.037-0.941
		C17.421,26.433,17.3,26.301,17.198,26.202z M20.308,24.558c1.484-0.112,2.948,0.032,4.512,0.26
		c0.874,0.128,1.351-0.048,2.163-0.298c0.598-0.185,0.478-0.67-0.131-0.482c-2.208,0.681-4.441-0.619-6.655-0.325
		c-0.448,0.06-0.914,0.126-1.331,0.303c-1.938,0.823-3.677,0.221-5.583-0.252c-1.149-0.285-2.881-0.289-3.994,0.423l-0.027-0.024
		l-0.019,0.05c-0.233,0.156-0.445,0.334-0.607,0.561c-0.538-0.294-1.083-0.57-1.647-0.809c0.212-0.057,0.43-0.104,0.627-0.145
		c0.212-0.043,0.404-0.083,0.554-0.129c0.323-0.098,0.632-0.214,0.939-0.329c0.542-0.204,1.053-0.396,1.611-0.476
		c0.703-0.102,1.449-0.061,2.169-0.019c0.997,0.055,2.026,0.114,3.018-0.188l0.415-0.129c0.805-0.252,1.501-0.469,2.425-0.517
		c1.178-0.059,2.134,0.046,3.021,0.334c1.346,0.438,2.344,0.136,3.497-0.217l0.146-0.044c1.036-0.315,2.011-0.177,2.674,0.377
		c0.556,0.465,1.386,1.419,0.7,2.586c-0.444,0.758-1.245,0.923-2.092,1.099l-0.156,0.033c-1.14,0.239-2.081,0.206-3.247-0.116
		c-0.883-0.244-1.82-0.236-2.726-0.227l-0.373,0.002C20.265,25.365,20.296,24.897,20.308,24.558z M6.435,20.476
		c-0.006-0.001-0.012-0.002-0.018-0.003c0.03-0.019,0.06-0.037,0.091-0.057C6.483,20.437,6.458,20.455,6.435,20.476z M11.242,7.796
		c4.353-1.587,9.479-1.627,14.013-1.658c4.808-0.033,10.74-0.301,14.917,2.285c7.405,4.586,4.127,16.988-1.639,21.118
		c-3.91,2.8-11.967,2.299-16.712,2.418c-4.664,0.117-8.497-0.926-12.13-3.792c-1.048-0.827-1.903-1.86-2.587-3.006
		c0.964-0.017,3.503,1.981,4.021,2.319c1.629,1.065,3.735,1.412,5.601,1.74c4.569,0.807,10.765,0.701,15.389,0.165
		c3.9-0.45,6.214-2.504,7.519-5.31c0.107-0.071,0.188-0.169,0.209-0.292c0.017-0.094,0.017-0.176,0.029-0.268
		c1.052-2.598,1.328-5.753,1.218-8.877c-0.132-3.712-0.261-6.757-4.822-6.862C30.324,7.641,24.346,7.882,18.4,8.012
		c-4.568,0.099-13.753,3.221-9.945,9.624c0.026,0.043,0.083,0.062,0.149,0.071c-1.023,0.899-1.789,2.068-3.184,2.812
		C4.613,15.574,6.438,10.142,11.242,7.796z"/>
</g>
</svg>
