<?xml version="1.0" encoding="utf-8"?>
<!-- Generator: Adobe Illustrator 15.1.0, SVG Export Plug-In . SVG Version: 6.00 Build 0)  -->
<!DOCTYPE svg PUBLIC "-//W3C//DTD SVG 1.1//EN" "http://www.w3.org/Graphics/SVG/1.1/DTD/svg11.dtd">
<svg version="1.1" id="Layer_2" xmlns="http://www.w3.org/2000/svg" xmlns:xlink="http://www.w3.org/1999/xlink" x="0px" y="0px"
	 width="52px" height="46.396px" viewBox="0 0 52 46.396" enable-background="new 0 0 52 46.396" xml:space="preserve">
<g>
	<path d="M12.268,28.181c6.316,5.403,18.917,5.461,25.655,0.675c6.074-4.315,9.201-17.604,1.645-21.972
		c-3.749-2.167-10.112-1.222-14.134-1.276c-3.009-0.041-6.837,0.079-9.392,1.922C8.191,11.213,5.107,22.053,12.268,28.181z
		 M21.329,30.699c0.004-0.029,0.021-0.052,0.02-0.082c-0.094-4.058-0.521-8.73-2.506-12.337c-0.592-1.076-1.468-1.705-2.48-2.07
		c2.091,0.263,3.909,1.051,4.731,3.197c1.32,3.444,1.198,7.798,1.206,11.448C21.975,30.806,21.647,30.759,21.329,30.699z
		 M30.128,19.507c1.271-2.471,3.636-3.341,6.228-3.405c-0.913,0.262-1.737,0.7-2.369,1.407c-1.698,1.899-2.897,4.048-3.148,6.611
		c-0.215,2.174,0.5,4.583-0.084,6.728c-0.782,0.138-1.58,0.232-2.386,0.286c0-0.004,0.005-0.011,0.005-0.015
		C28.142,27.383,28.396,22.87,30.128,19.507z M32.289,30.514c0.632-2.389-0.084-5.182,0.153-7.595
		c0.177-1.786,1.357-3.451,2.374-4.842c1.748-2.39,5.002-1.576,7.367-1.2c0.033,0.006,0.084,0,0.132-0.005
		c-0.059,3.493-1.244,7.132-3.167,9.531C37.47,28.496,35.03,29.801,32.289,30.514z M34.191,6.805
		c0.854,1.149-0.485,2.804-1.165,3.642c-1.229,1.513-3.817,1.732-5.62,1.781c-0.535,0.015-1.047-0.024-1.544-0.094
		c1.249-0.897,1.01-4.63,0.337-5.83C29.112,6.343,32.024,6.656,34.191,6.805z M25.095,6.303c-0.033,0.054-0.043,0.108,0.003,0.159
		c0.586,0.643,0.566,1.789,0.574,2.601c0.006,0.602-0.058,1.205-0.16,1.797c-0.034,0.19-0.083,0.376-0.134,0.562
		c-0.03,0.102-0.066,0.202-0.107,0.301c-0.062,0.084-0.076,0.134-0.069,0.167c-0.056,0.022-0.108,0.048-0.158,0.076
		c-2.518-0.623-4.387-2.398-5.051-5.088C21.533,6.486,23.291,6.327,25.095,6.303z M16.761,8.333
		c0.041-0.019,0.061-0.042,0.095-0.062c0.024-0.014,0.052-0.021,0.074-0.037c0.456-0.342,0.981-0.622,1.55-0.86
		c1.288,5.073,6.449,6.326,11.224,5.54c2.012-0.332,7.198-3.091,6.374-5.857c3.954,0.922,5.823,4.302,6.177,8.155
		c-0.635-0.06-1.315-0.034-1.992,0.017c-0.751,0-1.503,0.002-2.255-0.004c-0.503-0.017-1.007-0.017-1.515-0.012
		c-0.052,0-0.114,0.016-0.18,0.037c-0.003,0-0.004-0.001-0.007-0.001c-0.087,0-0.213,0.039-0.335,0.093
		c-1.604,0.106-3.096,0.573-4.556,1.423c-4.601,2.681-4.848,9.698-4.585,14.428c-0.999,0.006-1.997-0.041-2.983-0.14
		c-0.017-3.85,0.276-9.268-1.532-12.81c-2.115-4.142-7.535-3.199-11.509-3.2C11.883,12.163,13.941,9.638,16.761,8.333z
		 M10.229,17.038c1.25-0.057,2.493-0.126,3.747-0.058c2.461,0.134,3.558,1.783,4.338,3.903c1.056,2.87,1.388,6.423,1.476,9.479
		c-1.547-0.383-2.982-0.88-4.217-1.461C10.775,26.646,9.275,21.649,10.229,17.038z"/>
	<path d="M45.291,32.039c4.672-3.364,6.577-8.311,6.486-14.256c-0.1-6.425-2.018-13.144-8.183-16.011
		c-6.503-3.025-15.76-1.213-22.626-1.428c-3.709-0.116-9.746-0.671-12.642,2.267C8.213,2.654,8.11,2.705,8.015,2.762
		c-0.03,0.014-0.058,0.029-0.084,0.046C7.925,2.812,7.919,2.815,7.913,2.82C7.891,2.834,7.865,2.848,7.846,2.864
		c-8.674,7.242-10.971,21.6-2.729,30.054c0.384,0.395,0.795,0.748,1.218,1.083c-4.423,2.402-4.906,10.28,0.609,11.752
		c2.242,0.6,5.203,0.395,7.505,0.296c1.464-0.062,2.801-0.563,4.069-1.258c0.626-0.341,1.229-0.886,1.751-1.543
		c1.079,1.495,2.196,2.394,4.272,2.85c1.984,0.436,4.112,0.395,6.069-0.13c1.458-0.39,2.549-1.331,3.279-2.533
		c3.989,3.902,11.016,1.827,14.706-1.611c2.018-1.88,2.142-4.711,1.041-7.117C48.803,32.883,47.093,32.135,45.291,32.039z
		 M3.919,27.918C-0.297,20.062,2.584,9.552,8.953,3.79c0.331-0.103,0.638-0.3,0.807-0.525c2.615-3.496,13.774-1.501,17.383-1.489
		c6.196,0.021,12.815-1.184,18.063,2.999c4.172,3.327,4.662,11.083,4.508,15.902c-0.219,6.834-5.159,11.029-11.087,13.504
		c-5.975,2.499-13.828,2.503-20.163,2.207C12.218,36.095,6.913,33.495,3.919,27.918z M40.998,39.346
		c1.113,0.456,2.339,0.173,3.413-0.344c-0.117,0.977-0.591,1.796-1.497,2.318c-1.42,0.817-2.985-0.43-3.721-1.533
		c-0.974-1.463-0.712-3.365,0.245-4.744c0.468-0.175,0.936-0.359,1.4-0.56C39.977,35.896,39.015,38.532,40.998,39.346z
		 M28.183,38.826c0.069,0.482-0.175,1.5-0.868,1.292c-0.79-0.236-0.706-1.907-0.511-2.616c0.287-0.021,0.572-0.045,0.858-0.067
		C27.938,37.855,28.112,38.324,28.183,38.826z M13.85,38.402c-0.076,0.722-0.813,1.235-1.35,1.613
		c-1.174,0.83-2.164,0.68-3.167,0.271c0.601-0.021,1.17-0.167,1.612-0.599c0.909-0.881,1.055-2.016,0.587-3.045
		c0.632,0.193,1.274,0.359,1.926,0.495c0.069,0.082,0.208,0.121,0.406,0.078c0.018,0.002,0.037,0.006,0.055,0.01
		C13.753,37.369,13.868,38.231,13.85,38.402z M7.893,44.984c-4.492-0.524-4.431-8.521-0.916-10.492
		c0.942,0.657,1.961,1.191,3.032,1.621c0.008,0.029,0.012,0.058,0.037,0.086c0.688,0.796,0.979,1.764,0.526,2.76
		c-0.543,1.202-2.417,0.522-3.351,0.398c-0.218-0.028-1.045,0.391-0.59,0.58c1.229,0.512,2.31,1.292,3.654,1.463
		c1.149,0.144,2.446-0.651,3.296-1.34c0.82-0.664,1.375-1.311,1.327-2.402c-0.004-0.092-0.012-0.181-0.023-0.265
		c1.726,0.261,3.483,0.363,5.194,0.376c0.556,1.122,0.294,2.484-0.239,3.701c-0.263,0.149-0.426,0.382-0.31,0.641
		c-0.259,0.487-0.55,0.935-0.83,1.313C16.727,46.09,10.775,45.319,7.893,44.984z M29.269,45.234
		c-1.484,0.264-3.14,0.033-4.594-0.285c-1.81-0.398-2.64-1.681-3.516-3.091c0.669-1.327,0.966-2.835,0.572-4.102
		c0.446-0.01,0.888-0.024,1.322-0.043c0.919-0.039,1.831-0.086,2.738-0.142c-0.312,1.212-0.158,3.189,1.347,3.277
		c0.856,0.05,1.804-0.542,2.014-1.394c0.177-0.713-0.008-1.475-0.355-2.124c1.391-0.138,2.765-0.318,4.124-0.557
		C34.242,40.046,33.129,44.555,29.269,45.234z M47.829,41.158c-2.92,4.124-10.105,5.034-13.26,0.862
		c-0.003-0.004-0.012-0.004-0.016-0.01c0.607-1.786,0.582-3.845-0.072-5.538c1.276-0.273,2.539-0.605,3.785-1.019
		c-1.34,2.353-0.577,5.56,2.281,6.449c2.38,0.74,4.92-1.204,4.931-3.614c0.001-0.283-0.817,0.037-0.905,0.095
		c-1.19,0.765-2.753,1.116-3.501-0.357c-0.662-1.305,0.195-2.907,0.943-3.96c0.04-0.055,0.033-0.094,0.008-0.125
		c0.456-0.22,0.91-0.448,1.362-0.696c0.258-0.142,0.5-0.292,0.744-0.44C48.236,32.81,50.138,37.896,47.829,41.158z"/>
</g>
</svg>
