<?xml version="1.0" encoding="utf-8"?>
<!-- Generator: Adobe Illustrator 15.1.0, SVG Export Plug-In . SVG Version: 6.00 Build 0)  -->
<!DOCTYPE svg PUBLIC "-//W3C//DTD SVG 1.1//EN" "http://www.w3.org/Graphics/SVG/1.1/DTD/svg11.dtd">
<svg version="1.1" id="Layer_2" xmlns="http://www.w3.org/2000/svg" xmlns:xlink="http://www.w3.org/1999/xlink" x="0px" y="0px"
	 width="52px" height="48.338px" viewBox="0 0 52 48.338" enable-background="new 0 0 52 48.338" xml:space="preserve">
<g>
	<path d="M50.383,27.584c3.794-6.278,0.285-14.667-2.006-20.851C45.826-0.149,37.849,0.577,31.8,0.4
		c-4.914-0.144-9.73-1.021-14.507,0.395C5.33,3.995-3.532,17.704,1.384,29.851c0.868,2.143,2.205,3.702,3.82,4.847
		c-5.209,3.679-4.601,11.47,1.958,12.977c4.093,0.94,7.599-0.562,9.784-3.302c2.87,3.938,8.16,4.647,12.724,3.415
		c1.926-0.519,3.229-1.729,4.204-3.39c2.604,3.704,10.539,3.417,13.604,0.926c4.08-3.316,3.847-10.852-1.497-12.524
		C47.687,31.337,49.171,29.589,50.383,27.584z M17.624,2.03c3.169-0.939,6.24-0.701,9.507-0.449
		c5.535,0.426,13.963-1.077,17.954,3.489c3.076,3.519,4.781,12.191,4.948,16.707c0.267,7.189-6.828,12.375-12.948,14.043
		c-5.154,1.406-10.722,1.079-15.983,0.65c-0.769-0.062-1.535-0.104-2.295-0.14c0,0-0.001-0.001-0.001-0.001
		c-5.063-0.237-9.883-0.214-13.677-4.429C-4.008,21.752,6.831,4.917,17.624,2.03z M28.82,39.905
		c-0.103,0.906-0.475,2.693-1.687,2.699c-2.02,0.01-1.41-2.842-1.083-4.554c0.994,0.007,1.987-0.002,2.98-0.035
		C29.063,38.584,28.847,39.648,28.82,39.905z M13.751,40.424c-1.009,1.381-2.306,1.411-3.447,0.806
		c1.645-0.131,2.877-1.73,2.534-3.844c0.607,0.082,1.217,0.147,1.828,0.194C14.872,38.628,14.365,39.585,13.751,40.424z
		 M7.271,46.525c-5.47-1.257-4.889-8.421-1.085-11.2c1.716,0.98,3.678,1.57,5.714,1.917c-0.09,0.051-0.145,0.106-0.133,0.159
		c0.188,0.852,0.194,1.617-0.107,2.451c-0.513,1.418-1.981,0.86-2.823,0.173c-0.184-0.15-1.064,0.235-1.001,0.308
		c0.009,0.012,0.021,0.021,0.03,0.031c0,0-0.001,0-0.001,0c0.002,0.002,0.004,0.003,0.006,0.005c1.256,1.425,2.87,2.104,4.719,1.46
		c1.608-0.559,3.265-2.377,3.14-4.181c0.036,0.001,0.072,0.004,0.108,0.006c0.648,0.031,1.294,0.064,1.94,0.098
		C17.755,43.58,13.414,47.936,7.271,46.525z M28.598,47.058c-4.032,1.089-8.524-0.446-10.673-3.99
		c-0.016-0.026-0.045-0.038-0.066-0.06c0.862-1.521,1.385-3.289,1.463-5.179c1.92,0.096,3.831,0.176,5.737,0.208
		c-0.17,1.11-0.464,2.197-0.348,3.339c0.139,1.358,1.439,2.051,2.7,1.836c1.235-0.21,2.109-1.496,2.339-2.656
		c0.129-0.649,0.17-1.324,0.218-1.982c0.011-0.122,0.044-0.363,0.059-0.605c1.191-0.06,2.383-0.161,3.573-0.304
		c0.346,1.184-0.058,2.507-0.306,3.67C32.664,44.281,31.684,46.225,28.598,47.058z M48.415,41.899
		c-0.868,3.322-4.237,4.351-7.328,4.239c-2.111-0.076-5.42-0.921-6.243-3.219c-0.035-0.101-0.12-0.161-0.221-0.203
		c0.573-1.681,0.904-3.828,0.562-5.265c0.743-0.115,1.487-0.238,2.23-0.396c0.562-0.12,1.104-0.278,1.641-0.441
		c-0.831,1.471-0.791,3.303,1.006,4.319c1.142,0.646,2.413,0.612,3.393-0.286c0.691-0.634,1.69-2.271,0.36-2.754
		c-0.288-0.104-1.225,0.327-0.827,0.471c0.875,0.316,0.279,1.322-0.073,1.824c-0.793,1.135-1.988,0.434-2.715-0.351
		c-0.85-0.915-0.763-2.463-0.096-3.583c1.76-0.646,3.388-1.516,4.854-2.611C48.448,34.721,49.269,38.627,48.415,41.899z"/>
	<path d="M8.667,27.874c0.371,0.168,0.753,0.341,1.026,0.562l0.121,0.167l0.088,0.088c0.223,0.162,0.517,0.777,0.692,1.145
		c0.138,0.288,0.22,0.457,0.304,0.565c0.602,0.781,1.219,1.137,1.934,1.549c1.865,1.074,3.542,1.227,5.484,1.404l0.524,0.048
		c1.815,0.172,3.674,0.259,5.525,0.259c1.045,0,2.105-0.028,3.152-0.083c0.64-0.032,1.287-0.021,1.933-0.014
		c0.314,0.005,0.629,0.011,0.94,0.011c0.627,0,1.131-0.021,1.587-0.065c0.858-0.084,1.701-0.249,2.532-0.424
		c0.013-0.005,0.025-0.004,0.038-0.008c0.002,0,0.002-0.001,0.002-0.001c0.23-0.049,0.466-0.095,0.693-0.144
		c0.464-0.101,0.929-0.202,1.395-0.293c3.19-0.618,5.36-2.646,7.06-4.549c1.57-1.755,1.521-4.043,1.471-6.257
		c-0.02-0.908-0.038-1.766,0.048-2.587c0.405-3.842,0.079-6.692-0.996-8.712c-0.635-1.191-1.655-2.478-2.875-3.624
		c-0.029-0.026-2.899-2.687-3.917-2.899l-0.765-0.328c-0.447-0.245-1.043-0.363-1.82-0.363c-0.687,0-1.413,0.088-2.115,0.174
		c-0.592,0.072-1.149,0.141-1.589,0.141c-3.052,0-5.9,0.313-8.961,0.986C19.75,5.155,17.43,6.709,15.383,8.08
		c-0.395,0.265-0.783,0.524-1.164,0.771L13.708,9.18c-2.043,1.299-5.463,3.474-5.086,6.106c0.097,0.682,0.657,1.121,1.108,1.473
		c0.28,0.22,0.599,0.469,0.603,0.642c0.001,0.059-0.035,0.23-0.401,0.545c-0.377,0.325-0.853,0.419-1.312,0.511
		c-0.799,0.159-1.795,0.358-1.8,1.946v0.667c0,1.625,0.069,3.235,0.134,4.617C7.019,27.132,7.895,27.526,8.667,27.874z
		 M32.907,17.739c0.09-1.057,0.204-2.081,0.606-3.006c0.212-0.492,0.644-0.927,1.058-1.349c0.123-0.125,0.244-0.247,0.36-0.371
		c0.402-0.431,0.772-0.897,1.131-1.349l0.131-0.165c0.312-0.396,0.598-0.713,0.967-0.972c0.256-0.18,0.487-0.315,0.701-0.413
		c0.038-0.017,0.077-0.023,0.132-0.032c0.098-0.017,0.243-0.042,0.379-0.145c0.491,0.26,0.964,0.554,1.399,0.861
		c-0.846,0.6-1.664,1.391-2.293,2.251c-0.235,0.323-0.481,0.629-0.725,0.932c-0.721,0.898-1.464,1.829-1.854,3.083
		c-0.271,0.878-0.294,1.739-0.296,2.694c0,0.226,0.035,0.489,0.071,0.76c0.021,0.142,0.037,0.288,0.052,0.432
		c-0.62-0.051-1.247-0.056-1.847,0.048C32.816,19.738,32.793,19.079,32.907,17.739z M36.843,19.965
		c-0.12,0.17-0.269,0.507-0.501,1.041c-0.02,0.045-0.044,0.103-0.067,0.153c-0.012-0.002-0.017-0.008-0.031-0.01
		c-0.229-0.038-0.468-0.075-0.71-0.109c-0.013-0.212-0.037-0.426-0.064-0.628c-0.031-0.232-0.064-0.458-0.064-0.651
		c0.002-0.889,0.022-1.688,0.261-2.459c0.343-1.11,1.01-1.941,1.713-2.82c0.25-0.312,0.502-0.627,0.746-0.96
		c0.622-0.852,1.477-1.659,2.317-2.216c0.169,0.135,0.331,0.27,0.481,0.403c0.756,0.674,1.109,1.612,1.276,2.639
		c-0.066,0.042-0.144,0.087-0.213,0.121c-0.782,0.372-1.426,0.702-2.018,1.272c-0.541,0.523-0.958,1.168-1.357,1.793
		c-0.129,0.197-0.254,0.393-0.381,0.581c-0.228,0.333-0.471,0.645-0.717,0.958C37.287,19.364,37.06,19.656,36.843,19.965z
		 M30.775,22.147c-0.239,0.222-0.46,0.474-0.679,0.754c-0.871,0.433-1.656,1.021-2.414,1.604c-0.796,0.611-1.619,1.244-2.519,1.65
		c-0.82,0.369-1.463,0.311-2.277,0.237c-0.248-0.023-0.506-0.046-0.785-0.061c-0.742-0.036-1.497-0.023-2.229-0.01
		c-0.801,0.016-1.598,0.018-2.36,0.076c-0.652,0.052-1.269,0.1-1.906,0.006c-0.714-0.104-1.185-0.396-1.781-0.765
		c-0.213-0.132-0.435-0.269-0.678-0.404c-0.308-0.171-0.62-0.358-0.934-0.546c-0.548-0.329-1.116-0.669-1.679-0.93
		c-0.293-0.136-0.609-0.148-0.887-0.158c-0.227-0.008-0.44-0.016-0.588-0.087c-0.1-0.049-0.204-0.306-0.224-0.476
		c0.275-0.093,0.811-0.066,1.096-0.049c0.083,0.006,0.142,0.008,0.203,0.01c0.681,0.768,2.094,0.984,3.258,1.157
		c0.346,0.052,0.651,0.097,0.869,0.149c0.784,0.741,2.786,0.764,3.021,0.764c0.529,0,1.047-0.017,1.565-0.034
		c0.584-0.019,1.168-0.039,1.762-0.032c0.419,0.004,0.863,0.079,1.333,0.158c0.51,0.085,1.031,0.173,1.55,0.173
		c0.246,0,0.492-0.02,0.735-0.069c0.818-0.165,1.551-0.772,2.198-1.308c0.253-0.21,0.497-0.413,0.73-0.574
		c0.592-0.408,1.231-0.596,1.909-0.796c0.204-0.061,0.41-0.121,0.616-0.188l0.156-0.051c0.314-0.103,0.662-0.213,1.015-0.318
		C30.821,22.069,30.794,22.108,30.775,22.147z M10.601,28.271c-0.059-0.068-0.116-0.14-0.179-0.19l-0.144-0.184
		c-0.026-0.023-0.055-0.034-0.082-0.057c0.136-0.222,0.246-0.465,0.349-0.707c0.111-0.259,0.216-0.504,0.345-0.681
		c0.081-0.111,0.177-0.208,0.273-0.305c0.098-0.1,0.195-0.201,0.285-0.312c0.044-0.055,0.115-0.163,0.187-0.275
		c0.049-0.077,0.097-0.15,0.136-0.205c0.01,0.006,0.021,0.012,0.03,0.018c0.322,0.193,0.642,0.385,0.958,0.56
		c0.231,0.128,0.442,0.259,0.645,0.384c0.139,0.086,0.278,0.171,0.417,0.252c0.037,0.388-0.58,1.072-1.143,1.401
		c-0.56,0.325-1.264,0.315-2.007,0.3L10.601,28.271z M7.75,25.649c-0.009-0.203-0.019-0.419-0.028-0.63
		c0.464,0.154,1.077,0.155,1.624,0.154c0.256,0.002,0.489,0,0.687,0.014c0.004,0.028,0.008,0.057,0.012,0.084
		c0.008,0.062,0.012,0.125,0.02,0.188c0,0.097,0,0.195,0,0.292c0,0.014,0.009,0.022,0.01,0.036
		c-0.003,0.084-0.003,0.174-0.031,0.231l0.139,0.068c-0.147,0.228-0.264,0.482-0.373,0.733c-0.088,0.206-0.18,0.412-0.284,0.584
		c-0.181-0.094-0.362-0.182-0.531-0.258C8.247,26.808,7.795,26.605,7.75,25.649z M31.901,32.713
		c-0.651,0.062-1.528,0.062-2.438,0.052c-0.664-0.011-1.33-0.021-1.985,0.015c-2.864,0.149-5.76,0.09-8.561-0.174l-0.527-0.049
		c-1.924-0.175-3.444-0.313-5.157-1.301c-0.763-0.439-1.218-0.718-1.7-1.344c-0.054-0.071-0.125-0.231-0.216-0.422
		c-0.063-0.132-0.13-0.271-0.202-0.412c0.675,0,1.353-0.058,1.967-0.415c0.544-0.318,1.293-1.002,1.488-1.725
		c0.277,0.112,0.572,0.206,0.92,0.256c0.306,0.045,0.604,0.062,0.898,0.062c0.404,0,0.799-0.031,1.186-0.062
		c0.748-0.058,1.529-0.059,2.313-0.073c0.718-0.013,1.46-0.027,2.175,0.009c0.267,0.014,0.514,0.037,0.752,0.059
		c0.183,0.017,0.363,0.031,0.543,0.042c-0.062,0.491,0.089,0.858,0.255,1.096c0.517,0.742,1.618,1.006,2.404,1.007
		c0.001,0,0.001,0,0.002,0c1.324,0,2.238-1.167,2.975-2.104c0.195-0.25,0.383-0.491,0.57-0.697c0.177-0.197,0.333-0.404,0.487-0.609
		c0.267-0.354,0.519-0.689,0.874-0.931c0.465-0.315,0.894-0.482,1.438-0.557c0.739-0.102,2.053,0.024,2.292,1.151
		c0.115,0.538,0.042,0.822-0.302,1.169l-0.227,0.224c-0.441,0.423-0.939,0.902-1.019,1.619c-0.064,0.605-0.07,1.305,0.379,1.909
		c0.327,0.437,0.529,0.728,0.554,1.181c0.005,0.103-0.012,0.236-0.029,0.37c-0.012,0.11-0.019,0.216-0.024,0.32
		C33.295,32.518,32.598,32.646,31.901,32.713z M35.073,32.15c-0.09,0.021-0.184,0.038-0.272,0.058
		c0.002-0.02,0.004-0.045,0.006-0.062c0.021-0.183,0.037-0.362,0.031-0.502c-0.035-0.667-0.316-1.092-0.71-1.618
		c-0.231-0.307-0.296-0.695-0.225-1.342c0.048-0.429,0.401-0.771,0.776-1.131l0.243-0.238c0.535-0.543,0.686-1.093,0.515-1.896
		c-0.314-1.481-1.863-1.959-3.186-1.777c-0.671,0.093-1.204,0.298-1.776,0.688c-0.467,0.317-0.771,0.721-1.064,1.113
		c-0.14,0.186-0.281,0.374-0.441,0.553c-0.198,0.219-0.399,0.474-0.607,0.74c-0.661,0.843-1.41,1.798-2.344,1.798
		c0,0-0.001,0-0.001,0c-0.62-0.001-1.432-0.208-1.749-0.664c-0.125-0.179-0.135-0.398-0.082-0.646
		c0.409-0.035,0.835-0.125,1.306-0.338c0.984-0.445,1.845-1.106,2.677-1.745c0.862-0.663,1.679-1.29,2.609-1.685
		c0.887-0.376,2.145-0.234,3.365-0.097c0.646,0.073,1.256,0.136,1.795,0.125c0.114,0.174,0.239,0.338,0.364,0.49
		c0.11,0.134,0.221,0.266,0.311,0.404c0.3,0.467,0.26,1.127,0.171,1.77c-0.073,0.53-0.265,1.035-0.467,1.57
		c-0.327,0.864-0.664,1.759-0.51,2.809c0.052,0.344,0.223,0.937,0.429,1.383C35.85,31.985,35.461,32.066,35.073,32.15z
		 M22.351,5.402c3.002-0.66,5.796-0.968,8.789-0.968c0.487,0,1.07-0.071,1.687-0.146c0.677-0.083,1.379-0.168,2.018-0.168
		c0.64,0,1.108,0.086,1.469,0.281l0.874,0.368c0.614,0.133,2.646,1.818,3.611,2.724c0.897,0.841,1.672,1.758,2.253,2.647
		c-0.075-0.106-0.146-0.205-0.195-0.263c-0.807-0.923-2.105-2.14-3.722-2.695c-2.036-0.7-4.568-1.571-6.907-1.571
		c-0.008,0-0.017,0-0.025,0c-0.506,0-1.014-0.001-1.52-0.004c-1.931-0.01-3.931-0.021-5.854,0.207
		c-2.188,0.26-4.356,0.801-6.442,1.607c-0.544,0.21-1.089,0.457-1.625,0.704C18.508,6.974,20.418,5.827,22.351,5.402z
		 M12.858,10.688c0.702-0.184,1.396-0.513,2.067-0.836c0.259-0.124,0.516-0.248,0.77-0.361c0.33-0.146,0.661-0.3,0.992-0.454
		c0.653-0.303,1.328-0.616,1.987-0.871c2.024-0.782,4.126-1.307,6.248-1.559c1.872-0.223,3.847-0.212,5.755-0.202
		c0.508,0.003,1.016,0.003,1.526,0.004c2.253-0.009,4.681,0.844,6.669,1.527c1.45,0.499,2.639,1.616,3.378,2.464
		c0.108,0.124,0.281,0.387,0.485,0.696c0.66,0.994,1.116,1.628,1.516,1.893c0.373,1.643,0.434,3.677,0.169,6.171
		c-0.092,0.872-0.07,1.796-0.052,2.689c0.048,2.153,0.094,4.188-1.267,5.707c-1.508,1.688-3.404,3.461-6.063,4.154
		c-0.165-0.292-0.383-0.921-0.439-1.305c-0.123-0.844,0.162-1.604,0.467-2.409c0.21-0.552,0.425-1.124,0.51-1.742
		c0.11-0.796,0.152-1.627-0.289-2.312c-0.106-0.163-0.235-0.32-0.365-0.479c-0.243-0.294-0.447-0.556-0.48-0.844
		c0.152-0.208,0.327-0.586,0.635-1.295c0.152-0.351,0.342-0.787,0.421-0.9c0.208-0.297,0.429-0.579,0.647-0.859
		c0.254-0.328,0.511-0.654,0.746-1c0.131-0.193,0.26-0.395,0.391-0.598c0.377-0.585,0.769-1.191,1.243-1.65
		c0.496-0.48,1.05-0.765,1.772-1.109c0.05,0.691,0.048,1.399,0.042,2.077l-0.005,0.655c0,1.695-0.168,4.193-0.979,6.464
		c-0.142,0.401-0.318,0.859-0.552,1.214c-0.121,0.185-0.068,0.433,0.117,0.554c0.066,0.044,0.144,0.065,0.218,0.065
		c0.13,0,0.259-0.063,0.334-0.181c0.278-0.426,0.479-0.939,0.637-1.384c0.848-2.379,1.024-4.975,1.024-6.733l0.005-0.647
		c0.021-2.068,0.043-4.641-1.686-6.18c-0.681-0.605-3.104-2.604-5.738-2.896c-1.208-0.135-2.393-0.144-3.709-0.139
		c-0.556,0-1.066-0.062-1.616-0.13c-0.547-0.067-1.111-0.136-1.698-0.136c-0.008,0-0.015,0-0.021,0
		c-2.082,0.005-4.796,0.141-7.34,1.144c-1.315,0.519-2.566,1.245-3.775,1.947c-0.683,0.396-1.366,0.792-2.059,1.152
		c-0.196,0.102-0.273,0.343-0.171,0.539c0.102,0.197,0.342,0.272,0.539,0.171c0.706-0.365,1.399-0.768,2.093-1.171
		c1.184-0.687,2.407-1.397,3.667-1.894c1.887-0.745,4.061-1.08,7.048-1.088c0.549,0.008,1.067,0.062,1.619,0.13
		c0.552,0.068,1.102,0.125,1.716,0.136c1.287-0.004,2.453,0.004,3.619,0.134c0.573,0.063,1.158,0.235,1.737,0.464
		c-0.213,0.108-0.43,0.234-0.665,0.399c-0.473,0.333-0.824,0.74-1.133,1.129l-0.131,0.166c-0.348,0.439-0.708,0.893-1.089,1.301
		c-0.11,0.118-0.228,0.235-0.344,0.354c-0.467,0.474-0.949,0.963-1.223,1.591c-0.451,1.037-0.574,2.132-0.67,3.257
		c-0.112,1.342-0.096,2.019-0.036,3.228c-0.822,0.152-1.732,0.442-2.486,0.687l-0.156,0.051c-0.199,0.064-0.397,0.123-0.593,0.181
		c-0.71,0.209-1.442,0.425-2.138,0.905c-0.252,0.174-0.515,0.391-0.787,0.617c-0.603,0.499-1.225,1.015-1.846,1.14
		c-0.612,0.122-1.284,0.01-1.996-0.109c-0.479-0.081-0.974-0.164-1.457-0.169c-0.603-0.01-1.201,0.013-1.797,0.033
		c-0.509,0.017-1.02,0.034-1.539,0.034c-0.994,0-2.201-0.216-2.503-0.578l-0.078-0.094l-0.118-0.034
		c-0.271-0.078-0.643-0.133-1.073-0.197c-1-0.149-2.51-0.374-2.882-1.026c-0.062-0.108-0.09-0.231-0.086-0.37
		c0.296-0.151,0.571-0.439,0.838-0.726c0.124-0.132,0.239-0.258,0.341-0.344c0.448-0.379,1.071-0.949,1.493-1.512
		c0.801-1.067,1.274-3.296,0.227-4.5c-0.75-0.861-1.975-1.318-3.599-1.402C10.479,12.437,11.707,11.472,12.858,10.688z
		 M8.775,19.242c0.509-0.102,1.142-0.228,1.678-0.69c0.466-0.401,0.688-0.784,0.679-1.17c-0.013-0.551-0.469-0.908-0.91-1.252
		c-0.372-0.292-0.757-0.593-0.81-0.958c-0.043-0.307-0.009-0.61,0.078-0.91c1.565,0.026,2.698,0.408,3.346,1.151
		c0.735,0.844,0.353,2.674-0.263,3.495c-0.378,0.503-0.954,1.029-1.37,1.381c-0.121,0.103-0.262,0.251-0.41,0.41
		c-0.079,0.085-0.189,0.201-0.299,0.309c-0.021-0.013-0.037-0.031-0.061-0.04c-0.129-0.053-0.266-0.027-0.373,0.046
		c-0.548-0.312-1.709-0.752-2.41-0.992C7.754,19.453,8.112,19.375,8.775,19.242z"/>
	<path d="M17.936,14.845c0.383,0.438,0.938,0.809,1.561,1.044l0.201,0.082c0.175,0.075,0.373,0.16,0.58,0.196
		c0.175,0.03,0.358,0.035,0.542,0.035l0.178,0l0.196,0.004c0.084,0.004,0.167,0.006,0.25,0.006c0.548,0,1.064-0.084,1.625-0.265
		c1.21-0.391,2.164-1.114,3.037-1.82c0.827-0.671,1.615-1.474,1.778-2.796l0.149-1.203l-0.836,0.878
		c-0.63,0.663-1.771,0.849-2.749,1.009c-0.91,0.151-2.09,0.159-3.293,0.028c-0.469-0.051-0.965-0.062-1.456-0.075
		c-0.27-0.006-0.537-0.013-0.798-0.026l-0.15-0.012c-0.167-0.013-0.396-0.032-0.599-0.032c-0.352,0-0.551,0.053-0.69,0.186
		c-0.331,0.317-0.279,1.281-0.208,1.455C17.328,14.007,17.711,14.589,17.936,14.845z M21.229,15.407
		c-0.076-0.003-0.154-0.004-0.232-0.004v0.4l-0.178-0.399c-0.138,0-0.275-0.001-0.406-0.024c-0.115-0.02-0.26-0.083-0.401-0.142
		c-0.079-0.034-0.157-0.067-0.233-0.097c-0.181-0.068-0.34-0.163-0.502-0.255c0.002-0.058,0.006-0.117,0.009-0.175
		c0.016-0.011,0.042-0.023,0.047-0.033c0.117-0.193,0.209-0.402,0.335-0.59c0.253-0.377,0.854-0.545,1.257-0.663
		c0.403-0.117,0.757-0.322,1.137-0.474c0.446,0.017,0.87,0.039,1.21,0.016c-0.001,0.001-0.002,0.005-0.003,0.007
		c-0.054,0.095-0.103,0.184-0.129,0.251c-0.059,0.153-0.103,0.313-0.146,0.473c-0.021,0.079-0.043,0.158-0.066,0.235
		c-0.115,0.379-0.191,0.817-0.241,1.286c-0.426,0.125-0.827,0.193-1.244,0.193L21.229,15.407z M24.638,12.794
		c0.666-0.109,1.437-0.235,2.119-0.539c-0.261,0.458-0.655,0.844-1.156,1.25c-0.73,0.591-1.472,1.139-2.351,1.506
		c0.047-0.333,0.105-0.648,0.189-0.925c0.025-0.082,0.048-0.166,0.07-0.25c0.039-0.141,0.077-0.284,0.129-0.419
		c0.019-0.048,0.056-0.111,0.095-0.179C23.8,13.12,23.866,13,23.908,12.882C24.155,12.86,24.399,12.833,24.638,12.794z
		 M18.03,12.701c0.144-0.008,0.463,0.012,0.652,0.027l0.176,0.013c0.029,0.002,0.059,0.002,0.087,0.003
		c-0.197,0.428-0.346,0.911-0.348,0.919c-0.049,0.202-0.06,0.428-0.069,0.627l0,0.016c-0.18-0.208-0.446-0.642-0.504-0.962
		C17.993,13.232,17.997,12.888,18.03,12.701z"/>
	<path d="M30.474,17.257c0.677,0.05,0.604-1.152-0.2-1.118l0.467,0.067c-0.021-0.092-0.069-0.162-0.077-0.258
		C29.99,15.811,29.79,17.207,30.474,17.257z"/>
	<path d="M31.729,11.953c-0.249-0.146-0.506-0.088-0.566,0.172C30.892,12.456,32.017,12.961,31.729,11.953z"/>
	<path d="M34.328,10.331c0.085-0.169,0.085-0.274,0-0.443c-0.152-0.013-0.369-0.048-0.523-0.012h0.267
		C33.474,9.839,33.805,10.486,34.328,10.331z"/>
</g>
</svg>
