<?xml version="1.0" encoding="utf-8"?>
<!-- Generator: Adobe Illustrator 15.1.0, SVG Export Plug-In . SVG Version: 6.00 Build 0)  -->
<!DOCTYPE svg PUBLIC "-//W3C//DTD SVG 1.1//EN" "http://www.w3.org/Graphics/SVG/1.1/DTD/svg11.dtd">
<svg version="1.1" id="Layer_2" xmlns="http://www.w3.org/2000/svg" xmlns:xlink="http://www.w3.org/1999/xlink" x="0px" y="0px"
	 width="52px" height="47.396px" viewBox="0 0 52 47.396" enable-background="new 0 0 52 47.396" xml:space="preserve">
<g>
	<path d="M29.2,33.275c10.527-0.093,17.197-6.097,16.271-16.911C44.475,4.753,30.515,4.121,21.66,5.367
		c-3.848,0.643-8.01,1.646-11.148,4.04c-2.789,2.127-4.194,8.401-4.003,11.699C7.182,32.765,20.115,33.357,29.2,33.275z
		 M9.065,14.821c1.927-5.886,6.827-7.746,12.371-8.672C29.601,5,40.173,5.341,43.429,14.277c1.423,3.903,0.931,8.805-0.994,12.41
		c-3.041,5.693-10.438,5.837-16.046,5.775c-7.064-0.076-16.122-1.384-18.113-9.365C7.593,20.368,8.212,17.428,9.065,14.821z"/>
	<path d="M21.842,31.954c4.346,0.732,8.954-0.016,12.979-1.693c6.69-2.788,11.743-11.502,7.226-18.3
		C37.514,5.137,24.034,5.828,17.22,8.255c-7.066,2.58-9.608,12.31-6.276,18.561C13.041,30.749,17.865,31.284,21.842,31.954z
		 M16.425,29.474c-1.252-0.304-2.264-0.87-3.072-1.614c1.115-0.078,2.33-0.365,2.799-1.226c1.021-1.869,0.467-3.949,3.225-4.22
		c0.71-0.07,1.291-0.347,1.866-0.74c0.484-0.331,0.894-1.086,1.123-1.94c2.044-0.12,4.302-0.287,6.17,0.504
		c0.047,0.021,0.111,0.026,0.175,0.03c0.194,0.762,0.713,1.756,1.017,2.092c1.1,1.211,3.16,0.155,4.249,1.812
		c0.843,1.283,2.61,1.313,3.715,2.409c0.084,0.083,0.285,0.077,0.511,0.029c-0.25,0.265-0.502,0.512-0.759,0.733
		C31.51,32.459,23.32,31.146,16.425,29.474z M38.858,25.837c-0.894-0.76-1.85-0.999-2.937-1.531
		c-0.791-0.387-0.75-1.643-1.779-1.843c-1.081-0.209-2.558,0.121-3.154-0.95c-0.726-1.303-0.949-2.351-0.271-3.715
		c0.615-1.235-0.069-3.247,1.967-3.231c0.511,0.004,1.154-0.094,1.636-0.308c1.057-0.469,1.247-1.044,1.48-2.146
		c0.479-2.251,2.377-0.857,3.906-0.727c0.063,0.006,0.168-0.014,0.281-0.043C43.852,15.001,41.965,21.925,38.858,25.837z
		 M17.502,9.308c6.056-2.157,15.115-2.161,20.879,0.864c0.108,0.057,0.192,0.129,0.295,0.189c-1.281-0.304-2.51-0.469-3.748,0.556
		c-1.312,1.088-0.06,2.637-2.331,3.104c-0.712,0.146-1.825,0.29-2.336,0.875c-0.896,1.027-1.181,2.848-1.505,4.238
		c-1.985-0.551-4.168-0.404-6.226-0.292c0.128-1.229-0.169-2.438-1.193-2.753c-1.946-0.599-1.073-2.207-2.213-3.395
		c-0.878-0.915-4.16-0.396-5.185-0.656C14.941,10.777,16.146,9.803,17.502,9.308z M13.403,12.773
		c0.814,0.168,1.604,0.277,2.468,0.308c3.351,0.116,2.005,1.178,2.471,2.656c0.12,0.377,0.924,0.69,1.267,0.795
		c2.173,0.668,1.275,3.13,0.686,4.719c-0.337,0.91-2.658,0.674-3.485,1.138c-2.122,1.191-0.932,5.031-3.977,4.855
		c-0.015-0.001-0.042,0.005-0.061,0.007C9.763,23.664,10.542,16.997,13.403,12.773z"/>
	<path d="M44.061,36.476c0.472-0.297,0.904-0.632,1.29-1.013c9.809-9.681,9.307-30.975-6.427-33.722
		C28.637-0.055,14.162-2.403,6,5.885c-0.004,0.005,0,0.007-0.004,0.011C1.905,8.847,0.682,16.244,0.2,20.905
		c-0.638,6.166,0.055,12.614,5.043,15.919c-1.409,0.824-2.467,2.616-2.803,3.992c-0.886,3.636,2.523,5.059,5.367,5.59
		c3.076,0.572,6.778,0.767,9.249-1.534c0.16-0.147,0.331-0.328,0.504-0.522c1.85,2.881,6.861,3.651,9.741,2.092
		c0.615-0.335,1.603-1.005,2.576-1.836c2.869,3.201,7.534,3.472,11.428,1.704C45.065,44.604,49.188,38.666,44.061,36.476z
		 M2.152,22.167C2.133,17.936,3.711,8.544,7.691,5.828C7.73,5.8,7.757,5.777,7.785,5.754c0.014-0.011,0.038-0.02,0.048-0.031
		c7.542-7.658,22.795-4.428,32.262-2.7c4.77,0.871,8.751,8.113,9.707,12.395c1.263,5.664-0.539,12.262-3.599,16.992
		c-3.01,4.655-8.958,5.737-14.568,5.957c-0.17-0.084-0.453-0.062-0.718,0.028c-1.936,0.054-3.812,0.015-5.494-0.004
		c-2.126-0.021-4.474,0.068-6.852,0.048c-0.167-0.066-0.37-0.062-0.572-0.005c-4.277-0.071-8.602-0.563-11.87-2.79
		C1.914,32.771,2.172,26.596,2.152,22.167z M41.139,42.267c-0.849,1.013-2.532,0.459-3.416-0.259
		c-1.046-0.849-0.609-2.258-0.492-3.461c0.834-0.106,1.673-0.246,2.493-0.427c-0.668,0.591-1.263,1.234-1.306,2.174
		C38.354,41.678,39.994,42.176,41.139,42.267z M24.987,42.065c-1.175-0.39-1.263-1.883-0.939-2.937
		c1.06,0.019,2.121,0.019,3.182,0.013C27.864,40.431,26.458,42.556,24.987,42.065z M16.374,43.763
		c-1.487,2.028-4.38,2.161-6.643,1.788c-2.267-0.375-4.795-0.498-5.684-2.997c-0.42-1.184,0.514-5.049,2.298-5.092
		c0.545,0.277,1.116,0.535,1.749,0.744c1.121,0.371,2.326,0.57,3.558,0.683c-0.008,0.099,0.034,0.195,0.183,0.277
		c0.355,0.192-0.208,1.378-0.385,1.609c-0.238,0.312-0.56,0.521-0.936,0.619c-0.933,0.246-1.278-0.882-1.256-1.576
		c0.023-0.738-1.514-0.474-1.534,0.144c-0.062,1.904,1.399,2.803,3.173,2.335c0.786-0.205,1.536-0.72,1.99-1.395
		c0.285-0.422,0.643-1.267,0.552-1.902c1.321,0.043,2.647,0.022,3.915,0.019c-0.005,0.114,0.033,0.231,0.171,0.34
		C18.863,40.415,17.032,42.865,16.374,43.763z M27.507,45.252c-2.652,1.927-7.736,1.076-8.894-2.241
		c-0.007-0.019-0.026-0.029-0.036-0.045c0.791-1.298,1.292-2.838,0.603-3.929c1.311,0.024,2.617,0.051,3.921,0.075
		c-0.627,1.665,0.126,3.681,2.161,3.578c1.645-0.082,3.573-1.859,3.069-3.553c0.685-0.013,1.371-0.05,2.056-0.08
		c0.024,0.024,0.033,0.051,0.072,0.073C33.104,40.751,28.877,44.257,27.507,45.252z M43.997,43.168
		c-2.687,4.901-10.007,4.497-13.065,0.451c1.501-1.535,2.551-3.34,1.416-4.658c1.169-0.078,2.5-0.156,3.882-0.3
		c-0.069,1.079-0.455,2.209,0.108,3.199c0.38,0.662,1.161,1.011,1.858,1.222c1.339,0.406,3.198,0.111,4.039-1.093
		c0.065-0.094-0.131-0.119-0.172-0.119c-1.305-0.036-2.926-0.703-2.578-2.294c0.154-0.703,0.74-1.236,1.34-1.727
		c0.711-0.199,1.39-0.447,2.031-0.738C45.433,38.29,45.338,40.72,43.997,43.168z"/>
</g>
</svg>
