<?xml version="1.0" encoding="utf-8"?>
<!-- Generator: Adobe Illustrator 15.1.0, SVG Export Plug-In . SVG Version: 6.00 Build 0)  -->
<!DOCTYPE svg PUBLIC "-//W3C//DTD SVG 1.1//EN" "http://www.w3.org/Graphics/SVG/1.1/DTD/svg11.dtd">
<svg version="1.1" id="Layer_1" xmlns="http://www.w3.org/2000/svg" xmlns:xlink="http://www.w3.org/1999/xlink" x="0px" y="0px"
	 width="52px" height="52px" viewBox="0 0 52 52" enable-background="new 0 0 52 52" xml:space="preserve">
<g>
	<path d="M44.246,30.922c2.207-5.209,2.593-11.927,1.355-17.393c-1.301-5.743-5.968-7.867-11.216-9.26
		c-6.182-1.641-12.217-2.188-18.484-0.936c-3.564,0.712-5.664,0.491-7.352,3.92c-4.097,9.824-4.458,26.114,8.665,29.068
		c5.708,1.285,11.646-0.007,17.369-0.619C38.012,35.335,42.718,34.529,44.246,30.922z M12.875,33.384
		C4.617,27.932,6.228,14.999,9.513,7.122c1.571-3.193,6.271-3.352,9.364-3.862c5.734-0.945,12.368,0.614,17.841,2.363
		c10.039,3.209,9.403,14.752,7.394,23.18c-1.479,6.203-8.66,6.262-13.854,6.896C24.01,36.46,18.361,37.006,12.875,33.384z"/>
	<path d="M43.275,13.8c-1.386-4.829-7.86-6.356-12.099-7.206c-4.623-0.926-19.575-4.082-21.195,3.679
		c-1.263,5.615-2.957,11.596,0.28,16.854c3.139,5.099,8.919,6.306,14.34,7.051c6.096,0.838,14.632,0.359,17.472-6.012
		C43.995,23.855,44.573,18.325,43.275,13.8z M16.331,31.465c-8.719-4.63-7.214-13.305-5.399-21.37
		c1.758-8.419,22.439-3.223,27.608-0.339c6.189,3.453,4.757,11.996,2.972,17.561C38.614,36.352,23.265,35.146,16.331,31.465z"/>
	<path d="M36.377,14.146c-4.715-1.175-9.337,0.915-14.021,0.129c-2.033-0.341-5.112-1.192-7.122-0.24
		c-1.446,0.685-2.111,2.003-0.825,3.304c1.085,1.098,8.833,0.524,8.734,0.851c-0.006,0.02,0.003,0.032,0.004,0.048
		c0,0.006-0.005,0.011-0.005,0.017c-0.026,2.216-1.42,10.292,2.729,10.319c2.237,0.015,2.034-4.352,2.181-5.567
		c0.504-4.169,3.527-4.891,7.323-5.276c0.693-0.07,1.69-0.069,2.286-0.512C39.405,15.92,38.097,14.575,36.377,14.146z
		 M32.941,17.239c-0.486,0.005-0.976,0.064-1.452,0.163c-1.22,0.253-2.424,0.533-3.209,1.601c-1.375,1.872-1.277,4.924-1.575,7.124
		c-0.385,2.849-2.576-1.08-2.783-2.21c-0.315-1.723,0.15-4.02,0.183-5.854c0-0.001,0.001-0.001,0.001-0.002
		c0.043-0.142,0.086-0.283,0.129-0.424c0.035-0.114-0.096-0.173-0.184-0.188c-1.524-0.246-3.05-0.091-4.585-0.005
		c-1.373,0.077-4.872,0.489-4.773-2.116c0.07-1.852,5.172-0.862,6.287-0.683c5.167,0.833,10.479-1.522,15.483,0.252
		C39.942,16.131,32.922,17.239,32.941,17.239z"/>
	<path d="M52.055,45.849c-0.24-1.979-1.559-3.256-3.211-4.16c-1.124-0.616-4.735-0.977-4.162-2.705
		c1.608-0.671,3.075-1.562,4.275-2.778c4.743-4.807,2.635-14.601,2.082-20.431C50.412,9.028,47.909,3.834,41.211,1.3
		c-2.765-1.046-5.653-0.733-8.576-0.885c-5.391-0.279-10.685-0.641-16.08-0.23C11.044,0.604,6.241,1.723,3.473,6.768
		c-3.608,6.575-4.573,18.537-2.095,25.619c1.249,3.567,4.125,5.802,7.729,7.179c-0.572,2.01-3.517,2.116-5.248,2.759
		c-1.171,0.435-2.071,1.223-2.832,2.19c-2.353,2.99,0.073,6.857,3.553,7.057c3.169,0.182,6.413,0,9.592-0.01
		c1.525-0.005,3.247-0.017,4.676-0.643c0.201-0.088,0.379-0.188,0.554-0.291c1.161,1.945,4.772,1.083,6.735,0.958
		c2.601-0.166,5.203,0.458,7.814,0.145c0.795-0.095,1.247-0.445,1.584-0.915c0.364,0.388,0.847,0.715,1.518,0.945
		c1.178,0.404,2.562,0.246,3.779,0.153c2.207-0.169,4.439-0.278,6.639-0.525C50.729,51.023,52.463,49.206,52.055,45.849z
		 M3.279,32.896c-3.041-5.17-1.477-13.358-0.52-18.857c0.565-3.246,1.422-6.554,3.337-9.301c2.707-3.883,8.98-3.771,13.246-4.013
		c3.625-0.206,7.29,0.111,10.905,0.341c3.743,0.238,7.306-0.035,10.845,1.305c5.988,2.266,7.931,8.061,8.462,13.791
		c0.508,5.341,1.244,10.697,0.029,16.001c-0.773,3.379-3.148,5.325-6.129,6.484c-0.05,0.016-0.091,0.035-0.136,0.054
		c-3.873,1.466-8.734,1.632-12.448,1.87C22.012,41.143,8.373,41.555,3.279,32.896z M40.221,40.989
		c0.129,0.562,0.375,0.946,0.707,1.423c0.602,0.863,1.271,1.733,2.084,2.408c1.057,0.878,2.452,0.788,3.723,0.529
		c-0.385,1.286-1.096,2.501-2.691,2.14c-0.971-0.221-1.828-0.892-2.527-1.568c-1.466-1.419-2.302-3.602-1.612-5.57
		c0.046-0.008,0.092-0.016,0.138-0.024C40.122,40.541,40.172,40.773,40.221,40.989z M31.89,41.224
		c-0.493,2.256-2.057,4.835-4.851,4.162c-1.017-0.244-1.656-1.092-2.09-1.975c-0.068-0.138-0.462-1.192-0.677-1.817
		C27.099,41.557,29.735,41.381,31.89,41.224z M15.177,41.078c-0.327,1.782,0.027,3.688-1.279,5.164
		c-1.048,1.184-3.123,1.127-4.423,0.511c-0.82-0.389-1.127-1.162-1.243-1.984c1.063,0.986,2.476,1.453,3.932,0.728
		c1.419-0.707,2.312-2.921,2-4.582C14.5,40.973,14.837,41.028,15.177,41.078z M15.442,50.837
		c-3.686,0.091-10.987,1.374-13.035-2.358c-1.882-3.433,1.963-5.765,4.609-6.562c1.183-0.356,2.724-0.836,3.534-1.851
		c0.821,0.252,1.672,0.463,2.542,0.644c0.47,1.191-0.118,2.801-0.748,3.779c-1.34,2.081-3.48-0.112-4.217-1.338
		c-0.146-0.244-0.93-0.037-0.931,0.249c-0.004,1.274-0.019,2.827,1.185,3.619c1.259,0.828,2.727,0.83,4.161,0.537
		c1.294-0.265,2.331-1.109,2.923-2.269c0.634-1.24,0.458-2.715,0.642-4.081c0.66,0.082,1.325,0.146,1.991,0.2
		c-0.301,2.085-1.221,4.055-2.336,5.823c-1.645,2.606-4.935,3.055-7.597,1.75c-0.634-0.311-0.948-1.512-1.625-1.938
		c-0.118-0.073-0.523,0.123-0.455,0.166c0.735,0.462,1.047,1.304,1.625,1.938c0.429,0.47,1.769,0.701,2.312,0.729
		c1.144,0.058,2.407,0.052,3.484-0.403c2.933-1.238,4.589-4.994,5.054-8.026c0.303,0.021,0.605,0.04,0.908,0.057
		c0,0.003-0.003,0.005-0.003,0.008c0,1.381,0.127,2.755,0.204,4.134C19.858,49.021,19.072,50.747,15.442,50.837z M34.561,49.412
		c-0.984,1.689-1.684,1.609-3.68,1.523c-1.309-0.056-2.611-0.189-3.922-0.183c-2.063,0.012-5.656,1.237-5.976-1.748
		c1.095-2.047,0.52-4.951,0.427-7.427c0.631,0.016,1.26,0.023,1.88,0.023c0.779,2.558,1.876,4.689,5.004,4.289
		c2.422-0.311,3.987-2.498,4.514-4.734c0.655-0.049,1.327-0.1,2.015-0.158c0.902,2.217-0.612,5.743-0.085,8.243
		C34.659,49.292,34.598,49.349,34.561,49.412z M47.422,50.78c-2.666,0.3-7.258,1.163-9.59-0.118
		c-3.064-1.682-0.272-7.117-0.979-9.862c0.149-0.018,0.299-0.037,0.448-0.055c-0.303,0.415-0.211,1.272-0.233,1.714
		c-0.09,1.72,0.286,3.104,1.354,4.482c1.773,2.288,5.349,3.351,8.041,2.256c0.316-0.128,0.021-0.225-0.176-0.145
		c-3.189,1.296-6.821-0.86-8.303-3.657c-0.382-0.721-0.449-1.541-0.452-2.339c-0.001-0.376-0.15-2.112,0.223-2.367
		c0.396-0.052,0.793-0.108,1.189-0.171c-1.886,5.273,7.013,10.981,8.796,4.478c0.051-0.188-0.445-0.068-0.514-0.052
		c-2.217,0.528-3.404-0.282-4.705-1.974c-0.453-0.591-1.057-1.208-1.264-1.937c-0.08-0.287-0.106-0.625-0.209-0.918
		c0.55-0.124,1.092-0.267,1.626-0.425c-0.202,1.461,2.35,1.87,3.61,2.315c1.801,0.635,3.057,1.876,3.68,3.669
		C50.746,47.917,50.193,50.47,47.422,50.78z"/>
</g>
</svg>
