<?xml version="1.0" encoding="utf-8"?>
<!-- Generator: Adobe Illustrator 15.1.0, SVG Export Plug-In . SVG Version: 6.00 Build 0)  -->
<!DOCTYPE svg PUBLIC "-//W3C//DTD SVG 1.1//EN" "http://www.w3.org/Graphics/SVG/1.1/DTD/svg11.dtd">
<svg version="1.1" id="Layer_1" xmlns="http://www.w3.org/2000/svg" xmlns:xlink="http://www.w3.org/1999/xlink" x="0px" y="0px"
	 width="52px" height="52px" viewBox="0 0 52 52" enable-background="new 0 0 52 52" xml:space="preserve">
<g>
	<path d="M51.958,46.015c-0.24-1.979-1.56-3.256-3.211-4.16c-1.157-0.634-4.936-1-4.097-2.857c1.62-0.673,3.099-1.568,4.307-2.792
		c4.743-4.807,2.635-14.601,2.082-20.431C50.412,9.028,47.909,3.834,41.211,1.3c-2.765-1.046-5.653-0.733-8.576-0.885
		c-5.391-0.279-10.685-0.641-16.08-0.23C11.044,0.604,6.241,1.723,3.473,6.768c-3.608,6.575-4.573,18.537-2.095,25.619
		c1.246,3.559,4.112,5.791,7.705,7.169c-0.007,0.015-0.028,0.027-0.031,0.043c-0.474,2.144-3.52,2.234-5.29,2.892
		c-1.171,0.435-2.071,1.223-2.832,2.19c-2.353,2.99,0.073,6.857,3.553,7.057c3.169,0.182,6.413,0,9.592-0.01
		c1.525-0.005,3.247-0.017,4.676-0.643c0.201-0.088,0.379-0.188,0.554-0.291c1.161,1.945,4.772,1.083,6.735,0.958
		c2.602-0.166,5.203,0.458,7.814,0.145c0.795-0.095,1.246-0.445,1.583-0.915c0.364,0.388,0.847,0.715,1.518,0.945
		c1.179,0.404,2.563,0.246,3.779,0.153c2.207-0.169,4.439-0.278,6.639-0.524C50.632,51.189,52.365,49.372,51.958,46.015z
		 M3.279,32.896c-3.041-5.17-1.477-13.358-0.52-18.857c0.565-3.246,1.422-6.554,3.337-9.301c2.707-3.883,8.98-3.771,13.246-4.013
		c3.625-0.206,7.29,0.111,10.905,0.341c3.743,0.238,7.306-0.035,10.845,1.305c5.988,2.266,7.931,8.061,8.462,13.791
		c0.508,5.341,1.244,10.696,0.029,16.001c-1.784,7.795-12.079,7.982-18.713,8.408C22.012,41.143,8.373,41.555,3.279,32.896z
		 M39.874,40.384c0.018,0.012,0.031,0.024,0.052,0.034c0.313,0.523,0.313,1.263,0.648,1.812c0.552,0.907,1.318,1.946,2.14,2.628
		c1.175,0.976,2.454,1.08,3.841,0.842c-0.337,0.988-0.933,1.921-2.108,1.918c-1.058-0.002-2.068-0.694-2.825-1.369
		C40.016,44.818,38.988,42.463,39.874,40.384z M31.812,41.229c-0.5,2.462-2.335,5.2-5.287,4.124
		c-0.812-0.296-1.313-1.042-1.674-1.776c-0.08-0.163-0.523-1.526-0.758-1.981C26.952,41.563,29.627,41.389,31.812,41.229z
		 M15.133,41.072c-0.392,2.025-0.027,4.157-0.967,6.067c-0.912,1.854-3.509,2.242-5.053,0.997c-0.68-0.548-0.918-1.413-1.001-2.295
		c0.914,1.041,2.149,1.668,3.631,1.099c1.88-0.722,2.788-4.054,2.284-6.05C14.394,40.956,14.762,41.018,15.133,41.072z
		 M15.345,51.003c-3.686,0.091-10.987,1.374-13.035-2.358c-1.882-3.433,1.963-5.765,4.609-6.562
		c1.243-0.375,2.877-0.887,3.647-2.012c0.754,0.23,1.534,0.428,2.33,0.599c0.57,1.311,0.138,3.108-0.376,4.36
		c-1.197,2.916-3.564,0.822-4.454-0.992c-0.148-0.303-0.967-0.171-0.968,0.184c-0.004,1.694-0.001,3.403,1.425,4.554
		c1.103,0.89,2.771,0.779,4.044,0.422c3.646-1.023,2.993-5.053,3.487-7.997c1.123,0.141,2.26,0.237,3.396,0.301
		c-0.052,0.055-0.082,0.112-0.082,0.175c0,1.381,0.127,2.755,0.204,4.134C19.761,49.188,18.975,50.913,15.345,51.003z
		 M34.463,49.577c-0.984,1.69-1.683,1.61-3.679,1.524c-1.309-0.056-2.612-0.189-3.922-0.183c-2.063,0.012-5.656,1.237-5.976-1.748
		c1.12-2.094,0.494-5.083,0.423-7.596c0.615,0.017,1.228,0.025,1.833,0.026c0.694,2.336,1.757,4.979,4.757,4.596
		c2.66-0.34,4.345-2.522,4.865-5.038c0.639-0.047,1.295-0.097,1.965-0.153c-0.017,0.03-0.038,0.061-0.027,0.086
		c0.964,2.211-0.594,5.789-0.062,8.314C34.562,49.457,34.5,49.514,34.463,49.577z M47.324,50.946c-2.665,0.3-7.257,1.163-9.59-0.118
		c-3.121-1.714-0.168-7.32-1.025-10.012c0.718-0.08,1.44-0.175,2.162-0.287c-1.937,5.323,6.935,11.421,8.783,4.678
		c0.082-0.299-0.412-0.303-0.57-0.266c-1.937,0.463-3.145,0.054-4.391-1.481c-0.525-0.647-1.301-1.441-1.532-2.26
		c-0.096-0.34-0.128-0.722-0.269-1.051c0.58-0.128,1.153-0.272,1.718-0.438c-0.398,1.578,2.276,2.001,3.578,2.461
		c1.8,0.635,3.056,1.876,3.68,3.669C50.648,48.083,50.096,50.636,47.324,50.946z"/>
	<path d="M44.654,33.588c3.937-3.99,2.187-12.121,1.728-16.96c-0.52-5.6-2.598-9.91-8.157-12.014
		c-2.295-0.868-4.693-0.609-7.119-0.734c-4.475-0.231-8.87-0.532-13.348-0.191C13.183,4.035,9.196,4.964,6.898,9.152
		C3.903,14.61,3.102,24.54,5.16,30.418c3.114,8.896,18.395,7.848,25.782,7.303C35.482,37.387,41.303,36.98,44.654,33.588z
		 M17.613,4.262c-0.993,2.445-2.054,7.759-0.476,10.151c1.812,2.748,5.47,2.874,8.466,2.87c3.502-0.004,6.8-0.28,8.974-3.242
		c2.04-2.78,1.461-6.425,0.147-9.325c0.238,0.027,0.476,0.066,0.713,0.104c1.261,2.629,1.793,4.806,1.327,7.818
		c-0.789,5.104-5.457,6.522-9.943,6.855c-3.857,0.287-9.555,0.137-11.11-4.159c-1.021-2.819-0.134-8.309,0.973-11.007
		C16.997,4.301,17.306,4.28,17.613,4.262z M20.042,4.3c0.185,0.031,0.368,0.093,0.552,0.143c-0.38,0.635-0.885,1.203-1.428,1.749
		C18.808,6,18.448,5.861,18.088,5.753c0.133-0.506,0.289-0.999,0.48-1.46c0.013-0.032,0.009-0.055,0.014-0.083
		c0.459-0.021,0.902-0.042,1.324-0.064C19.893,4.213,19.915,4.278,20.042,4.3z M26.203,4.547c-0.121-0.104-0.223-0.214-0.309-0.331
		c0.13,0.008,0.26,0.014,0.39,0.022c-0.007,0.013-0.025,0.022-0.027,0.037C26.249,4.366,26.22,4.456,26.203,4.547z M25.3,4.188
		c0.028,0.042,0.056,0.084,0.083,0.126c0.001,0.001,0.004,0,0.005,0.002c0.171,0.24,0.424,0.456,0.729,0.649
		c-0.172,0.571-0.481,1.138-0.84,1.691c-0.592-0.46-1.206-0.917-1.843-1.328c0.257-0.387,0.505-0.781,0.74-1.185
		c0.004-0.008-0.016-0.01-0.023-0.015c0.381,0.015,0.762,0.031,1.143,0.051C25.297,4.184,25.299,4.186,25.3,4.188z M34.754,10.589
		c-0.064-0.062-0.13-0.123-0.194-0.185c0.106-0.229,0.199-0.46,0.275-0.695C34.824,9.999,34.793,10.293,34.754,10.589z
		 M34.778,8.418c-0.106,0.025-0.206,0.083-0.209,0.168c-0.017,0.512-0.152,1.01-0.345,1.498c-0.582-0.555-1.173-1.108-1.785-1.644
		c0.305-0.587,0.572-1.186,0.795-1.798c0.563,0.442,1.087,0.928,1.512,1.521C34.758,8.249,34.77,8.333,34.778,8.418z M34.046,10.51
		c-0.362,0.764-0.854,1.497-1.297,2.196c-0.674-0.486-1.324-1-1.962-1.529c0.52-0.774,1.016-1.559,1.455-2.363
		C32.861,9.372,33.463,9.947,34.046,10.51z M32.527,13.065c-0.059,0.094-0.119,0.19-0.173,0.283
		c-0.34,0.584-0.718,1.142-1.086,1.707c-0.711-0.492-1.416-0.993-2.113-1.508c0.462-0.67,0.935-1.342,1.397-2.022
		C31.189,12.062,31.849,12.574,32.527,13.065z M28.846,13.317c-0.659-0.491-1.319-0.98-1.977-1.476
		c0.508-0.72,0.998-1.452,1.456-2.201c0.63,0.528,1.253,1.062,1.876,1.593C29.767,11.939,29.312,12.632,28.846,13.317z
		 M28.617,13.66c-0.447,0.66-0.876,1.329-1.285,2.009c-0.739-0.487-1.466-0.99-2.177-1.512c0.495-0.639,0.98-1.284,1.451-1.939
		C27.313,12.725,27.995,13.213,28.617,13.66z M26.539,11.594c-0.948-0.712-1.901-1.417-2.869-2.097
		c0.173-0.248,0.351-0.493,0.52-0.744c0.333-0.492,0.739-1,1.129-1.528c0.593,0.472,1.161,0.937,1.691,1.344
		c0.338,0.259,0.659,0.534,0.985,0.803C27.54,10.131,27.047,10.867,26.539,11.594z M26.271,11.978
		c-0.469,0.657-0.95,1.306-1.444,1.945c-0.94-0.697-1.873-1.408-2.812-2.115c0.46-0.629,0.916-1.262,1.366-1.898
		C24.336,10.591,25.322,11.297,26.271,11.978z M17.557,11.167c-0.024-0.716-0.017-1.463,0.033-2.219c0.495,0.473,1.045,0.9,1.6,1.31
		c-0.349,0.416-0.697,0.831-1.041,1.25C17.953,11.384,17.755,11.275,17.557,11.167z M19.44,10.444
		c0.145,0.106,0.292,0.214,0.433,0.321c0.527,0.397,1.049,0.799,1.572,1.2c-0.326,0.442-0.648,0.885-0.971,1.328
		c-0.628-0.559-1.329-1.121-2.062-1.609C18.753,11.268,19.096,10.855,19.44,10.444z M21.739,12.188
		c0.927,0.711,1.86,1.412,2.802,2.1c-0.403,0.517-0.81,1.03-1.221,1.541c-0.953-0.609-1.74-1.503-2.567-2.279
		C21.079,13.095,21.408,12.642,21.739,12.188z M21.723,11.587c-0.282-0.211-0.561-0.425-0.846-0.634
		c-0.222-0.163-0.632-0.51-1.099-0.911c0.473-0.563,0.944-1.127,1.407-1.697c0.594,0.421,1.231,0.875,1.89,1.345
		C22.636,10.33,22.182,10.961,21.723,11.587z M19.54,9.838c-0.637-0.547-1.333-1.144-1.798-1.494
		c0.355-0.54,0.805-1.035,1.285-1.517c0.527,0.366,1.173,0.82,1.896,1.332C20.468,8.724,20.006,9.282,19.54,9.838z M17.704,7.745
		c0.07-0.549,0.167-1.093,0.29-1.621c0.186,0.122,0.438,0.292,0.74,0.5C18.37,6.987,18.021,7.358,17.704,7.745z M17.891,11.825
		c-0.085,0.105-0.17,0.21-0.255,0.316c-0.023-0.159-0.042-0.325-0.053-0.495C17.685,11.707,17.79,11.76,17.891,11.825z
		 M17.719,12.545c0.142-0.18,0.288-0.357,0.432-0.536c0.728,0.494,1.417,1.059,2.059,1.647c-0.34,0.472-0.672,0.949-0.997,1.43
		c-0.726-0.601-1.255-1.429-1.499-2.538C17.714,12.547,17.718,12.546,17.719,12.545z M20.491,13.921
		c0.158,0.148,0.322,0.296,0.473,0.444c0.667,0.652,1.325,1.309,2.099,1.783c-0.084,0.105-0.169,0.211-0.254,0.316
		c-1.227-0.164-2.372-0.514-3.282-1.148C19.841,14.848,20.164,14.383,20.491,13.921z M23.417,16.349
		c0.157,0.08,0.32,0.151,0.489,0.213c-0.209-0.011-0.417-0.026-0.623-0.046C23.327,16.46,23.372,16.404,23.417,16.349z
		 M24.645,16.421c-0.349-0.087-0.667-0.227-0.973-0.39c0.402-0.5,0.801-1.003,1.198-1.509c0.732,0.528,1.48,1.035,2.241,1.525
		c-0.092,0.159-0.191,0.313-0.278,0.475c-0.395,0.02-0.779,0.035-1.145,0.05c-0.331,0.014-0.664,0.017-0.999,0.014
		C24.757,16.522,24.773,16.453,24.645,16.421z M27.437,16.254c0.108,0.069,0.217,0.139,0.326,0.207
		c-0.154,0.012-0.308,0.023-0.461,0.033C27.346,16.414,27.392,16.334,27.437,16.254z M28.471,16.394
		c-0.278-0.168-0.548-0.347-0.819-0.522c0.391-0.666,0.824-1.328,1.275-1.99c0.871,0.624,1.607,1.151,2.123,1.516
		c-0.076,0.122-0.158,0.239-0.231,0.362c-0.051,0.086-0.006,0.123,0.061,0.142C30.116,16.152,29.294,16.301,28.471,16.394z
		 M31.363,15.654c0.005-0.008,0.011-0.016,0.016-0.024c0.025,0.019,0.055,0.039,0.078,0.055c-0.044,0.019-0.088,0.039-0.132,0.056
		C31.352,15.708,31.361,15.68,31.363,15.654z M31.888,15.486c-0.098-0.065-0.193-0.135-0.29-0.201
		c0.419-0.664,0.853-1.319,1.257-1.994c0.283,0.197,0.558,0.404,0.854,0.588C33.248,14.591,32.619,15.11,31.888,15.486z
		 M34.179,12.936c-0.071,0.203-0.155,0.392-0.247,0.572c-0.291-0.184-0.579-0.371-0.86-0.567c0.409-0.682,0.894-1.39,1.285-2.132
		c0.104,0.1,0.208,0.2,0.311,0.299C34.557,11.699,34.402,12.302,34.179,12.936z M33.383,6.221c0.14-0.435,0.252-0.878,0.336-1.329
		c0.382,0.804,0.662,1.579,0.849,2.345C34.201,6.867,33.8,6.535,33.383,6.221z M33.228,4.82c0.07,0.012-0.083,0.433-0.341,1.032
		c-0.58-0.423-1.158-0.85-1.678-1.344c0.711,0.022,1.415,0.048,2.115,0.09C33.172,4.666,33.041,4.788,33.228,4.82z M32.714,6.247
		c-0.237,0.532-0.525,1.148-0.814,1.75c-0.622-0.521-1.265-1.005-1.93-1.444c0.279-0.613,0.538-1.237,0.765-1.878
		C31.343,5.259,32.035,5.747,32.714,6.247z M31.727,8.357c-0.487,1.007-0.934,1.892-1.054,2.105c-0.079,0.14-0.17,0.272-0.252,0.411
		c-0.628-0.528-1.248-1.065-1.875-1.597c0.46-0.775,0.878-1.573,1.265-2.39C30.471,7.329,31.11,7.826,31.727,8.357z M28.212,8.996
		c-0.526-0.442-1.058-0.88-1.604-1.299c-0.339-0.261-0.689-0.537-1.043-0.815c0.381-0.54,0.719-1.102,0.938-1.69
		c0.71,0.379,1.532,0.677,2.032,0.932c0.308,0.157,0.609,0.331,0.907,0.517C29.069,7.446,28.658,8.231,28.212,8.996z M25.047,7.012
		c-0.561,0.808-1.199,1.575-1.68,2.265c-0.555-0.392-1.162-0.896-1.801-1.409c0.568-0.713,1.116-1.441,1.631-2.193
		C23.834,6.088,24.452,6.545,25.047,7.012z M21.313,7.669c-0.592-0.469-1.209-0.92-1.836-1.29c0.578-0.575,1.13-1.164,1.539-1.821
		c0.641,0.224,1.274,0.549,1.892,0.929C22.407,6.237,21.871,6.96,21.313,7.669z M30.33,4.479c-0.215,0.622-0.462,1.228-0.727,1.824
		c-0.051-0.031-0.098-0.071-0.148-0.102c-0.678-0.409-1.94-0.791-2.831-1.346c0.054-0.194,0.09-0.392,0.111-0.592
		c0.798,0.051,1.595,0.106,2.388,0.156C29.528,4.446,29.93,4.464,30.33,4.479z M23.945,4.125c-0.105,0.017-0.214,0.05-0.246,0.104
		c-0.181,0.311-0.373,0.612-0.567,0.913c-0.616-0.376-1.252-0.701-1.914-0.926c0.019-0.038,0.046-0.071,0.064-0.109
		C22.168,4.089,23.057,4.093,23.945,4.125z M25.484,37.406c1.272-1.695,1.755-3.544,1.962-5.638c0.192-1.945,0.517-4.65-0.651-6.335
		c-0.173-0.25-1.056,0.129-0.966,0.259c0.969,1.4,0.773,3.19,0.73,4.817c-0.066,2.51-0.41,4.862-1.924,6.911
		c-1.792,0.021-3.651-0.036-5.487-0.231c1.134-1.359,1.671-2.929,2.025-4.674c0.416-2.05,0.954-4.181,0.184-6.207
		c-0.149-0.393-1.108-0.115-0.966,0.259c1.117,2.941-0.096,8.117-2.139,10.515c-1.931-0.258-3.807-0.689-5.514-1.373
		c0.029-0.015,0.058-0.029,0.076-0.045c2.928-2.709,3.518-7.528,2.98-11.293c-0.033-0.231-1.006-0.021-0.966,0.259
		c0.51,3.567-0.016,8.142-2.672,10.832c-1.395-0.622-2.656-1.431-3.717-2.47c1.912-2.194,3.299-5.385,2.792-8.308
		c-0.058-0.333-1.028-0.099-0.966,0.259c0.448,2.587-0.671,5.473-2.309,7.533c-0.447-0.5-0.867-1.031-1.221-1.633
		c-2.524-4.292-1.226-11.088-0.432-15.654c0.469-2.694,1.181-5.44,2.77-7.72c1.421-2.039,4.026-2.75,6.646-3.049
		c-1.179,2.971-2.45,9.413-0.567,12.269c2.147,3.257,6.709,3.596,10.297,3.45c3.281-0.134,8.031,0.034,10.247-2.985
		c2.788-3.799,2.727-8.01,0.935-12.096c0.498,0.12,0.996,0.259,1.492,0.447c4.971,1.88,6.583,6.691,7.024,11.447
		c0.422,4.435,1.032,8.88,0.024,13.283c-0.516,2.253-1.898,3.729-3.7,4.726c0.275-2.132-0.045-4.189-0.803-6.213
		c-0.489-1.304-1.285-3.029-2.465-3.842c-0.214-0.147-1.017,0.247-0.912,0.318c1.197,0.826,1.811,2.508,2.41,3.783
		c0.92,1.954,1.095,4.325,0.774,6.439c-2.123,0.91-4.66,1.298-7.073,1.51c2.716-2.463,1.363-8.816-0.297-11.271
		c-0.17-0.251-1.057,0.125-0.967,0.259c1.495,2.21,3.143,8.938,0.4,11.083c-1.018,0.076-2.002,0.131-2.901,0.188
		C28.357,37.295,26.95,37.371,25.484,37.406z"/>
	<path d="M11.26,13.305c-0.021,0-0.042,0-0.062,0c-0.443,0-1.009,0.339-1.055,0.817c-0.049,0.516,0.499,0.698,0.91,0.698
		c0.021,0,0.042,0,0.062,0c0.443,0,1.009-0.339,1.055-0.817C12.219,13.487,11.671,13.305,11.26,13.305z"/>
	<path d="M40.678,15.577c0.021,0,0.041,0,0.062,0c0.443,0,1.01-0.339,1.055-0.817c0.049-0.516-0.498-0.698-0.91-0.698
		c-0.021,0-0.041,0-0.062,0c-0.443,0-1.01,0.339-1.055,0.817C39.719,15.396,40.266,15.577,40.678,15.577z"/>
	<path d="M14.032,19.848c-0.021,0-0.042,0-0.062,0c-0.443,0-1.009,0.339-1.055,0.817c-0.049,0.516,0.499,0.698,0.91,0.698
		c0.021,0,0.042,0,0.062,0c0.443,0,1.01-0.339,1.055-0.817C14.991,20.03,14.443,19.848,14.032,19.848z"/>
	<path d="M21.006,22.243c-0.021,0-0.042,0-0.062,0c-0.443,0-1.009,0.339-1.055,0.817c-0.049,0.516,0.499,0.698,0.91,0.698
		c0.021,0,0.042,0,0.062,0c0.443,0,1.01-0.339,1.055-0.817C21.965,22.424,21.418,22.243,21.006,22.243z"/>
	<path d="M30.885,21.93c-0.021,0-0.041,0-0.062,0c-0.443,0-1.01,0.339-1.055,0.817c-0.049,0.516,0.498,0.698,0.91,0.698
		c0.021,0,0.041,0,0.062,0c0.443,0,1.01-0.339,1.055-0.817C31.844,22.112,31.297,21.93,30.885,21.93z"/>
	<path d="M37.414,20.606c0.021,0,0.041,0,0.062,0c0.443,0,1.01-0.339,1.055-0.817c0.049-0.516-0.498-0.698-0.91-0.698
		c-0.021,0-0.041,0-0.062,0c-0.443,0-1.01,0.339-1.055,0.817C36.455,20.424,37.002,20.606,37.414,20.606z"/>
</g>
</svg>
