<?xml version="1.0" encoding="utf-8"?>
<!-- Generator: Adobe Illustrator 15.1.0, SVG Export Plug-In . SVG Version: 6.00 Build 0)  -->
<!DOCTYPE svg PUBLIC "-//W3C//DTD SVG 1.1//EN" "http://www.w3.org/Graphics/SVG/1.1/DTD/svg11.dtd">
<svg version="1.1" id="Layer_2" xmlns="http://www.w3.org/2000/svg" xmlns:xlink="http://www.w3.org/1999/xlink" x="0px" y="0px"
	 width="52px" height="46.629px" viewBox="0 0 52 46.629" enable-background="new 0 0 52 46.629" xml:space="preserve">
<g>
	<path d="M27.43,35.349c4.545,0.177,9.741-0.188,13.262-3.461c6.474-6.015,8.797-18.933,1.263-25.091
		c-6.301-5.15-20.111-3.488-26.66,0.164c-0.146,0.081-0.215,0.155-0.255,0.224c-0.029,0.012-0.064,0.02-0.09,0.035
		c-8.241,4.812-12.14,17.319-4.67,24.475C14.521,35.758,22.111,35.142,27.43,35.349z M15.896,7.729
		c0.139-0.081,0.208-0.154,0.249-0.224c0.031-0.012,0.068-0.02,0.096-0.035c6.536-3.645,19.203-4.257,25.191,0.636
		c0.681,0.557,1.245,1.199,1.726,1.896c-0.006,0.007-0.016,0.012-0.021,0.02c-0.494,0.8-1.229,1.581-2.127,2.328
		c0.329-0.997,0.399-2.05,0.057-3.115c-0.087-0.269-0.519-0.231-0.712-0.128c-0.174,0.093-0.312,0.18-0.459,0.311
		C39.634,9.65,39.854,9.78,40.14,9.8c0.317,1.277,0.026,2.498-0.585,3.629c-2.2,1.462-5.037,2.717-8.028,3.589
		c1.936-1.75,3.262-4.12,3.425-6.768c0.024-0.397-0.977-0.192-0.997,0.13c-0.176,2.832-1.681,5.306-3.887,7.03
		c-2.926,0.717-5.912,1.042-8.529,0.813c2.94-1.715,5.141-4.757,5.926-8.044c0.104-0.436-0.911-0.294-1.005,0.099
		c-0.773,3.239-3.025,6.311-6.037,7.81c-1.958-0.309-3.639-0.978-4.844-2.08c2.571-0.441,4.552-4.177,5.253-6.268
		c0.124-0.371-0.883-0.239-1.001,0.114c-0.369,1.1-0.974,2.123-1.614,3.083c-0.63,0.945-1.807,2.667-3.121,2.501
		c-0.021-0.002-0.044,0.002-0.066,0.003c-1.172-1.397-1.703-3.352-1.271-5.995c-0.001,0-0.003,0-0.005,0.001
		c0-0.008,0.007-0.015,0.006-0.023c-0.001-0.032-0.003-0.063-0.005-0.094c0-0.006-0.005-0.009-0.006-0.015
		C14.442,8.698,15.161,8.159,15.896,7.729z M12.107,11.013c-0.725,13.869,25.086,7.899,31.694,0.075
		c2.77,5.39,0.912,13.478-2.03,17.987c-3.487,5.341-9.802,5.513-15.541,5.29c-5.671-0.222-11.347-0.194-15.711-4.375
		C5.277,24.969,7.64,16.284,12.107,11.013z"/>
	<path d="M18.912,25.596c1.57-0.16,3.137-1.085,3.153-2.81c0.017-1.831-2.014-2.704-3.558-2.495c-0.679,0.092-1.249,0.4-1.666,0.839
		c-0.821,0.4-1.272,1.223-1.234,2.294C15.671,25.252,17.362,25.754,18.912,25.596z M20.176,24.818c0.041-0.022,0.08-0.05,0.12-0.074
		c-0.214,0.162-0.456,0.283-0.722,0.361C19.792,25.023,19.996,24.927,20.176,24.818z"/>
	<path d="M24.425,30.551c1.47,0.215,3.138-0.494,3.83-1.845c0.717-1.406-0.569-2.613-1.775-3.081
		c-0.752-0.292-1.903-0.291-2.686,0.166c-0.69,0.279-1.113,1.094-1.236,1.896C22.347,29.045,22.966,30.338,24.425,30.551z
		 M27.396,27.74c-0.001-0.008-0.001-0.016-0.003-0.022c0.004,0.012,0.012,0.021,0.016,0.033C27.404,27.747,27.4,27.743,27.396,27.74
		z M27.433,28.449c0.011-0.131,0.02-0.262,0.012-0.389c0.002-0.02,0.006-0.038,0.007-0.057C27.469,28.16,27.462,28.31,27.433,28.449
		z"/>
	<path d="M29.322,24.714c0.021,0.039,0.066,0.07,0.176,0.083c0.004,0,0.006,0,0.008,0c0.03,0.011,0.061,0.029,0.089,0.04
		c0.836,0.312,1.818,0.333,2.62-0.094c0.942-0.503,1.177-1.485,1.136-2.486c-0.115-2.738-3.447-2.585-4.854-0.905
		c-0.594,0.467-1.025,1.104-0.748,1.894C27.988,23.935,28.66,24.417,29.322,24.714z"/>
	<path d="M46.476,36.608c8.297-7.889,5.883-23.638-1.508-31.41C40.476,0.476,34.152,0.291,28.026,0.12
		C20.706-0.085,14.717-0.431,8.272,3.01C-1.618,7.999-1.99,26.825,3.727,34.635c0.69,0.942,1.514,1.721,2.426,2.378
		c-1.695,0.873-3.023,2.479-3.062,4.484c-0.056,2.941,1.932,4.322,4.605,4.91c3.128,0.688,7.004-0.244,9.452-2.484
		c0.917,2.72,6.104,2.425,8.306,2.36c1.105-0.032,4.913-0.579,7.391-1.785c0.916,3.211,8.462,1.759,10.536,1.1
		c2.255-0.716,4.304-2.686,4.885-5.016C48.716,38.775,48.16,37.013,46.476,36.608z M4.09,31.587
		C0.075,24.606,1.473,7.542,9.484,3.501c5.611-2.997,11.56-2.511,17.739-2.351c6.024,0.156,11.3,0.531,15.883,4.799
		c7.581,7.062,9.472,23.258,1.581,30.783c-1.682,1.604-3.805,2.509-6.134,2.988c-0.115,0.001-0.236,0.02-0.345,0.062
		c-5.116,0.954-11.162-0.048-15.75-0.235C15.337,39.255,7.975,38.34,4.09,31.587z M25.621,42.692
		c-0.413,0.038-0.867-0.086-1.142-0.406c-0.374-0.434-0.081-1.098,0.166-1.521c0.705,0.052,1.422,0.105,2.146,0.157
		C27.213,41.854,26.647,42.597,25.621,42.692z M7.608,45.464c-3.67-1.131-3.991-6.132-0.862-8.056
		c1.429,0.908,3.049,1.542,4.755,1.987c0.004,0.01-0.001,0.021,0.008,0.03c0.449,0.434,0.361,1.156,0.11,1.669
		c-0.241,0.493-0.532,0.624-0.996,0.434c-0.36-0.146-0.677-0.474-0.871-0.802c-0.085-0.146-0.138-0.306-0.158-0.473
		c-0.021-0.182,0.169-0.301-0.067-0.225c0.097-0.031,0.498-0.14,0.452-0.312c-0.044-0.165-0.451-0.073-0.546-0.043
		c-0.553,0.177-0.986,0.484-0.774,1.112c0.204,0.605,0.812,1.071,1.407,1.241c0.733,0.209,1.554-0.084,2.112-0.562
		c0.477-0.408,0.754-1.146,0.611-1.77c1.691,0.348,3.43,0.547,5.113,0.672C16.937,44.988,11.834,46.766,7.608,45.464z M24.278,45.38
		c-1.925-0.005-5.688-0.023-5.781-2.629c-0.004-0.1-0.067-0.161-0.149-0.206c0.426-0.628,0.745-1.326,0.947-2.084
		c0.812,0.047,1.604,0.082,2.361,0.116c0.681,0.031,1.381,0.075,2.092,0.125c-0.001,0.001-0.003,0.002-0.004,0.004
		c-2.14,3.595,4.859,2.987,4.182,0.293c1.699,0.11,3.425,0.191,5.139,0.168c0.006,0.008,0.002,0.015,0.008,0.021
		C35.666,44.457,25.969,45.385,24.278,45.38z M45.876,42.362c-1.139,1.672-2.929,2.269-4.808,2.664
		c-1.469,0.309-6.898,0.909-6.801-1.434c0-0.004-0.003-0.006-0.003-0.011c0.755-0.681,1.052-1.505,0.529-2.482
		c0.948-0.057,1.887-0.155,2.81-0.306c-0.711,3.204,7.136,3.672,6.218-0.043c-0.109-0.439-1.108-0.176-0.999,0.268
		c0.617,2.493-4.876,2.018-4.172-0.413c1.843-0.391,3.603-1.02,5.211-1.994c0.486-0.295,0.94-0.617,1.379-0.952
		c0.057,0.007,0.106,0.021,0.178,0.019C48.143,37.553,46.58,41.325,45.876,42.362z"/>
</g>
</svg>
