<?xml version="1.0" encoding="utf-8"?>
<!-- Generator: Adobe Illustrator 15.1.0, SVG Export Plug-In . SVG Version: 6.00 Build 0)  -->
<!DOCTYPE svg PUBLIC "-//W3C//DTD SVG 1.1//EN" "http://www.w3.org/Graphics/SVG/1.1/DTD/svg11.dtd">
<svg version="1.1" id="Layer_2" xmlns="http://www.w3.org/2000/svg" xmlns:xlink="http://www.w3.org/1999/xlink" x="0px" y="0px"
	 width="52px" height="52px" viewBox="0 0 52 52" enable-background="new 0 0 52 52" xml:space="preserve">
<g>
	<path d="M23.237,36.455c0.908,0.083,1.854,0.122,2.834,0.122c3.489,0,7.431-0.51,11.761-1.523c2.63-0.617,4.916-1.334,6.225-3.889
		c1.193-2.33,1.455-5.349,1.551-7.717c0.18-4.46-0.096-9.539-3.492-13.392c-2.773-3.145-6.958-3.494-10.652-3.802
		c-0.587-0.049-1.172-0.098-1.743-0.157c-5.415-0.556-9.757-0.24-13.665,0.994l-0.482,0.151c-1.922,0.597-4.314,1.34-5.642,2.935
		c-1.178,1.417-3.076,5.906-1.786,7.995c0.089,0.145,0.184,0.279,0.282,0.401c-0.083,0.069-0.167,0.149-0.25,0.242
		c-1.256,1.415-1.505,5.149-1.388,6.33c0.229,2.316,1.327,4.889,2.863,6.711c3.138,3.724,8.138,4.144,12.548,4.512L23.237,36.455z
		 M10.785,10.886c1.117-1.342,3.335-2.031,5.118-2.585l0.487-0.152c3.757-1.188,7.958-1.488,13.219-0.947
		c0.577,0.059,1.169,0.108,1.765,0.158c3.654,0.305,7.433,0.62,9.911,3.431c3.137,3.559,3.386,8.374,3.215,12.614
		c-0.089,2.255-0.334,5.118-1.43,7.257c-1.094,2.134-3.048,2.74-5.489,3.312c-0.681,0.16-1.353,0.306-2.013,0.439
		c0.039-0.023,0.075-0.045,0.112-0.066c0.748-0.449,1.521-0.914,1.902-1.508c0.992-1.538,0.916-3.562,0.849-5.348
		c-0.015-0.44-0.032-0.874-0.032-1.288c0-0.63,0.02-1.278,0.039-1.931c0.115-3.78,0.243-8.064-3.533-10.3
		c-2.873-1.701-6.284-1.975-9.725-1.975c-0.77,0-1.541,0.015-2.307,0.029l0.093-0.13l-0.28,0.133
		c-0.762,0.014-1.516,0.028-2.251,0.028c-0.024,0-0.047,0-0.072,0c-3.403,0-4.721,1.347-6.484,3.564
		c-1.987,2.498-3.15,2.814-3.676,2.789c-0.423-0.025-0.787-0.293-1.112-0.821C8.202,16.149,9.682,12.21,10.785,10.886z
		 M31.577,29.323c-0.306-0.278-0.549-0.67-0.718-1.144c0.037-0.023,0.076-0.041,0.106-0.073c0.126-0.131,0.256-0.291,0.381-0.435
		c0.176,0.186,0.354,0.358,0.527,0.525l0.296,0.285c0.319,0.313,0.683,0.699,1.036,1.089c-0.104,0.108-0.213,0.195-0.323,0.27
		C32.376,29.759,31.915,29.629,31.577,29.323z M33.878,28.665c-0.321-0.349-0.642-0.69-0.93-0.973l-0.308-0.297
		c-0.199-0.189-0.386-0.38-0.565-0.577c0.223-0.277,0.448-0.556,0.669-0.836c0.202-0.255,0.401-0.496,0.603-0.745
		c0.354,0.406,0.695,0.814,1.008,1.27c0.139,0.204,0.251,0.42,0.368,0.634c-0.078,0.141-0.154,0.276-0.232,0.423
		C34.298,27.929,34.092,28.312,33.878,28.665z M35.271,25.882c-0.382-0.561-0.802-1.049-1.218-1.523
		c0.202-0.253,0.407-0.524,0.624-0.812c0.178-0.239,0.364-0.485,0.553-0.725c0.028,0.042,0.059,0.087,0.086,0.129
		c0.195,0.294,0.384,0.574,0.568,0.784c0.093,0.106,0.205,0.231,0.331,0.367c0.089,0.097,0.204,0.224,0.327,0.361
		c-0.375,0.526-0.763,1.063-1.165,1.603C35.34,26.006,35.31,25.942,35.271,25.882z M36.261,26.736
		c0.338-0.452,0.667-0.903,0.985-1.348c0.018,0.036,0.05,0.082,0.059,0.11c-0.004,0.233-0.016,0.474-0.016,0.704
		c0,0.428,0.018,0.875,0.035,1.33c0.013,0.34,0.023,0.682,0.028,1.021c-0.357-0.255-0.852-0.61-0.938-0.706
		c-0.156-0.228-0.281-0.468-0.411-0.706C36.089,26.999,36.176,26.85,36.261,26.736z M37.354,23.296
		c-0.05,0.075-0.11,0.158-0.162,0.234c-0.055-0.06-0.104-0.116-0.161-0.178c-0.116-0.127-0.225-0.245-0.313-0.346
		c-0.156-0.178-0.312-0.417-0.477-0.667c-0.083-0.125-0.172-0.254-0.26-0.382c0.069-0.067,0.136-0.132,0.201-0.186
		c0.028,0.005,0.054,0.008,0.082,0.013c0.351,0.063,0.72,0.115,1.101,0.147C37.372,22.383,37.365,22.839,37.354,23.296z
		 M34.168,21.71c0.018,0.008,0.032,0.022,0.052,0.028c0.098,0.03,0.199,0.1,0.304,0.191c-0.247,0.306-0.494,0.63-0.737,0.955
		c-0.16,0.217-0.318,0.425-0.472,0.625c-0.293-0.335-0.565-0.684-0.823-1.042C33.043,22.089,33.626,21.832,34.168,21.71z
		 M31.64,23.18c0.312,0.425,0.635,0.829,0.969,1.207c-0.245,0.3-0.488,0.596-0.734,0.907c-0.154,0.195-0.311,0.392-0.466,0.586
		c-0.172-0.295-0.364-0.608-0.65-0.871C30.936,24.258,31.245,23.607,31.64,23.18z M30.602,26.68c0.02,0.035,0.044,0.067,0.063,0.102
		c-0.016,0.02-0.033,0.041-0.05,0.06C30.61,26.788,30.602,26.736,30.602,26.68z M35.175,30.18c-0.02-0.037-0.032-0.076-0.059-0.108
		c-0.141-0.167-0.301-0.355-0.472-0.552c0.267-0.402,0.505-0.835,0.729-1.257c0.044,0.067,0.076,0.14,0.122,0.207
		c0.139,0.204,0.466,0.454,1.373,1.1c0.174,0.124,0.325,0.232,0.453,0.327c-0.016,0.196-0.037,0.392-0.065,0.58
		c-0.646-0.026-1.248-0.133-1.876-0.258C35.313,30.205,35.242,30.194,35.175,30.18z M20.455,16.774
		c-0.025-0.018-0.06-0.042-0.079-0.057c-0.129-0.113-0.246-0.235-0.361-0.362c0.201-0.311,0.393-0.628,0.583-0.945
		C20.572,15.918,20.528,16.372,20.455,16.774z M17.507,16.818l-0.283-0.209c-0.012-0.009-0.02-0.014-0.031-0.023
		c0.263-0.299,0.528-0.618,0.792-0.946c0.162,0.193,0.327,0.393,0.515,0.631l0.143,0.179c-0.146,0.23-0.337,0.522-0.546,0.818
		C17.862,17.082,17.647,16.917,17.507,16.818z M20.521,13.419c-0.268,0.406-0.519,0.827-0.763,1.236
		c-0.16,0.268-0.327,0.534-0.492,0.799c-0.208-0.262-0.405-0.5-0.591-0.717c0.338-0.462,0.665-0.937,0.958-1.425l0.07-0.117
		c0.213-0.014,0.421-0.03,0.658-0.03c0.004,0,0.008,0,0.013,0c0.088-0.002,0.184-0.001,0.273-0.003
		C20.583,13.239,20.537,13.327,20.521,13.419z M17.899,13.922c-0.099-0.089-0.195-0.168-0.289-0.239
		c0.194-0.091,0.403-0.168,0.619-0.234C18.122,13.608,18.011,13.766,17.899,13.922z M16.492,14.403
		c0.061,0.012,0.124,0.016,0.19,0.003c0.117,0.022,0.309,0.171,0.55,0.405c-0.314,0.395-0.632,0.767-0.946,1.122
		c-0.306-0.209-0.574-0.373-0.814-0.497C15.818,15.038,16.151,14.692,16.492,14.403z M14.74,16.318
		c0.163,0.057,0.426,0.205,0.788,0.445c-0.505,0.531-0.965,0.98-1.328,1.321c-0.095-0.017-0.191-0.042-0.285-0.059l-0.372-0.067
		c-0.066-0.013-0.147-0.036-0.225-0.057C13.773,17.461,14.245,16.94,14.74,16.318z M16.441,17.41
		c0.042,0.031,0.075,0.053,0.119,0.086l0.302,0.224c0.19,0.136,0.369,0.273,0.54,0.41c-0.17,0.17-0.328,0.289-0.456,0.313
		c-0.131,0.024-0.238,0.099-0.318,0.194c-0.303-0.066-0.609-0.142-0.931-0.227l-0.188-0.049
		C15.795,18.081,16.109,17.763,16.441,17.41z M19.382,18.51c-0.136-0.171-0.283-0.339-0.45-0.505
		c0.159-0.22,0.317-0.449,0.475-0.692c0.08,0.08,0.152,0.162,0.241,0.239c0.068,0.061,0.176,0.137,0.293,0.219
		c0.035,0.024,0.084,0.062,0.13,0.095C19.903,18.141,19.677,18.355,19.382,18.51z M10.501,31.14
		c-1.378-1.636-2.401-4.032-2.607-6.105c-0.115-1.162,0.186-4.438,1.114-5.484c0.129-0.146,0.242-0.21,0.325-0.238
		c0.251,0.119,0.519,0.187,0.803,0.204c0.65,0.043,1.346-0.193,2.094-0.706c0.144-0.017,0.489,0.078,0.667,0.128
		c0.161,0.045,0.314,0.087,0.445,0.111l0.377,0.068c0.458,0.082,0.933,0.167,1.388,0.285l0.309,0.081
		c0.807,0.213,1.636,0.433,2.568,0.433c0.188,0,0.379-0.009,0.576-0.029c1.371-0.137,2.136-0.78,2.571-1.629l0.19-0.157l0.002-0.288
		c0.345-0.947,0.382-2.063,0.411-3.015c0.007-0.263,0.015-0.522,0.029-0.772c0.007-0.133,0.021-0.264,0.036-0.394
		c0.004-0.041,0.007-0.083,0.011-0.125l0.261-0.364c0.225-0.002,0.441-0.004,0.667-0.008c0.645-0.012,1.293-0.021,1.94-0.026
		c0.002,0.216,0.004,0.432,0.007,0.648c0.025,1.953,0.05,3.797-0.396,5.581c-0.277,1.109-1.048,1.894-2.295,2.332
		c-0.458,0.161-0.952,0.238-1.475,0.319c-0.658,0.102-1.339,0.207-1.971,0.495c-0.915,0.417-2.111,1.482-1.659,2.71
		c0.186,0.505,0.599,0.781,0.931,1.003c0.411,0.275,0.553,0.396,0.546,0.679c-0.004,0.187-0.13,0.298-0.463,0.545
		c-0.336,0.25-0.754,0.561-0.905,1.129c-0.239,0.9,0.116,1.756,0.375,2.377c0.046,0.113,0.09,0.219,0.127,0.316
		c0.083,0.224,0.295,0.359,0.52,0.359c0.064,0,0.13-0.011,0.194-0.034c0.287-0.106,0.433-0.427,0.326-0.713
		c-0.041-0.11-0.089-0.228-0.142-0.353c-0.22-0.531-0.47-1.131-0.327-1.668c0.049-0.185,0.22-0.319,0.495-0.523
		c0.376-0.28,0.892-0.664,0.911-1.408c0.022-0.918-0.617-1.346-1.039-1.628c-0.239-0.16-0.445-0.298-0.506-0.464
		c-0.168-0.456,0.531-1.069,1.078-1.318c0.494-0.225,1.07-0.314,1.681-0.408c0.55-0.086,1.12-0.174,1.674-0.369
		c1.597-0.562,2.636-1.637,3.003-3.109c0.48-1.924,0.454-3.927,0.429-5.864c-0.003-0.211-0.003-0.423-0.006-0.635
		c3.075,0.035,6.079,0.353,8.551,1.816c2.201,1.303,2.84,3.48,2.989,5.894c-0.288-0.03-0.574-0.073-0.868-0.126
		c-0.563-0.101-1.146-0.208-1.826-0.179c-1.394,0.055-2.804,0.94-3.657,1.75c-0.669,0.634-1.158,1.687-1.373,2.869
		c-0.002,0.012-0.005,0.022-0.007,0.034c-0.079,0.446-0.123,0.908-0.117,1.375c0.016,1.546,0.496,2.827,1.353,3.602
		c0.617,0.56,1.395,0.734,2.145,0.832c0.004,0,0.011,0.005,0.015,0.005c0.002,0,0.005-0.003,0.009-0.003
		c0.174,0.024,0.347,0.046,0.514,0.063c0.242,0.025,0.48,0.05,0.706,0.086c0.325,0.053,0.635,0.115,0.942,0.178
		c0.572,0.115,1.177,0.213,1.815,0.261c-0.089,0.233-0.192,0.461-0.327,0.671c-0.242,0.377-0.934,0.791-1.542,1.157
		c-0.773,0.466-1.467,0.882-1.719,1.421c-3.732,0.617-7.102,0.797-10.054,0.535l-1.041-0.089
		C18.099,34.911,13.343,34.512,10.501,31.14z"/>
	<path d="M46.535,37.127c1.079-0.896,2.048-1.947,2.852-3.197c3.256-5.064,2.246-13.183,1.885-18.877
		c-0.393-6.204-3.627-11.627-9.996-12.892c-8.141-1.617-16.849-3.213-25.038-1.259c-2.923,0.697-7.237,1.333-9.679,3.262
		C4.838,5.522,4.138,7.032,3.512,8.679c-5.426,9.688-4.871,23.083,3.822,29.869c-4.038,3.25-4.443,10.615,1.882,11.127
		c2.694,0.217,6.063-0.117,8.33-1.684c0.239-0.165,0.493-0.4,0.748-0.681c4.184,5.014,11.767,4.342,15.041-0.225
		c3.323,3.761,8.329,4.068,12.987,2.214C51.434,47.264,50.853,39.653,46.535,37.127z M3.811,12.864
		c0.045-0.046,0.084-0.096,0.114-0.15c0.688-1.239,1.161-2.679,1.756-4.043c0.486-0.864,1.011-1.682,1.581-2.426
		C7.4,6.062,7.452,5.907,7.448,5.773C7.906,5.277,8.44,4.839,9.096,4.496c2.628-1.375,6.35-1.926,9.235-2.614
		c6.217-1.483,13.993,0.272,20.215,1.378c7.056,1.254,9.818,5.689,10.583,12.367c0.608,5.316,0.619,11.772-1.179,16.845
		c-2.489,7.015-11.861,7.628-18.074,8.037c-6.02,0.396-11.878,0.944-17.671-1.138C1.898,35.665,0.42,22.648,3.811,12.864z
		 M27.66,45.441c-0.993,0.585-1.986-0.91-2.302-1.584c-0.204-0.433-0.314-0.907-0.372-1.384c1.602-0.108,3.187-0.26,4.725-0.412
		C29.952,43.373,28.69,44.833,27.66,45.441z M12.784,45.331c-0.313-0.021-0.688-0.091-1.06-0.204
		c0.349-0.039,0.689-0.11,0.984-0.221c1.336-0.503,1.647-1.915,1.226-3.103c0.508,0.135,1.025,0.247,1.548,0.343
		C15.432,43.544,14.181,45.427,12.784,45.331z M17.503,46.236c-1.338,2.457-4.373,2.418-6.794,2.518
		c-5.798,0.238-5.887-6.573-2.524-9.584c0.855,0.589,1.771,1.126,2.77,1.59c0.509,0.236,1.034,0.436,1.565,0.62
		c0.617,0.836,0.73,2.008,0.189,2.943c-0.809,1.396-2.678-0.175-2.682-1.284c0-0.154-1.009,0.034-1.062,0.245
		c-0.004,0.015-0.003,0.027-0.006,0.041c-0.001,0.002-0.001,0.002-0.003,0.002c0,0.002,0.001,0.004,0.001,0.007
		c-0.427,1.893,2.452,2.571,3.861,2.396c1.643-0.203,3.444-1.688,3.715-3.41c0.73,0.103,1.469,0.176,2.215,0.222
		C18.974,43.734,18.014,45.301,17.503,46.236z M29.637,49.369c-3.477,2.292-8.368-0.503-10.375-3.36
		c0.67-1.085,1.177-2.367,1.164-3.398c1.152,0.02,2.313-0.016,3.471-0.074c0.212,1.803,1.393,4.034,3.518,3.473
		c1.535-0.405,3.619-2.272,3.418-4.056c0.734-0.071,1.46-0.141,2.164-0.199c0.086-0.006,0.173-0.017,0.26-0.023
		C33.414,44.689,32.155,47.705,29.637,49.369z M47.84,46.88c-1.266,3.137-6.525,3.144-9.175,2.433
		c-1.949-0.521-3.373-2.077-4.504-3.642c-0.002-0.002-0.007-0.002-0.009-0.004c0.533-1.189,0.806-2.569,0.741-4.114
		c1.268-0.162,2.534-0.386,3.773-0.691c-0.704,0.995-1.104,2.158-0.641,3.369c0.523,1.36,2.112,1.897,3.432,1.963
		c1.108,0.056,2.186-0.349,2.941-1.148c0.559-0.592,1.284-1.741,0.375-2.338c-0.371-0.24-1.698,0.416-1.519,0.533
		c0.646,0.423,0.255,1.142-0.074,1.651c-0.19,0.294-0.455,0.573-0.745,0.773c0.195-0.191,0.05-0.238-0.439-0.142
		c-0.395-0.054-0.761-0.217-1.113-0.394c-2.043-1.038-1.593-3.257-0.487-4.758c1.804-0.58,3.518-1.362,5.049-2.415
		C48.064,39.835,49.049,43.882,47.84,46.88z"/>
</g>
</svg>
