<?xml version="1.0" encoding="utf-8"?>
<!-- Generator: Adobe Illustrator 15.1.0, SVG Export Plug-In . SVG Version: 6.00 Build 0)  -->
<!DOCTYPE svg PUBLIC "-//W3C//DTD SVG 1.1//EN" "http://www.w3.org/Graphics/SVG/1.1/DTD/svg11.dtd">
<svg version="1.1" id="Layer_2" xmlns="http://www.w3.org/2000/svg" xmlns:xlink="http://www.w3.org/1999/xlink" x="0px" y="0px"
	 width="52px" height="49.799px" viewBox="0 0 52 49.799" enable-background="new 0 0 52 49.799" xml:space="preserve">
<g>
	<path d="M46.919,36.068c-0.076-0.029-0.194-0.027-0.329-0.014c1.818-1.525,3.329-3.492,4.389-6.021
		c1.287-3.068,1.033-6.514,0.832-9.742c-0.226-3.592,0.406-7.317-1.1-10.674c-2.126-4.74-9.538-8.977-14.518-9.479
		c-4.021-0.405-8.328,0.214-12.417,0.059c-3.149-0.119-6.289,0.651-9.273,1.557C10.169,3.069,4.719,4.749,3.158,9.508
		c-2,6.724-2.602,14.462-0.682,21.26c0.729,2.576,2.194,4.373,4.066,5.658c-2.352,0.354-4.555,1.469-5.841,3.575
		c-2.049,3.36,0.723,8.235,4.065,9.304c3.12,0.997,8.221,0.393,11.143-0.992c0.322-0.152,0.59-0.34,0.832-0.541
		c2.403,2.291,6.531,1.324,9.692,1.508c4.206,0.246,6.956,0.033,9.777-2.772c0.332,0.425,0.765,0.796,1.297,1.13
		c2.634,1.647,6.871,1.221,9.683,0.316c2.719-0.875,4.369-2.488,4.748-5.402C52.374,39.199,49.76,37.128,46.919,36.068z
		 M15.976,45.375c-0.245,3.244-4.488,2.959-6.884,2.984c-3.495,0.037-5.478-1.064-6.523-4.494c-1.224-4.016,1.845-6.626,5.74-6.34
		c0.052,0.004,0.107,0.002,0.163-0.004c0.706,0.33,1.453,0.601,2.215,0.845c0.417,0.843,0.671,1.665,0.756,2.432
		c0.051,0.448,0.016,0.862-0.088,1.159c-0.112,0.297-0.258,0.48-0.514,0.664c-0.188,0.145-0.543,0.257-0.989,0.324
		c-0.429,0.074-0.89,0.091-1.329,0.063c-0.867-0.108-1.659-0.168-1.578-1.454H6.939l0.015-0.037l0.123-0.309L6.786,41.48
		c-0.222,0.207-0.397,0.479-0.491,0.821c-0.083,0.341-0.047,0.772,0.149,1.117c0.388,0.703,1.038,1.087,1.65,1.315
		c0.624,0.232,1.267,0.322,1.928,0.312c0.331-0.015,0.667-0.05,1.019-0.142c0.336-0.09,0.771-0.262,1.084-0.504
		c0.641-0.443,1.144-1.23,1.252-2.008c0.126-0.776-0.039-1.484-0.295-2.082c-0.283-0.608-0.675-1.146-1.146-1.574
		c1.307,0.345,2.653,0.604,3.983,0.813c-0.118,0.121-0.204,0.255-0.199,0.408C15.786,41.775,16.114,43.552,15.976,45.375z
		 M35.064,45.793c-2.553,2.965-5.664,2.546-9.15,2.506c-2.962-0.033-6.33,0.725-8.002-2.357c0.556-1.854,0.091-4.229-0.038-6.1
		c1.363,0.189,2.801,0.372,4.283,0.528c-0.007,0.028-0.027,0.055-0.025,0.084c0.176,2.339,1.537,4.069,3.998,4.047
		c2.177-0.021,3.394-1.856,4.033-3.696c1.748-0.014,3.491-0.104,5.188-0.324c-0.078,0.09-0.115,0.178-0.047,0.25
		c0.53,0.568,0.163,2.604,0.147,3.324c-0.013,0.543,0.067,1.02,0.216,1.45C35.396,45.581,35.161,45.68,35.064,45.793z M23.78,40.527
		c1.613,0.142,3.263,0.246,4.923,0.277c-0.025,0.03-0.059,0.061-0.068,0.094c-0.498,1.511-1.41,3.563-3.372,2.393
		C24.304,42.719,23.924,41.592,23.78,40.527z M12.247,37.509c-11.4-3.264-9.585-19.66-6.993-28.378
		c2.107-6.425,13.354-8.217,18.989-8.003c5.944,0.225,11.794-0.76,17.046,2.511c4.119,2.565,7.896,5.484,8.287,10.641
		c0.387,5.127,0.846,11.212-0.693,16.132C44.727,43.699,22.686,40.496,12.247,37.509z M49.58,44.34
		c-0.68,2.814-3.771,3.436-6.357,3.428c-2.719-0.008-5.687-1.189-5.644-4.281c0.012-0.851,0.339-2.551-0.181-3.342
		c1.363-0.269,2.678-0.639,3.935-1.105c-0.504,0.309-0.88,0.85-1.067,1.438c-0.131,0.428-0.173,0.914-0.045,1.436
		c0.119,0.518,0.479,1.072,1,1.402c0.149,0.08,0.223,0.129,0.442,0.219c0.001,0.002,0.183,0.059,0.258,0.072l0.188,0.03
		c0.229,0.022,0.42,0.031,0.613,0.024c0.381-0.014,0.746-0.062,1.11-0.15c0.364-0.085,0.724-0.227,1.079-0.398
		c0.176-0.104,0.354-0.2,0.52-0.348c0.084-0.074,0.166-0.15,0.237-0.259c0.075-0.099,0.099-0.302-0.009-0.353
		c-0.023,0.117-0.116,0.094-0.184,0.08c-0.067-0.012-0.146-0.026-0.228-0.051c-0.159-0.048-0.319-0.084-0.481-0.144
		c-0.322-0.081-0.646-0.188-0.963-0.261c-0.318-0.079-0.638-0.139-0.937-0.201c-0.147-0.031-0.298-0.055-0.404-0.086
		c-0.159-0.035,0.036,0.002-0.062-0.034c-0.06-0.037-0.117-0.069-0.205-0.201c-0.086-0.129-0.163-0.34-0.219-0.588
		c-0.098-0.51-0.172-1.11,0.035-1.885c-0.054,0.006-0.098,0.036-0.15,0.048c1.24-0.501,2.419-1.102,3.503-1.846
		c1.919,0.757,3.716,2.07,4.29,4.086C49.961,42.139,49.836,43.283,49.58,44.34z"/>
	<path d="M30.463,8.411C26.36,8.353,21.55,8.43,17.484,9.317c-0.098,0.009-0.208,0.028-0.335,0.067
		c-0.171,0.04-0.294,0.094-0.395,0.15C9.236,12.151,6.792,22.05,10.53,28.682c3.935,6.979,17.938,5.5,24.021,2.916
		c3.885-1.649,6.303-3.697,7.516-7.862c0.979-3.357,0.877-8.997-1.455-11.78C37.967,8.797,34.37,8.467,30.463,8.411z M31.312,9.106
		c1.319,0.131,2.562,0.34,3.683,0.627c-0.222,0.306-0.388,0.628-0.569,1.014c-1.138,2.406-2.97,3.349-5.775,3.397
		c0.017-0.042,0.019-0.085,0.002-0.13C27.925,12.04,29.552,9.927,31.312,9.106z M30.189,9.013c-1.734,1.068-3.267,3.095-2.651,5.11
		c-0.974-0.058-1.887-0.217-2.705-0.504c0.029-0.048,0.047-0.1,0.036-0.155c-0.205-0.995-0.328-1.982,0.274-2.87
		c0.233-0.344,0.52-0.655,0.807-0.953c0.108-0.109,0.22-0.215,0.335-0.317c0.139-0.127,0.6-0.272,0.184-0.251
		c0.115-0.006,0.26-0.067,0.391-0.146C27.982,8.916,29.104,8.94,30.189,9.013z M23.703,13.101c-1.281-0.752-2.196-1.964-2.552-3.782
		c1.448-0.184,2.976-0.309,4.517-0.364c-0.361,0.268-0.679,0.611-0.967,0.942C23.813,10.917,23.56,11.878,23.703,13.101z
		 M40.816,21.421c-0.33,0.038-0.696,0.022-1.08,0.001C38.98,21.38,38.2,21.337,37.493,21.7c-0.948,0.486-1.597,1.34-2.226,2.165
		c-0.183,0.239-0.361,0.476-0.545,0.697c-1.064,1.281-2.086,1.77-3.486,1.702c-0.854-0.043-1.729-0.062-2.594-0.08
		c-0.533-0.011-1.062-0.022-1.582-0.04c-0.826-0.027-1.641-0.009-2.459,0.01c-0.874,0.019-1.779,0.039-2.68,0l-0.449-0.018
		c-1.724-0.065-2.764-0.104-3.846-1.316c-0.881-0.988-1.713-1.921-3.399-2.415c-0.491-0.144-0.953-0.135-1.401-0.129
		c-0.301,0.004-0.591,0.009-0.879-0.033c-0.602-0.087-1.166-0.095-1.737-0.06c-0.011-0.381-0.011-0.765,0.01-1.151
		c0.587-0.132,1.406-0.11,2.101-0.085c0.268,0.01,0.519,0.02,0.737,0.02l0.314-0.001c1.099-0.006,2.062-0.008,3.006,0.486
		c0.773,0.406,1.428,1.012,2.061,1.599c1.071,0.993,2.179,2.021,3.883,2.111c0.789,0.042,1.587,0.056,2.383,0.056
		c0.798,0,1.593-0.014,2.375-0.027c0.919-0.017,1.818-0.042,2.751-0.021c0.466,0.011,0.95,0.024,1.414-0.09
		c0.628-0.154,1.021-0.52,1.399-0.874c0.111-0.104,0.226-0.21,0.35-0.312c0.457-0.382,0.913-0.788,1.369-1.193
		c0.513-0.455,1.023-0.909,1.535-1.329c0.774-0.637,1.617-0.979,2.651-1.08c0.425-0.04,0.845-0.097,1.261-0.154
		c0.373-0.05,0.736-0.098,1.1-0.136C40.895,20.481,40.861,20.954,40.816,21.421z M30.137,28.582
		c-0.09-0.559-0.175-1.129-0.055-1.527c0.37,0.01,0.745,0.016,1.111,0.033c0.101,0.005,0.199,0.008,0.295,0.008
		c0.486,0,0.938-0.07,1.365-0.203c-0.033,0.608,0.066,1.344,0.151,1.932c0.028,0.188,0.054,0.357,0.069,0.496
		c0.027,0.255,0.029,0.537,0.031,0.834c0.004,0.4,0.008,0.808,0.078,1.175c-0.951,0.274-1.939,0.479-2.933,0.635v-2.329
		C30.253,29.312,30.195,28.957,30.137,28.582z M11.426,27.018c-0.656-1.165-1.025-2.547-1.16-4.012
		c0.512-0.032,1.01-0.025,1.561,0.055c0.354,0.052,0.687,0.046,1.012,0.041c0.404-0.004,0.786-0.012,1.156,0.096
		c1.36,0.399,2.047,1.086,3.015,2.172c1.09,1.22,2.224,1.462,3.569,1.548c0.04,0.452-0.02,1.417-0.052,1.932
		c-0.022,0.36-0.042,0.672-0.042,0.854c0,0.273,0.023,0.602,0.047,0.949c0.043,0.619,0.088,1.347-0.001,1.875
		C16.757,32.214,13.547,30.777,11.426,27.018z M21.089,32.564c0.087-0.582,0.038-1.299-0.008-1.951
		c-0.023-0.334-0.046-0.649-0.046-0.911c0-0.173,0.02-0.472,0.041-0.818c0.059-0.938,0.082-1.54,0.054-1.936
		c0.104,0.004,0.205,0.008,0.311,0.013l0.445,0.018c0.449,0.021,0.895,0.024,1.336,0.021c-0.015,0.511,0.001,1.035,0.033,1.553
		c0.025,0.413,0.05,0.824,0.05,1.219c0,0.527-0.017,1.045-0.034,1.562c-0.014,0.408-0.023,0.823-0.027,1.248
		C22.509,32.607,21.791,32.604,21.089,32.564z M23.798,32.553c0.005-0.402,0.01-0.804,0.023-1.199
		c0.017-0.523,0.034-1.047,0.034-1.582c0-0.404-0.026-0.828-0.052-1.252c-0.032-0.516-0.049-1.033-0.032-1.526
		c0.284-0.004,0.57-0.009,0.848-0.015c0.805-0.018,1.607-0.035,2.414-0.008c0.523,0.016,1.057,0.027,1.592,0.039
		c0.3,0.006,0.6,0.02,0.898,0.027c-0.102,0.492-0.021,1.068,0.068,1.634c0.057,0.353,0.109,0.685,0.109,0.964v2.411
		c-1.934,0.271-3.851,0.377-5.49,0.486C24.073,32.541,23.937,32.545,23.798,32.553z M33.734,31.16
		c-0.055-0.309-0.075-0.653-0.077-1.01c-0.003-0.299-0.005-0.609-0.036-0.893c-0.018-0.145-0.042-0.32-0.07-0.516
		c-0.091-0.631-0.208-1.521-0.111-2.078c0.682-0.327,1.31-0.842,1.918-1.576c0.191-0.23,0.379-0.476,0.566-0.724
		c0.573-0.752,1.164-1.53,1.945-1.931c0.51-0.26,1.145-0.225,1.822-0.188c0.344,0.019,0.692,0.034,1.035,0.012
		c-0.148,1.13-0.373,2.188-0.639,3.098C39.168,28.52,36.676,30.21,33.734,31.16z M40.91,19.174c-0.411,0.04-0.814,0.092-1.211,0.146
		c-0.406,0.056-0.814,0.111-1.229,0.151c-1.203,0.116-2.188,0.517-3.097,1.263c-0.521,0.427-1.038,0.887-1.56,1.349
		c-0.449,0.4-0.9,0.8-1.353,1.178c-0.134,0.112-0.259,0.229-0.381,0.342c-0.345,0.32-0.616,0.573-1.034,0.676
		c-0.355,0.089-0.781,0.078-1.195,0.067c-0.943-0.023-1.856,0.004-2.787,0.021c-1.548,0.027-3.149,0.056-4.701-0.028
		c-1.406-0.075-2.358-0.958-3.366-1.892c-0.672-0.623-1.368-1.268-2.239-1.724c-1.125-0.59-2.223-0.589-3.392-0.581h-0.311
		c-0.209,0-0.449-0.009-0.706-0.019c-0.679-0.025-1.413-0.045-2.051,0.053c0.501-4.472,3.025-8.971,7.01-10.189
		c0.848-0.197,1.778-0.368,2.753-0.517c0.832,4.688,5.248,5.292,9.465,5.039c1.147-0.069,2.492-0.328,3.508-0.889
		c1.592-0.878,1.822-2.376,2.693-3.677C39.596,11.17,40.859,15.19,40.91,19.174z"/>
	<path d="M39.988,8.11C35.863,5.554,29.693,5.805,25.07,6.097c-4.121,0.259-9.311,0.548-12.986,2.63
		c-0.098,0.056-0.157,0.102-0.206,0.146c-0.016,0.01-0.042,0.02-0.053,0.031c-6.917,6.261-7.806,19.375,0.119,25.313
		c3.622,2.713,9.646,1.829,13.809,1.66c4.229-0.171,8.847-0.927,12.509-3.18C46.406,27.686,49.146,13.784,39.988,8.11z
		 M38.282,31.832c-5.052,3.706-12.27,3.543-18.267,3.482c-5.321-0.055-8.725-2.529-10.779-7.301
		c-2.778-6.453-1.179-14.369,3.933-19.091c3.577-1.941,9.485-2.02,13.347-2.263c4.504-0.284,9.346,0.381,13.223,2.783
		C47.3,14.128,44.152,27.523,38.282,31.832z"/>
</g>
</svg>
