<?xml version="1.0" encoding="utf-8"?>
<!-- Generator: Adobe Illustrator 15.1.0, SVG Export Plug-In . SVG Version: 6.00 Build 0)  -->
<!DOCTYPE svg PUBLIC "-//W3C//DTD SVG 1.1//EN" "http://www.w3.org/Graphics/SVG/1.1/DTD/svg11.dtd">
<svg version="1.1" id="Layer_3" xmlns="http://www.w3.org/2000/svg" xmlns:xlink="http://www.w3.org/1999/xlink" x="0px" y="0px"
	 width="52px" height="52px" viewBox="0 0 52 52" enable-background="new 0 0 52 52" xml:space="preserve">
<g>
	<path d="M51.853,17.385C51.636,9.908,48.432,3.096,40.755,1.215C34.007-0.437,26.132-0.088,19.263,0.37
		c-4.78,0.319-9.015,2.104-12.815,4.896C6.422,5.285,6.407,5.3,6.387,5.317C6.36,5.339,6.321,5.359,6.303,5.382
		c-3.74,4.907-5.736,10.207-6.249,16.359c-0.65,7.806,4.56,11.39,11.248,13.63c0.069,0.022,0.142,0.04,0.212,0.062
		c0.022,0.032,0.043,0.065,0.086,0.098c1.045,0.743,0.965,2.037,0.881,3.145c-0.102,1.337-1.567,2.78-2.621,1.908
		c1.968-0.597,2-3.597-0.208-4.593c-4.229-1.91-6.393,2.339-5.609,6.054c0.863,4.091,6.291,5.602,9.738,4.189
		c1.191-0.487,2.296-1.269,3.174-2.227c2.158,3.386,7.503,3.851,11.062,3.181c1.901-0.356,3.066-1.209,3.777-2.354
		c2.225,1.463,4.034,2.937,6.877,3.107c2.071,0.125,3.895-0.202,5.799-1.028c1.899-0.823,3.315-2.363,3.759-4.388
		c0.674-3.078-2.267-5.185-4.534-6.486c1.522-0.56,2.94-1.273,4.112-2.242C52.982,29.514,52.028,23.483,51.853,17.385z
		 M10.029,45.935c-2.592-0.242-4.576-2.438-5.086-4.856c-0.215-1.02,0.079-2.337,0.409-3.291c1.671-1.805,3.167-1.927,4.485-0.367
		c0.732,0.919,0.501,1.752-0.691,2.502c-0.307-0.032-0.882,0.217-0.66,0.605c2.39,4.169,6.543-1.416,4.842-4.553
		c1.24,0.342,2.5,0.631,3.776,0.871c-0.02,0.074-0.021,0.152,0.027,0.237C19.914,41.825,14.566,46.363,10.029,45.935z
		 M27.389,46.828c-3.208,0.6-8.177-0.463-9.729-3.705c1.225-1.771,1.668-3.959,0.643-6.07c1.81,0.296,3.64,0.503,5.476,0.632
		c-0.18,1.093-0.239,2.598,0.52,3.566c0.477,0.608,1.2,0.923,2.151,0.938c0.017,0,0.034,0,0.05,0c1.63,0,1.987-1.247,2.114-2.193
		c0.074-0.565,0.136-1.165,0-1.725c-0.035-0.139-0.101-0.274-0.17-0.405c1.132,0.011,2.255,0.003,3.369-0.027
		C31.887,41.692,32.647,45.84,27.389,46.828z M27.833,37.861c0.026,0.051,0.053,0.104,0.079,0.152
		c0.073,0.135,0.148,0.274,0.176,0.386c0.115,0.469,0.062,0.988-0.01,1.524c-0.164,1.222-0.622,1.725-1.577,1.725
		c-0.014,0-0.028,0-0.043,0c-0.78-0.013-1.363-0.258-1.734-0.73c-0.649-0.83-0.576-2.195-0.406-3.191
		C25.492,37.8,26.664,37.843,27.833,37.861z M46.445,44.669c-1.688,2.928-5.828,3.174-8.792,2.603
		c-2.085-0.401-3.668-2.033-5.401-3.129c-0.021-0.015-0.055-0.019-0.086-0.022c0.774-1.79,0.736-4.091,0.696-6.31
		c1.765-0.065,3.729-0.194,5.71-0.494c-0.488,1.06-0.783,2.89-0.481,4.249c0.169,0.765,0.502,1.288,0.987,1.554
		c0.467,0.256,1.028,0.385,1.599,0.385c0.521,0,1.047-0.108,1.509-0.327c0.771-0.363,1.272-0.982,1.416-1.737l0.058-0.305
		l-0.311-0.017c-1.476-0.073-2.164-0.604-2.233-1.716c-0.049-0.765,0.051-1.267,0.344-1.729c0.212-0.334,0.534-0.511,0.849-0.682
		c0.184-0.1,0.372-0.203,0.532-0.336c0.047-0.038,0.063-0.093,0.078-0.146C45.913,38.292,48.52,41.072,46.445,44.669z
		 M40.575,39.437c0.114,1.802,1.589,2.125,2.41,2.199c-0.171,0.449-0.529,0.814-1.03,1.053c-0.816,0.385-1.865,0.367-2.617-0.042
		c-0.426-0.236-0.627-0.781-0.72-1.199c-0.316-1.416,0.089-3.453,0.636-4.253c0.88-0.149,1.747-0.34,2.603-0.569
		c-0.304,0.175-0.618,0.388-0.853,0.76C40.556,38.09,40.537,38.817,40.575,39.437z M28.034,36.945
		c-0.008-0.002-0.01-0.013-0.02-0.015c-0.026-0.009-0.051,0.009-0.077,0.011c-1.52-0.102-2.924-0.229-4.13-0.334
		c-5.703-0.502-11.477-1.771-16.525-4.54C-2.478,26.713,3.099,11.98,8.178,5.294c5.47-3.962,11.089-4.156,17.566-3.865
		c5.991,0.269,11.809-0.71,17.43,2.084c5.093,2.532,6.353,9.429,6.592,14.431c0.247,5.186,1.042,10.809-2.666,14.988
		C43.236,37.285,34.598,37.372,28.034,36.945z"/>
	<path d="M45.352,16.961c-0.146-1.468-0.312-3.131-1.144-4.459c-1.045-1.666-2.472-2.579-4.294-3.438
		c-0.354-0.167-0.713-0.345-1.074-0.523c-1.212-0.599-2.463-1.217-3.77-1.557c-2.161-0.562-4.648-0.842-6.795-1.042
		c-1.762-0.162-3.223-0.21-4.745-0.136c-1.703,0.083-3.254,0.488-4.896,0.916l-0.341,0.089c-2.84,0.738-7.721,3.322-9.205,6.606
		l-0.373,1.689c-0.188,0.854-0.145,2.008-0.111,2.936c0.011,0.295,0.021,0.562,0.021,0.776c0,1.589,0.156,3.13,0.464,4.582
		c0.711,3.353,2.208,5.786,4.576,7.436c3.145,2.19,6.906,2.797,9.462,3.064c1.699,0.178,2.956,0.254,4.203,0.254
		c1.898,0,3.887-0.19,6.443-0.616c3.358-0.562,7.126-2.926,9.16-5.753c1.934-2.689,2.852-6.604,2.453-10.47L45.352,16.961z
		 M33.642,32.738c-2.546,0.425-4.433,0.606-6.311,0.606c-1.217,0-2.449-0.076-4.119-0.249c-3.921-0.41-6.807-1.339-9.083-2.924
		c-2.191-1.527-3.58-3.797-4.247-6.939c-0.296-1.397-0.446-2.882-0.446-4.414c0-0.163-0.006-0.362-0.014-0.574
		c0.994,0.31,2.363,0.021,3.13-0.408c0.564-0.315,1.065-0.832,1.459-1.433c0.432,0.649,0.936,1.184,1.466,1.737
		c0.22,0.23,0.444,0.463,0.665,0.708c0.281,0.312,0.557,0.531,0.833,0.691c0.016,0.031,0.017,0.067,0.044,0.092
		c0.393,0.352,0.014,2.054-0.189,2.969c-0.073,0.33-0.139,0.626-0.18,0.92l0.015,0.124c-0.082,0.598,0.178,1.129,0.697,1.418
		c0.26,0.145,0.555,0.216,0.85,0.216c0.404,0,0.809-0.134,1.125-0.393c0.974-0.801,1.108-1.994,1.108-3.164
		c0-0.289-0.017-0.556-0.033-0.808c-0.053-0.817-0.091-1.408,0.511-2.143c0.382-0.466,0.9-0.794,1.448-1.142
		c0.464-0.294,0.944-0.598,1.356-1.001c0.857-0.837,0.986-2.041,1.044-3.201c0.012-0.243,0.017-0.542,0.008-0.862
		c0.099,0.008,0.197,0.019,0.29,0.048c0.417,0.133,0.739,0.494,0.985,1.104c0.731,1.812-1.14,3.844-2.378,5.188l-0.185,0.201
		c-0.682,0.745-1.414,1.664-1.674,2.843c-0.172,0.782-0.497,2.727,0.203,3.9c0.209,0.35,0.744,1.143,1.297,1.143
		c0.021,0,0.041-0.001,0.061-0.003c0.148-0.016,0.256-0.148,0.24-0.297c-0.016-0.149-0.15-0.258-0.297-0.24
		c-0.125-0.002-0.5-0.315-0.837-0.879c-0.618-1.035-0.263-2.947-0.139-3.508c0.232-1.053,0.911-1.901,1.545-2.593l0.184-0.2
		c1.331-1.444,3.34-3.627,2.482-5.755c-0.306-0.758-0.75-1.235-1.321-1.418c-0.158-0.05-0.322-0.072-0.488-0.078
		c-0.039-0.431-0.115-0.865-0.251-1.247c0.383,0,0.766,0.001,1.156,0.003l1.272,0.003c3.425,0,6.12,0.395,8.237,1.208
		c1.501,0.576,2.645,1.392,3.826,2.727l0.232,0.259c0.438,0.483,0.891,0.982,1.094,1.524c0.071,0.188,0.111,0.389,0.146,0.592
		c-0.146-0.013-0.296-0.021-0.439-0.037c-0.793-0.088-1.621-0.18-2.518,0.181c-0.983,0.397-2.223,0.979-3.059,1.963
		c-1.839,2.165-2.573,4.852-1.963,7.187c0.736,2.823,3.197,3.868,5.872,4.484C36.848,31.804,35.199,32.479,33.642,32.738z
		 M23.9,10.776c0.148,0.32,0.249,0.761,0.3,1.295c-0.883,0.17-1.816,0.758-2.611,1.266c-0.363,0.231-0.705,0.45-0.995,0.6
		c-1.293,0.665-4.327,1.302-5.679,0.316c0.3-0.872,0.687-1.739,1.386-2.273c0.863-0.66,2.038-0.868,3.179-0.995
		C20.952,10.821,22.406,10.781,23.9,10.776z M19.874,20.95c0.015,0.241,0.032,0.497,0.032,0.773c0,1.199-0.155,2.125-0.911,2.746
		c-0.372,0.306-0.949,0.357-1.368,0.123c-0.189-0.105-0.496-0.359-0.423-0.929l-0.016-0.116c0.037-0.223,0.101-0.51,0.171-0.829
		c0.268-1.205,0.461-2.221,0.326-2.89c0.324,0.08,0.658,0.103,1.01,0.103c0.205,0,0.416-0.007,0.634-0.015
		c0.168-0.006,0.354-0.009,0.538-0.012C19.832,20.246,19.85,20.587,19.874,20.95z M19.979,19.362
		c-0.232,0.002-0.459,0.007-0.668,0.015c-1.191,0.039-1.907,0.065-2.766-0.889c-0.024-0.027-0.049-0.051-0.073-0.078
		c0.454-0.14,0.889-0.455,1.28-0.748c0.172-0.129,0.338-0.254,0.54-0.382c0.233-0.148,0.41-0.271,0.559-0.439
		c0.026,0,0.051,0.016,0.077,0.007c0.192-0.066,0.851,0.254,1.287,0.464c0.364,0.175,0.712,0.341,1.017,0.438
		c-0.263,0.2-0.512,0.42-0.726,0.682C20.239,18.756,20.077,19.062,19.979,19.362z M21.773,17.374
		c-0.041-0.039-0.086-0.076-0.146-0.083c-0.28-0.035-0.737-0.254-1.178-0.466c-0.496-0.239-0.94-0.448-1.299-0.503
		c0.035-0.114,0.253-0.886,0.118-1.329c0.609-0.162,1.16-0.364,1.572-0.576c0.313-0.161,0.666-0.386,1.039-0.624
		c0.735-0.47,1.596-1.015,2.357-1.182c0.007,0.253,0.01,0.513-0.003,0.791c-0.053,1.053-0.164,2.141-0.882,2.842
		c-0.372,0.363-0.827,0.652-1.268,0.931C21.98,17.24,21.876,17.306,21.773,17.374z M14.604,15.211l0.07-0.222
		c0.021-0.066,0.045-0.135,0.066-0.202c1.023,0.635,2.602,0.619,4.004,0.325c0.009,0.014,0.009,0.032,0.021,0.043
		c0.038,0.166-0.023,0.725-0.129,1c-0.132,0.349-0.249,0.423-0.68,0.697c-0.167,0.106-0.344,0.239-0.528,0.377
		c-0.408,0.307-0.871,0.654-1.276,0.713c-0.031,0.005-0.048,0.031-0.075,0.045c-0.069-0.073-0.139-0.15-0.208-0.222
		c-0.574-0.598-1.112-1.173-1.547-1.889C14.429,15.661,14.531,15.44,14.604,15.211z M40.561,17.938
		c0.022,0.264,0.044,0.529,0.082,0.79c0.029,0.204,0.053,0.412,0.078,0.618c-2.603-0.293-5.727,1.206-6.141,3.92
		c-0.226,1.489,0.199,3.076,1.081,4.046c1.06,1.163,2.016,1.367,3.631,1.367c0.124,0,0.291,0.013,0.475,0.027
		c0.278,0.02,0.53,0.035,0.751,0.035c0.074,0,0.127-0.013,0.192-0.016c-0.049,0.158-0.111,0.316-0.194,0.477l0.034,0.019
		c-0.49,0.443-1.028,0.851-1.583,1.233c-2.695-0.568-5.254-1.489-5.963-4.207c-0.565-2.166,0.127-4.67,1.851-6.701
		c0.761-0.894,1.923-1.438,2.85-1.812c0.771-0.311,1.492-0.231,2.257-0.146c0.186,0.021,0.378,0.033,0.569,0.049
		C40.539,17.739,40.552,17.835,40.561,17.938z M40.982,24.708c-0.271,0.411-0.802,0.858-1.19,1.175
		c-0.009,0.006-0.015,0.012-0.023,0.018c-0.258-0.496-0.477-1.006-0.65-1.483c0.028-0.026,0.056-0.052,0.083-0.078
		c0.542-0.498,1.085-1.024,1.581-1.593l0.169,0.286l0.022-0.015C40.988,23.601,40.988,24.164,40.982,24.708z M36.915,20.769
		c0.04,0.055,0.074,0.103,0.122,0.168c0.055,0.075,0.108,0.144,0.165,0.23c0.152,0.234,0.285,0.465,0.414,0.707
		c-0.108,0.142-0.222,0.281-0.321,0.423c-0.271,0.385-0.596,0.834-0.945,1.275c-0.08-0.158-0.161-0.312-0.239-0.487
		c-0.149-0.334-0.318-0.666-0.521-0.971C35.914,21.574,36.368,21.123,36.915,20.769z M37.9,26.037
		c-0.044-0.073-0.095-0.146-0.141-0.219c0.019-0.022,0.033-0.04,0.055-0.062c0.27-0.313,0.525-0.609,0.649-0.728
		c0.076-0.072,0.152-0.142,0.229-0.213c0.177,0.476,0.396,0.969,0.663,1.455c-0.277,0.258-0.521,0.53-0.752,0.802
		C38.365,26.762,38.144,26.434,37.9,26.037z M38.091,24.639c-0.133,0.127-0.367,0.397-0.638,0.708
		c-0.074-0.113-0.144-0.227-0.22-0.34c-0.207-0.307-0.403-0.618-0.597-0.931c0.411-0.504,0.793-1.028,1.102-1.47
		c0.04-0.058,0.089-0.116,0.131-0.174c0.147,0.372,0.276,0.751,0.401,1.151c0.071,0.228,0.147,0.454,0.224,0.679
		C38.358,24.387,38.224,24.51,38.091,24.639z M35.114,23.347c0.038-0.239,0.116-0.458,0.198-0.674
		c0.11,0.203,0.209,0.418,0.307,0.633c0.107,0.244,0.224,0.492,0.353,0.722c-0.269,0.313-0.545,0.608-0.821,0.851
		C35.068,24.377,35.036,23.86,35.114,23.347z M36.271,24.507c0.169,0.268,0.335,0.536,0.513,0.8c0.104,0.154,0.198,0.309,0.3,0.464
		c-0.412,0.471-0.914,1.027-1.072,1.098c0.015-0.008,0.071-0.02,0.14,0.007l-0.047,0.116c-0.015-0.016-0.029-0.027-0.044-0.043
		c-0.357-0.393-0.617-0.911-0.785-1.478C35.608,25.208,35.946,24.875,36.271,24.507z M37.39,26.241
		c0.015,0.026,0.034,0.051,0.049,0.077c0.236,0.388,0.479,0.785,0.789,1.171c-0.151,0.177-0.3,0.357-0.471,0.519
		c-0.511-0.118-0.938-0.339-1.376-0.739C36.594,27.113,36.894,26.802,37.39,26.241z M38.587,27.898
		c0.006,0.008,0.013,0.017,0.021,0.025c0.062,0.062,0.121,0.139,0.182,0.208c-0.139-0.006-0.266-0.016-0.393-0.025
		C38.462,28.036,38.523,27.968,38.587,27.898z M38.994,27.546c-0.015-0.018-0.025-0.035-0.042-0.052
		c0.217-0.259,0.437-0.501,0.671-0.732c0.152,0.229,0.353,0.462,0.549,0.688c0.215,0.248,0.429,0.501,0.578,0.742
		c-0.287,0.022-0.72-0.008-0.945-0.025c-0.133-0.009-0.253-0.017-0.361-0.021l0.043-0.035
		C39.321,27.911,39.159,27.714,38.994,27.546z M40.579,27.097c-0.2-0.232-0.391-0.451-0.525-0.659
		c-0.011-0.015-0.017-0.033-0.025-0.048l0.105-0.088c0.26-0.212,0.562-0.464,0.834-0.733c-0.015,0.523-0.032,1.022-0.055,1.47
		l-0.011,0.207c-0.002,0.077-0.009,0.146-0.013,0.22C40.79,27.341,40.685,27.218,40.579,27.097z M38.929,23.855
		c-0.047-0.145-0.097-0.288-0.144-0.433c-0.152-0.494-0.316-1.001-0.536-1.492c0.314-0.401,0.64-0.801,0.967-1.192
		c0.067-0.08,0.124-0.152,0.189-0.231c0.374,0.553,0.75,1.181,1.088,1.754C40.022,22.824,39.492,23.335,38.929,23.855z
		 M38.802,20.391c-0.276,0.33-0.555,0.665-0.825,1.003c-0.105-0.182-0.22-0.364-0.349-0.562c-0.035-0.055-0.095-0.134-0.16-0.22
		c-0.023-0.032-0.057-0.078-0.086-0.119c0.504-0.258,1.053-0.449,1.618-0.551c0.025,0.034,0.053,0.074,0.078,0.109
		C38.983,20.167,38.899,20.273,38.802,20.391z M39.763,20.072c0.059-0.073,0.124-0.151,0.182-0.223
		c0.284-0.005,0.567,0.008,0.844,0.046c0.069,0.684,0.118,1.374,0.15,2.055C40.573,21.333,40.166,20.659,39.763,20.072z
		 M42.276,27.312c-0.188,0.262-0.405,0.515-0.623,0.768c0.027-0.258,0.045-0.52,0.06-0.796l0.011-0.204
		c0.111-2.225,0.156-5.5-0.279-8.47c-0.035-0.244-0.055-0.491-0.075-0.738c-0.045-0.546-0.091-1.111-0.298-1.659
		c-0.258-0.686-0.785-1.269-1.25-1.783l-0.226-0.252c-1.275-1.439-2.514-2.321-4.144-2.947c-2.214-0.848-5.002-1.261-8.528-1.261
		l-1.268-0.003c-2.055-0.011-4.179-0.02-6.266,0.212c-1.258,0.14-2.562,0.376-3.582,1.156c-1.102,0.842-1.549,2.267-1.908,3.411
		l-0.069,0.22c-0.292,0.92-0.933,1.749-1.673,2.162c-0.708,0.396-2.123,0.637-2.764,0.224c-0.018-0.712-0.012-1.503,0.114-2.072
		l0.346-1.609c1.348-2.963,5.956-5.378,8.644-6.077l0.342-0.088c1.601-0.418,3.112-0.812,4.731-0.892
		c0.446-0.021,0.888-0.032,1.327-0.032c1.019,0,2.099,0.055,3.302,0.167c2.115,0.196,4.56,0.471,6.666,1.019
		c1.229,0.318,2.442,0.918,3.616,1.499c0.365,0.181,0.728,0.36,1.087,0.53c1.692,0.798,3.014,1.636,3.951,3.134
		c0.732,1.168,0.88,2.664,1.025,4.11l0.036,0.358C44.961,21.074,44.098,24.78,42.276,27.312z"/>
	<path d="M36.843,15.448c0.425,0,1.101-0.644,0.393-0.644C36.812,14.805,36.139,15.448,36.843,15.448z"/>
	<path d="M33.873,16.537c0.436,0,1.096-0.66,0.389-0.66C33.827,15.877,33.168,16.537,33.873,16.537z"/>
	<path d="M32.134,18.348c-0.597,0-0.802,0.762-0.093,0.762C32.637,19.109,32.841,18.348,32.134,18.348z"/>
	<path d="M30.602,21.498c-0.598,0-0.8,0.767-0.093,0.767C31.106,22.264,31.311,21.498,30.602,21.498z"/>
	<path d="M30.26,25.5c0.38,0,1.116-0.574,0.411-0.574C30.294,24.926,29.555,25.5,30.26,25.5z"/>
	<path d="M33.631,30.191c-0.441,0-1.092,0.671-0.385,0.671C33.688,30.862,34.338,30.191,33.631,30.191z"/>
</g>
</svg>
