<?xml version="1.0" encoding="utf-8"?>
<!-- Generator: Adobe Illustrator 15.1.0, SVG Export Plug-In . SVG Version: 6.00 Build 0)  -->
<!DOCTYPE svg PUBLIC "-//W3C//DTD SVG 1.1//EN" "http://www.w3.org/Graphics/SVG/1.1/DTD/svg11.dtd">
<svg version="1.1" id="Layer_2" xmlns="http://www.w3.org/2000/svg" xmlns:xlink="http://www.w3.org/1999/xlink" x="0px" y="0px"
	 width="52px" height="49.815px" viewBox="0 0 52 49.815" enable-background="new 0 0 52 49.815" xml:space="preserve">
<g>
	<path d="M30.548,34.935c0.079,0.034,0.153,0.076,0.233,0.105c0.225,0.082,0.573-0.007,0.849-0.159
		c5.468-0.344,10.486-1.974,12.521-7.43c1.771-4.75,1.529-13.207-0.603-17.72c-1.685-3.568-6.961-4.341-10.398-4.479
		c-1.199-0.048-2.471-0.107-3.773-0.151c-0.079-0.053-0.16-0.109-0.229-0.143l-0.063,0.132c-1.867-0.058-3.8-0.071-5.72,0.041
		c-0.006-0.004-0.011-0.011-0.017-0.015l-0.012,0.017c-0.973,0.057-1.941,0.146-2.894,0.283c-0.129-0.005-0.284,0.021-0.424,0.069
		c-3.491,0.551-6.738,1.738-9.174,4.144c-0.211,0.058-0.393,0.139-0.463,0.253c-0.129,0.211-0.253,0.43-0.376,0.65
		C9.99,10.55,9.974,10.563,9.96,10.58c-0.002,0.002,0.01,0.004,0.012,0.007c-4.893,8.813-4.231,23.811,8.584,23.947
		C21.973,34.569,26.343,35.076,30.548,34.935z M43.312,23.301c-2.94-0.752-8.174,1.775-7.085-4.581
		c0.551-3.209,1.85-5.532-1.694-6.51c0.301-2.002,0.137-4.038,0.427-6.039c0.229,0.036,0.468,0.07,0.687,0.108
		C43.969,7.712,43.746,16.454,43.312,23.301z M33.959,6.023c-0.341,1.976-0.204,3.988-0.432,5.975
		c-0.612-0.112-1.25-0.196-1.908-0.255c-0.027-0.06-0.045-0.116-0.084-0.183c0.004-0.376,0.06-0.829,0.117-1.278
		c0.062-0.483,0.125-0.981,0.125-1.398c0-0.485,0.02-0.972,0.039-1.458c0.021-0.543,0.038-1.101,0.031-1.65
		C32.58,5.848,33.287,5.931,33.959,6.023z M20.198,9.84c-0.062-1.22,0.156-2.65,0.437-3.884c0.492-0.079,0.991-0.146,1.494-0.203
		c-0.01,1.005-0.058,2.042-0.107,3.049l-0.01,0.207c-0.012,0.231-0.052,0.571-0.097,0.948c-0.13,1.107-0.203,1.932-0.083,2.392
		c-0.342,0.067-0.675,0.139-1.004,0.214c0.008-0.023,0.023-0.045,0.022-0.069C20.839,11.617,20.245,10.755,20.198,9.84z
		 M24.485,7.216c-0.141,0.146-0.285,0.288-0.423,0.438c-0.182,0.197-0.373,0.481-0.57,0.783c-0.302-0.379-0.591-0.634-0.872-0.784
		c0.029-0.659,0.051-1.317,0.056-1.967c0.152-0.014,0.306-0.022,0.458-0.035C23.622,6.025,24.069,6.596,24.485,7.216z M26.648,6.475
		c0.219,0.204,0.425,0.397,0.542,0.555c0.117,0.159,0.245,0.323,0.37,0.486c-0.442,0.44-0.878,0.883-1.305,1.324
		c-0.018,0.019-0.038,0.038-0.056,0.057c-0.013-0.02-0.027-0.041-0.041-0.061c-0.165-0.248-0.337-0.53-0.519-0.825
		c-0.147-0.24-0.3-0.487-0.457-0.732c0.112-0.115,0.222-0.232,0.334-0.347c0.26-0.263,0.515-0.537,0.771-0.806
		C26.402,6.241,26.521,6.357,26.648,6.475z M30.414,5.675l0.025-0.02c0.288,0.021,0.58,0.04,0.863,0.065
		c0.007,0.451-0.004,0.909-0.021,1.364c-0.294-0.407-0.675-0.859-1.06-1.25C30.288,5.782,30.349,5.726,30.414,5.675z M31.11,10.212
		c-0.027,0.222-0.054,0.437-0.076,0.646c-0.094-0.12-0.179-0.23-0.292-0.37c-0.105-0.128-0.195-0.237-0.251-0.312
		c-0.134-0.182-0.289-0.369-0.436-0.553c0.141-0.17,0.298-0.372,0.471-0.593c0.206-0.263,0.486-0.622,0.726-0.903
		c-0.007,0.252-0.02,0.505-0.02,0.757C31.232,9.265,31.17,9.746,31.11,10.212z M30.986,7.611c-0.23,0.249-0.511,0.597-0.891,1.082
		c-0.137,0.176-0.269,0.344-0.389,0.492c-0.264-0.312-0.545-0.63-0.853-0.96c-0.201-0.216-0.387-0.44-0.565-0.663
		c0.49-0.479,0.995-0.94,1.513-1.378C30.245,6.633,30.698,7.181,30.986,7.611z M28.456,8.597c0.321,0.346,0.615,0.679,0.888,1.003
		c-0.51,0.479-1.052,1.064-1.529,1.611c-0.462-0.618-0.895-1.237-1.305-1.852c0.045-0.046,0.091-0.093,0.136-0.14
		c0.412-0.423,0.83-0.85,1.253-1.273C28.076,8.165,28.257,8.383,28.456,8.597z M25.175,8.296c0.185,0.301,0.361,0.588,0.528,0.841
		c0.033,0.05,0.073,0.107,0.107,0.158c-0.352,0.36-0.708,0.721-1.07,1.076c-0.129-0.178-0.247-0.354-0.34-0.523
		c-0.195-0.356-0.384-0.666-0.566-0.938c0.227-0.351,0.442-0.683,0.628-0.886c0.108-0.117,0.221-0.228,0.33-0.342
		C24.923,7.889,25.052,8.096,25.175,8.296z M22.555,9.036l0.011-0.207c0.009-0.18,0.017-0.364,0.025-0.546
		c0.165,0.134,0.361,0.345,0.582,0.64c-0.225,0.34-0.464,0.675-0.695,0.903C22.514,9.517,22.545,9.233,22.555,9.036z M22.354,12.252
		c-0.096-0.251-0.03-1.049,0.042-1.715c0.399-0.182,0.763-0.618,1.109-1.128c0.131,0.207,0.268,0.432,0.417,0.703
		c0.118,0.213,0.266,0.428,0.424,0.643c-0.506,0.484-1.021,0.956-1.557,1.392l0.019,0.023
		C22.654,12.195,22.506,12.225,22.354,12.252z M24.676,11.191c0.011,0.014,0.021,0.027,0.032,0.042
		c0.163,0.209,0.32,0.413,0.456,0.607c-0.47,0.05-0.932,0.114-1.394,0.181C24.077,11.751,24.38,11.475,24.676,11.191z
		 M25.764,11.787c-0.178-0.288-0.386-0.581-0.625-0.888c-0.022-0.029-0.044-0.059-0.066-0.087c0.355-0.349,0.704-0.7,1.048-1.054
		c0.409,0.614,0.852,1.243,1.329,1.877c-0.01,0.012-0.019,0.022-0.028,0.034C26.868,11.696,26.316,11.735,25.764,11.787z
		 M28.164,11.641c0.469-0.542,1.01-1.127,1.519-1.61c0.124,0.156,0.257,0.314,0.37,0.468c0.06,0.081,0.154,0.198,0.267,0.335
		c0.151,0.185,0.459,0.563,0.663,0.856C30.065,11.63,29.122,11.615,28.164,11.641z M29.101,5.572
		c0.093,0.064,0.193,0.143,0.301,0.236c-0.497,0.422-0.981,0.863-1.451,1.32c-0.108-0.142-0.219-0.285-0.321-0.423
		c-0.146-0.198-0.371-0.408-0.608-0.63c-0.116-0.109-0.24-0.228-0.355-0.345c0.044-0.049,0.091-0.092,0.135-0.142l0.043-0.076
		C27.604,5.517,28.357,5.536,29.101,5.572z M25.828,5.519c0.029,0.062,0.063,0.126,0.106,0.188
		c-0.268,0.282-0.533,0.566-0.805,0.842c-0.086,0.088-0.171,0.179-0.257,0.267c-0.304-0.447-0.626-0.866-0.977-1.218
		C24.539,5.558,25.183,5.53,25.828,5.519z M11.58,10.213c1.798-2.148,4.702-3.403,7.995-4.068c-0.248,1.123-0.417,2.355-0.426,3.478
		c-0.006,0.654,0.039,1.201,0.229,1.821c0.126,0.412,0.412,0.896,0.417,1.333c0,0.011,0.011,0.018,0.015,0.027
		c-0.033,0.009-0.07,0.016-0.103,0.024c-1.301,0.344-3.002,1.106-3.965,2.114c-2.071,2.166-3.569,7.879-7.216,7.858
		C8.385,18.306,9.834,13.367,11.58,10.213z M12.041,31.129c-2.172-1.687-3.191-4.335-3.459-7.27
		c2.108-0.049,3.722-0.756,5.223-2.455c2.356-2.667,0.842-5.004,5.125-7.225c3.057-1.585,6.658-0.987,9.921-1.025
		c12.146-0.14,2.562,5.149,6.087,9.238c1.067,1.241,1.869,1.686,3.464,2.054c1.305,0.303,3.836-0.871,4.8,0.375
		c-0.542,6.639-5.755,8.881-11.479,9.295c-1.479-0.548-2.395-2.602-3.077-3.882c-0.883-1.658-1.319-3.079-1.347-4.977
		c-0.012-0.775-1.395-0.311-1.587,0.176c-0.887,2.238-2.162,4.399-3.989,6c-0.628,0.55-2.001,1.429-2.161,2.392
		C16.905,33.569,14.354,32.923,12.041,31.129z M21.04,33.93c0.052-0.08,0.086-0.167,0.078-0.262
		c-0.064-0.728,2.422-2.394,2.952-2.988c0.765-0.856,1.405-1.789,1.963-2.771c0.512,2.299,1.64,4.865,3.331,6.281
		c-0.717-0.006-1.433-0.025-2.14-0.07C25.152,33.989,23.073,34.031,21.04,33.93z"/>
	<path d="M45.962,35.759c3.395-3.182,5.024-8.007,5.636-12.62c0.529-4.008-0.103-8.162-0.654-12.123
		c-0.582-4.173-3.476-5.26-6.304-7.974c-3.969-3.81-12.851-3.002-17.714-2.904C20.586,0.265,15.361-0.019,9.478,2.647
		C9.466,2.652,9.462,2.658,9.451,2.663c-0.076,0.031-0.148,0.065-0.21,0.109C9.205,2.797,9.17,2.828,9.133,2.854
		C9.115,2.868,9.095,2.882,9.079,2.896c-4.226,3.083-7.376,9.183-8.497,14.167c-1.079,4.797-0.873,12.003,2.478,15.756
		c1.058,1.186,2.308,2.121,3.678,2.873c-2.633,1.351-4.867,4.815-4.954,7.663c-0.119,3.905,2.135,5.902,5.713,6.367
		c4.54,0.588,8.353-1.633,10.198-5.113c1.576,1.895,2.872,3.619,5.616,4.202c2.524,0.537,5.021,0.575,7.519-0.104
		c1.355-0.369,2.812-1.246,3.701-2.438c3.558,3.605,9.902,4.093,14.281,1.619C54.541,44.653,51.521,36.902,45.962,35.759z
		 M44.956,43.926c-0.046-0.017-0.917-0.021-1.216-0.067c-0.471-0.075-0.921-0.243-1.359-0.423c-0.736-0.304-1.397-0.768-1.988-1.297
		c-0.98-0.88-1.404-2.029-1.019-3.06c1.028-0.216,1.99-0.516,2.883-0.895c-0.671,0.782-1.356,1.519-1.234,2.714
		C41.183,42.446,43.746,43.511,44.956,43.926z M3.864,30.688c-2.597-2.907-1.304-8.951-1.251-12.511
		C2.679,13.62,6.667,6.282,10.491,3.522c4.405-1.957,8.905-2.33,13.709-2.123c5.996,0.258,11.869-0.567,17.556,1.916
		c11.71,5.112,11.105,31.851-2.318,34.251c-5.569,0.996-11.554,0.273-17.175,0.073C15.393,37.396,8.601,35.992,3.864,30.688z
		 M29.039,42.66c-0.545,1.671-2.26,2.914-3.87,1.746c-1.466-1.063-1.459-3.569-1.446-5.326c1.721,0.146,3.612,0.318,5.555,0.433
		C29.903,40.304,29.311,41.825,29.039,42.66z M12.677,41.305c-0.454,0.867-1.227,1.987-2.402,1.852
		c-0.699-0.082-1.401-0.508-2.06-0.877c2.245-0.568,4.205-2.463,3.307-4.733c0.641,0.168,1.292,0.311,1.946,0.438
		C13.813,39.029,13.131,40.438,12.677,41.305z M9.772,48.72c-3.661,0.362-5.692-1.255-6.328-4.756
		c-0.486-2.677,1.812-6.653,4.387-7.72c0.747,0.344,1.522,0.642,2.317,0.898c0.004,0.02-0.001,0.039,0.012,0.06
		c1.43,2.17-0.257,4.674-2.772,4.721c-0.145,0.003-1.066,0.303-0.639,0.502c2.172,1.016,4.104,2.087,6.077,0.059
		c0.85-0.874,1.934-2.807,1.793-4.293c0.855,0.14,1.71,0.254,2.56,0.348C17.938,43.591,15.203,48.183,9.772,48.72z M27.769,48.404
		c-2.423,0.089-4.641-0.595-6.625-1.946c-1.194-0.812-1.841-2.331-2.785-3.396c0.446-1.347,0.615-2.821,0.465-4.361
		c0.899,0.078,1.784,0.143,2.637,0.2c0.384,0.026,0.784,0.057,1.196,0.09c0.014,2.697,0.222,6.31,3.509,6.744
		c1.733,0.228,3.061-1.192,3.755-2.6c0.439-0.888,0.933-2.477,0.59-3.562c1.201,0.052,2.408,0.072,3.6,0.046
		c0.72,1.168,0.203,2.999-0.031,4.248C33.478,47.062,30.788,48.294,27.769,48.404z M49.347,46.016
		c-2.882,4.862-11.358,2.331-14.069-1.177c0.572-1.509,1.155-3.756,0.581-5.301c0.843-0.059,1.669-0.147,2.469-0.274
		c-0.504,1.338,0.41,2.779,1.747,3.777c1.702,1.271,3.971,1.671,5.935,0.836c0.095-0.04,0.354-0.181,0.138-0.245
		c-1.516-0.441-3.537-1.416-4.069-3.017c-0.393-1.181,0.747-2.165,1.553-3.116c0.488-0.283,0.951-0.594,1.386-0.93
		C49.28,37.463,51.617,42.181,49.347,46.016z"/>
</g>
</svg>
