<?xml version="1.0" encoding="utf-8"?>
<!-- Generator: Adobe Illustrator 15.1.0, SVG Export Plug-In . SVG Version: 6.00 Build 0)  -->
<!DOCTYPE svg PUBLIC "-//W3C//DTD SVG 1.1//EN" "http://www.w3.org/Graphics/SVG/1.1/DTD/svg11.dtd">
<svg version="1.1" id="Layer_2" xmlns="http://www.w3.org/2000/svg" xmlns:xlink="http://www.w3.org/1999/xlink" x="0px" y="0px"
	 width="52px" height="49.204px" viewBox="0 0 52 49.204" enable-background="new 0 0 52 49.204" xml:space="preserve">
<g>
	<path d="M51.771,23.469c0.174-7.898,0.856-14.592-6.245-19.663C40.308,0.078,31.87,0.183,25.805,0.139
		C21.033,0.104,13.024-0.793,9.065,2.45C9.054,2.458,9.041,2.463,9.03,2.471c-5.383,3.867-7.463,8.298-8.557,14.845
		c-0.897,5.374-0.995,13.608,4.103,17.043c0.775,0.522,1.593,0.976,2.438,1.384c-5.44,2.221-6.341,10.503-0.209,12.94
		c2.651,1.054,6.224,0.405,8.613-1.022c0.842-0.504,1.741-1.108,2.41-1.879c2.986,2.557,6.478,3.627,10.421,2.609
		c1.812-0.468,2.947-1.354,3.676-2.499c4.096,4.447,12.124,3.096,16.579-0.3c4.037-3.078,1.331-9.133-2.929-9.646
		C49.947,33.337,51.66,28.526,51.771,23.469z M8.551,48.05C2.996,47,2.288,37.441,8.122,36.241c0.936,0.391,1.899,0.729,2.886,1.014
		c0.396,0.694,0.634,1.42,0.542,2.28c-0.171,1.6-1.947,1.749-3.209,1.752c-0.149,0-1.046,0.296-0.626,0.498
		c1.003,0.482,1.846,1.092,2.975,1.229c1.017,0.124,2.222-0.201,3.116-0.669c1.461-0.766,2.78-2.409,2.306-4.008
		c0.743,0.111,1.484,0.206,2.224,0.288c-0.629,1.815-0.558,3.685-1.049,5.535C16.38,47.57,11.462,48.601,8.551,48.05z
		 M14.869,38.135c0.715,1.223,0.064,2.528-0.911,3.449c-1.483,1.4-3.032,0.87-4.505,0.173c0.847-0.088,1.682-0.316,2.279-0.909
		c0.999-0.991,1.007-2.145,0.579-3.247C13.155,37.808,14.01,37.984,14.869,38.135z M28.547,47.376
		c-3.471,1.719-7.374-0.363-9.868-2.717c-0.026-0.025-0.068-0.036-0.103-0.054c0.775-1.869,0.639-3.906,1.209-5.832
		c0.654,0.061,1.303,0.114,1.945,0.161c-0.705,2.892,1.72,5.851,4.618,5.835c2.895-0.015,3.467-3.306,3.848-5.548
		c0.544-0.01,1.088-0.025,1.633-0.051C31.625,42.393,32.018,45.655,28.547,47.376z M26.766,39.201
		c0.063,0.44,0.122,0.88,0.134,1.325c0.008,0.311-0.019,0.621-0.101,0.921c-0.032,0.117-0.087,0.224-0.146,0.328
		c-0.1,0.078-0.089,0.119,0.032,0.122c-0.125-0.005-0.245-0.035-0.358-0.09c-0.87-0.358-0.998-1.663-0.934-2.655
		C25.847,39.172,26.305,39.188,26.766,39.201z M26.262,42.274c0.737-0.08,1.436-0.406,1.599-1.188
		c0.126-0.614,0.073-1.24-0.012-1.861c0.444,0.008,0.893,0.01,1.341,0.009c-0.277,1.648-0.579,5.227-2.958,4.998
		c-2.271-0.218-3.877-3.06-3.518-5.229c0.549,0.036,1.107,0.069,1.671,0.1C24.242,40.472,24.529,42.464,26.262,42.274z
		 M48.723,40.353c1.013,2.639-0.727,4.711-2.957,5.906c-4.186,2.246-9.772,2.562-12.875-1.49c-0.065-0.086-0.198-0.119-0.356-0.122
		c0.607-1.637,0.714-3.595,0.844-5.564c1.579-0.116,3.146-0.309,4.678-0.594c-0.974,1.659-0.501,4.165,1.185,5.141
		c1.909,1.104,4.839,0.069,5.824-1.807c0.227-0.433-0.641-0.228-0.797-0.144c-1.433,0.771-2.351,0.005-2.649-1.406
		c-0.22-1.038,0.229-2.049,0.787-2.918c0.604-0.208,1.2-0.431,1.779-0.683c0.039-0.017,0.073-0.038,0.111-0.055
		C46.453,36.256,48.123,38.79,48.723,40.353z M41.197,41.96c0.582,0.749,1.559,0.745,2.451,0.501
		c-1.116,1.229-3.068,1.386-4.313,0.103c-0.979-1.007-0.994-3.096-0.179-4.296c0.705-0.155,1.398-0.336,2.081-0.538
		C40.504,39.069,40.167,40.631,41.197,41.96z M41.229,36.507c-5.365,1.859-12.403,1.378-17.955,1.18
		c-5.292-0.188-11.354-1.164-16.062-3.727c-5.284-2.875-5.216-10.031-4.856-15.18c0.45-6.447,2.688-11.756,7.994-15.567
		c0.061-0.043,0.109-0.085,0.154-0.126c0.009-0.008,0.021-0.014,0.03-0.022c2.956-2.632,12.688-1.635,16.278-1.609
		c5.292,0.038,10.998,0.509,15.856,2.724c6.601,3.009,7.233,9.464,6.961,15.811C49.315,27.327,49.52,33.634,41.229,36.507z"/>
	<path d="M41.099,8.414c-4.114-2.992-9.533-2.358-14.394-2.194c-3.657,0.123-8.208-0.808-11.519,1.208c-0.001,0-0.003,0-0.005,0.001
		C7.427,11.301,3.146,20.024,7.367,28.132c2.478,4.762,10.15,3.881,14.494,4.287c5.346,0.499,10.518,1.051,15.625-0.87
		c4.199-1.58,5.594-5.522,6.23-9.604C44.438,17.317,45.562,11.659,41.099,8.414z M42.694,17.543
		c-0.333,3.352-0.627,6.762-2.043,9.86c-2.613,5.722-11.519,4.516-16.365,4.106c-4.123-0.349-11.55,0.039-14.699-2.954
		c-6.638-6.311-0.004-17.127,6.269-20.26c0.046-0.022,0.068-0.048,0.105-0.072c0.021-0.011,0.046-0.015,0.066-0.028
		c3.536-2.296,12.516-1.01,16.701-0.907C39.017,7.442,43.36,10.836,42.694,17.543z"/>
	<path d="M17.55,19.171l-0.173,0.228c-0.469,0.337-0.642,0.944-0.452,1.605c0.195,0.676,0.796,1.404,1.653,1.404
		c0.001,0,0.001,0,0.001,0c0.332,0,0.835-0.12,1.353-0.69c0.586-0.646,0.753-1.444,0.447-2.135
		C19.93,18.567,18.689,18.19,17.55,19.171z M19.336,21.178c-0.176,0.194-0.451,0.426-0.757,0.426c-0.418,0-0.767-0.424-0.881-0.823
		c-0.037-0.126-0.132-0.554,0.173-0.747l0.256-0.311c0.251-0.208,0.515-0.319,0.764-0.319c0.328,0,0.616,0.192,0.753,0.503
		C19.817,20.3,19.702,20.775,19.336,21.178z"/>
	<path d="M37.336,12.077c-0.241,0-0.482,0.065-0.67,0.173l-0.2,0.084c-0.383,0.074-0.732,0.354-0.985,0.788
		c-0.277,0.477-0.367,1.021-0.233,1.419c0.256,0.767,1.137,1.345,2.047,1.345c0.229,0,0.446-0.039,0.646-0.114
		c0.786-0.299,1.182-1.107,1.007-2.058C38.796,12.901,38.195,12.077,37.336,12.077z M37.654,15.021
		c-0.562,0.213-1.466-0.201-1.646-0.735c-0.05-0.149-0.009-0.458,0.167-0.759c0.129-0.22,0.298-0.375,0.512-0.423l0.317-0.127
		c0.115-0.064,0.228-0.096,0.331-0.096c0.415,0,0.731,0.504,0.819,0.979C38.235,14.298,38.146,14.833,37.654,15.021z"/>
	<path d="M35.758,23.54c-0.333-0.093-0.696-0.08-1.016-0.067c-0.102,0.004-0.202,0.008-0.299,0.008l-0.396,0.002
		c-0.363,0-0.713,0.001-1.051-0.011c-0.084-0.062-0.169-0.123-0.258-0.178c-0.136-0.085-0.291-0.181-0.351-0.262
		c-0.131-0.177-0.226-0.383-0.326-0.603c-0.066-0.147-0.135-0.295-0.215-0.438c-0.112-0.208-0.232-0.405-0.351-0.601
		c-0.28-0.464-0.546-0.902-0.7-1.42c-0.066-0.22-0.128-0.453-0.19-0.691c-0.384-1.446-0.86-3.247-2.629-3.703
		c-0.537-0.138-1.071-0.134-1.589-0.128c-0.229,0-0.455,0.003-0.681-0.007c-0.477-0.024-0.949-0.004-1.419,0.017
		c-0.809,0.036-1.625,0.03-2.446,0.043c-1.008,0.016-2.051,0.034-3.059-0.018c-0.289-0.015-0.639,0.004-1.015,0.024
		c-0.924,0.05-1.704,0.06-2.209-0.165c-0.218-0.19-0.419-0.394-0.58-0.618c-0.347-0.484-0.668-1.146-0.89-1.84
		c-0.076-0.237-0.279-0.866-0.325-1.329c-0.022-0.221-0.224-0.384-0.44-0.36c-0.221,0.022-0.382,0.219-0.36,0.44
		c0.054,0.548,0.268,1.212,0.365,1.517c0.239,0.749,0.602,1.493,0.996,2.042c0.001,0.001,0.003,0.003,0.004,0.005
		c0.162,0.363,0.417,0.614,0.729,0.786c0.864,0.736,2.049,1.233,3.343,1.376c1.433,0.161,2.954,0.206,4.399,0.133l0.303-0.018
		c0.622-0.042,1.161-0.075,1.598,0.243c0.603,0.439,1.14,1.125,1.57,1.677c0.203,0.26,0.391,0.534,0.579,0.807
		c0.33,0.48,0.672,0.977,1.097,1.407c0.546,0.554,1.115,1.073,1.736,1.588c1.335,1.104,2.797,1.095,4.366,1.089l0.392-0.001
		c0.106,0,0.217-0.004,0.329-0.008c0.273-0.01,0.559-0.021,0.77,0.038c0.036,0.01,0.072,0.015,0.108,0.015
		c0.176,0,0.337-0.116,0.387-0.293C36.097,23.821,35.973,23.6,35.758,23.54z M28.521,21.044c-0.375-0.38-0.682-0.826-1.006-1.298
		c-0.197-0.286-0.395-0.572-0.608-0.846c-0.462-0.591-1.037-1.327-1.731-1.833c-0.67-0.489-1.443-0.439-2.123-0.395l-0.292,0.017
		c-1.402,0.07-2.879,0.026-4.27-0.129c-0.386-0.043-0.757-0.123-1.111-0.231c0.147-0.005,0.292-0.013,0.43-0.02
		c0.345-0.02,0.667-0.038,0.932-0.024c1.034,0.051,2.092,0.034,3.112,0.019c0.828-0.014,1.655-0.009,2.469-0.043
		c0.446-0.02,0.891-0.041,1.344-0.018c0.24,0.013,0.483,0.01,0.728,0.009c0.489-0.005,0.946-0.009,1.381,0.104
		c1.312,0.339,1.688,1.757,2.053,3.129c0.065,0.247,0.129,0.488,0.197,0.715c0.185,0.617,0.488,1.12,0.782,1.606
		c0.113,0.187,0.227,0.375,0.336,0.573c0.069,0.126,0.128,0.256,0.188,0.385c0.079,0.173,0.169,0.349,0.272,0.524
		c-0.494-0.13-0.964-0.345-1.405-0.71C29.598,22.08,29.048,21.578,28.521,21.044z"/>
</g>
</svg>
