<?xml version="1.0" encoding="utf-8"?>
<!-- Generator: Adobe Illustrator 15.1.0, SVG Export Plug-In . SVG Version: 6.00 Build 0)  -->
<!DOCTYPE svg PUBLIC "-//W3C//DTD SVG 1.1//EN" "http://www.w3.org/Graphics/SVG/1.1/DTD/svg11.dtd">
<svg version="1.1" id="Layer_2" xmlns="http://www.w3.org/2000/svg" xmlns:xlink="http://www.w3.org/1999/xlink" x="0px" y="0px"
	 width="52px" height="50.225px" viewBox="0 0 52 50.225" enable-background="new 0 0 52 50.225" xml:space="preserve">
<g>
	<path d="M51.905,23.403c0.155-6.385,0.599-13.9-3.924-18.984C43.584-0.525,35.08-0.19,29.196,0.203
		C21.879,0.692,13.935-0.751,6.828,1.594c-0.12,0.04-0.214,0.087-0.307,0.135c-0.077,0.02-0.149,0.042-0.208,0.069
		c-4.734,2.276-5.393,8.54-5.831,13.188c-0.669,7.111-1.266,14.468,2.764,20.691c0.268,0.414,0.568,0.78,0.885,1.124
		c-2.396,2.167-3.235,5.326-2.711,8.477c0.562,3.372,5.294,3.712,7.862,3.965c2.867,0.283,7.029,0.549,9.392-1.579
		c0.012-0.011,0.022-0.025,0.035-0.036c2.88,1.798,7.492,1.52,10.552,0.813c1.333-0.306,2.564-0.862,3.672-1.617
		c3.502,4.691,13.254,4.662,15.892-0.914c1.027-2.171,0.757-4.846-0.546-6.827c-0.76-1.156-1.898-1.656-3.117-1.745
		C50.111,34.275,51.763,29.326,51.905,23.403z M8.813,47.943c-2.293-0.24-4.42-0.921-5.29-3.229
		c-0.818-2.171,0.187-5.145,1.678-6.95c1.351,1.029,2.973,1.644,4.72,1.986c0.474,0.338,0.827,0.786,0.943,1.414
		c0.195,1.048-0.62,1.985-1.667,1.917c-0.19,0-1.209,0.37-0.689,0.404c0.151,0.011,0.306,0.013,0.461,0.006
		c1.719,0.028,4.137,0.099,5.214-1.352c0.392-0.527,0.581-1.299,0.58-1.99c1.342-0.002,2.67-0.063,3.924-0.134
		c0.542,1.732,0.338,3.416-0.203,5.13C17.246,49.072,11.921,48.269,8.813,47.943z M13.714,40.137
		c0.011,0.121,0.012,0.244,0.011,0.361c-0.007,0.534-0.18,1.069-0.406,1.55c-0.449,0.952-1.652,1.08-2.77,1.069
		c0.439-0.212,0.827-0.517,1.104-0.938c0.505-0.768,0.321-1.561-0.156-2.186C12.228,40.075,12.97,40.117,13.714,40.137z
		 M30.23,47.206c-2.732,1.229-7.989,1.135-10.324-0.904c-0.018-0.015-0.048-0.019-0.069-0.029c1.213-1.848,1.602-4.218,1.066-6.367
		c0.067-0.005,0.138-0.009,0.205-0.011c0.931-0.034,1.887-0.034,2.862-0.015c-0.515,2.155,0.052,5.029,2.877,4.728
		c2.292-0.246,2.62-2.594,2.664-4.532c1.28,0.045,2.565,0.07,3.844,0.051C33.049,43.141,33.694,45.647,30.23,47.206z M28.467,40.037
		c0.01,1.312-0.028,3.497-1.268,3.898c-1.2,0.39-2.101-0.876-2.322-1.847c-0.161-0.706-0.084-1.468,0.096-2.184
		C26.121,39.939,27.288,39.99,28.467,40.037z M47.038,45.312c-0.658,2.402-2.693,3.215-4.967,3.48
		c-3.045,0.356-5.963-0.664-7.561-3.336c1.123-1.436,0.819-3.621,0.921-5.404c0.852-0.051,1.694-0.139,2.527-0.257
		c-0.632,1.335-0.624,2.761,0.494,3.837c1.142,1.097,2.996,0.81,4.246,0.117c0.425-0.236,0.337-0.789-0.196-0.733
		c-1.282,0.136-2.158-0.381-1.922-1.75c0.184-1.062,1.13-2.29,2.247-2.442c0.091-0.013,0.168-0.045,0.239-0.088
		c0.03-0.008,0.061-0.008,0.091-0.021C46.807,37.333,47.669,43.005,47.038,45.312z M40.492,43.515
		c-0.426-0.04-0.843-0.195-1.233-0.51c-0.988-0.795-0.729-2.213-0.238-3.189c0.04-0.078,0.046-0.145,0.035-0.204
		c0.519-0.098,1.03-0.215,1.535-0.349c-0.504,0.538-0.88,1.201-1.043,1.922C39.286,42.348,39.729,43.113,40.492,43.515z
		 M23.431,38.808c-6.441-0.057-13.479,1.627-18.221-3.914C0.84,29.792,2.161,21.821,2.5,15.705C2.73,11.563,3.217,4.633,7.38,2.412
		c4.624-1.435,9.859-1.05,14.633-1.05c6.225,0,13.429-1.371,19.309,1.024c10.363,4.223,10.404,20.564,6.961,29.617
		C44.87,40.977,31.141,38.878,23.431,38.808z"/>
	<path d="M36.514,6.529c-5.044,0.328-9.917-0.986-14.978-0.304c-0.03,0.004-0.058,0.016-0.088,0.022
		C12.683,7.06,8.15,15.831,8.936,23.835c1.061,10.808,16.126,11.45,24.347,10.335c10.115-1.371,14.238-10.73,11.996-20.105
		C44.426,10.499,40.403,6.276,36.514,6.529z M32.123,33.199c-7.459,0.247-13.729-0.136-19.487-5.249
		c-2.401-2.132-1.984-8.142-1.421-10.803c0.829-3.919,5.263-9.595,9.729-9.894c0.033-0.002,0.069-0.008,0.105-0.016
		c0.056-0.003,0.093,0.002,0.158-0.006c4.369-0.588,15.52-0.583,18.855,2.534C47.762,16.963,43.902,32.812,32.123,33.199z"/>
	<path d="M36.472,19.247l-0.541-0.001c-0.567,0-1.141-0.031-1.707-0.062l-0.58-0.03c-0.278-0.013-0.572-0.008-0.869-0.004
		c-0.516,0.01-1.042,0.018-1.475-0.082c-1.062-0.246-2.325-1.052-3.219-2.055c-0.99-1.113-1.143-2.116-1.086-3.689l0.038-1.147
		c0.037-1.129,0.073-2.269,0.143-3.374c0.019-0.3-0.209-0.559-0.509-0.577c-0.318-0.025-0.559,0.209-0.577,0.509
		C26.02,9.85,25.982,11,25.946,12.141l-0.039,1.144c-0.012,0.325-0.01,0.629,0.001,0.925c-0.021,0.04-0.046,0.076-0.058,0.12
		c-0.221,0.86-0.558,1.564-0.948,1.982c-0.75,0.802-1.582,1.625-2.582,2.207c-0.461,0.269-0.965,0.466-1.44,0.639l-0.118,0.044
		c-0.109,0.04-0.233,0.086-0.363,0.128c-0.071,0.023-0.133,0.06-0.186,0.104c-1.1-0.14-2.215-0.193-3.298-0.23
		c-0.427-0.014-0.853-0.029-1.276-0.05c-0.013,0-1.61-0.02-1.78,0.001c-0.292,0.034-0.498,0.294-0.473,0.587
		c0.026,0.292,0.285,0.529,0.58,0.495c0.143-0.007,1.486-0.002,1.618,0.003c0.43,0.021,0.862,0.036,1.293,0.05
		c1.191,0.041,2.423,0.083,3.595,0.262l0.11,0.017c0.725,0.109,1.475,0.223,2.057,0.561c0.592,0.343,1.14,0.859,1.607,1.315
		c1.059,1.035,1.252,2.041,1.252,3.65c0,0.438,0.012,0.873,0.024,1.307c0.009,0.323,0.018,0.645,0.021,0.965
		c0.001,0.153,0.011,0.334,0.02,0.525c0.024,0.472,0.06,1.183-0.066,1.475c-0.119,0.276,0.007,0.597,0.284,0.716
		c0.07,0.03,0.144,0.045,0.215,0.045c0.211,0,0.412-0.123,0.5-0.329c0.227-0.525,0.188-1.287,0.154-1.96
		c-0.009-0.177-0.018-0.343-0.019-0.484c-0.003-0.326-0.013-0.653-0.021-0.981c-0.012-0.424-0.023-0.851-0.023-1.278
		c0-0.015,0-0.029-0.001-0.043c-0.013-0.228,0.21-0.666,0.374-0.987c0.095-0.187,0.186-0.367,0.254-0.531
		c0.212-0.51,0.548-0.945,0.933-1.42c0.841-1.038,1.634-1.834,2.425-2.436c0.408-0.31,1.082-0.379,1.756-0.443
		c0.155,0,0.312,0.004,0.466,0.001c0.272-0.005,0.543-0.009,0.798,0.003l0.573,0.03c0.587,0.032,1.18,0.063,1.769,0.063l0.548,0.001
		c0.301-0.002,0.542-0.248,0.54-0.549C37.018,19.487,36.77,19.279,36.472,19.247z M27.3,22.43c-0.378,0.466-0.7,0.918-0.958,1.442
		c-0.22-0.792-0.618-1.503-1.336-2.205c-0.514-0.501-1.121-1.071-1.82-1.478c-0.31-0.18-0.644-0.301-0.982-0.399
		c0.222-0.101,0.445-0.205,0.664-0.332c1.122-0.653,2.022-1.542,2.829-2.405c0.237-0.253,0.423-0.551,0.588-0.857
		c0.212,0.522,0.526,1.025,0.984,1.54c0.629,0.706,1.613,1.521,2.73,2.026c-0.028,0.019-0.061,0.03-0.088,0.051
		C29.051,20.468,28.196,21.324,27.3,22.43z"/>
	<path d="M19.846,14.584c0.185,0.127,0.396,0.192,0.628,0.192c0.611,0,1.246-0.459,1.578-0.886c0.502-0.646,0.769-1.635,0.232-2.39
		c-0.524-0.736-1.359-0.859-2.029-0.299c-0.175,0.146-0.33,0.308-0.483,0.467c-0.072,0.076-0.144,0.15-0.218,0.223l-0.144,0.237
		l-0.027,0.073C19.236,12.868,19.169,14.118,19.846,14.584z M19.906,12.357l0.058-0.105c0.068-0.067,0.134-0.136,0.2-0.206
		c0.14-0.146,0.282-0.293,0.44-0.427c0.186-0.156,0.373-0.234,0.555-0.234c0.31,0,0.542,0.234,0.682,0.432
		c0.372,0.523,0.147,1.269-0.218,1.74c-0.332,0.426-1.062,0.858-1.467,0.58C19.78,13.877,19.783,12.955,19.906,12.357z"/>
	<path d="M33.075,16.054c0.454,0,0.896-0.115,1.214-0.314c0.77-0.482,1.083-1.279,0.838-2.131c-0.325-1.132-1.528-1.817-2.502-1.357
		l-0.063,0.029l-0.076,0.115c-0.805,0.707-1.428,1.926-0.895,2.934C31.834,15.791,32.375,16.054,33.075,16.054z M32.884,12.762
		l0.033-0.044c0.666-0.268,1.46,0.252,1.687,1.042c0.084,0.291,0.192,1.02-0.604,1.519c-0.227,0.143-0.581,0.231-0.925,0.231
		c-0.484,0-0.86-0.162-1.004-0.434C31.649,14.278,32.303,13.282,32.884,12.762z"/>
	<path d="M33.444,25.014c-0.432,0-0.858,0.145-1.225,0.28L32.15,25.32l-0.276,0.338c-0.412,0.477-0.327,1.283-0.06,1.871
		c0.324,0.708,0.878,1.13,1.483,1.13c0,0,0,0,0.001,0c0.376,0,0.749-0.161,1.11-0.478c0.409-0.359,0.673-0.89,0.705-1.417
		c0.025-0.445-0.109-0.848-0.394-1.163C34.371,25.211,33.941,25.014,33.444,25.014z M34.05,27.771
		c-0.258,0.228-0.511,0.342-0.751,0.342c-0.001,0-0.001,0-0.001,0c-0.454,0-0.809-0.419-0.988-0.812
		c-0.228-0.5-0.238-1.041-0.019-1.294l0.187-0.229c0.306-0.111,0.649-0.221,0.967-0.221c0.346,0,0.623,0.129,0.872,0.407
		c0.232,0.258,0.267,0.56,0.253,0.767C34.548,27.111,34.349,27.511,34.05,27.771z"/>
	<path d="M18.806,24.267l-0.221-0.059l-0.108,0.089c-0.773,0.637-1.466,1.3-1.459,2.389c0.005,0.859,0.621,1.78,1.528,1.78
		c0.215,0,0.43-0.055,0.641-0.162c0.855-0.437,1.057-1.524,0.959-2.398C20.069,25.216,19.844,24.406,18.806,24.267z M18.938,27.819
		c-0.713,0.362-1.373-0.418-1.376-1.137c-0.005-0.809,0.512-1.338,1.159-1.88c0.486,0.071,0.787,0.29,0.884,1.164
		C19.678,26.626,19.547,27.509,18.938,27.819z"/>
</g>
</svg>
