<?xml version="1.0" encoding="utf-8"?>
<!-- Generator: Adobe Illustrator 15.1.0, SVG Export Plug-In . SVG Version: 6.00 Build 0)  -->
<!DOCTYPE svg PUBLIC "-//W3C//DTD SVG 1.1//EN" "http://www.w3.org/Graphics/SVG/1.1/DTD/svg11.dtd">
<svg version="1.1" id="Layer_2" xmlns="http://www.w3.org/2000/svg" xmlns:xlink="http://www.w3.org/1999/xlink" x="0px" y="0px"
	 width="52px" height="46.822px" viewBox="0 0 52 46.822" enable-background="new 0 0 52 46.822" xml:space="preserve">
<g>
	<path d="M14.687,32.401c2.638,1.031,5.545,1.008,8.365,0.991l1.038-0.004c1.86,0.004,3.75,0.046,5.588,0.094
		c1.354,0.033,2.708,0.068,4.055,0.083l0.224,0.004c0.22,0.002,0.44,0.004,0.656,0.004c0.971,0,1.908-0.056,2.859-0.421
		c0.718-0.278,1.417-0.608,2.094-0.928c0.519-0.245,1.039-0.492,1.572-0.716c2.219-0.928,4.316-2.232,4.642-5.475
		c0.019-0.193-0.072-0.366-0.218-0.474c0.483-1.393,0.961-4.015,0.266-5.099c-0.122-0.188-0.278-0.321-0.452-0.419
		c1.066-1.376,1.353-3.111,0.888-5.388c-0.253-1.243-0.977-2.276-2.16-3.079c-0.292-0.197-0.862-0.576-1.434-0.535
		c0.173-0.837,0.142-1.681-0.098-2.574C42.105,6.709,41,5.684,39.377,5.501c-1.347-0.15-3.372-0.091-4.646,0.311
		c-0.011,0.003-0.017,0.007-0.025,0.01c-0.048-0.035-0.098-0.066-0.155-0.084c-1.434-0.437-2.455-0.731-3.515-0.835
		c-0.772-0.077-1.565-0.039-2.367,0c-0.897,0.043-1.562,0.502-1.872,1.226c0.073-0.328,0.045-0.658-0.115-0.941
		c-0.443-0.792-1.809-1.097-2.297-1.147c-0.839-0.089-1.769-0.015-2.568,0.066c-1.458,0.15-2.047,0.305-2.335,0.468
		c-0.191-0.033-0.396-0.055-0.633-0.047c-1.116,0.037-2.11,0.625-2.987,1.145c-0.236,0.14-0.469,0.278-0.7,0.403
		c-1.297,0.702-2.505,1.583-3.803,2.773c-2.272,2.085-3.519,4.633-4.167,8.518c-0.463,2.775-0.717,6.057,0.912,9.356
		C9.292,29.131,11.753,31.254,14.687,32.401z M15.074,31.411c-2.694-1.054-4.944-2.981-6.018-5.159
		c-0.354-0.718-0.606-1.433-0.787-2.141c0.247-0.425,1.526-0.783,2.08-0.938l0.287-0.081c0.994-0.291,2.121-0.338,3.185-0.329
		c2.46,0.002,4.528,0.085,6.88,1.102c1.871,0.809,3.202,2.329,3.56,4.065c0.135,0.656-0.288,3.616-0.986,4.237
		c-0.076,0.066-0.101,0.056-0.123,0.052c-0.188-0.064-0.378-0.011-0.515,0.112C20.05,32.345,17.399,32.32,15.074,31.411z
		 M28.753,5.963c0.73-0.035,1.486-0.069,2.179-0.002c0.806,0.079,1.631,0.294,2.677,0.605c-0.004,0.004-0.01,0.009-0.015,0.013
		c-0.124,0.125-0.255,0.257-0.419,0.381c-0.4,0.303-0.647,0.283-1.201,0.245l-0.332-0.022c-0.324-0.016-0.647-0.016-0.969-0.015
		c-0.511-0.001-0.992,0.003-1.459-0.066c-0.195-0.028-0.388-0.071-0.583-0.113c-0.291-0.063-0.608-0.127-0.942-0.155
		C27.756,6.412,28.009,5.999,28.753,5.963z M24.675,15.978c-0.288-1.008,0.251-2.489,0.842-3.504
		c0.302-0.519,0.646-0.892,1.103-1.327l0.136-0.131c0.153-0.148,0.3-0.294,0.476-0.422c0.062-0.045,0.156-0.091,0.245-0.137
		c0.066-0.035,0.133-0.071,0.197-0.107c1.337,1.488,3.61,2.077,5.848,2.081c-0.19,1.187-1.225,2.075-1.878,2.527
		C29.592,16.375,27.12,16.251,24.675,15.978z M26.572,6.686c0.052-0.079,0.084-0.163,0.122-0.245
		c-0.038,0.144-0.062,0.295-0.074,0.455l-0.154,0.022l0.029,0.485c0.047,0.8,0.252,1.483,0.568,2.071
		c-0.024,0.013-0.051,0.026-0.076,0.039c-0.14,0.073-0.282,0.15-0.38,0.221c-0.217,0.158-0.402,0.335-0.59,0.518l-0.128,0.124
		c-0.51,0.485-0.924,0.936-1.288,1.562c-0.33,0.566-1.251,2.332-1.039,3.907c-0.877-0.118-2.335-0.452-3.277-1.4
		c-0.647-0.651-0.556-1.995-0.482-3.074c0.014-0.217,0.029-0.428,0.037-0.629c0.159,0.025,0.325,0.054,0.496,0.083
		c1.11,0.195,2.495,0.437,3.562-0.202c0.659-0.394,2.894-2.107,2.319-3.545C26.348,6.966,26.471,6.84,26.572,6.686z M21.925,5.164
		c0.745-0.077,1.605-0.144,2.35-0.066c0.544,0.056,1.333,0.348,1.48,0.61c0.064,0.112,0.003,0.279-0.073,0.397
		C25.563,6.29,25.368,6.418,25.22,6.41c-0.417-0.056-0.934-0.034-1.511-0.009c-0.571,0.025-1.353,0.06-1.616-0.058
		c-0.431-0.192-0.702-0.475-0.989-0.775c-0.084-0.088-0.172-0.178-0.263-0.266C21.11,5.259,21.458,5.212,21.925,5.164z M8.24,17.542
		c0.606-3.632,1.753-5.998,3.837-7.909c1.231-1.13,2.372-1.963,3.589-2.622c0.244-0.132,0.489-0.277,0.737-0.424
		c0.805-0.477,1.637-0.97,2.481-0.998c0.74-0.017,1.027,0.27,1.453,0.714c0.33,0.344,0.703,0.733,1.324,1.011
		c0.493,0.219,1.27,0.185,2.095,0.149c0.359-0.016,0.889-0.039,1.208-0.038c0.047,0.02,0.094,0.04,0.147,0.045
		c0.038,0.004,0.077,0.006,0.115,0.006c0.177,0.475-1.011,1.72-1.875,2.237c-0.727,0.436-1.846,0.241-2.833,0.067
		c-0.242-0.042-0.475-0.083-0.712-0.116l-1.064-0.106l0.038,0.623c0.018,0.3-0.009,0.697-0.038,1.119
		c-0.087,1.294-0.197,2.903,0.789,3.896c1.222,1.229,3.065,1.609,4.055,1.727l0.137,0.016c2.769,0.329,5.911,0.702,8.525-1.107
		c1.603-1.108,2.44-2.519,2.364-3.971l-0.029-0.525l-0.525,0.022c-0.994,0.043-5.779,0.054-6.436-3.468
		c0.256,0.023,0.517,0.079,0.785,0.137c0.218,0.047,0.434,0.094,0.652,0.126c0.548,0.08,1.093,0.08,1.616,0.078
		c0.305,0,0.607-0.002,0.913,0.014l0.309,0.02c0.625,0.047,1.204,0.086,1.92-0.457c0.205-0.156,0.371-0.319,0.529-0.478
		c0.238-0.239,0.412-0.412,0.705-0.504c1.083-0.341,2.99-0.406,4.208-0.268c1.183,0.132,1.932,0.847,2.287,2.183
		c0.41,1.544,0.1,2.871-1.042,4.434l-0.303,0.422c-0.716,1.003-1.695,2.376-2.729,2.745c-0.276,0.098-0.42,0.402-0.322,0.679
		c0.1,0.277,0.402,0.421,0.679,0.322c0.579-0.207,1.108-0.612,1.59-1.09c0.382-0.208,0.602-0.371,0.794-0.515
		c0.85-0.638,1.496-1.372,2.101-2.377c0.129-0.215,0.201-0.5,0.271-0.776c0.039-0.159,0.105-0.424,0.131-0.47
		c0.054-0.051,0.238-0.033,0.803,0.35c0.934,0.634,1.509,1.443,1.704,2.404c0.475,2.322,0.1,3.898-1.216,5.114l-0.158,0.145
		c-0.633,0.584-1.164,1.068-1.705,1.445c-0.025,0.013-0.05,0.026-0.075,0.039l-0.197,0.097c-0.135,0.066-0.271,0.139-0.413,0.214
		c-0.168,0.089-0.338,0.178-0.506,0.26c-0.465,0.157-0.976,0.249-1.594,0.249c-0.008,0-0.017,0.005-0.024,0.005
		c-0.04,0.002-0.075,0.012-0.112,0.022c-0.031,0.008-0.061,0.014-0.087,0.027c-0.033,0.015-0.061,0.037-0.09,0.059
		c-0.024,0.02-0.052,0.037-0.074,0.061c-0.021,0.024-0.038,0.052-0.055,0.081c-0.019,0.031-0.039,0.062-0.052,0.097
		c-0.004,0.008-0.01,0.014-0.012,0.023c-0.009,0.026-0.005,0.052-0.009,0.079c-0.004,0.027-0.017,0.05-0.017,0.079
		c0,0.009,0.004,0.017,0.006,0.025c0.003,0.039,0.013,0.074,0.021,0.11c0.008,0.031,0.015,0.062,0.028,0.09
		c0.015,0.031,0.036,0.056,0.057,0.083c0.019,0.028,0.037,0.056,0.062,0.08c0.022,0.021,0.052,0.035,0.078,0.052
		c0.031,0.021,0.062,0.042,0.1,0.054c0.009,0.003,0.015,0.01,0.023,0.013c0.773,0.24,1.524-0.007,2.185-0.321
		c0.45-0.163,0.859-0.377,1.247-0.634c0.421-0.207,0.851-0.424,1.247-0.745c0.127-0.102,0.26-0.25,0.398-0.41
		c0.116-0.133,0.33-0.382,0.426-0.409c0.139-0.024,0.183,0.014,0.228,0.086c0.542,0.845-0.207,4.129-0.593,4.696
		c-0.691,1.011-1.944,1.566-3.154,2.102c-0.382,0.17-0.758,0.336-1.112,0.513c-0.27,0.135-0.537,0.289-0.807,0.442
		c-0.501,0.284-0.974,0.555-1.44,0.704c-0.114,0.037-0.542,0.074-0.853,0.104c-0.6,0.052-1.221,0.107-1.619,0.243
		c-0.277,0.095-0.427,0.396-0.332,0.674c0.075,0.222,0.282,0.361,0.503,0.361c0.058,0,0.113-0.011,0.172-0.029
		c0.278-0.094,0.884-0.149,1.371-0.193c0.531-0.045,0.868-0.078,1.081-0.146c0.573-0.186,1.117-0.494,1.642-0.793
		c0.253-0.146,0.507-0.288,0.758-0.415c0.34-0.17,0.701-0.33,1.066-0.492c0.954-0.423,2-0.89,2.83-1.617
		c-0.562,1.676-1.863,2.565-3.719,3.342c-0.548,0.23-1.083,0.483-1.616,0.734c-0.657,0.312-1.338,0.633-2.021,0.896
		c-0.974,0.374-1.968,0.361-3.121,0.347l-0.225-0.004c-1.34-0.015-2.69-0.05-4.039-0.083c-1.731-0.044-3.507-0.092-5.265-0.092
		c0.751-1.371,1.005-3.898,0.858-4.609c-0.428-2.077-1.99-3.881-4.18-4.828c-2.533-1.095-4.805-1.186-7.3-1.189
		c-1.18-0.006-2.362,0.043-3.484,0.372l-0.273,0.077c-0.611,0.17-1.424,0.401-2.033,0.781C7.762,21.075,7.952,19.266,8.24,17.542z"
		/>
	<path d="M14.482,25.414l-0.192,0.051l-0.111,0.166c-0.5,0.743,0.037,2.63,0.414,3.072c0.468,0.548,1.443,1.103,2.401,1.103
		c0.442,0,0.84-0.125,1.149-0.361c0.608-0.463,0.832-1.103,0.613-1.752C18.281,26.291,15.724,25.08,14.482,25.414z M17.499,28.601
		c-0.125,0.095-0.295,0.143-0.505,0.143c-0.599,0-1.293-0.379-1.59-0.727c-0.173-0.229-0.385-1.151-0.375-1.598
		c0.912,0.036,2.467,0.866,2.72,1.614C17.784,28.138,17.85,28.332,17.499,28.601z"/>
	<path d="M47.42,34.534c2.957-2.739,4.106-6.896,4.322-11.38c0.33-6.874-0.098-14.776-6.136-19.03
		c-4.937-3.479-11.91-3.952-17.734-4.093c-5.84-0.141-12.157,0.127-17.598,2.412c-0.088,0.037-0.164,0.072-0.23,0.107
		C-0.751,7.255-3.756,25.581,5.548,33.223c-0.047,0.017-0.091,0.035-0.128,0.054c-2.35,1.221-3.452,3.866-3.588,6.429
		c-0.18,3.405,0.951,5.582,4.254,6.656c3.04,0.99,6.675,0.251,9.537-0.939c0.755-0.313,1.371-0.712,1.898-1.164
		c3.768,2.687,8.74,2.786,13.239,2.323c2.789-0.284,4.644-1.015,5.901-2.332c2.799,3.567,9.79,2.619,12.96,0.147
		C53.514,41.365,51.927,35.545,47.42,34.534z M10.992,2.94c8.921-3.744,23.271-3.159,31.809,1.358
		c4.658,2.464,5.889,6.648,6.453,11.51c0.978,8.433,1.463,19.016-9.117,21.285c-9.449,2.027-22.864,1.168-31.317-3.629
		C-1.357,27.69,0.485,7.283,10.992,2.94z M44.197,40.768c0.017-0.002,0.033-0.002,0.05-0.004c-0.048,0.017-0.096,0.03-0.146,0.043
		C44.133,40.797,44.164,40.78,44.197,40.768z M43.305,39.906c-0.006-0.004-0.012-0.011-0.021-0.015
		c0.029,0.007,0.057,0.015,0.085,0.019C43.349,39.91,43.328,39.908,43.305,39.906z M24.804,38.46
		c0.271,0.017,0.544,0.031,0.817,0.046c-0.002,0.01-0.011,0.021-0.011,0.031c-0.07,3.535,5.641,3.183,6.148,0.089
		c0.478-0.011,0.956-0.021,1.434-0.041c-0.365,2.851-2.681,4.917-5.677,4.413C25.161,42.602,24.292,40.566,24.804,38.46z
		 M26.649,38.558c1.358,0.061,2.732,0.091,4.11,0.085c-0.002,0.009-0.013,0.017-0.013,0.027
		C30.422,41.089,26.744,40.96,26.649,38.558z M14.464,41.946c-1.668,2.396-4.604,0.5-5.459-1.673
		c2.584,1.382,5.892,0.203,5.253-3.108c0.343,0.081,0.688,0.156,1.033,0.225C15.728,38.945,15.383,40.626,14.464,41.946z
		 M13.006,45.465c-2.655,0.754-5.974,0.434-8.037-1.524c-2.344-2.227-1.204-8.373,1.402-10.089c1.987,1.406,4.29,2.361,6.718,3.021
		c0.366,1.161,0.544,2.699-0.753,3.338c-1.244,0.614-2.798-0.425-3.618-1.271c-0.197-0.203-0.987-0.079-0.99,0.266
		c-0.027,3.002,2.942,4.901,5.721,4.191c2.357-0.602,3.357-3.557,2.977-5.796c0.592,0.104,1.185,0.195,1.778,0.276
		c-0.159,0.11-0.273,0.24-0.276,0.39C17.859,41.863,16.762,44.398,13.006,45.465z M29.554,45.708
		c-3.958,0.12-7.738-0.133-10.871-2.793c0.857-1.343,1.207-2.994,1.278-4.833c1.323,0.14,2.626,0.239,3.884,0.322
		c-0.922,3.127,1.293,5.347,4.459,5.075c2.955-0.251,5.383-1.998,5.862-4.953c0.95-0.056,1.896-0.144,2.834-0.257
		c-0.006,0.021-0.026,0.037-0.031,0.058c-0.196,1.505-0.273,3.011-0.732,4.461C35.387,45.478,31.903,45.64,29.554,45.708z
		 M47.893,43.762c-2.502,1.95-8.073,1.921-9.761-0.996c-0.068-0.118-0.176-0.193-0.297-0.245c0.573-1.197,0.935-2.681,1.173-4.509
		c0.002-0.015-0.011-0.021-0.011-0.033c0.6-0.102,1.195-0.214,1.783-0.345c-0.121,0.158-0.202,0.345-0.247,0.559
		c-0.011,0.048-0.002,0.085,0.021,0.114c-1.313,3.455,5.142,4.057,5.997,0.828c0.063-0.241-0.861,0.068-0.965,0.146
		c-1.283,0.984-2.542-0.041-2.693-1.303c0.012-0.338,0.063-0.662,0.263-0.959c0.009-0.01,0.005-0.017,0.011-0.026
		c0.963-0.319,1.832-0.718,2.606-1.199c0.096,0.048,0.207,0.087,0.358,0.105C50.182,36.403,50.848,41.46,47.893,43.762z"/>
</g>
</svg>
