<?xml version="1.0" encoding="utf-8"?>
<!-- Generator: Adobe Illustrator 15.1.0, SVG Export Plug-In . SVG Version: 6.00 Build 0)  -->
<!DOCTYPE svg PUBLIC "-//W3C//DTD SVG 1.1//EN" "http://www.w3.org/Graphics/SVG/1.1/DTD/svg11.dtd">
<svg version="1.1" id="Layer_2" xmlns="http://www.w3.org/2000/svg" xmlns:xlink="http://www.w3.org/1999/xlink" x="0px" y="0px"
	 width="52px" height="50.135px" viewBox="0 0 52 50.135" enable-background="new 0 0 52 50.135" xml:space="preserve">
<g>
	<path d="M48.939,31.957c3.503-6.292,4.028-15.505,0.902-21.932c-3.091-6.358-11.748-7.928-17.885-9.178
		c-6.331-1.29-13.27-1.181-19.46,0.842C6.354,3.695,3.637,6.82,1.291,12.919c-1.402,5.935-2.253,13.327,0.644,18.921
		c0.974,1.881,2.615,3.246,4.553,4.281c-2.631,1.701-3.725,4.307-3.048,7.563c0.624,3.006,4.161,4.627,6.815,5.252
		c2.29,0.541,5,0.376,7.15-0.614c0.731-0.335,1.361-0.734,1.924-1.225c2.778,2.728,5.782,3.634,9.831,2.652
		c1.521-0.37,2.692-1.11,3.556-2.086c2.795,3.825,9.159,2.383,12.362-0.523c3.217-2.918,5.339-8.902,0.471-10.969
		C46.854,35.037,48.001,33.647,48.939,31.957z M3.351,12.553c2.87-7.463,8.246-10.619,16.255-11.53
		c6.391-0.728,14.323,0.583,20.238,3.22c11.083,4.942,11.507,16.479,7.648,26.747c-4.883,12.995-24.834,8.99-35.227,5.866
		C1.115,33.502,1.063,22.234,3.351,12.553z M37.167,42.058c-0.08,0.452-0.045,0.963,0.126,1.402
		c-0.073,0.011-0.146,0.025-0.219,0.046c-0.536-1.047-0.687-2.357-0.26-3.329c0.527-0.101,1.049-0.217,1.562-0.353
		C37.8,40.453,37.312,41.23,37.167,42.058z M24.243,40.36c1.64,0.19,3.316,0.321,4.99,0.365c-0.447,1.744-0.836,5.647-3.561,4.532
		C24.241,44.672,24.025,41.876,24.243,40.36z M9.05,41.467c0.606,0.981,2.157,1.176,3.257,0.739
		c1.538-0.608,2.096-2.295,1.429-3.629c0.354,0.078,0.705,0.151,1.051,0.222c-0.131,0.525-0.122,1.214-0.267,1.701
		c-0.261,0.872-0.774,1.648-1.426,2.278c-0.931,0.898-2.535,1.608-3.651,0.607C8.862,42.864,8.813,42.126,9.05,41.467z
		 M10.046,47.511c-4.622-1.659-6.644-7.798-2.533-10.882c1.488,0.675,3.101,1.186,4.706,1.589c0.838,0.813,1.029,2.019,0.412,3.053
		c-0.859,1.442-2.81,0.321-2.807-1.023c0.001-0.311-0.835-0.018-0.934,0.078c-2.083,1.952-0.383,4.765,2.328,3.991
		c1.265-0.36,2.331-0.971,3.222-1.944c0.45-0.491,0.76-1.105,1.012-1.716c0.206-0.494,0.208-1.119,0.294-1.672
		c0.795,0.152,1.56,0.289,2.269,0.42c0.482,0.089,0.975,0.178,1.473,0.262c-0.821,2.468,0.193,5.141-1.698,7.262
		C15.908,49.037,12.358,48.343,10.046,47.511z M29.206,48.708c-3.426,1.492-6.327-0.61-8.483-2.941
		c-0.043-0.046-0.109-0.071-0.175-0.097c1.021-1.708,0.482-3.794,0.85-5.693c0.608,0.093,1.222,0.182,1.845,0.262
		c-0.424,2.028,0.074,5.726,2.671,5.793c1.19,0.031,2.092-0.37,2.877-1.259c1.037-1.174,1.104-2.613,1.45-4.029
		c0.703,0.004,1.404-0.011,2.101-0.045c-0.004,0.036-0.025,0.067-0.019,0.104C32.869,43.882,32.417,47.311,29.206,48.708z
		 M44.361,45.486c-2.295,2.957-8.273,4.817-10.196,0.543c-0.055-0.123-0.147-0.209-0.256-0.277c0.659-1.562,0.819-3.39,0.543-5.216
		c0.449-0.051,0.895-0.11,1.338-0.178c-1.027,2.27,0.792,5.381,3.311,5.413c2.333,0.027,3.156-2.126,3.375-4.083
		c0.016-0.135-0.956,0.032-1.036,0.238c-0.243,0.627-0.576,1.172-1.034,1.67c-0.878,0.959-1.854,0.262-2.198-0.66
		c-0.431-1.15,0.534-2.649,1.345-3.463c1.575-0.511,3.063-1.196,4.423-2.104C47.834,38.779,46.282,43.008,44.361,45.486z"/>
	<path d="M38.039,34.279c4.663-1.702,6.975-3.687,8.688-8.487c1.866-5.219,1.896-12.179-1.93-16.399
		c-6.644-7.331-19.334-6.18-28.013-5.002c-0.072,0.009-0.143,0.032-0.212,0.058c-0.022,0.006-0.045,0.009-0.065,0.016
		C5.853,8.144,1.284,20.976,7.473,30.576c2.649,4.105,9.74,4.209,13.95,4.34C26.438,35.075,33.179,36.052,38.039,34.279z
		 M7.682,28.999c-5.51-8.545,0-20.999,9.033-24.236c7.652-1.03,15.632-1.38,22.763,1.961c8.923,4.183,8.562,14.426,4.954,22.386
		c-3.093,6.82-13.975,5.296-20.257,5.385C18.372,34.576,11.197,34.45,7.682,28.999z"/>
	<path d="M37.249,31.52C45.13,28.066,50.8,14.965,41.532,9.587c-7.2-4.18-16.933-4.659-24.688-1.997
		c-0.005,0.001-0.009,0.001-0.015,0.002c-9.592,2.696-12.73,11.5-8.093,20.153c0.361,0.673,0.806,1.228,1.306,1.703
		c0.038,0.111,0.118,0.222,0.261,0.322c0.149,0.108,0.301,0.196,0.455,0.274c2.551,1.837,6.232,1.942,9.329,2.231
		C25.269,32.761,32.282,33.698,37.249,31.52z M27.95,18.454l0.204-0.002c0.807-0.011,1.562-0.025,2.053,0.5
		c0.456,0.49,0.66,1.215,0.622,2.219c-0.035,0.922-0.177,1.854-0.971,2.429c-0.465,0.337-1.706,0.637-2.109,0.338
		C28.011,22.059,28.221,20.204,27.95,18.454z M29.599,17.417c-0.158,0.288-1.023,0.474-1.632,0.496l-0.109,0.001
		c-0.22-1.006-0.627-1.972-1.305-2.879v0c0.487-0.323,0.709-0.472,1.439-0.475c0.002,0,0.004,0,0.009,0
		c0.647,0,1.058,0.295,1.365,0.984C29.59,16.05,29.799,17.055,29.599,17.417z M27.671,24.484c0.187,0.072,0.389,0.118,0.615,0.117
		c0.698,0,1.511-0.291,1.889-0.564c0.984-0.712,1.155-1.838,1.195-2.847c0.042-1.155-0.207-2.007-0.769-2.607
		c-0.26-0.28-0.57-0.446-0.901-0.543c0.16-0.097,0.291-0.216,0.371-0.363c0.347-0.627,0-1.878-0.211-2.353
		c-0.396-0.891-0.99-1.305-1.859-1.305c-0.005,0-0.009,0-0.011,0c-0.894,0.003-1.229,0.227-1.735,0.565l-0.051,0.033
		c-0.192-0.223-0.378-0.447-0.608-0.663c-0.177-0.168-0.367-0.316-0.557-0.463c1.281-0.946,3.713-0.765,5.012,0.155
		c1.885,1.34,2.265,3.126,2.265,5.575c0,0.342,0.015,0.716,0.034,1.107c0.067,1.565,0.146,3.341-0.771,4.316
		c-0.545,0.582-1.347,0.94-2.055,1.232c-0.229,0.095-0.658,0.172-1.067,0.247c-0.418,0.076-0.756,0.142-1.026,0.22
		C27.5,25.724,27.585,25.104,27.671,24.484z M16.964,8.099c0.035-0.01,0.059-0.024,0.088-0.036c0.017-0.004,0.032-0.005,0.048-0.01
		c5.186-1.814,11.333-1.511,16.756-0.826c4.121,0.521,9.019,3.396,10.787,7.208c1.517,3.268-0.04,8.721-1.656,11.671
		c-3.013,5.5-9.481,6.077-15.261,5.939c0.021-0.029,0.029-0.057,0.021-0.084c-0.534-1.606-0.536-3.308-0.376-5.031
		c0.29-0.112,0.807-0.207,1.181-0.274c0.46-0.084,0.895-0.163,1.178-0.278c0.762-0.312,1.626-0.702,2.244-1.363
		c1.07-1.141,0.988-3.037,0.914-4.71c-0.017-0.382-0.031-0.747-0.031-1.083c0-2.548-0.425-4.546-2.493-6.016
		c-1.524-1.08-4.324-1.241-5.772-0.04c-3.845-2.604-9.595-1.834-13.929-1.591C12.425,9.917,14.715,8.73,16.964,8.099z M7.537,17.879
		c0.125-2.316,1.182-4.297,2.719-5.889c5.797-0.315,12.921-1.054,16.312,4.715c1.178,2.004,0.471,5.916,0.27,8.106
		c-0.192,2.119-0.792,5.066-0.19,7.203c-0.844-0.031-1.667-0.074-2.455-0.112c-2.696-0.128-5.981-0.08-8.879-0.811
		c1.244-0.395,2.193-1.448,2.39-3.09c0.093-0.785-1.06-0.843-1.533-0.581c-1.119,0.621-3.016,2.008-4.268,1.11
		c-0.349-0.249-0.894-0.175-1.31,0.045c-0.037-0.036-0.078-0.068-0.114-0.108C8.056,25.873,7.357,21.198,7.537,17.879z"/>
	<path d="M12.408,23.22c2.285,1.255,5.368-0.076,6.693-2.109c0.807-1.237,0.781-2.508,0.241-3.567
		c-0.255-1.146-1.202-2.125-2.734-2.494c-1.378-0.332-3.84,0.026-5.242,1.093c-0.397,0.061-0.766,0.247-1.034,0.55
		C8.358,18.931,10.181,21.998,12.408,23.22z M12.679,16.43L12.679,16.43c0.01-0.01,0.025-0.019,0.034-0.019
		c0.025,0.006,0.026,0.031,0.021,0.03l-0.005-0.023c0.371-0.024,0.704,0.125,1,0.251l0.401,0.203
		c0.165,0.121,0.26,0.154,0.393,0.271l0.198,0.183l0.094,0.097c-0.023-0.048,0.039,0.028,0.054,0.036
		c0.133,0.13,0.15,0.109,0.236,0.175c0.171,0.127,0.399,0.316,0.604,0.507c0.402,0.381,0.795,0.85,1.084,1.426
		c0.113,0.243,0.219,0.547,0.305,0.811c0.042,0.161,0.057,0.263,0.116,0.429c0.055,0.156,0.123,0.365,0.071,0.545
		c-0.162-0.083-0.31-0.069-0.461-0.095c-0.159-0.015-0.346-0.105-0.492-0.153c-0.304-0.139-0.567-0.258-0.826-0.434
		c-0.445-0.272-0.87-0.572-1.283-0.959c-0.202-0.195-0.389-0.383-0.606-0.662c-0.104-0.14-0.274-0.37-0.3-0.471
		c-0.026-0.049-0.005-0.029-0.07-0.135l-0.025-0.075l-0.042-0.162c-0.034-0.109-0.123-0.287-0.133-0.385L12.9,17.384l-0.211-0.909
		L12.679,16.43c0,0.001,0,0.001,0,0.001V16.43z"/>
	<polygon points="12.736,16.444 12.728,16.461 12.74,16.461 	"/>
</g>
</svg>
