<?xml version="1.0" encoding="utf-8"?>
<!-- Generator: Adobe Illustrator 15.1.0, SVG Export Plug-In . SVG Version: 6.00 Build 0)  -->
<!DOCTYPE svg PUBLIC "-//W3C//DTD SVG 1.1//EN" "http://www.w3.org/Graphics/SVG/1.1/DTD/svg11.dtd">
<svg version="1.1" id="Layer_2" xmlns="http://www.w3.org/2000/svg" xmlns:xlink="http://www.w3.org/1999/xlink" x="0px" y="0px"
	 width="52px" height="47.974px" viewBox="0 0 52 47.974" enable-background="new 0 0 52 47.974" xml:space="preserve">
<g>
	<path d="M50.545,7.896c-4.487-6.701-9.941-7.354-17.401-7.54c-4.283-0.107-8.348-0.65-12.626-0.143
		c-2.876,0.341-6.978,0.258-9.573,1.543C0.324,6.414-2.301,20.645,1.918,30.568c0.881,2.072,2.194,3.622,3.784,4.778
		c-3.893,2.879-3.605,9.43,1.673,10.561c3.125,0.672,7.074,0.747,9.94-0.797c0.631-0.338,1.174-0.764,1.63-1.243
		c2.455,3.669,6.884,4.775,11.101,3.413c1.427-0.461,2.638-1.329,3.501-2.51c2.763,4.304,8.625,3.78,12.804,1.302
		c4.487-2.66,4.175-10.595-1.149-11.026c1.853-1.573,3.319-3.622,4.481-6.097c1.6-3.404,1.924-7.245,1.979-10.945
		C51.709,14.93,52.346,10.585,50.545,7.896z M15.965,44.57c-2.088,1.122-4.974,0.41-7.238,0.304
		c-4.754-0.225-5.447-6.527-1.99-8.858c2.198,1.285,4.808,1.951,7.515,2.247c1.433,1.995-1.023,3.512-3.005,3.521
		c-0.93,0.005-1.869-0.131-2.616-0.72c-0.342-0.269-0.582-0.684-0.479-1.12c0.099-0.417,0.653-0.448,0.747-0.029
		c0.055,0.244,1.091-0.015,1.032-0.277c-0.2-0.889-1.714-0.459-2.223-0.129c-1.586,1.028,0.32,2.317,1.443,2.58
		c1.561,0.365,3.305,0.141,4.738-0.546c1.392-0.668,2.16-1.893,1.602-3.161c1.018,0.09,2.042,0.18,3.071,0.265
		C19.507,41.231,18.336,43.293,15.965,44.57z M27.972,46.86c-3.456,0.538-6.425-1.431-8.029-4.329
		c-0.01-0.019-0.033-0.024-0.046-0.041c0.557-1.121,0.709-2.399,0.371-3.706c1.214,0.092,2.432,0.174,3.652,0.236
		c-0.549,1.757,0.696,4.107,2.707,3.857c1.481-0.186,3.115-2.222,2.575-3.738c1.199-0.013,2.397-0.059,3.589-0.145
		c0.008,0.055,0.024,0.108,0.074,0.161c0.62,0.652,0.092,3.314-0.037,4.131C32.472,45.523,29.909,46.559,27.972,46.86z
		 M27.979,39.133c0.684,0.973-0.241,2.623-1.274,2.934c-0.825,0.246-1.457-0.678-1.688-1.325c-0.188-0.525-0.222-1.139-0.054-1.679
		C25.969,39.104,26.974,39.127,27.979,39.133z M47.941,39.076c0.931,2.193-0.474,4.909-2.08,6.324
		c-3.609,3.182-9.338,2.249-11.306-2.026c-0.033-0.075-0.11-0.118-0.2-0.147c0.34-1.223,0.588-3.398,0.136-4.39
		c1.264-0.132,2.522-0.297,3.766-0.541c0.273-0.052,0.52-0.135,0.782-0.2c-0.163,0.295-0.305,0.618-0.415,0.975
		c-0.501,1.61-0.389,3.736,1.102,4.775c1.84,1.287,6.843-1.37,4.825-3.507c-0.173-0.184-1.116,0.194-0.974,0.344
		c0.608,0.646,0.354,1.43-0.117,2.074c-0.933,1.269-2.522,1.296-3.463,0.069c-0.611-0.798-0.633-1.957-0.556-2.906
		c0.044-0.541,0.229-1.377,0.58-2.076c1.561-0.48,2.936-1.173,4.167-2.041C45.922,35.914,47.334,37.642,47.941,39.076z
		 M49.183,23.888c-1.414,9.419-7.928,13.645-17.187,14.033c-4.928,0.206-9.982-0.311-14.902-0.628
		c-6.225-0.398-11.033-2.387-13.563-8.339c-3.673-8.64-0.967-22.331,8.225-26.361c1.719-0.851,4.851-0.686,6.785-0.997
		c3.456-0.556,6.782-0.58,10.26-0.265c2.861,0.26,5.748,0.223,8.619,0.276c4.158,0.077,6.833,2.132,9.578,4.926
		C51.083,10.692,49.979,18.564,49.183,23.888z"/>
	<path d="M39.312,5.708C34.8,3.663,28.139,4.8,23.478,5.373c-4.482,0.552-8.587,0.646-12.26,3.43
		c-0.026,0.02-0.035,0.038-0.055,0.057c-0.011,0.01-0.025,0.015-0.035,0.026c-4.152,4.622-6.377,7.225-6.381,13.655
		c-0.004,4.93,3.109,8.068,7.224,10.333c3.755,2.067,10.29,1.801,14.418,1.851c6.373,0.077,11.52-0.064,16.594-4.116
		C50.76,24.401,47.947,9.619,39.312,5.708z M46.06,17.032c-0.56,1.792-2.539,3.56-4.316,3.789c-2.147,0.273-4.65-1.111-5.368-2.969
		c-0.396-1.03-0.664-1.889-0.186-2.79c0.472-0.89,1.003-0.979,1.892-0.987c0.167,0.166,0.334,0.333,0.479,0.514
		c0.544,0.68,0.893,1.246,1.126,1.835c0.062,0.157,0.213,0.252,0.372,0.252c0.05,0,0.1-0.009,0.147-0.028
		c0.207-0.082,0.307-0.314,0.226-0.521c-0.265-0.667-0.648-1.295-1.245-2.04c-0.403-0.503-0.879-0.919-1.338-1.322
		c-1.1-0.961-1.967-1.72-1.559-3.265c0.182-0.689,0.611-1.283,1.158-1.641c0.04-0.016,0.079-0.035,0.117-0.057
		c0.152-0.088,0.309-0.171,0.474-0.221c0.441-0.132,1.005-0.177,1.581-0.12c0.215,0.02,0.432,0.111,0.661,0.208
		c0.231,0.096,0.474,0.185,0.736,0.23C43.836,10.03,45.538,13.402,46.06,17.032z M46.014,22.201
		c-0.284,0.35-0.514,0.816-0.732,1.277c-0.127,0.263-0.25,0.522-0.378,0.742c-0.265,0.45-0.59,0.876-0.905,1.289
		c-0.156,0.204-0.311,0.406-0.461,0.613c-1.05,1.458-2.484,2.218-4.118,2.994c-3.864,1.834-7.722,2.581-13.314,2.581
		c-0.666,0-1.338,0.011-2.012,0.021c-1.897,0.027-3.859,0.061-5.688-0.149c-0.937-0.106-1.644-0.657-2.392-1.239
		c-0.862-0.672-1.754-1.367-3.054-1.434c-0.32-0.017-0.676-0.004-1.045,0.013c-0.782,0.033-1.59,0.068-2.127-0.218
		c-0.82-0.436-0.907-1.44-0.714-2.235c0.031-0.126,0.082-0.222,0.149-0.301l0.074,0.047l0.095-0.164
		c0.245-0.142,0.619-0.182,1.21-0.187c0.248-0.002,0.495-0.005,0.723-0.028c0.845-0.086,1.742-0.078,2.614-0.07l0.75,0.004
		c0.025,0,0.047-0.01,0.071-0.014c0.2,0.231,0.45,0.449,0.698,0.661c0.195,0.167,0.385,0.327,0.519,0.479l0.481,0.546l0.203-0.7
		c0.075-0.257,0.259-0.472,0.454-0.701c0.099-0.115,0.199-0.233,0.291-0.361c0.496,0.14,1.167,0.173,1.662,0.173
		c0.129,0,0.239-0.002,0.337-0.005c0.189,0.758,0.47,1.46,0.748,1.928c0.669,1.131,1.92,2.038,3.187,2.313l0.523,0.112l-0.038-0.531
		c-0.033-0.453-0.061-0.966-0.091-1.509c-0.025-0.458-0.052-0.932-0.083-1.408c0.022-0.016,0.046-0.026,0.066-0.046
		c0.087-0.093,0.369-0.29,0.555-0.419c0.153-0.107,0.289-0.203,0.359-0.263c0.429-0.366,0.833-0.792,0.648-1.613
		c-0.373-1.647-1.908-1.647-2.646-1.647c-0.455,0-0.912,0.003-1.371,0.006c-1.329,0.01-2.69,0.017-4.01-0.06
		c-0.025-0.006-0.05-0.004-0.075-0.006c-0.329-0.02-0.658-0.04-0.981-0.073c-2.726-0.272-4.843-0.842-6.472-1.74
		c-0.939-0.518-1.471-0.986-1.582-1.975c-0.046-0.415,0.251-1.238,0.666-1.608c0.145-0.129,0.256-0.163,0.337-0.169
		c0.464,0.381,0.991,0.593,1.517,0.593c0.058,0,0.116-0.002,0.174-0.007c0.585-0.05,1.104-0.348,1.499-0.858
		c0.135-0.175,0.103-0.427-0.072-0.562c-0.175-0.135-0.427-0.102-0.562,0.072c-0.255,0.33-0.578,0.52-0.934,0.551
		c-0.357,0.025-0.733-0.109-1.077-0.377c-0.039-0.065-0.1-0.114-0.17-0.148c-0.604-0.62-0.228-1.863,0.187-2.564
		c1.083-1.829,4.185-1.889,5.99-1.889c0.07,0,0.149-0.003,0.201,0c2.241,0,4.41-1.116,6.324-2.102
		c0.307-0.158,0.61-0.314,0.909-0.463c0.407-0.203,0.811-0.421,1.215-0.639c0.712-0.384,1.448-0.781,2.182-1.08
		c0.975-0.399,2.069-0.533,3.292-0.655c1.398-0.14,2.831-0.118,4.039,0.062c0.495,0.074,1.14,0.184,1.732,0.382
		c0.094,0.032,0.208,0.086,0.333,0.144c0.126,0.059,0.268,0.125,0.42,0.184c-0.384,0.426-0.676,0.95-0.828,1.527
		c-0.53,2.001,0.626,3.041,1.763,4.036c-0.683,0.11-1.304,0.425-1.797,1.353c-0.636,1.196-0.294,2.316,0.146,3.454
		c0.778,2.015,3.219,3.517,5.554,3.517c0.222,0,0.444-0.013,0.663-0.042c1.632-0.21,3.365-1.474,4.358-3.013
		C46.264,19.803,46.205,21.013,46.014,22.201z M8.368,23.442c0.001-0.763,0.017-1.6,0.266-2.298
		c0.229,0.165,0.469,0.308,0.704,0.438c0.091,0.05,0.198,0.088,0.292,0.136c-0.239,0.541-0.359,1.076-0.494,1.708
		C9.083,23.67,9.061,23.956,9.04,24.25c-0.019,0.256-0.038,0.517-0.081,0.745c-0.421-0.375-0.592-0.796-0.591-1.395V23.442z
		 M22.497,23.553c0.246,1.314,0.35,3.065,0.437,4.639c0.018,0.328,0.036,0.646,0.054,0.945c-0.87-0.33-1.677-0.992-2.146-1.783
		c-0.532-0.897-1.047-2.632-0.778-3.789c0.403,0,0.806-0.003,1.205-0.006C21.679,23.557,22.089,23.554,22.497,23.553z
		 M19.291,25.304c-0.542,0.011-1.185-0.021-1.625-0.119c0.162-0.439,0.175-1.111,0.064-1.661c0.502,0.021,1.006,0.033,1.511,0.037
		C19.15,24.103,19.185,24.708,19.291,25.304z M16.885,23.475c0.132,0.378,0.176,1.095,0.023,1.459
		c-0.084,0.199-0.239,0.381-0.404,0.574c-0.115,0.135-0.238,0.278-0.347,0.442c-0.058-0.051-0.119-0.104-0.18-0.156
		c-0.292-0.25-0.625-0.534-0.757-0.768c-0.142-0.25-0.135-0.625-0.127-1.021c0.005-0.241,0.006-0.487-0.019-0.73
		c0.347,0.047,0.675,0.105,1.043,0.142C16.371,23.443,16.628,23.457,16.885,23.475z M14.227,23.162
		c0.06,0.244,0.071,0.523,0.066,0.829c-0.006,0.322-0.005,0.648,0.063,0.962l-0.412-0.002c-0.893-0.008-1.813-0.015-2.701,0.075
		c-0.206,0.021-0.427,0.022-0.649,0.024c-0.262,0.002-0.553,0.009-0.84,0.047c0.045-0.256,0.065-0.523,0.084-0.788
		c0.019-0.255,0.036-0.504,0.099-0.799c0.113-0.528,0.225-0.991,0.425-1.45C11.472,22.538,12.744,22.909,14.227,23.162z
		 M41.048,31.146c-3.797,3.031-8.363,2.489-12.88,2.853c-4.212,0.34-9.984-0.303-14.114-1.252c-5.681-1.307-8.266-6.61-8.262-11.88
		c0.004-5.06,3.023-8.154,6.146-11.627c5.388-4.047,16.153-3.989,22.675-3.627c1.612,0.09,3.059,0.458,4.339,1.044
		c-0.408,0.015-0.805,0.057-1.141,0.158c-0.229,0.068-0.447,0.171-0.655,0.293c-0.156,0.089-0.649-0.133-0.894-0.247
		c-0.156-0.073-0.3-0.138-0.417-0.177c-0.653-0.219-1.339-0.337-1.867-0.416c-1.274-0.189-2.776-0.213-4.237-0.066
		c-1.288,0.129-2.441,0.271-3.517,0.71c-0.772,0.316-1.527,0.723-2.258,1.117c-0.396,0.214-0.792,0.427-1.192,0.627
		c-0.301,0.15-0.607,0.308-0.918,0.468c-1.922,0.989-3.91,2.012-5.956,2.012c-0.003,0-0.005,0-0.008,0
		c-1.933,0.001-5.519-0.007-6.874,2.282c-0.544,0.92-0.822,2.154-0.397,3.051c-0.118,0.06-0.235,0.132-0.345,0.231
		c-0.635,0.567-0.999,1.665-0.928,2.295c0.077,0.685,0.328,1.184,0.66,1.575c-0.418,0.894-0.439,1.936-0.441,2.871v0.158
		c-0.001,0.886,0.328,1.542,1.005,2.091c-0.119,0.154-0.219,0.336-0.278,0.576c-0.264,1.087-0.109,2.48,1.116,3.132
		c0.73,0.386,1.691,0.346,2.538,0.311c0.341-0.015,0.673-0.029,0.969-0.015c1.048,0.055,1.804,0.643,2.603,1.267
		c0.802,0.624,1.632,1.271,2.793,1.404c1.225,0.14,2.495,0.175,3.763,0.175c0.679,0,1.358-0.011,2.029-0.021
		c0.67-0.011,1.338-0.021,2-0.021c5.723,0,9.68-0.77,13.658-2.657c1.138-0.541,2.185-1.083,3.101-1.842
		c0.361-0.026,0.716-0.062,1.064-0.124C43.161,29.108,42.206,30.223,41.048,31.146z"/>
	<path d="M15.303,14.515c-0.067-0.175-0.13-0.341-0.159-0.508l0.013-0.008c-0.01-0.022-0.017-0.037-0.021-0.049
		c-0.001-0.017-0.003-0.034-0.005-0.051L14.865,13.9c-0.002,0.038,0.002,0.071,0.009,0.101c0.028,0.212,0.104,0.414,0.18,0.609
		c0.072,0.189,0.14,0.367,0.167,0.551c0.084,0.575,0.071,1.063-0.039,1.45c-0.131,0.461-0.339,0.876-0.585,1.17
		c-0.122,0.144-0.239,0.258-0.392,0.382c-0.022,0.018-0.066,0.05-0.117,0.088c-0.312,0.231-0.376,0.279-0.308,0.396
		c0.023,0.04,0.079,0.058,0.132,0.058c0.026,0,0.052-0.004,0.073-0.013c0.035-0.017,0.058-0.045,0.066-0.079
		c0.056-0.044,0.142-0.108,0.195-0.147c0.054-0.041,0.101-0.076,0.125-0.095c0.167-0.135,0.295-0.26,0.428-0.417
		c0.271-0.321,0.497-0.772,0.638-1.269c0.12-0.423,0.135-0.948,0.046-1.561C15.454,14.908,15.377,14.708,15.303,14.515z"/>
	<path d="M32.726,19.477c0.023-0.863,0.023-1.498-0.202-1.818c-0.395-0.561-1.129-0.913-1.717-1.197l-0.169-0.081
		c-0.739-0.361-1.388-0.708-1.984-1.06c-1.216-0.716-2.343-1.808-3.076-2.597c-1.148-1.239-2.596-1.635-4.077-1.116
		c-0.87,0.304-1.285,0.78-1.743,1.376c-0.168,0.22-0.562,0.735-0.849,0.747c-0.041,0.003-0.109-0.008-0.195-0.104
		c-0.099-0.11-0.268-0.119-0.377-0.02c-0.109,0.099-0.118,0.268-0.019,0.377c0.218,0.243,0.454,0.29,0.613,0.28
		c0.106-0.004,0.206-0.046,0.305-0.089c0.012,0.114,0.037,0.219,0.071,0.316c-0.021,0.024-0.051,0.036-0.062,0.067
		c-0.11,0.298-0.104,0.657-0.097,1.005c0.003,0.172,0.007,0.34-0.008,0.486c-0.02,0.209-0.028,0.427-0.035,0.647
		c-0.009,0.258-0.018,0.519-0.05,0.771c-0.085,0.664-0.509,1.375-1.26,2.111c-0.104,0.103-0.106,0.272-0.003,0.377
		c0.052,0.053,0.121,0.08,0.19,0.08c0.067,0,0.135-0.026,0.187-0.077c0.145-0.142,0.263-0.281,0.385-0.421
		c0.005-0.005,0.015-0.003,0.02-0.009c0.477-0.509,1.233-0.421,2.034-0.327c0.515,0.059,1.045,0.121,1.517,0.017
		c0.513-0.115,0.927-0.495,1.293-0.83c0.087-0.08,0.173-0.159,0.258-0.232c0.179-0.153,0.443-0.26,0.724-0.374
		c0.233-0.094,0.46-0.204,0.672-0.335c0.147-0.063,0.293-0.127,0.436-0.196c0.242-0.119,0.47-0.231,0.694-0.296
		c0.613-0.18,1.245-0.139,1.91-0.097c0.676,0.042,1.373,0.083,2.072-0.11c0.075,0.038,0.142,0.074,0.22,0.112l0.171,0.083
		c0.534,0.257,1.197,0.576,1.51,1.022c0.143,0.2,0.119,1.011,0.106,1.497c-0.021,0.766-0.031,1.115,0.213,1.252
		c0.042,0.023,0.086,0.035,0.132,0.035c0.092,0,0.184-0.049,0.231-0.136c0.059-0.102,0.042-0.225-0.031-0.308
		C32.705,20.176,32.718,19.774,32.726,19.477z M21.95,14.695c0.169-0.155,0.33-0.302,0.558-0.417
		c0.497-0.253,1.175-0.226,1.816,0.071c0.247,0.114,0.431,0.311,0.626,0.52c0.043,0.046,0.091,0.091,0.136,0.137
		c-0.016,0.271-0.089,0.498-0.253,0.666c-0.294,0.302-0.832,0.449-1.644,0.449c-0.498,0-0.824-0.026-1.16-0.391
		c-0.113-0.123-0.312-0.551-0.381-0.783C21.755,14.866,21.854,14.782,21.95,14.695z M21.417,15.098
		c0.107,0.327,0.332,0.72,0.417,0.812c0.407,0.443,0.819,0.477,1.355,0.477c0.888,0,1.487-0.173,1.834-0.529
		c0.164-0.168,0.248-0.389,0.295-0.634c0.099,0.084,0.202,0.166,0.325,0.232c0.178,0.095,0.392,0.153,0.616,0.194
		c-0.752,0.235-0.973,0.971-1.585,1.373c-0.007,0.004-0.008,0.008-0.015,0.012c-0.143,0.051-0.285,0.097-0.429,0.111
		c-0.87,0.085-1.704,0.013-2.288-0.197c-1.009-0.361-1.52-0.938-1.85-1.76c0.168,0.046,0.343,0.086,0.557,0.086
		c0.001,0,0.002,0,0.002,0C20.977,15.275,21.217,15.204,21.417,15.098z M21.677,12.112c1.623-0.569,2.805,0.216,3.51,0.975
		c0.578,0.624,1.398,1.428,2.32,2.108c-0.588,0.008-1.23-0.007-1.61-0.21c-0.211-0.113-0.379-0.292-0.556-0.481
		c-0.222-0.237-0.451-0.481-0.792-0.639c-0.789-0.365-1.641-0.388-2.282-0.063c-0.292,0.149-0.497,0.335-0.676,0.5
		c-0.28,0.255-0.481,0.439-0.936,0.439c0,0-0.001,0-0.001,0c-0.373,0-0.631-0.082-0.769-0.242c-0.017-0.02-0.02-0.054-0.034-0.077
		c-0.017-0.064-0.034-0.124-0.05-0.189c-0.007-0.028-0.033-0.04-0.046-0.062c-0.015-0.106-0.012-0.231,0.005-0.369
		c0.171-0.173,0.321-0.358,0.428-0.498C20.672,12.67,21.002,12.348,21.677,12.112z M23.057,17.997
		c-0.332,0.304-0.674,0.618-1.049,0.702c-0.382,0.086-0.847,0.032-1.338-0.026c-0.479-0.056-0.994-0.111-1.47-0.029
		c0.204-0.371,0.337-0.738,0.384-1.106c0.035-0.269,0.044-0.547,0.054-0.822c0.007-0.209,0.014-0.416,0.034-0.613
		c0.016-0.16,0.013-0.344,0.009-0.532c0.383,0.852,0.976,1.484,2.083,1.881c0.536,0.192,1.125,0.248,1.636,0.256
		c-0.022,0.017-0.049,0.027-0.07,0.045C23.239,17.829,23.149,17.912,23.057,17.997z"/>
</g>
</svg>
