<?xml version="1.0" encoding="utf-8"?>
<!-- Generator: Adobe Illustrator 15.1.0, SVG Export Plug-In . SVG Version: 6.00 Build 0)  -->
<!DOCTYPE svg PUBLIC "-//W3C//DTD SVG 1.1//EN" "http://www.w3.org/Graphics/SVG/1.1/DTD/svg11.dtd">
<svg version="1.1" id="Layer_1" xmlns="http://www.w3.org/2000/svg" xmlns:xlink="http://www.w3.org/1999/xlink" x="0px" y="0px"
	 width="12.987px" height="17.537px" viewBox="0 0 12.987 17.537" enable-background="new 0 0 12.987 17.537" xml:space="preserve">
<path d="M2.69,0.896c-1.702,1.125-2.76,3.238-2.76,5.518c0,0.346,0.025,0.69,0.069,0.957c0.03,3.494,1.267,7.975,3.911,9.553
	c1.478,0.882,3.199,0.814,5.116-0.198c2.368-1.251,3.96-4.59,3.96-8.308l0,0c0-3.674-1.576-6.629-4.113-7.713
	C5.915-0.559,3.878,0.111,2.69,0.896z M3.242,1.729c1.271-0.839,2.871-0.943,4.653-0.326c0.383,0.591,0.664,1.457,0.85,2.488
	C8.605,4.04,8.478,4.201,8.36,4.355C8.22,4.538,8.075,4.728,7.949,4.834c-0.548,0.462-1.043,0.669-1.765,0.74
	C4.477,5.743,2.291,5.556,1.147,4.801C1.489,3.513,2.224,2.402,3.242,1.729z M0.995,7.293C0.952,7.005,0.931,6.71,0.931,6.413
	c0-0.188,0.015-0.371,0.031-0.556C2.9,6.86,5.897,6.607,6.282,6.569c0.919-0.09,1.611-0.381,2.312-0.971
	c0.12-0.102,0.229-0.223,0.333-0.348c0.144,1.574,0.107,3.355-0.113,5.064l-0.169-0.127c-0.808,1.077-2.177,1.302-3.183,1.301h-0.12
	c-1.14,0-3.503-0.002-4.002-1.033C1.122,9.403,1.005,8.317,0.995,7.293z M4.423,16.063c-1.206-0.719-2.104-2.258-2.68-4.057
	c1.131,0.471,2.634,0.482,3.597,0.482h0.12c1.276,0.002,2.338-0.314,3.15-0.902c-0.395,2.097-1.078,3.931-2.045,4.91
	C5.784,16.587,5.066,16.448,4.423,16.063z M11.987,8.417L11.987,8.417c0,3.357-1.377,6.34-3.427,7.424
	c-0.139,0.073-0.273,0.133-0.409,0.194c1.246-2.157,1.872-5.62,1.872-8.798c0-1.947-0.239-3.779-0.711-5.145
	C11.264,3.454,11.987,6.155,11.987,8.417z"/>
</svg>
