<?xml version="1.0" encoding="utf-8"?>
<!-- Generator: Adobe Illustrator 15.1.0, SVG Export Plug-In . SVG Version: 6.00 Build 0)  -->
<!DOCTYPE svg PUBLIC "-//W3C//DTD SVG 1.1//EN" "http://www.w3.org/Graphics/SVG/1.1/DTD/svg11.dtd">
<svg version="1.1" id="Layer_1" xmlns="http://www.w3.org/2000/svg" xmlns:xlink="http://www.w3.org/1999/xlink" x="0px" y="0px"
	 width="13.058px" height="51.605px" viewBox="0 0 13.058 51.605" enable-background="new 0 0 13.058 51.605" xml:space="preserve">
<path d="M0.569,24.399c0.04,4.646,2.357,12.054,8.294,8.917c4.62-2.441,5.263-12.822-0.116-15.118
	C3.103,15.789-0.013,20.457,0.569,24.399"/>
<path d="M2.76,0.896C1.058,2.021,0,4.134,0,6.414c0,0.346,0.025,0.689,0.069,0.957c0.03,3.494,1.267,7.975,3.911,9.553
	c1.478,0.881,3.198,0.814,5.116-0.199c2.369-1.25,3.961-4.59,3.961-8.307l0,0c0-3.674-1.576-6.629-4.113-7.713
	C5.984-0.559,3.947,0.111,2.76,0.896z M3.312,1.73c1.27-0.84,2.87-0.943,4.652-0.326c0.383,0.59,0.664,1.457,0.85,2.488
	C8.675,4.041,8.548,4.201,8.43,4.355C8.29,4.539,8.146,4.728,8.019,4.833c-0.549,0.463-1.043,0.67-1.766,0.74
	C4.546,5.744,2.36,5.556,1.217,4.8C1.558,3.513,2.293,2.402,3.312,1.73z M1.063,7.292C1.021,7.005,1,6.71,1,6.414
	c0-0.188,0.015-0.371,0.031-0.557c1.938,1.004,4.935,0.75,5.32,0.713c0.919-0.09,1.61-0.381,2.312-0.971
	c0.12-0.102,0.229-0.223,0.333-0.348c0.144,1.574,0.106,3.355-0.113,5.064l-0.169-0.127C7.905,11.265,6.537,11.49,5.53,11.49H5.411
	c-1.141,0-3.504-0.002-4.003-1.033C1.191,9.404,1.074,8.318,1.063,7.292z M4.493,16.064c-1.207-0.719-2.105-2.258-2.68-4.057
	c1.131,0.471,2.634,0.482,3.597,0.482h0.12c1.275,0.002,2.338-0.314,3.15-0.902c-0.395,2.096-1.079,3.93-2.046,4.91
	C5.854,16.587,5.136,16.449,4.493,16.064z M12.058,8.417L12.058,8.417c0,3.357-1.378,6.34-3.428,7.424
	c-0.139,0.072-0.273,0.133-0.409,0.193c1.245-2.156,1.872-5.619,1.872-8.797c0-1.947-0.239-3.779-0.711-5.145
	C11.333,3.455,12.058,6.156,12.058,8.417z"/>
<path d="M2.76,34.962C1.058,36.087,0,38.201,0,40.48c0,0.346,0.025,0.69,0.069,0.957c0.03,3.494,1.267,7.975,3.911,9.553
	c1.478,0.882,3.198,0.814,5.116-0.198c2.369-1.251,3.961-4.59,3.961-8.308l0,0c0-3.674-1.576-6.629-4.113-7.713
	C5.984,33.508,3.947,34.178,2.76,34.962z M3.312,35.796c1.27-0.839,2.87-0.943,4.652-0.326c0.383,0.591,0.664,1.457,0.85,2.488
	c-0.139,0.148-0.266,0.31-0.384,0.464c-0.14,0.183-0.284,0.372-0.411,0.479c-0.549,0.462-1.043,0.669-1.766,0.74
	c-1.707,0.169-3.893-0.019-5.036-0.773C1.558,37.58,2.293,36.469,3.312,35.796z M1.063,41.36C1.021,41.072,1,40.777,1,40.48
	c0-0.188,0.015-0.371,0.031-0.556c1.938,1.003,4.935,0.75,5.32,0.712c0.919-0.09,1.61-0.381,2.312-0.971
	c0.12-0.102,0.229-0.223,0.333-0.348c0.144,1.574,0.106,3.355-0.113,5.064l-0.169-0.127c-0.809,1.077-2.177,1.302-3.184,1.301H5.411
	c-1.141,0-3.504-0.002-4.003-1.033C1.191,43.47,1.074,42.384,1.063,41.36z M4.493,50.13c-1.207-0.719-2.105-2.258-2.68-4.057
	c1.131,0.471,2.634,0.482,3.597,0.482h0.12c1.275,0.002,2.338-0.314,3.15-0.902c-0.395,2.097-1.079,3.931-2.046,4.91
	C5.854,50.654,5.136,50.515,4.493,50.13z M12.058,42.484L12.058,42.484c0,3.357-1.378,6.34-3.428,7.424
	c-0.139,0.073-0.273,0.133-0.409,0.194c1.245-2.157,1.872-5.62,1.872-8.798c0-1.947-0.239-3.779-0.711-5.145
	C11.333,37.521,12.058,40.222,12.058,42.484z"/>
</svg>
