<?xml version="1.0" encoding="utf-8"?>
<!-- Generator: Adobe Illustrator 15.1.0, SVG Export Plug-In . SVG Version: 6.00 Build 0)  -->
<!DOCTYPE svg PUBLIC "-//W3C//DTD SVG 1.1//EN" "http://www.w3.org/Graphics/SVG/1.1/DTD/svg11.dtd">
<svg version="1.1" id="Layer_1" xmlns="http://www.w3.org/2000/svg" xmlns:xlink="http://www.w3.org/1999/xlink" x="0px" y="0px"
	 width="24px" height="59px" viewBox="0 0 24 59" enable-background="new 0 0 24 59" xml:space="preserve">
<path d="M11.606,1.744c-0.062,4.292,0.148,8.431,0.187,12.749c0.082,9.439,0.033,18.849-0.495,28.238
	c-0.215,3.811-0.063,15.916,1.319,15.908c3.071,0.024,5.278-0.011,8.254-0.011c0.719-4.009,0.324-11.258,0.324-15.497
	c0-8.887,0.125-17.657,0.33-26.499c0.117-5.156,0.454-10.387,0.279-15.523c-2.918-0.064-8.514-0.842-10.194,0.407L11.606,1.744z"/>
<path d="M0.972,1.744C0.909,6.036,1.12,10.175,1.158,14.493c0.082,9.439,0.033,18.849-0.495,28.238
	C0.448,46.542,0.6,58.647,1.982,58.64c3.071,0.024,5.278-0.011,8.254-0.011c0.719-4.009,0.324-11.258,0.324-15.497
	c0-8.887,0.125-17.657,0.33-26.499c0.117-5.156,0.454-10.387,0.279-15.523C8.252,1.045,2.656,0.268,0.976,1.517L0.972,1.744z"/>
</svg>
