<?xml version="1.0" encoding="utf-8"?>
<!-- Generator: Adobe Illustrator 15.1.0, SVG Export Plug-In . SVG Version: 6.00 Build 0)  -->
<!DOCTYPE svg PUBLIC "-//W3C//DTD SVG 1.1//EN" "http://www.w3.org/Graphics/SVG/1.1/DTD/svg11.dtd">
<svg version="1.1" id="Layer_1" xmlns="http://www.w3.org/2000/svg" xmlns:xlink="http://www.w3.org/1999/xlink" x="0px" y="0px"
	 width="38px" height="59px" viewBox="0 0 38 59" enable-background="new 0 0 38 59" xml:space="preserve">
<path d="M25.916,1.515c-0.062,4.292,0.148,8.431,0.187,12.749c0.082,9.44,0.033,18.848-0.495,28.238
	c-0.215,3.811-0.063,15.916,1.319,15.908c3.071,0.023,5.278-0.012,8.254-0.012c0.719-4.008,0.324-11.258,0.324-15.496
	c0-8.887,0.125-17.658,0.33-26.499c0.117-5.156,0.454-10.387,0.279-15.523c-2.918-0.064-8.514-0.842-10.194,0.407L25.916,1.515z"/>
<path d="M15.281,1.515c-0.062,4.292,0.148,8.431,0.187,12.749c0.082,9.44,0.033,18.848-0.495,28.238
	c-0.215,3.811-0.063,15.916,1.319,15.908c3.071,0.023,5.278-0.012,8.254-0.012c0.719-4.008,0.324-11.258,0.324-15.496
	c0-8.887,0.125-17.658,0.33-26.499c0.117-5.156,0.454-10.387,0.279-15.523c-2.918-0.064-8.514-0.842-10.194,0.407L15.281,1.515z"/>
<path d="M2.405,28.097c0.04,4.645,2.357,12.053,8.294,8.917c4.62-2.441,5.263-12.822-0.116-15.118
	C4.938,19.487,1.823,24.155,2.405,28.097"/>
<path d="M4.596,4.594c-1.702,1.125-2.76,3.238-2.76,5.518c0,0.346,0.025,0.689,0.069,0.957c0.03,3.494,1.267,7.975,3.911,9.553
	c1.478,0.881,3.198,0.814,5.116-0.199c2.369-1.25,3.961-4.59,3.961-8.307l0,0c0-3.674-1.576-6.629-4.113-7.713
	C7.82,3.139,5.783,3.809,4.596,4.594z M5.147,5.428c1.27-0.84,2.87-0.943,4.652-0.326c0.383,0.59,0.664,1.457,0.85,2.488
	c-0.139,0.148-0.266,0.309-0.384,0.463c-0.14,0.184-0.284,0.373-0.411,0.479c-0.549,0.463-1.043,0.67-1.766,0.74
	c-1.707,0.17-3.893-0.018-5.036-0.773C3.394,7.211,4.129,6.1,5.147,5.428z M2.899,10.991c-0.042-0.287-0.063-0.582-0.063-0.879
	c0-0.188,0.015-0.371,0.031-0.557c1.938,1.004,4.935,0.75,5.32,0.713c0.919-0.09,1.61-0.381,2.312-0.971
	c0.12-0.102,0.229-0.223,0.333-0.348c0.144,1.574,0.106,3.355-0.113,5.064l-0.169-0.127c-0.809,1.076-2.177,1.301-3.184,1.301H7.247
	c-1.141,0-3.504-0.002-4.003-1.033C3.027,13.102,2.91,12.016,2.899,10.991z M6.329,19.762c-1.207-0.719-2.105-2.258-2.68-4.057
	c1.131,0.471,2.634,0.482,3.597,0.482h0.12c1.275,0.002,2.338-0.314,3.15-0.902c-0.395,2.096-1.079,3.93-2.046,4.91
	C7.689,20.286,6.972,20.147,6.329,19.762z M13.894,12.116L13.894,12.116c0,3.357-1.378,6.34-3.428,7.424
	c-0.139,0.072-0.273,0.133-0.409,0.193c1.245-2.156,1.872-5.619,1.872-8.797c0-1.947-0.239-3.779-0.711-5.145
	C13.169,7.153,13.894,9.854,13.894,12.116z"/>
<path d="M4.596,38.66c-1.702,1.125-2.76,3.238-2.76,5.518c0,0.346,0.025,0.691,0.069,0.957c0.03,3.494,1.267,7.975,3.911,9.553
	c1.478,0.883,3.198,0.814,5.116-0.197c2.369-1.252,3.961-4.59,3.961-8.309l0,0c0-3.674-1.576-6.629-4.113-7.713
	C7.82,37.207,5.783,37.877,4.596,38.66z M5.147,39.494c1.27-0.838,2.87-0.943,4.652-0.326c0.383,0.592,0.664,1.457,0.85,2.488
	c-0.139,0.148-0.266,0.311-0.384,0.465c-0.14,0.182-0.284,0.371-0.411,0.479c-0.549,0.461-1.043,0.668-1.766,0.74
	c-1.707,0.168-3.893-0.02-5.036-0.773C3.394,41.277,4.129,40.168,5.147,39.494z M2.899,45.059c-0.042-0.289-0.063-0.584-0.063-0.881
	c0-0.188,0.015-0.371,0.031-0.555c1.938,1.002,4.935,0.75,5.32,0.711c0.919-0.09,1.61-0.381,2.312-0.971
	c0.12-0.102,0.229-0.223,0.333-0.348c0.144,1.574,0.106,3.355-0.113,5.064l-0.169-0.127c-0.809,1.078-2.177,1.303-3.184,1.301H7.247
	c-1.141,0-3.504-0.002-4.003-1.033C3.027,47.168,2.91,46.082,2.899,45.059z M6.329,53.828c-1.207-0.719-2.105-2.258-2.68-4.057
	c1.131,0.471,2.634,0.482,3.597,0.482h0.12c1.275,0.002,2.338-0.314,3.15-0.902c-0.395,2.098-1.079,3.932-2.046,4.91
	C7.689,54.352,6.972,54.213,6.329,53.828z M13.894,46.182L13.894,46.182c0,3.357-1.378,6.34-3.428,7.424
	c-0.139,0.074-0.273,0.133-0.409,0.195c1.245-2.158,1.872-5.621,1.872-8.799c0-1.947-0.239-3.779-0.711-5.145
	C13.169,41.219,13.894,43.92,13.894,46.182z"/>
</svg>
