<?xml version="1.0" encoding="utf-8"?>
<!-- Generator: Adobe Illustrator 15.1.0, SVG Export Plug-In . SVG Version: 6.00 Build 0)  -->
<!DOCTYPE svg PUBLIC "-//W3C//DTD SVG 1.1//EN" "http://www.w3.org/Graphics/SVG/1.1/DTD/svg11.dtd">
<svg version="1.1" id="Layer_1" xmlns="http://www.w3.org/2000/svg" xmlns:xlink="http://www.w3.org/1999/xlink" x="0px" y="0px"
	 width="38px" height="59px" viewBox="0 0 38 59" enable-background="new 0 0 38 59" xml:space="preserve">
<path d="M25.646,1.558c-0.062,4.293,0.148,8.432,0.187,12.75c0.082,9.439,0.033,18.848-0.495,28.238
	c-0.215,3.811-0.063,15.916,1.319,15.908c3.071,0.023,5.278-0.012,8.254-0.012c0.719-4.008,0.324-11.258,0.324-15.496
	c0-8.887,0.125-17.658,0.33-26.5c0.117-5.156,0.454-10.387,0.279-15.523c-2.918-0.064-8.514-0.842-10.194,0.408L25.646,1.558z"/>
<path d="M15.011,1.558c-0.062,4.293,0.148,8.432,0.187,12.75c0.082,9.439,0.033,18.848-0.495,28.238
	c-0.215,3.811-0.063,15.916,1.319,15.908c3.071,0.023,5.278-0.012,8.254-0.012c0.719-4.008,0.324-11.258,0.324-15.496
	c0-8.887,0.125-17.658,0.33-26.5c0.117-5.156,0.454-10.387,0.279-15.523c-2.918-0.064-8.514-0.842-10.194,0.408L15.011,1.558z"/>
<path d="M2.635,28.141c0.04,4.645,2.357,12.053,8.294,8.916c4.62-2.441,5.263-12.822-0.116-15.117
	C5.168,19.529,2.053,24.197,2.635,28.141"/>
<path d="M2.635,11.611c0.04,4.645,2.357,12.053,8.294,8.916c4.62-2.441,5.263-12.822-0.116-15.117C5.168,3,2.053,7.668,2.635,11.611
	"/>
<path d="M2.635,44.669c0.04,4.646,2.357,12.055,8.294,8.918c4.62-2.441,5.263-12.822-0.116-15.119
	C5.168,36.06,2.053,40.728,2.635,44.669"/>
</svg>
