<?xml version="1.0" encoding="utf-8"?>
<!-- Generator: Adobe Illustrator 15.1.0, SVG Export Plug-In . SVG Version: 6.00 Build 0)  -->
<!DOCTYPE svg PUBLIC "-//W3C//DTD SVG 1.1//EN" "http://www.w3.org/Graphics/SVG/1.1/DTD/svg11.dtd">
<svg version="1.1" id="Layer_1" xmlns="http://www.w3.org/2000/svg" xmlns:xlink="http://www.w3.org/1999/xlink" x="0px" y="0px"
	 width="38px" height="59px" viewBox="0 0 38 59" enable-background="new 0 0 38 59" xml:space="preserve">
<path d="M24.646,1.008c-0.062,4.293,0.148,8.432,0.187,12.75c0.082,9.439,0.033,18.848-0.495,28.238
	c-0.215,3.811-0.063,15.916,1.319,15.908c3.071,0.023,5.278-0.012,8.254-0.012c0.719-4.008,0.324-11.258,0.324-15.496
	c0-8.887,0.125-17.658,0.33-26.5c0.117-5.156,0.454-10.387,0.279-15.523c-2.918-0.064-8.514-0.842-10.194,0.408L24.646,1.008z"/>
<path d="M14.011,1.008c-0.062,4.293,0.148,8.432,0.187,12.75c0.082,9.439,0.033,18.848-0.495,28.238
	c-0.215,3.811-0.063,15.916,1.319,15.908c3.071,0.023,5.278-0.012,8.254-0.012c0.719-4.008,0.324-11.258,0.324-15.496
	c0-8.887,0.125-17.658,0.33-26.5c0.117-5.156,0.454-10.387,0.279-15.523c-2.918-0.064-8.514-0.842-10.194,0.408L14.011,1.008z"/>
<path d="M2.396,20.472c0.035,4.052,2.056,10.513,7.234,7.777c4.029-2.13,4.59-11.185-0.102-13.186
	C4.606,12.961,1.889,17.032,2.396,20.472"/>
<path d="M2.396,6.055c0.035,4.051,2.056,10.513,7.234,7.776c4.029-2.129,4.59-11.184-0.102-13.186
	C4.606-1.456,1.889,2.615,2.396,6.055"/>
<path d="M2.396,34.889c0.035,4.053,2.056,10.515,7.234,7.778c4.029-2.13,4.59-11.184-0.102-13.188
	C4.606,27.379,1.889,31.45,2.396,34.889"/>
<path d="M2.396,49.486c0.035,4.051,2.056,10.513,7.234,7.776c4.029-2.129,4.59-11.184-0.102-13.186
	C4.606,41.976,1.889,46.047,2.396,49.486"/>
</svg>
