<?xml version="1.0" encoding="utf-8"?>
<!-- Generator: Adobe Illustrator 15.1.0, SVG Export Plug-In . SVG Version: 6.00 Build 0)  -->
<!DOCTYPE svg PUBLIC "-//W3C//DTD SVG 1.1//EN" "http://www.w3.org/Graphics/SVG/1.1/DTD/svg11.dtd">
<svg version="1.1" id="Layer_1" xmlns="http://www.w3.org/2000/svg" xmlns:xlink="http://www.w3.org/1999/xlink" x="0px" y="0px"
	 width="38px" height="59px" viewBox="0 0 38 59" enable-background="new 0 0 38 59" xml:space="preserve">
<path d="M23.911,1.744c-0.062,4.292,0.148,8.431,0.187,12.749c0.082,9.439,0.033,18.849-0.495,28.238
	c-0.215,3.811-0.063,15.916,1.319,15.908c3.071,0.024,5.278-0.011,8.254-0.011C33.895,54.62,33.5,47.371,33.5,43.132
	c0-8.887,0.125-17.657,0.33-26.499c0.117-5.156,0.454-10.387,0.279-15.523c-2.918-0.064-8.514-0.842-10.194,0.407L23.911,1.744z"/>
<path d="M13.276,1.744c-0.062,4.292,0.148,8.431,0.187,12.749c0.082,9.439,0.033,18.849-0.495,28.238
	c-0.215,3.811-0.063,15.916,1.319,15.908c3.071,0.024,5.278-0.011,8.254-0.011c0.719-4.009,0.324-11.258,0.324-15.497
	c0-8.887,0.125-17.657,0.33-26.499c0.117-5.156,0.454-10.387,0.279-15.523c-2.918-0.064-8.514-0.842-10.194,0.407L13.276,1.744z"/>
<path d="M2.642,1.744C2.579,6.036,2.79,10.175,2.828,14.493c0.082,9.439,0.033,18.849-0.495,28.238
	C2.118,46.542,2.27,58.647,3.652,58.64c3.071,0.024,5.278-0.011,8.254-0.011c0.719-4.009,0.324-11.258,0.324-15.497
	c0-8.887,0.125-17.657,0.33-26.499c0.117-5.156,0.454-10.387,0.279-15.523C9.922,1.045,4.326,0.268,2.646,1.517L2.642,1.744z"/>
</svg>
