<?xml version="1.0" encoding="utf-8"?>
<!-- Generator: Adobe Illustrator 15.1.0, SVG Export Plug-In . SVG Version: 6.00 Build 0)  -->
<!DOCTYPE svg PUBLIC "-//W3C//DTD SVG 1.1//EN" "http://www.w3.org/Graphics/SVG/1.1/DTD/svg11.dtd">
<svg version="1.1" id="Layer_1" xmlns="http://www.w3.org/2000/svg" xmlns:xlink="http://www.w3.org/1999/xlink" x="0px" y="0px"
	 width="46px" height="59px" viewBox="0 0 46 59" enable-background="new 0 0 46 59" xml:space="preserve">
<path d="M33.949,2.064c-0.062,4.292,0.148,8.431,0.187,12.749c0.082,9.439,0.033,18.849-0.495,28.238
	c-0.215,3.811-0.063,15.916,1.319,15.908c3.071,0.024,5.278-0.011,8.254-0.011c0.719-4.009,0.324-11.258,0.324-15.497
	c0-8.887,0.125-17.657,0.33-26.499c0.117-5.156,0.454-10.387,0.279-15.523c-2.918-0.064-8.514-0.842-10.194,0.407L33.949,2.064z"/>
<path d="M23.314,2.064c-0.062,4.292,0.148,8.431,0.187,12.749c0.082,9.439,0.033,18.849-0.495,28.238
	c-0.215,3.811-0.063,15.916,1.319,15.908c3.071,0.024,5.278-0.011,8.254-0.011c0.719-4.009,0.324-11.258,0.324-15.497
	c0-8.887,0.125-17.657,0.33-26.499c0.117-5.156,0.454-10.387,0.279-15.523c-2.918-0.064-8.514-0.842-10.194,0.407L23.314,2.064z"/>
<path d="M12.68,2.064c-0.062,4.292,0.148,8.431,0.187,12.749c0.082,9.439,0.033,18.849-0.495,28.238
	c-0.215,3.811-0.063,15.916,1.319,15.908c3.071,0.024,5.278-0.011,8.254-0.011c0.719-4.009,0.324-11.258,0.324-15.497
	c0-8.887,0.125-17.657,0.33-26.499c0.117-5.156,0.454-10.387,0.279-15.523c-2.918-0.064-8.514-0.842-10.194,0.407L12.68,2.064z"/>
<path d="M0.842,28.646c0.04,4.646,2.357,12.054,8.294,8.917c4.62-2.441,5.263-12.822-0.116-15.118
	C3.375,20.036,0.26,24.704,0.842,28.646"/>
<path d="M3.032,5.144c-1.702,1.125-2.76,3.238-2.76,5.518c0,0.346,0.025,0.689,0.069,0.957c0.03,3.494,1.267,7.975,3.911,9.553
	c1.478,0.881,3.198,0.814,5.116-0.199c2.369-1.25,3.961-4.59,3.961-8.307l0,0c0-3.674-1.576-6.629-4.113-7.713
	C6.257,3.688,4.22,4.358,3.032,5.144z M3.584,5.978c1.27-0.84,2.87-0.943,4.652-0.326C8.619,6.241,8.9,7.108,9.086,8.14
	C8.947,8.288,8.82,8.448,8.702,8.603c-0.14,0.184-0.284,0.373-0.411,0.479c-0.549,0.463-1.043,0.67-1.766,0.74
	c-1.707,0.17-3.893-0.018-5.036-0.773C1.83,7.761,2.565,6.649,3.584,5.978z M1.336,11.54c-0.042-0.287-0.063-0.582-0.063-0.879
	c0-0.188,0.015-0.371,0.031-0.557c1.938,1.004,4.935,0.75,5.32,0.713c0.919-0.09,1.61-0.381,2.312-0.971
	c0.12-0.102,0.229-0.223,0.333-0.348c0.144,1.574,0.106,3.355-0.113,5.064l-0.169-0.127c-0.809,1.076-2.177,1.301-3.184,1.301H5.684
	c-1.141,0-3.504-0.002-4.003-1.033C1.464,13.651,1.347,12.565,1.336,11.54z M4.766,20.312c-1.207-0.719-2.105-2.258-2.68-4.057
	c1.131,0.471,2.634,0.482,3.597,0.482h0.12c1.275,0.002,2.338-0.314,3.15-0.902c-0.395,2.096-1.079,3.93-2.046,4.91
	C6.126,20.835,5.408,20.696,4.766,20.312z M12.33,12.665L12.33,12.665c0,3.357-1.378,6.34-3.428,7.424
	c-0.139,0.072-0.273,0.133-0.409,0.193c1.245-2.156,1.872-5.619,1.872-8.797c0-1.947-0.239-3.779-0.711-5.145
	C11.605,7.702,12.33,10.403,12.33,12.665z"/>
<path d="M3.032,39.21c-1.702,1.125-2.76,3.238-2.76,5.518c0,0.346,0.025,0.69,0.069,0.957c0.03,3.494,1.267,7.975,3.911,9.553
	c1.478,0.882,3.198,0.814,5.116-0.198c2.369-1.251,3.961-4.59,3.961-8.308l0,0c0-3.674-1.576-6.629-4.113-7.713
	C6.257,37.756,4.22,38.426,3.032,39.21z M3.584,40.044c1.27-0.839,2.87-0.943,4.652-0.326c0.383,0.591,0.664,1.457,0.85,2.488
	c-0.139,0.148-0.266,0.31-0.384,0.464c-0.14,0.183-0.284,0.372-0.411,0.479c-0.549,0.462-1.043,0.669-1.766,0.74
	c-1.707,0.169-3.893-0.019-5.036-0.773C1.83,41.827,2.565,40.717,3.584,40.044z M1.336,45.607c-0.042-0.288-0.063-0.583-0.063-0.88
	c0-0.188,0.015-0.371,0.031-0.556c1.938,1.003,4.935,0.75,5.32,0.712c0.919-0.09,1.61-0.381,2.312-0.971
	c0.12-0.102,0.229-0.223,0.333-0.348c0.144,1.574,0.106,3.355-0.113,5.064l-0.169-0.127c-0.809,1.077-2.177,1.302-3.184,1.301H5.684
	c-1.141,0-3.504-0.002-4.003-1.033C1.464,47.718,1.347,46.632,1.336,45.607z M4.766,54.378c-1.207-0.719-2.105-2.258-2.68-4.057
	c1.131,0.471,2.634,0.482,3.597,0.482h0.12c1.275,0.002,2.338-0.314,3.15-0.902c-0.395,2.097-1.079,3.931-2.046,4.91
	C6.126,54.901,5.408,54.763,4.766,54.378z M12.33,46.731L12.33,46.731c0,3.357-1.378,6.34-3.428,7.424
	c-0.139,0.073-0.273,0.133-0.409,0.194c1.245-2.157,1.872-5.62,1.872-8.798c0-1.947-0.239-3.779-0.711-5.145
	C11.605,41.769,12.33,44.47,12.33,46.731z"/>
</svg>
