<?xml version="1.0" encoding="utf-8"?>
<!-- Generator: Adobe Illustrator 15.1.0, SVG Export Plug-In . SVG Version: 6.00 Build 0)  -->
<!DOCTYPE svg PUBLIC "-//W3C//DTD SVG 1.1//EN" "http://www.w3.org/Graphics/SVG/1.1/DTD/svg11.dtd">
<svg version="1.1" id="Layer_1" xmlns="http://www.w3.org/2000/svg" xmlns:xlink="http://www.w3.org/1999/xlink" x="0px" y="0px"
	 width="46px" height="59px" viewBox="0 0 46 59" enable-background="new 0 0 46 59" xml:space="preserve">
<path d="M34.987,1.558c-0.062,4.292,0.148,8.431,0.187,12.749c0.082,9.439,0.033,18.849-0.495,28.238
	c-0.215,3.811-0.063,15.916,1.319,15.908c3.071,0.024,5.278-0.011,8.254-0.011c0.719-4.009,0.324-11.258,0.324-15.497
	c0-8.887,0.125-17.657,0.33-26.499C45.023,11.29,45.36,6.06,45.186,0.923c-2.918-0.064-8.514-0.842-10.194,0.407L34.987,1.558z"/>
<path d="M24.353,1.558c-0.062,4.292,0.148,8.431,0.187,12.749c0.082,9.439,0.033,18.849-0.495,28.238
	c-0.215,3.811-0.063,15.916,1.319,15.908c3.071,0.024,5.278-0.011,8.254-0.011c0.719-4.009,0.324-11.258,0.324-15.497
	c0-8.887,0.125-17.657,0.33-26.499c0.117-5.156,0.454-10.387,0.279-15.523c-2.918-0.064-8.514-0.842-10.194,0.407L24.353,1.558z"/>
<path d="M13.718,1.558c-0.062,4.292,0.148,8.431,0.187,12.749c0.082,9.439,0.033,18.849-0.495,28.238
	c-0.215,3.811-0.063,15.916,1.319,15.908c3.071,0.024,5.278-0.011,8.254-0.011c0.719-4.009,0.324-11.258,0.324-15.497
	c0-8.887,0.125-17.657,0.33-26.499c0.117-5.156,0.454-10.387,0.279-15.523c-2.918-0.064-8.514-0.842-10.194,0.407L13.718,1.558z"/>
<path d="M0.842,28.141c0.04,4.645,2.357,12.053,8.294,8.916c4.62-2.441,5.263-12.822-0.116-15.117
	C3.375,19.529,0.26,24.197,0.842,28.141"/>
<path d="M0.842,11.611c0.04,4.645,2.357,12.053,8.294,8.916c4.62-2.441,5.263-12.822-0.116-15.117C3.375,3,0.26,7.668,0.842,11.611"
	/>
<path d="M0.842,44.669c0.04,4.646,2.357,12.055,8.294,8.918c4.62-2.441,5.263-12.822-0.116-15.119
	C3.375,36.06,0.26,40.728,0.842,44.669"/>
</svg>
