<?xml version="1.0" encoding="utf-8"?>
<!-- Generator: Adobe Illustrator 15.1.0, SVG Export Plug-In . SVG Version: 6.00 Build 0)  -->
<!DOCTYPE svg PUBLIC "-//W3C//DTD SVG 1.1//EN" "http://www.w3.org/Graphics/SVG/1.1/DTD/svg11.dtd">
<svg version="1.1" id="Layer_1" xmlns="http://www.w3.org/2000/svg" xmlns:xlink="http://www.w3.org/1999/xlink" x="0px" y="0px"
	 width="46px" height="59px" viewBox="0 0 46 59" enable-background="new 0 0 46 59" xml:space="preserve">
<path d="M33.988,0.918c-0.062,4.292,0.148,8.431,0.187,12.749c0.082,9.439,0.033,18.849-0.495,28.238
	c-0.215,3.811-0.063,15.916,1.319,15.908c3.071,0.024,5.278-0.011,8.254-0.011c0.719-4.009,0.324-11.258,0.324-15.497
	c0-8.887,0.125-17.657,0.33-26.499c0.117-5.156,0.454-10.387,0.279-15.523c-2.918-0.064-8.514-0.842-10.194,0.407L33.988,0.918z"/>
<path d="M23.354,0.918c-0.062,4.292,0.148,8.431,0.187,12.749c0.082,9.439,0.033,18.849-0.495,28.238
	c-0.215,3.811-0.063,15.916,1.319,15.908c3.071,0.024,5.278-0.011,8.254-0.011c0.719-4.009,0.324-11.258,0.324-15.497
	c0-8.887,0.125-17.657,0.33-26.499C33.39,10.65,33.727,5.42,33.552,0.283c-2.918-0.064-8.514-0.842-10.194,0.407L23.354,0.918z"/>
<path d="M12.719,0.918c-0.062,4.292,0.148,8.431,0.187,12.749c0.082,9.439,0.033,18.849-0.495,28.238
	c-0.215,3.811-0.063,15.916,1.319,15.908c3.071,0.024,5.278-0.011,8.254-0.011c0.719-4.009,0.324-11.258,0.324-15.497
	c0-8.887,0.125-17.657,0.33-26.499c0.117-5.156,0.454-10.387,0.279-15.523c-2.918-0.064-8.514-0.842-10.194,0.407L12.719,0.918z"/>
<path d="M0.604,20.562c0.035,4.052,2.056,10.513,7.234,7.777c4.029-2.13,4.59-11.185-0.102-13.186
	C2.813,13.051,0.096,17.122,0.604,20.562"/>
<path d="M0.604,6.145c0.035,4.051,2.056,10.513,7.234,7.776c4.029-2.129,4.59-11.184-0.102-13.186
	C2.813-1.366,0.096,2.705,0.604,6.145"/>
<path d="M0.604,34.979c0.035,4.053,2.056,10.515,7.234,7.778c4.029-2.13,4.59-11.184-0.102-13.188
	C2.813,27.469,0.096,31.54,0.604,34.979"/>
<path d="M0.604,49.576c0.035,4.051,2.056,10.513,7.234,7.776c4.029-2.129,4.59-11.184-0.102-13.186
	C2.813,42.065,0.096,46.137,0.604,49.576"/>
</svg>
