<?xml version="1.0" encoding="utf-8"?>
<!-- Generator: Adobe Illustrator 15.1.0, SVG Export Plug-In . SVG Version: 6.00 Build 0)  -->
<!DOCTYPE svg PUBLIC "-//W3C//DTD SVG 1.1//EN" "http://www.w3.org/Graphics/SVG/1.1/DTD/svg11.dtd">
<svg version="1.1" id="Layer_1" xmlns="http://www.w3.org/2000/svg" xmlns:xlink="http://www.w3.org/1999/xlink" x="0px" y="0px"
	 width="14px" height="52px" viewBox="0 0 14 52" enable-background="new 0 0 14 52" xml:space="preserve">
<path d="M0.931,7.294c0.04,4.645,2.357,12.053,8.294,8.916c4.62-2.441,5.263-12.822-0.116-15.117
	C3.464-1.317,0.349,3.351,0.931,7.294"/>
<path d="M3.121,17.856c-1.702,1.125-2.76,3.238-2.76,5.518c0,0.346,0.025,0.69,0.069,0.957c0.03,3.494,1.267,7.975,3.911,9.553
	c1.478,0.882,3.198,0.814,5.116-0.198c2.369-1.251,3.961-4.59,3.961-8.308l0,0c0-3.674-1.576-6.629-4.113-7.713
	C6.346,16.402,4.309,17.072,3.121,17.856z M3.673,18.69c1.27-0.839,2.87-0.943,4.652-0.326c0.383,0.591,0.664,1.457,0.85,2.488
	c-0.139,0.148-0.266,0.31-0.384,0.464c-0.14,0.183-0.284,0.372-0.411,0.479c-0.549,0.462-1.043,0.669-1.766,0.74
	c-1.707,0.169-3.893-0.019-5.036-0.773C1.919,20.474,2.654,19.363,3.673,18.69z M1.425,24.254c-0.042-0.288-0.063-0.583-0.063-0.88
	c0-0.188,0.015-0.371,0.031-0.556c1.938,1.003,4.935,0.75,5.32,0.712c0.919-0.09,1.61-0.381,2.312-0.971
	c0.12-0.102,0.229-0.223,0.333-0.348c0.144,1.574,0.106,3.355-0.113,5.064l-0.169-0.127c-0.809,1.077-2.177,1.302-3.184,1.301H5.772
	c-1.141,0-3.504-0.002-4.003-1.033C1.553,26.364,1.436,25.278,1.425,24.254z M4.854,33.024c-1.207-0.719-2.105-2.258-2.68-4.057
	c1.131,0.471,2.634,0.482,3.597,0.482h0.12c1.275,0.002,2.338-0.314,3.15-0.902c-0.395,2.097-1.079,3.931-2.046,4.91
	C6.215,33.548,5.497,33.409,4.854,33.024z M12.419,25.378L12.419,25.378c0,3.357-1.378,6.34-3.428,7.424
	c-0.139,0.073-0.273,0.133-0.409,0.194c1.245-2.157,1.872-5.62,1.872-8.798c0-1.947-0.239-3.779-0.711-5.145
	C11.694,20.415,12.419,23.116,12.419,25.378z"/>
<path d="M0.931,41.359c0.04,4.646,2.357,12.055,8.294,8.918c4.62-2.441,5.263-12.822-0.116-15.119
	C3.464,32.75,0.349,37.418,0.931,41.359"/>
</svg>
