<?xml version="1.0" encoding="utf-8"?>
<!-- Generator: Adobe Illustrator 15.1.0, SVG Export Plug-In . SVG Version: 6.00 Build 0)  -->
<!DOCTYPE svg PUBLIC "-//W3C//DTD SVG 1.1//EN" "http://www.w3.org/Graphics/SVG/1.1/DTD/svg11.dtd">
<svg version="1.1" id="Layer_1" xmlns="http://www.w3.org/2000/svg" xmlns:xlink="http://www.w3.org/1999/xlink" x="0px" y="0px"
	 width="14px" height="52px" viewBox="0 0 14 52" enable-background="new 0 0 14 52" xml:space="preserve">
<path d="M0.931,24.141c0.04,4.645,2.357,12.053,8.294,8.916c4.62-2.441,5.263-12.822-0.116-15.117
	C3.464,15.529,0.349,20.197,0.931,24.141"/>
<path d="M0.931,7.611c0.04,4.645,2.357,12.053,8.294,8.916c4.62-2.441,5.263-12.822-0.116-15.117C3.464-1,0.349,3.668,0.931,7.611"
	/>
<path d="M0.931,40.669c0.04,4.646,2.357,12.055,8.294,8.918c4.62-2.441,5.263-12.822-0.116-15.119
	C3.464,32.06,0.349,36.728,0.931,40.669"/>
</svg>
