<?xml version="1.0" encoding="utf-8"?>
<!-- Generator: Adobe Illustrator 15.1.0, SVG Export Plug-In . SVG Version: 6.00 Build 0)  -->
<!DOCTYPE svg PUBLIC "-//W3C//DTD SVG 1.1//EN" "http://www.w3.org/Graphics/SVG/1.1/DTD/svg11.dtd">
<svg version="1.1" id="Layer_1" xmlns="http://www.w3.org/2000/svg" xmlns:xlink="http://www.w3.org/1999/xlink" x="0px" y="0px"
	 width="14px" height="57.848px" viewBox="0 0 14 57.848" enable-background="new 0 0 14 57.848" xml:space="preserve">
<path d="M1.692,20.402c0.035,4.052,2.056,10.513,7.234,7.777c4.029-2.13,4.59-11.185-0.102-13.186
	C3.902,12.891,1.185,16.962,1.692,20.402"/>
<path d="M1.692,5.985c0.035,4.051,2.056,10.513,7.234,7.776c4.029-2.129,4.59-11.184-0.102-13.186
	C3.902-1.526,1.185,2.545,1.692,5.985"/>
<path d="M1.692,34.819c0.035,4.053,2.056,10.515,7.234,7.778c4.029-2.13,4.59-11.184-0.102-13.188
	C3.902,27.309,1.185,31.38,1.692,34.819"/>
<path d="M1.692,49.417c0.035,4.051,2.056,10.513,7.234,7.776c4.029-2.129,4.59-11.184-0.102-13.186
	C3.902,41.906,1.185,45.977,1.692,49.417"/>
</svg>
