<?xml version="1.0" encoding="utf-8"?>
<!-- Generator: Adobe Illustrator 15.1.0, SVG Export Plug-In . SVG Version: 6.00 Build 0)  -->
<!DOCTYPE svg PUBLIC "-//W3C//DTD SVG 1.1//EN" "http://www.w3.org/Graphics/SVG/1.1/DTD/svg11.dtd">
<svg version="1.1" id="Layer_1" xmlns="http://www.w3.org/2000/svg" xmlns:xlink="http://www.w3.org/1999/xlink" x="0px" y="0px"
	 width="24px" height="59px" viewBox="0 0 24 59" enable-background="new 0 0 24 59" xml:space="preserve">
<path d="M12.885,2.18c-0.062,4.292,0.148,8.431,0.185,12.749c0.082,9.44,0.033,18.848-0.494,28.239
	c-0.215,3.811-0.064,15.916,1.318,15.908c3.072,0.023,5.279-0.012,8.254-0.012c0.719-4.008,0.324-11.258,0.324-15.496
	c0-8.887,0.125-17.658,0.33-26.5c0.117-5.156,0.455-10.387,0.279-15.523c-2.918-0.064-8.514-0.842-10.193,0.407L12.885,2.18z"/>
<path d="M1.008,28.763c0.04,4.646,2.357,12.054,8.294,8.917c4.62-2.441,5.262-12.822-0.116-15.118
	C3.542,20.152,0.426,24.82,1.008,28.763"/>
<path d="M2.699,5.26c-1.702,1.125-2.76,3.238-2.76,5.518c0,0.346,0.025,0.689,0.069,0.957c0.03,3.494,1.267,7.975,3.911,9.553
	c1.478,0.881,3.198,0.814,5.116-0.199c2.369-1.25,3.961-4.59,3.961-8.307l0,0c0-3.674-1.576-6.629-4.113-7.713
	C5.923,3.805,3.886,4.475,2.699,5.26z M3.25,6.094c1.27-0.84,2.87-0.943,4.652-0.326c0.383,0.59,0.664,1.457,0.85,2.488
	C8.614,8.404,8.487,8.564,8.369,8.719c-0.14,0.184-0.284,0.373-0.411,0.479c-0.549,0.463-1.043,0.67-1.766,0.74
	c-1.707,0.17-3.893-0.018-5.036-0.773C1.497,7.877,2.232,6.766,3.25,6.094z M1.002,11.656c-0.042-0.287-0.063-0.582-0.063-0.879
	c0-0.188,0.015-0.371,0.031-0.557c1.938,1.004,4.935,0.75,5.32,0.713c0.919-0.09,1.61-0.381,2.312-0.971
	c0.12-0.102,0.229-0.223,0.333-0.348c0.144,1.574,0.106,3.355-0.113,5.064l-0.169-0.127c-0.809,1.076-2.177,1.301-3.184,1.301H5.35
	c-1.141,0-3.504-0.002-4.003-1.033C1.13,13.768,1.013,12.682,1.002,11.656z M4.432,20.428c-1.207-0.719-2.105-2.258-2.68-4.057
	c1.131,0.471,2.634,0.482,3.597,0.482h0.12c1.275,0.002,2.338-0.314,3.15-0.902c-0.395,2.096-1.079,3.93-2.046,4.91
	C5.792,20.951,5.075,20.812,4.432,20.428z M11.997,12.781L11.997,12.781c0,3.357-1.378,6.34-3.428,7.424
	c-0.139,0.072-0.273,0.133-0.409,0.193c1.245-2.156,1.872-5.619,1.872-8.797c0-1.947-0.239-3.779-0.711-5.145
	C11.272,7.818,11.997,10.52,11.997,12.781z"/>
<path d="M2.699,39.326c-1.702,1.125-2.76,3.238-2.76,5.518c0,0.346,0.025,0.69,0.069,0.957c0.03,3.494,1.267,7.975,3.911,9.553
	c1.478,0.882,3.198,0.814,5.116-0.198c2.369-1.251,3.961-4.59,3.961-8.308l0,0c0-3.674-1.576-6.629-4.113-7.713
	C5.923,37.872,3.886,38.542,2.699,39.326z M3.25,40.16c1.27-0.839,2.87-0.943,4.652-0.326c0.383,0.591,0.664,1.457,0.85,2.488
	c-0.139,0.148-0.266,0.31-0.384,0.464c-0.14,0.183-0.284,0.372-0.411,0.479c-0.549,0.462-1.043,0.669-1.766,0.74
	c-1.707,0.169-3.893-0.019-5.036-0.773C1.497,41.943,2.232,40.833,3.25,40.16z M1.002,45.724c-0.042-0.288-0.063-0.583-0.063-0.88
	c0-0.188,0.015-0.371,0.031-0.556c1.938,1.003,4.935,0.75,5.32,0.712c0.919-0.09,1.61-0.381,2.312-0.971
	c0.12-0.102,0.229-0.223,0.333-0.348c0.144,1.574,0.106,3.355-0.113,5.064l-0.169-0.127c-0.809,1.077-2.177,1.302-3.184,1.301H5.35
	c-1.141,0-3.504-0.002-4.003-1.033C1.13,47.834,1.013,46.748,1.002,45.724z M4.432,54.494c-1.207-0.719-2.105-2.258-2.68-4.057
	c1.131,0.471,2.634,0.482,3.597,0.482h0.12c1.275,0.002,2.338-0.314,3.15-0.902c-0.395,2.097-1.079,3.931-2.046,4.91
	C5.792,55.018,5.075,54.879,4.432,54.494z M11.997,46.848L11.997,46.848c0,3.357-1.378,6.34-3.428,7.424
	c-0.139,0.073-0.273,0.133-0.409,0.194c1.245-2.157,1.872-5.62,1.872-8.798c0-1.947-0.239-3.779-0.711-5.145
	C11.272,41.885,11.997,44.586,11.997,46.848z"/>
</svg>
