<?xml version="1.0" encoding="utf-8"?>
<!-- Generator: Adobe Illustrator 15.1.0, SVG Export Plug-In . SVG Version: 6.00 Build 0)  -->
<!DOCTYPE svg PUBLIC "-//W3C//DTD SVG 1.1//EN" "http://www.w3.org/Graphics/SVG/1.1/DTD/svg11.dtd">
<svg version="1.1" id="Layer_1" xmlns="http://www.w3.org/2000/svg" xmlns:xlink="http://www.w3.org/1999/xlink" x="0px" y="0px"
	 width="24px" height="59px" viewBox="0 0 24 59" enable-background="new 0 0 24 59" xml:space="preserve">
<path d="M11.636,1.098c-0.062,4.293,0.148,8.432,0.186,12.75c0.082,9.439,0.033,18.848-0.494,28.238
	c-0.215,3.811-0.064,15.916,1.318,15.908c3.072,0.023,5.279-0.012,8.253-0.012c0.719-4.008,0.324-11.258,0.324-15.496
	c0-8.887,0.125-17.658,0.33-26.5C21.67,10.83,22.008,5.6,21.832,0.463c-2.917-0.064-8.513-0.842-10.192,0.408L11.636,1.098z"/>
<path d="M1.04,20.562c0.035,4.052,2.056,10.513,7.234,7.777c4.029-2.13,4.59-11.185-0.102-13.186
	C3.25,13.051,0.532,17.122,1.04,20.562"/>
<path d="M1.04,6.145c0.035,4.051,2.056,10.513,7.234,7.776c4.029-2.129,4.59-11.184-0.102-13.186C3.25-1.366,0.532,2.705,1.04,6.145
	"/>
<path d="M1.04,34.979c0.035,4.053,2.056,10.515,7.234,7.778c4.029-2.13,4.59-11.184-0.102-13.188
	C3.25,27.469,0.532,31.54,1.04,34.979"/>
<path d="M1.04,49.576c0.035,4.051,2.056,10.513,7.234,7.776c4.029-2.129,4.59-11.184-0.102-13.186
	C3.25,42.065,0.532,46.137,1.04,49.576"/>
</svg>
