<?xml version="1.0" encoding="utf-8"?>
<!-- Generator: Adobe Illustrator 15.1.0, SVG Export Plug-In . SVG Version: 6.00 Build 0)  -->
<!DOCTYPE svg PUBLIC "-//W3C//DTD SVG 1.1//EN" "http://www.w3.org/Graphics/SVG/1.1/DTD/svg11.dtd">
<svg version="1.1" id="Layer_1" xmlns="http://www.w3.org/2000/svg" xmlns:xlink="http://www.w3.org/1999/xlink" x="0px" y="0px"
	 width="489.666px" height="352px" viewBox="0 0 489.666 352" enable-background="new 0 0 489.666 352" xml:space="preserve">
<g>
	<path d="M9.931,245.141c0.04,4.645,2.357,12.053,8.294,8.916c4.62-2.441,5.263-12.822-0.116-15.117
		C12.464,236.529,9.349,241.197,9.931,245.141"/>
</g>
<g>
	<path d="M9.431,108.763c0.04,4.646,2.357,12.054,8.294,8.917c4.62-2.441,5.263-12.822-0.116-15.118
		C11.964,100.152,8.849,104.82,9.431,108.763"/>
</g>
<g>
	<path d="M11.621,29.856c-1.702,1.125-2.76,3.238-2.76,5.518c0,0.346,0.025,0.69,0.069,0.957c0.03,3.494,1.267,7.975,3.911,9.553
		c1.478,0.882,3.199,0.814,5.116-0.198c2.369-1.251,3.96-4.59,3.96-8.308l0,0c0-3.674-1.576-6.629-4.113-7.713
		C14.846,28.402,12.809,29.072,11.621,29.856z M12.172,30.69c1.271-0.839,2.871-0.943,4.653-0.326
		c0.383,0.591,0.664,1.457,0.85,2.488c-0.139,0.148-0.266,0.31-0.384,0.464c-0.14,0.183-0.285,0.372-0.411,0.479
		c-0.548,0.462-1.043,0.669-1.765,0.74c-1.707,0.169-3.893-0.019-5.037-0.773C10.419,32.474,11.154,31.363,12.172,30.69z
		 M9.925,36.254c-0.042-0.288-0.064-0.583-0.064-0.88c0-0.188,0.015-0.371,0.031-0.556c1.938,1.003,4.935,0.75,5.32,0.712
		c0.919-0.09,1.611-0.381,2.312-0.971c0.12-0.102,0.229-0.223,0.333-0.348c0.144,1.574,0.107,3.355-0.113,5.064l-0.169-0.127
		c-0.808,1.077-2.177,1.302-3.183,1.301h-0.12c-1.14,0-3.503-0.002-4.002-1.033C10.053,38.364,9.936,37.278,9.925,36.254z
		 M13.354,45.024c-1.206-0.719-2.104-2.258-2.68-4.057c1.131,0.471,2.634,0.482,3.597,0.482h0.12
		c1.276,0.002,2.338-0.314,3.15-0.902c-0.395,2.097-1.079,3.931-2.045,4.91C14.715,45.548,13.997,45.409,13.354,45.024z
		 M20.918,37.378L20.918,37.378c0,3.357-1.377,6.34-3.427,7.424c-0.139,0.073-0.273,0.133-0.409,0.194
		c1.246-2.157,1.872-5.62,1.872-8.798c0-1.947-0.239-3.779-0.711-5.145C20.194,32.415,20.918,35.116,20.918,37.378z"/>
</g>
<g>
	<path d="M11.621,85.26c-1.702,1.125-2.76,3.238-2.76,5.518c0,0.346,0.025,0.689,0.069,0.957c0.03,3.494,1.267,7.975,3.911,9.553
		c1.478,0.881,3.198,0.814,5.116-0.199c2.369-1.25,3.961-4.59,3.961-8.307l0,0c0-3.674-1.576-6.629-4.113-7.713
		C14.846,83.805,12.809,84.475,11.621,85.26z M12.173,86.094c1.27-0.84,2.87-0.943,4.652-0.326c0.383,0.59,0.664,1.457,0.85,2.488
		c-0.139,0.148-0.266,0.309-0.384,0.463c-0.14,0.184-0.284,0.373-0.411,0.479c-0.549,0.463-1.043,0.67-1.766,0.74
		c-1.707,0.17-3.893-0.018-5.036-0.773C10.419,87.877,11.154,86.766,12.173,86.094z M9.925,91.656
		c-0.042-0.287-0.063-0.582-0.063-0.879c0-0.188,0.015-0.371,0.031-0.557c1.938,1.004,4.935,0.75,5.32,0.713
		c0.919-0.09,1.61-0.381,2.312-0.971c0.12-0.102,0.229-0.223,0.333-0.348c0.144,1.574,0.106,3.355-0.113,5.064l-0.169-0.127
		c-0.809,1.076-2.177,1.301-3.184,1.301h-0.119c-1.141,0-3.504-0.002-4.003-1.033C10.053,93.768,9.936,92.682,9.925,91.656z
		 M13.354,100.428c-1.207-0.719-2.105-2.258-2.68-4.057c1.131,0.471,2.634,0.482,3.597,0.482h0.12
		c1.275,0.002,2.338-0.314,3.15-0.902c-0.395,2.096-1.079,3.93-2.046,4.91C14.715,100.951,13.997,100.812,13.354,100.428z
		 M20.919,92.781L20.919,92.781c0,3.357-1.378,6.34-3.428,7.424c-0.139,0.072-0.273,0.133-0.409,0.193
		c1.245-2.156,1.872-5.619,1.872-8.797c0-1.947-0.239-3.779-0.711-5.145C20.194,87.818,20.919,90.52,20.919,92.781z"/>
</g>
<g>
	<path d="M11.621,119.326c-1.702,1.125-2.76,3.238-2.76,5.518c0,0.346,0.025,0.69,0.069,0.957c0.03,3.494,1.267,7.975,3.911,9.553
		c1.478,0.882,3.198,0.814,5.116-0.198c2.369-1.251,3.961-4.59,3.961-8.308l0,0c0-3.674-1.576-6.629-4.113-7.713
		C14.846,117.872,12.809,118.542,11.621,119.326z M12.173,120.16c1.27-0.839,2.87-0.943,4.652-0.326
		c0.383,0.591,0.664,1.457,0.85,2.488c-0.139,0.148-0.266,0.31-0.384,0.464c-0.14,0.183-0.284,0.372-0.411,0.479
		c-0.549,0.462-1.043,0.669-1.766,0.74c-1.707,0.169-3.893-0.019-5.036-0.773C10.419,121.943,11.154,120.833,12.173,120.16z
		 M9.925,125.724c-0.042-0.288-0.063-0.583-0.063-0.88c0-0.188,0.015-0.371,0.031-0.556c1.938,1.003,4.935,0.75,5.32,0.712
		c0.919-0.09,1.61-0.381,2.312-0.971c0.12-0.102,0.229-0.223,0.333-0.348c0.144,1.574,0.106,3.355-0.113,5.064l-0.169-0.127
		c-0.809,1.077-2.177,1.302-3.184,1.301h-0.119c-1.141,0-3.504-0.002-4.003-1.033C10.053,127.834,9.936,126.748,9.925,125.724z
		 M13.354,134.494c-1.207-0.719-2.105-2.258-2.68-4.057c1.131,0.471,2.634,0.482,3.597,0.482h0.12
		c1.275,0.002,2.338-0.314,3.15-0.902c-0.395,2.097-1.079,3.931-2.046,4.91C14.715,135.018,13.997,134.879,13.354,134.494z
		 M20.919,126.848L20.919,126.848c0,3.357-1.378,6.34-3.428,7.424c-0.139,0.073-0.273,0.133-0.409,0.194
		c1.245-2.157,1.872-5.62,1.872-8.798c0-1.947-0.239-3.779-0.711-5.145C20.194,121.885,20.919,124.586,20.919,126.848z"/>
</g>
<g>
	<path d="M9.931,160.294c0.04,4.645,2.357,12.053,8.294,8.916c4.62-2.441,5.263-12.822-0.116-15.117
		C12.464,151.683,9.349,156.351,9.931,160.294"/>
</g>
<g>
	<path d="M12.121,170.856c-1.702,1.125-2.76,3.238-2.76,5.518c0,0.346,0.025,0.69,0.069,0.957c0.03,3.494,1.267,7.975,3.911,9.553
		c1.478,0.882,3.198,0.814,5.116-0.198c2.369-1.251,3.961-4.59,3.961-8.308l0,0c0-3.674-1.576-6.629-4.113-7.713
		C15.346,169.402,13.309,170.072,12.121,170.856z M12.673,171.69c1.27-0.839,2.87-0.943,4.652-0.326
		c0.383,0.591,0.664,1.457,0.85,2.488c-0.139,0.148-0.266,0.31-0.384,0.464c-0.14,0.183-0.284,0.372-0.411,0.479
		c-0.549,0.462-1.043,0.669-1.766,0.74c-1.707,0.169-3.893-0.019-5.036-0.773C10.919,173.474,11.654,172.363,12.673,171.69z
		 M10.425,177.254c-0.042-0.288-0.063-0.583-0.063-0.88c0-0.188,0.015-0.371,0.031-0.556c1.938,1.003,4.935,0.75,5.32,0.712
		c0.919-0.09,1.61-0.381,2.312-0.971c0.12-0.102,0.229-0.223,0.333-0.348c0.144,1.574,0.106,3.355-0.113,5.064l-0.169-0.127
		c-0.809,1.077-2.177,1.302-3.184,1.301h-0.119c-1.141,0-3.504-0.002-4.003-1.033C10.553,179.364,10.436,178.278,10.425,177.254z
		 M13.854,186.024c-1.207-0.719-2.105-2.258-2.68-4.057c1.131,0.471,2.634,0.482,3.597,0.482h0.12
		c1.275,0.002,2.338-0.314,3.15-0.902c-0.395,2.097-1.079,3.931-2.046,4.91C15.215,186.548,14.497,186.409,13.854,186.024z
		 M21.419,178.378L21.419,178.378c0,3.357-1.378,6.34-3.428,7.424c-0.139,0.073-0.273,0.133-0.409,0.194
		c1.245-2.157,1.872-5.62,1.872-8.798c0-1.947-0.239-3.779-0.711-5.145C20.694,173.415,21.419,176.116,21.419,178.378z"/>
</g>
<g>
	<path d="M9.931,194.359c0.04,4.646,2.357,12.055,8.294,8.918c4.62-2.441,5.263-12.822-0.116-15.119
		C12.464,185.75,9.349,190.418,9.931,194.359"/>
</g>
<g>
	<path d="M47.863,36.499h-9.567c-0.168,0-0.574,0-0.574-0.42c0-0.434,0.434-0.434,0.645-0.434h9.427c0.21,0,0.645,0,0.645,0.434
		C48.438,36.499,48.031,36.499,47.863,36.499z M47.793,39.637h-9.427c-0.21,0-0.645,0-0.645-0.435c0-0.42,0.406-0.42,0.574-0.42
		h9.567c0.168,0,0.574,0,0.574,0.42C48.438,39.637,48.003,39.637,47.793,39.637z"/>
	<path d="M58.723,41.304c-3.375,0-3.39-3.236-3.39-4.623c0-1.373,0.014-4.707,3.39-4.707c3.376,0,3.39,3.348,3.39,4.707
		C62.113,38.082,62.085,41.304,58.723,41.304z M60.082,33.361c-0.266-0.616-0.84-0.883-1.359-0.883c-0.336,0-1.316,0.14-1.485,1.387
		c-0.112,0.729-0.112,1.639-0.112,2.647c0,0.771,0,2.228,0.126,2.956c0.182,1.022,0.967,1.331,1.471,1.331
		c0.42,0,1.303-0.196,1.499-1.499c0.098-0.728,0.098-2.003,0.098-2.788C60.32,35.364,60.32,33.879,60.082,33.361z"/>
</g>
<g>
	<path d="M47.863,108.501h-9.567c-0.168,0-0.574,0-0.574-0.421c0-0.434,0.434-0.434,0.645-0.434h9.427c0.21,0,0.645,0,0.645,0.434
		C48.438,108.501,48.031,108.501,47.863,108.501z M47.793,111.639h-9.427c-0.21,0-0.645,0-0.645-0.435c0-0.42,0.406-0.42,0.574-0.42
		h9.567c0.168,0,0.574,0,0.574,0.42C48.438,111.639,48.003,111.639,47.793,111.639z"/>
	<path d="M58.835,113.109c-0.687,0-2.171,0-2.788,0.042v-0.658h1.947v-7.242c-0.827,0.267-1.597,0.28-1.821,0.28h-0.28v-0.658h0.28
		c0.294,0,1.737,0,2.815-0.799c0.126-0.098,0.154-0.098,0.309-0.098c0.364,0,0.364,0.141,0.364,0.448v8.068h1.961v0.658
		C61.006,113.109,59.521,113.109,58.835,113.109z"/>
</g>
<g>
	<path d="M48.363,178.561h-9.567c-0.168,0-0.574,0-0.574-0.42c0-0.435,0.434-0.435,0.645-0.435h9.427c0.21,0,0.645,0,0.645,0.435
		C48.938,178.561,48.531,178.561,48.363,178.561z M48.293,181.698h-9.427c-0.21,0-0.645,0-0.645-0.435c0-0.42,0.406-0.42,0.574-0.42
		h9.567c0.168,0,0.574,0,0.574,0.42C48.938,181.698,48.503,181.698,48.293,181.698z"/>
	<path d="M62.011,183.211h-6.009v-0.252c0-0.28,0-0.309,0.182-0.477l2.815-2.871c0.98-0.995,1.513-1.947,1.513-2.914
		c0-1.051-0.645-2.003-1.849-2.003c-0.504,0-1.037,0.154-1.443,0.49c0.21,0.056,0.798,0.28,0.798,1.009
		c0,0.7-0.56,1.008-1.008,1.008c-0.336,0-1.009-0.209-1.009-1.036c0-1.261,1.317-2.129,3.012-2.129c1.975,0,3.432,1.036,3.432,2.647
		c0,1.33-0.896,1.988-2.493,3.166c-0.63,0.462-1.359,1.064-2.017,1.61h2.059c0.224,0,1.275,0,1.429-0.084
		c0.196-0.099,0.322-0.995,0.364-1.274h0.658L62.011,183.211z"/>
</g>
<g>
	<path d="M9.931,228.611c0.04,4.645,2.357,12.053,8.294,8.916c4.62-2.441,5.263-12.822-0.116-15.117
		C12.464,220,9.349,224.668,9.931,228.611"/>
</g>
<g>
	<path d="M9.931,261.669c0.04,4.646,2.357,12.055,8.294,8.918c4.62-2.441,5.263-12.822-0.116-15.119
		C12.464,253.06,9.349,257.728,9.931,261.669"/>
</g>
<g>
	<path d="M48.363,244.829h-9.567c-0.168,0-0.574,0-0.574-0.421c0-0.434,0.434-0.434,0.645-0.434h9.427c0.21,0,0.645,0,0.645,0.434
		C48.938,244.829,48.531,244.829,48.363,244.829z M48.293,247.967h-9.427c-0.21,0-0.645,0-0.645-0.435c0-0.42,0.406-0.42,0.574-0.42
		h9.567c0.168,0,0.574,0,0.574,0.42C48.938,247.967,48.503,247.967,48.293,247.967z"/>
	<path d="M59.041,249.634c-1.807,0-3.166-0.841-3.166-2.102c0-0.714,0.49-1.093,1.079-1.093c0.616,0,1.064,0.435,1.064,1.064
		c0,0.574-0.35,0.925-0.812,1.051c0.672,0.42,1.401,0.477,1.765,0.477c1.457,0,1.457-1.429,1.457-2.087c0-0.715,0-2.087-1.526-2.087
		h-0.617c-0.252,0-0.392,0-0.392-0.252c0-0.084,0.028-0.225,0.168-0.238c0.07-0.015,0.098-0.028,0.672-0.057
		c1.457-0.084,1.471-1.919,1.471-2.102c0-0.462-0.042-1.358-1.205-1.358c-0.434,0-1.05,0.112-1.541,0.505
		c0.056,0.014,0.812,0.168,0.812,0.98c0,0.518-0.351,0.967-0.981,0.967c-0.532,0-0.966-0.379-0.966-0.98
		c0-1.121,1.093-2.018,2.759-2.018c1.975,0,3.04,0.868,3.04,1.947c0,1.204-1.023,2.003-1.989,2.297
		c2.031,0.434,2.438,1.639,2.438,2.409C62.571,248.232,61.548,249.634,59.041,249.634z"/>
</g>
<g>
	<path d="M10.692,305.651c0.035,4.052,2.056,10.513,7.234,7.777c4.029-2.13,4.59-11.185-0.102-13.186
		C12.902,298.141,10.185,302.212,10.692,305.651"/>
</g>
<g>
	<path d="M10.692,291.234c0.035,4.051,2.056,10.513,7.234,7.776c4.029-2.129,4.59-11.184-0.102-13.186
		C12.902,283.724,10.185,287.795,10.692,291.234"/>
</g>
<g>
	<path d="M10.692,320.068c0.035,4.053,2.056,10.515,7.234,7.778c4.029-2.13,4.59-11.184-0.102-13.188
		C12.902,312.559,10.185,316.63,10.692,320.068"/>
</g>
<g>
	<path d="M10.692,334.666c0.035,4.051,2.056,10.513,7.234,7.776c4.029-2.129,4.59-11.184-0.102-13.186
		C12.902,327.155,10.185,331.227,10.692,334.666"/>
</g>
<g>
	<path d="M48.363,311.579h-9.567c-0.168,0-0.574,0-0.574-0.421c0-0.434,0.434-0.434,0.645-0.434h9.427c0.21,0,0.645,0,0.645,0.434
		C48.938,311.579,48.531,311.579,48.363,311.579z M48.293,314.717h-9.427c-0.21,0-0.645,0-0.645-0.435c0-0.42,0.406-0.42,0.574-0.42
		h9.567c0.168,0,0.574,0,0.574,0.42C48.938,314.717,48.503,314.717,48.293,314.717z"/>
	<path d="M60.526,316.188c-0.602,0-1.877,0-2.409,0.042v-0.658h1.569v-1.526h-4.034v-0.659l4.889-6.121
		c0.168-0.21,0.182-0.224,0.476-0.224c0.393,0,0.42,0.069,0.42,0.447v5.897h1.359v0.659h-1.359v1.526h1.359v0.658
		C62.305,316.188,61.086,316.188,60.526,316.188z M59.84,309.043l-3.46,4.343h3.46V309.043z"/>
</g>
<g>
	<path d="M134.885,9.744c-0.062,4.292,0.148,8.431,0.187,12.749c0.082,9.439,0.033,18.849-0.495,28.238
		c-0.215,3.811-0.063,15.916,1.319,15.908c3.071,0.024,5.278-0.011,8.254-0.011c0.719-4.009,0.324-11.258,0.324-15.497
		c0-8.887,0.125-17.657,0.33-26.499c0.117-5.156,0.454-10.387,0.279-15.523c-2.918-0.064-8.514-0.842-10.194,0.407L134.885,9.744z"
		/>
</g>
<g>
	<path d="M175.363,36.499h-9.567c-0.168,0-0.574,0-0.574-0.42c0-0.434,0.434-0.434,0.645-0.434h9.427c0.21,0,0.645,0,0.645,0.434
		C175.938,36.499,175.531,36.499,175.363,36.499z M175.293,39.637h-9.427c-0.21,0-0.645,0-0.645-0.435c0-0.42,0.406-0.42,0.574-0.42
		h9.567c0.168,0,0.574,0,0.574,0.42C175.938,39.637,175.503,39.637,175.293,39.637z"/>
	<path d="M185.831,41.304c-1.737,0-2.83-1.191-2.83-2.381c0-0.854,0.729-0.98,0.938-0.98c0.336,0,0.938,0.21,0.938,0.952
		c0,0.575-0.406,0.911-0.91,0.938c0.588,0.799,1.471,0.869,1.807,0.869c1.681,0,1.681-1.401,1.681-2.423
		c0-1.121,0-2.353-1.247-2.353c-0.575,0-1.331,0.14-1.877,0.784c-0.098,0.112-0.126,0.168-0.308,0.168
		c-0.308,0-0.308-0.182-0.308-0.434v-4.09c0-0.224,0-0.378,0.196-0.378c0.042,0,0.056,0.014,0.182,0.056
		c0.364,0.126,1.106,0.393,2.171,0.393c0.603,0,1.345-0.084,2.144-0.393c0.154-0.056,0.168-0.056,0.21-0.056
		c0.168,0,0.196,0.154,0.196,0.252c0,0.35-1.289,1.933-3.333,1.933c-0.476,0-0.63-0.028-1.022-0.098v1.849
		c0.658-0.448,1.4-0.49,1.807-0.49c2.073,0,3.18,1.303,3.18,2.914C189.445,40.043,188.072,41.304,185.831,41.304z"/>
</g>
<g>
	<path d="M134.885,82.18c-0.062,4.292,0.148,8.431,0.186,12.749c0.082,9.44,0.033,18.848-0.494,28.239
		c-0.215,3.811-0.064,15.916,1.318,15.908c3.072,0.023,5.279-0.012,8.254-0.012c0.719-4.008,0.324-11.258,0.324-15.496
		c0-8.887,0.125-17.658,0.33-26.5c0.117-5.156,0.455-10.387,0.279-15.523c-2.918-0.064-8.514-0.842-10.193,0.407L134.885,82.18z"/>
</g>
<g>
	<path d="M123.008,108.763c0.04,4.646,2.357,12.054,8.294,8.917c4.62-2.441,5.263-12.822-0.116-15.118
		C125.542,100.152,122.426,104.82,123.008,108.763"/>
</g>
<g>
	<path d="M124.699,85.26c-1.702,1.125-2.76,3.238-2.76,5.518c0,0.346,0.025,0.689,0.069,0.957c0.03,3.494,1.267,7.975,3.911,9.553
		c1.478,0.881,3.198,0.814,5.116-0.199c2.369-1.25,3.961-4.59,3.961-8.307l0,0c0-3.674-1.576-6.629-4.113-7.713
		C127.923,83.805,125.886,84.475,124.699,85.26z M125.25,86.094c1.27-0.84,2.87-0.943,4.652-0.326
		c0.383,0.59,0.664,1.457,0.85,2.488c-0.139,0.148-0.266,0.309-0.384,0.463c-0.14,0.184-0.284,0.373-0.411,0.479
		c-0.549,0.463-1.043,0.67-1.766,0.74c-1.707,0.17-3.893-0.018-5.036-0.773C123.497,87.877,124.232,86.766,125.25,86.094z
		 M123.002,91.656c-0.042-0.287-0.063-0.582-0.063-0.879c0-0.188,0.015-0.371,0.031-0.557c1.938,1.004,4.935,0.75,5.32,0.713
		c0.919-0.09,1.61-0.381,2.312-0.971c0.12-0.102,0.229-0.223,0.333-0.348c0.144,1.574,0.106,3.355-0.113,5.064l-0.169-0.127
		c-0.809,1.076-2.177,1.301-3.184,1.301h-0.119c-1.141,0-3.504-0.002-4.003-1.033C123.13,93.768,123.013,92.682,123.002,91.656z
		 M126.432,100.428c-1.207-0.719-2.105-2.258-2.68-4.057c1.131,0.471,2.634,0.482,3.597,0.482h0.12
		c1.275,0.002,2.338-0.314,3.15-0.902c-0.395,2.096-1.079,3.93-2.046,4.91C127.792,100.951,127.075,100.812,126.432,100.428z
		 M133.997,92.781L133.997,92.781c0,3.357-1.378,6.34-3.428,7.424c-0.139,0.072-0.273,0.133-0.409,0.193
		c1.245-2.156,1.872-5.619,1.872-8.797c0-1.947-0.239-3.779-0.711-5.145C133.272,87.818,133.997,90.52,133.997,92.781z"/>
</g>
<g>
	<path d="M124.699,119.326c-1.702,1.125-2.76,3.238-2.76,5.518c0,0.346,0.025,0.69,0.069,0.957c0.03,3.494,1.267,7.975,3.911,9.553
		c1.478,0.882,3.198,0.814,5.116-0.198c2.369-1.251,3.961-4.59,3.961-8.308l0,0c0-3.674-1.576-6.629-4.113-7.713
		C127.923,117.872,125.886,118.542,124.699,119.326z M125.25,120.16c1.27-0.839,2.87-0.943,4.652-0.326
		c0.383,0.591,0.664,1.457,0.85,2.488c-0.139,0.148-0.266,0.31-0.384,0.464c-0.14,0.183-0.284,0.372-0.411,0.479
		c-0.549,0.462-1.043,0.669-1.766,0.74c-1.707,0.169-3.893-0.019-5.036-0.773C123.497,121.943,124.232,120.833,125.25,120.16z
		 M123.002,125.724c-0.042-0.288-0.063-0.583-0.063-0.88c0-0.188,0.015-0.371,0.031-0.556c1.938,1.003,4.935,0.75,5.32,0.712
		c0.919-0.09,1.61-0.381,2.312-0.971c0.12-0.102,0.229-0.223,0.333-0.348c0.144,1.574,0.106,3.355-0.113,5.064l-0.169-0.127
		c-0.809,1.077-2.177,1.302-3.184,1.301h-0.119c-1.141,0-3.504-0.002-4.003-1.033C123.13,127.834,123.013,126.748,123.002,125.724z
		 M126.432,134.494c-1.207-0.719-2.105-2.258-2.68-4.057c1.131,0.471,2.634,0.482,3.597,0.482h0.12
		c1.275,0.002,2.338-0.314,3.15-0.902c-0.395,2.097-1.079,3.931-2.046,4.91C127.792,135.018,127.075,134.879,126.432,134.494z
		 M133.997,126.848L133.997,126.848c0,3.357-1.378,6.34-3.428,7.424c-0.139,0.073-0.273,0.133-0.409,0.194
		c1.245-2.157,1.872-5.62,1.872-8.798c0-1.947-0.239-3.779-0.711-5.145C133.272,121.885,133.997,124.586,133.997,126.848z"/>
</g>
<g>
	<path d="M175.363,108.501h-9.567c-0.168,0-0.574,0-0.574-0.421c0-0.434,0.434-0.434,0.645-0.434h9.427c0.21,0,0.645,0,0.645,0.434
		C175.938,108.501,175.531,108.501,175.363,108.501z M175.293,111.639h-9.427c-0.21,0-0.645,0-0.645-0.435
		c0-0.42,0.406-0.42,0.574-0.42h9.567c0.168,0,0.574,0,0.574,0.42C175.938,111.639,175.503,111.639,175.293,111.639z"/>
	<path d="M186.279,113.306c-0.98,0-2.045-0.337-2.704-1.401c-0.574-0.967-0.7-2.087-0.7-3.193c0-3.529,2.311-4.734,4.216-4.734
		c1.485,0,2.073,0.883,2.073,1.751c0,0.532-0.336,0.896-0.883,0.896c-0.546,0-0.868-0.393-0.868-0.868
		c0-0.421,0.252-0.799,0.756-0.869c-0.322-0.322-0.798-0.364-1.051-0.364c-0.854,0-1.611,0.505-1.947,1.163
		c-0.098,0.21-0.393,0.812-0.393,2.409v0.267c0.588-1.064,1.373-1.064,1.681-1.064c1.695,0,3.11,1.021,3.11,2.982
		C189.571,112.156,188.227,113.306,186.279,113.306z M186.335,107.801c-0.771,0-1.527,0.658-1.527,2.409
		c0,0.252,0,1.274,0.224,1.723c0.112,0.224,0.49,0.771,1.219,0.771c1.415,0,1.415-1.037,1.415-2.451
		C187.666,108.852,187.666,107.801,186.335,107.801z"/>
</g>
<g>
	<path d="M134.885,150.744c-0.062,4.293,0.148,8.432,0.186,12.75c0.082,9.439,0.033,18.848-0.494,28.238
		c-0.215,3.811-0.064,15.916,1.318,15.908c3.072,0.023,5.279-0.012,8.253-0.012c0.719-4.008,0.324-11.258,0.324-15.496
		c0-8.887,0.125-17.658,0.33-26.5c0.117-5.156,0.455-10.387,0.279-15.523c-2.917-0.064-8.513-0.842-10.193,0.408L134.885,150.744z"
		/>
</g>
<g>
	<path d="M175.363,177.065h-9.567c-0.168,0-0.574,0-0.574-0.421c0-0.434,0.434-0.434,0.645-0.434h9.427c0.21,0,0.645,0,0.645,0.434
		C175.938,177.065,175.531,177.065,175.363,177.065z M175.293,180.203h-9.427c-0.21,0-0.645,0-0.645-0.435
		c0-0.42,0.406-0.42,0.574-0.42h9.567c0.168,0,0.574,0,0.574,0.42C175.938,180.203,175.503,180.203,175.293,180.203z"/>
	<path d="M189.879,173.367l-2.171,2.521c-0.49,0.574-0.784,1.4-0.91,2.34c-0.098,0.658-0.14,1.33-0.14,2.002v0.645
		c0,0.925-0.659,0.995-0.883,0.995c-0.084,0-0.868,0-0.868-0.981c0-2.072,1.008-3.963,2.353-5.532
		c0.252-0.308,0.519-0.603,0.771-0.911h-2.367c-0.238,0-1.373,0-1.527,0.084c-0.056,0.029-0.238,0.211-0.378,1.275H183.1l0.49-3.559
		h0.658c0.028,0.141,0.042,0.267,0.336,0.322c0.196,0.057,2.255,0.127,2.577,0.127h2.858
		C190.02,173.186,190.02,173.213,189.879,173.367z"/>
</g>
<g>
	<path d="M123.008,160.294c0.04,4.645,2.357,12.053,8.294,8.916c4.62-2.441,5.263-12.822-0.116-15.117
		C125.542,151.683,122.426,156.351,123.008,160.294"/>
</g>
<g>
	<path d="M125.199,170.856c-1.702,1.125-2.76,3.238-2.76,5.518c0,0.346,0.025,0.69,0.069,0.957c0.03,3.494,1.267,7.975,3.911,9.553
		c1.478,0.882,3.198,0.814,5.116-0.198c2.369-1.251,3.961-4.59,3.961-8.308l0,0c0-3.674-1.576-6.629-4.113-7.713
		C128.423,169.402,126.386,170.072,125.199,170.856z M125.75,171.69c1.27-0.839,2.87-0.943,4.652-0.326
		c0.383,0.591,0.664,1.457,0.85,2.488c-0.139,0.148-0.266,0.31-0.384,0.464c-0.14,0.183-0.284,0.372-0.411,0.479
		c-0.549,0.462-1.043,0.669-1.766,0.74c-1.707,0.169-3.893-0.019-5.036-0.773C123.997,173.474,124.732,172.363,125.75,171.69z
		 M123.502,177.254c-0.042-0.288-0.063-0.583-0.063-0.88c0-0.188,0.015-0.371,0.031-0.556c1.938,1.003,4.935,0.75,5.32,0.712
		c0.919-0.09,1.61-0.381,2.312-0.971c0.12-0.102,0.229-0.223,0.333-0.348c0.144,1.574,0.106,3.355-0.113,5.064l-0.169-0.127
		c-0.809,1.077-2.177,1.302-3.184,1.301h-0.119c-1.141,0-3.504-0.002-4.003-1.033C123.63,179.364,123.513,178.278,123.502,177.254z
		 M126.932,186.024c-1.207-0.719-2.105-2.258-2.68-4.057c1.131,0.471,2.634,0.482,3.597,0.482h0.12
		c1.275,0.002,2.338-0.314,3.15-0.902c-0.395,2.097-1.079,3.931-2.046,4.91C128.292,186.548,127.575,186.409,126.932,186.024z
		 M134.497,178.378L134.497,178.378c0,3.357-1.378,6.34-3.428,7.424c-0.139,0.073-0.273,0.133-0.409,0.194
		c1.245-2.157,1.872-5.62,1.872-8.798c0-1.947-0.239-3.779-0.711-5.145C133.772,173.415,134.497,176.116,134.497,178.378z"/>
</g>
<g>
	<path d="M123.008,194.359c0.04,4.646,2.357,12.055,8.294,8.918c4.62-2.441,5.263-12.822-0.116-15.119
		C125.542,185.75,122.426,190.418,123.008,194.359"/>
</g>
<g>
	<path d="M134.385,218.558c-0.062,4.293,0.148,8.432,0.186,12.75c0.082,9.439,0.033,18.848-0.494,28.238
		c-0.215,3.811-0.064,15.916,1.318,15.908c3.072,0.023,5.279-0.012,8.253-0.012c0.719-4.008,0.324-11.258,0.324-15.496
		c0-8.887,0.125-17.658,0.33-26.5c0.117-5.156,0.455-10.387,0.279-15.523c-2.917-0.064-8.513-0.842-10.193,0.408L134.385,218.558z"
		/>
</g>
<g>
	<path d="M174.863,244.879h-9.567c-0.168,0-0.574,0-0.574-0.42c0-0.435,0.434-0.435,0.645-0.435h9.427c0.21,0,0.645,0,0.645,0.435
		C175.438,244.879,175.031,244.879,174.863,244.879z M174.793,248.017h-9.427c-0.21,0-0.645,0-0.645-0.435
		c0-0.42,0.406-0.42,0.574-0.42h9.567c0.168,0,0.574,0,0.574,0.42C175.438,248.017,175.003,248.017,174.793,248.017z"/>
	<path d="M185.695,249.684c-1.807,0-3.32-0.715-3.32-2.41c0-1.036,0.616-1.834,1.793-2.353c-1.093-0.616-1.345-1.499-1.345-2.115
		c0-1.345,0.98-2.451,2.928-2.451c1.597,0,2.872,0.63,2.872,2.06c0,0.812-0.435,1.428-1.415,1.933
		c0.687,0.392,1.863,1.05,1.863,2.563C189.071,248.451,187.937,249.684,185.695,249.684z M186.732,246.363l-1.919-1.064
		c-0.49,0.28-1.233,0.883-1.233,1.975c0,1.094,0.798,1.808,2.171,1.808c0.798,0,2.115-0.224,2.115-1.401
		C187.866,247.008,187.348,246.714,186.732,246.363z M185.695,240.9c-0.561,0-1.821,0.098-1.821,1.078
		c0,0.477,0.392,0.715,0.616,0.842l2.101,1.176c0.616-0.406,0.98-0.883,0.98-1.568C187.572,241.475,186.872,240.9,185.695,240.9z"/>
</g>
<g>
	<path d="M123.008,245.141c0.04,4.645,2.357,12.053,8.294,8.916c4.62-2.441,5.263-12.822-0.116-15.117
		C125.542,236.529,122.426,241.197,123.008,245.141"/>
</g>
<g>
	<path d="M123.008,228.611c0.04,4.645,2.357,12.053,8.294,8.916c4.62-2.441,5.263-12.822-0.116-15.117
		C125.542,220,122.426,224.668,123.008,228.611"/>
</g>
<g>
	<path d="M123.008,261.669c0.04,4.646,2.357,12.055,8.294,8.918c4.62-2.441,5.263-12.822-0.116-15.119
		C125.542,253.06,122.426,257.728,123.008,261.669"/>
</g>
<g>
	<path d="M135.636,286.098c-0.062,4.293,0.148,8.432,0.186,12.75c0.082,9.439,0.033,18.848-0.494,28.238
		c-0.215,3.811-0.064,15.916,1.318,15.908c3.072,0.023,5.279-0.012,8.253-0.012c0.719-4.008,0.324-11.258,0.324-15.496
		c0-8.887,0.125-17.658,0.33-26.5c0.117-5.156,0.455-10.387,0.279-15.523c-2.917-0.064-8.513-0.842-10.193,0.408L135.636,286.098z"
		/>
</g>
<g>
	<path d="M176.114,312.419h-9.567c-0.168,0-0.574,0-0.574-0.421c0-0.434,0.434-0.434,0.645-0.434h9.427c0.21,0,0.645,0,0.645,0.434
		C176.688,312.419,176.282,312.419,176.114,312.419z M176.043,315.557h-9.427c-0.21,0-0.645,0-0.645-0.435
		c0-0.42,0.406-0.42,0.574-0.42h9.567c0.168,0,0.574,0,0.574,0.42C176.688,315.557,176.254,315.557,176.043,315.557z"/>
	<path d="M186.301,317.224c-1.555,0-2.269-0.799-2.269-1.751c0-0.532,0.336-0.896,0.882-0.896s0.869,0.393,0.869,0.868
		c0,0.63-0.519,0.827-0.687,0.868c0.42,0.281,0.925,0.309,1.177,0.309c0.966,0,1.569-0.631,1.807-1.177
		c0.21-0.476,0.336-1.303,0.336-2.325v-0.309c-0.532,0.98-1.19,1.079-1.681,1.079c-1.723,0-3.11-1.051-3.11-2.983
		c0-1.877,1.387-3.012,3.376-3.012c3.32,0,3.32,3.628,3.32,4.566C190.322,316.047,188.123,317.224,186.301,317.224z
		 M188.234,309.323c-0.056-0.14-0.378-0.883-1.205-0.883c-1.499,0-1.499,1.121-1.499,2.493c0,1.401,0,2.451,1.331,2.451
		c1.177,0,1.541-1.428,1.541-2.311C188.402,310.598,188.402,309.785,188.234,309.323z"/>
</g>
<g>
	<path d="M125.04,305.562c0.035,4.052,2.056,10.513,7.234,7.777c4.029-2.13,4.59-11.185-0.102-13.186
		C127.25,298.051,124.532,302.122,125.04,305.562"/>
</g>
<g>
	<path d="M125.04,291.145c0.035,4.051,2.056,10.513,7.234,7.776c4.029-2.129,4.59-11.184-0.102-13.186
		C127.25,283.634,124.532,287.705,125.04,291.145"/>
</g>
<g>
	<path d="M125.04,319.979c0.035,4.053,2.056,10.515,7.234,7.778c4.029-2.13,4.59-11.184-0.102-13.188
		C127.25,312.469,124.532,316.54,125.04,319.979"/>
</g>
<g>
	<path d="M125.04,334.576c0.035,4.051,2.056,10.513,7.234,7.776c4.029-2.129,4.59-11.184-0.102-13.186
		C127.25,327.065,124.532,331.137,125.04,334.576"/>
</g>
<g>
	<path d="M268.606,9.744c-0.062,4.292,0.148,8.431,0.187,12.749c0.082,9.439,0.033,18.849-0.495,28.238
		c-0.215,3.811-0.063,15.916,1.319,15.908c3.071,0.024,5.278-0.011,8.254-0.011c0.719-4.009,0.324-11.258,0.324-15.497
		c0-8.887,0.125-17.657,0.33-26.499c0.117-5.156,0.454-10.387,0.279-15.523c-2.918-0.064-8.514-0.842-10.194,0.407L268.606,9.744z"
		/>
</g>
<g>
	<path d="M309.085,36.499h-9.567c-0.168,0-0.574,0-0.574-0.42c0-0.434,0.434-0.434,0.645-0.434h9.427c0.21,0,0.645,0,0.645,0.434
		C309.659,36.499,309.253,36.499,309.085,36.499z M309.015,39.637h-9.427c-0.211,0-0.645,0-0.645-0.435
		c0-0.42,0.406-0.42,0.574-0.42h9.567c0.168,0,0.574,0,0.574,0.42C309.659,39.637,309.225,39.637,309.015,39.637z"/>
	<path d="M320.057,41.107c-0.686,0-2.171,0-2.787,0.042v-0.658h1.947v-7.242c-0.826,0.266-1.598,0.28-1.821,0.28h-0.28v-0.658h0.28
		c0.294,0,1.737,0,2.815-0.799c0.127-0.098,0.154-0.098,0.309-0.098c0.363,0,0.363,0.14,0.363,0.448v8.068h1.962v0.658
		C322.229,41.107,320.743,41.107,320.057,41.107z"/>
	<path d="M327.994,41.304c-3.375,0-3.389-3.236-3.389-4.623c0-1.373,0.014-4.707,3.389-4.707c3.377,0,3.391,3.348,3.391,4.707
		C331.385,38.082,331.356,41.304,327.994,41.304z M329.354,33.361c-0.266-0.616-0.84-0.883-1.359-0.883
		c-0.336,0-1.316,0.14-1.484,1.387c-0.111,0.729-0.111,1.639-0.111,2.647c0,0.771,0,2.228,0.125,2.956
		c0.183,1.022,0.967,1.331,1.471,1.331c0.421,0,1.303-0.196,1.5-1.499c0.098-0.728,0.098-2.003,0.098-2.788
		C329.592,35.364,329.592,33.879,329.354,33.361z"/>
</g>
<g>
	<path d="M257.972,9.744c-0.062,4.292,0.148,8.431,0.187,12.749c0.082,9.439,0.033,18.849-0.495,28.238
		c-0.215,3.811-0.063,15.916,1.319,15.908c3.071,0.024,5.278-0.011,8.254-0.011c0.719-4.009,0.324-11.258,0.324-15.497
		c0-8.887,0.125-17.657,0.33-26.499c0.117-5.156,0.454-10.387,0.279-15.523c-2.918-0.064-8.514-0.842-10.194,0.407L257.972,9.744z"
		/>
</g>
<g>
	<path d="M269.646,82.18c-0.062,4.292,0.148,8.431,0.187,12.749c0.082,9.44,0.033,18.848-0.495,28.239
		c-0.215,3.811-0.063,15.916,1.319,15.908c3.071,0.023,5.278-0.012,8.254-0.012c0.719-4.008,0.324-11.258,0.324-15.496
		c0-8.887,0.125-17.658,0.33-26.5c0.117-5.156,0.454-10.387,0.279-15.523c-2.918-0.064-8.514-0.842-10.194,0.407L269.646,82.18z"/>
</g>
<g>
	<path d="M310.124,108.936h-9.567c-0.168,0-0.574,0-0.574-0.421c0-0.435,0.434-0.435,0.645-0.435h9.427c0.21,0,0.645,0,0.645,0.435
		C310.698,108.936,310.292,108.936,310.124,108.936z M310.054,112.072h-9.427c-0.211,0-0.645,0-0.645-0.434
		c0-0.42,0.406-0.42,0.574-0.42h9.567c0.168,0,0.574,0,0.574,0.42C310.698,112.072,310.264,112.072,310.054,112.072z"/>
	<path d="M321.096,113.543c-0.686,0-2.171,0-2.787,0.043v-0.658h1.947v-7.242c-0.826,0.266-1.598,0.279-1.821,0.279h-0.28v-0.658
		h0.28c0.294,0,1.737,0,2.815-0.799c0.127-0.098,0.154-0.098,0.309-0.098c0.363,0,0.363,0.141,0.363,0.449v8.068h1.962v0.658
		C323.268,113.543,321.782,113.543,321.096,113.543z"/>
	<path d="M329.146,113.543c-0.688,0-2.172,0-2.788,0.043v-0.658h1.947v-7.242c-0.827,0.266-1.597,0.279-1.821,0.279h-0.28v-0.658
		h0.28c0.295,0,1.736,0,2.815-0.799c0.126-0.098,0.154-0.098,0.309-0.098c0.364,0,0.364,0.141,0.364,0.449v8.068h1.961v0.658
		C331.316,113.543,329.832,113.543,329.146,113.543z"/>
</g>
<g>
	<path d="M259.011,82.18c-0.062,4.292,0.148,8.431,0.187,12.749c0.082,9.44,0.033,18.848-0.495,28.239
		c-0.215,3.811-0.063,15.916,1.319,15.908c3.071,0.023,5.278-0.012,8.254-0.012c0.719-4.008,0.324-11.258,0.324-15.496
		c0-8.887,0.125-17.658,0.33-26.5c0.117-5.156,0.454-10.387,0.279-15.523c-2.918-0.064-8.514-0.842-10.194,0.407L259.011,82.18z"/>
</g>
<g>
	<path d="M246.135,108.763c0.04,4.646,2.357,12.054,8.294,8.917c4.62-2.441,5.263-12.822-0.116-15.118
		C248.668,100.152,245.553,104.82,246.135,108.763"/>
</g>
<g>
	<path d="M248.325,85.26c-1.702,1.125-2.76,3.238-2.76,5.518c0,0.346,0.025,0.689,0.069,0.957c0.03,3.494,1.267,7.975,3.911,9.553
		c1.478,0.881,3.198,0.814,5.116-0.199c2.369-1.25,3.961-4.59,3.961-8.307l0,0c0-3.674-1.576-6.629-4.113-7.713
		C251.55,83.805,249.513,84.475,248.325,85.26z M248.877,86.094c1.27-0.84,2.87-0.943,4.652-0.326
		c0.383,0.59,0.664,1.457,0.85,2.488c-0.139,0.148-0.266,0.309-0.384,0.463c-0.14,0.184-0.284,0.373-0.411,0.479
		c-0.549,0.463-1.043,0.67-1.766,0.74c-1.707,0.17-3.893-0.018-5.036-0.773C247.123,87.877,247.858,86.766,248.877,86.094z
		 M246.629,91.656c-0.042-0.287-0.063-0.582-0.063-0.879c0-0.188,0.015-0.371,0.031-0.557c1.938,1.004,4.935,0.75,5.32,0.713
		c0.919-0.09,1.61-0.381,2.312-0.971c0.12-0.102,0.229-0.223,0.333-0.348c0.144,1.574,0.106,3.355-0.113,5.064l-0.169-0.127
		c-0.809,1.076-2.177,1.301-3.184,1.301h-0.119c-1.141,0-3.504-0.002-4.003-1.033C246.757,93.768,246.64,92.682,246.629,91.656z
		 M250.059,100.428c-1.207-0.719-2.105-2.258-2.68-4.057c1.131,0.471,2.634,0.482,3.597,0.482h0.12
		c1.275,0.002,2.338-0.314,3.15-0.902c-0.395,2.096-1.079,3.93-2.046,4.91C251.419,100.951,250.701,100.812,250.059,100.428z
		 M257.623,92.781L257.623,92.781c0,3.357-1.378,6.34-3.428,7.424c-0.139,0.072-0.273,0.133-0.409,0.193
		c1.245-2.156,1.872-5.619,1.872-8.797c0-1.947-0.239-3.779-0.711-5.145C256.898,87.818,257.623,90.52,257.623,92.781z"/>
</g>
<g>
	<path d="M248.325,119.326c-1.702,1.125-2.76,3.238-2.76,5.518c0,0.346,0.025,0.69,0.069,0.957c0.03,3.494,1.267,7.975,3.911,9.553
		c1.478,0.882,3.198,0.814,5.116-0.198c2.369-1.251,3.961-4.59,3.961-8.308l0,0c0-3.674-1.576-6.629-4.113-7.713
		C251.55,117.872,249.513,118.542,248.325,119.326z M248.877,120.16c1.27-0.839,2.87-0.943,4.652-0.326
		c0.383,0.591,0.664,1.457,0.85,2.488c-0.139,0.148-0.266,0.31-0.384,0.464c-0.14,0.183-0.284,0.372-0.411,0.479
		c-0.549,0.462-1.043,0.669-1.766,0.74c-1.707,0.169-3.893-0.019-5.036-0.773C247.123,121.943,247.858,120.833,248.877,120.16z
		 M246.629,125.724c-0.042-0.288-0.063-0.583-0.063-0.88c0-0.188,0.015-0.371,0.031-0.556c1.938,1.003,4.935,0.75,5.32,0.712
		c0.919-0.09,1.61-0.381,2.312-0.971c0.12-0.102,0.229-0.223,0.333-0.348c0.144,1.574,0.106,3.355-0.113,5.064l-0.169-0.127
		c-0.809,1.077-2.177,1.302-3.184,1.301h-0.119c-1.141,0-3.504-0.002-4.003-1.033C246.757,127.834,246.64,126.748,246.629,125.724z
		 M250.059,134.494c-1.207-0.719-2.105-2.258-2.68-4.057c1.131,0.471,2.634,0.482,3.597,0.482h0.12
		c1.275,0.002,2.338-0.314,3.15-0.902c-0.395,2.097-1.079,3.931-2.046,4.91C251.419,135.018,250.701,134.879,250.059,134.494z
		 M257.623,126.848L257.623,126.848c0,3.357-1.378,6.34-3.428,7.424c-0.139,0.073-0.273,0.133-0.409,0.194
		c1.245-2.157,1.872-5.62,1.872-8.798c0-1.947-0.239-3.779-0.711-5.145C256.898,121.885,257.623,124.586,257.623,126.848z"/>
</g>
<g>
	<path d="M269.646,150.744c-0.062,4.293,0.148,8.432,0.187,12.75c0.082,9.439,0.033,18.848-0.495,28.238
		c-0.215,3.811-0.063,15.916,1.319,15.908c3.071,0.023,5.278-0.012,8.254-0.012c0.719-4.008,0.324-11.258,0.324-15.496
		c0-8.887,0.125-17.658,0.33-26.5c0.117-5.156,0.454-10.387,0.279-15.523c-2.918-0.064-8.514-0.842-10.194,0.408L269.646,150.744z"
		/>
</g>
<g>
	<path d="M310.124,177.5h-9.567c-0.168,0-0.574,0-0.574-0.421c0-0.435,0.434-0.435,0.645-0.435h9.427c0.21,0,0.645,0,0.645,0.435
		C310.698,177.5,310.292,177.5,310.124,177.5z M310.054,180.637h-9.427c-0.211,0-0.645,0-0.645-0.434c0-0.42,0.406-0.42,0.574-0.42
		h9.567c0.168,0,0.574,0,0.574,0.42C310.698,180.637,310.264,180.637,310.054,180.637z"/>
	<path d="M321.096,182.107c-0.686,0-2.171,0-2.787,0.043v-0.658h1.947v-7.242c-0.826,0.266-1.598,0.279-1.821,0.279h-0.28v-0.658
		h0.28c0.294,0,1.737,0,2.815-0.799c0.127-0.098,0.154-0.098,0.309-0.098c0.363,0,0.363,0.141,0.363,0.449v8.068h1.962v0.658
		C323.268,182.107,321.782,182.107,321.096,182.107z"/>
	<path d="M331.821,182.15h-6.009v-0.252c0-0.281,0-0.309,0.182-0.477l2.815-2.872c0.98-0.995,1.513-1.946,1.513-2.913
		c0-1.051-0.645-2.004-1.849-2.004c-0.505,0-1.036,0.154-1.442,0.49c0.209,0.057,0.798,0.281,0.798,1.01
		c0,0.699-0.56,1.008-1.009,1.008c-0.336,0-1.008-0.21-1.008-1.037c0-1.26,1.316-2.129,3.012-2.129c1.975,0,3.432,1.037,3.432,2.648
		c0,1.33-0.896,1.988-2.494,3.165c-0.63,0.462-1.358,1.064-2.017,1.61h2.06c0.224,0,1.274,0,1.428-0.084
		c0.197-0.098,0.322-0.994,0.365-1.274h0.658L331.821,182.15z"/>
</g>
<g>
	<path d="M259.011,150.744c-0.062,4.293,0.148,8.432,0.187,12.75c0.082,9.439,0.033,18.848-0.495,28.238
		c-0.215,3.811-0.063,15.916,1.319,15.908c3.071,0.023,5.278-0.012,8.254-0.012c0.719-4.008,0.324-11.258,0.324-15.496
		c0-8.887,0.125-17.658,0.33-26.5c0.117-5.156,0.454-10.387,0.279-15.523c-2.918-0.064-8.514-0.842-10.194,0.408L259.011,150.744z"
		/>
</g>
<g>
	<path d="M246.635,160.294c0.04,4.645,2.357,12.053,8.294,8.916c4.62-2.441,5.263-12.822-0.116-15.117
		C249.168,151.683,246.053,156.351,246.635,160.294"/>
</g>
<g>
	<path d="M248.825,170.856c-1.702,1.125-2.76,3.238-2.76,5.518c0,0.346,0.025,0.69,0.069,0.957c0.03,3.494,1.267,7.975,3.911,9.553
		c1.478,0.882,3.198,0.814,5.116-0.198c2.369-1.251,3.961-4.59,3.961-8.308l0,0c0-3.674-1.576-6.629-4.113-7.713
		C252.05,169.402,250.013,170.072,248.825,170.856z M249.377,171.69c1.27-0.839,2.87-0.943,4.652-0.326
		c0.383,0.591,0.664,1.457,0.85,2.488c-0.139,0.148-0.266,0.31-0.384,0.464c-0.14,0.183-0.284,0.372-0.411,0.479
		c-0.549,0.462-1.043,0.669-1.766,0.74c-1.707,0.169-3.893-0.019-5.036-0.773C247.623,173.474,248.358,172.363,249.377,171.69z
		 M247.129,177.254c-0.042-0.288-0.063-0.583-0.063-0.88c0-0.188,0.015-0.371,0.031-0.556c1.938,1.003,4.935,0.75,5.32,0.712
		c0.919-0.09,1.61-0.381,2.312-0.971c0.12-0.102,0.229-0.223,0.333-0.348c0.144,1.574,0.106,3.355-0.113,5.064l-0.169-0.127
		c-0.809,1.077-2.177,1.302-3.184,1.301h-0.119c-1.141,0-3.504-0.002-4.003-1.033C247.257,179.364,247.14,178.278,247.129,177.254z
		 M250.559,186.024c-1.207-0.719-2.105-2.258-2.68-4.057c1.131,0.471,2.634,0.482,3.597,0.482h0.12
		c1.275,0.002,2.338-0.314,3.15-0.902c-0.395,2.097-1.079,3.931-2.046,4.91C251.919,186.548,251.201,186.409,250.559,186.024z
		 M258.123,178.378L258.123,178.378c0,3.357-1.378,6.34-3.428,7.424c-0.139,0.073-0.273,0.133-0.409,0.194
		c1.245-2.157,1.872-5.62,1.872-8.798c0-1.947-0.239-3.779-0.711-5.145C257.398,173.415,258.123,176.116,258.123,178.378z"/>
</g>
<g>
	<path d="M246.635,194.359c0.04,4.646,2.357,12.055,8.294,8.918c4.62-2.441,5.263-12.822-0.116-15.119
		C249.168,185.75,246.053,190.418,246.635,194.359"/>
</g>
<g>
	<path d="M269.646,218.558c-0.062,4.293,0.148,8.432,0.187,12.75c0.082,9.439,0.033,18.848-0.495,28.238
		c-0.215,3.811-0.063,15.916,1.319,15.908c3.071,0.023,5.278-0.012,8.254-0.012c0.719-4.008,0.324-11.258,0.324-15.496
		c0-8.887,0.125-17.658,0.33-26.5c0.117-5.156,0.454-10.387,0.279-15.523c-2.918-0.064-8.514-0.842-10.194,0.408L269.646,218.558z"
		/>
</g>
<g>
	<path d="M310.124,245.312h-9.567c-0.168,0-0.574,0-0.574-0.42c0-0.434,0.434-0.434,0.645-0.434h9.427c0.21,0,0.645,0,0.645,0.434
		C310.698,245.312,310.292,245.312,310.124,245.312z M310.054,248.451h-9.427c-0.211,0-0.645,0-0.645-0.436
		c0-0.42,0.406-0.42,0.574-0.42h9.567c0.168,0,0.574,0,0.574,0.42C310.698,248.451,310.264,248.451,310.054,248.451z"/>
	<path d="M321.096,249.922c-0.686,0-2.171,0-2.787,0.041v-0.658h1.947v-7.242c-0.826,0.267-1.598,0.281-1.821,0.281h-0.28v-0.658
		h0.28c0.294,0,1.737,0,2.815-0.799c0.127-0.098,0.154-0.098,0.309-0.098c0.363,0,0.363,0.14,0.363,0.447v8.068h1.962v0.658
		C323.268,249.922,321.782,249.922,321.096,249.922z"/>
	<path d="M328.852,250.117c-1.807,0-3.166-0.84-3.166-2.102c0-0.714,0.49-1.092,1.079-1.092c0.616,0,1.064,0.434,1.064,1.064
		c0,0.574-0.351,0.924-0.812,1.051c0.673,0.42,1.401,0.477,1.765,0.477c1.457,0,1.457-1.43,1.457-2.088c0-0.715,0-2.087-1.526-2.087
		h-0.616c-0.252,0-0.393,0-0.393-0.252c0-0.084,0.027-0.224,0.168-0.238c0.07-0.015,0.098-0.028,0.672-0.056
		c1.457-0.084,1.471-1.92,1.471-2.102c0-0.463-0.041-1.359-1.204-1.359c-0.435,0-1.05,0.113-1.54,0.505
		c0.055,0.015,0.812,0.169,0.812,0.98c0,0.519-0.352,0.967-0.981,0.967c-0.532,0-0.966-0.378-0.966-0.98
		c0-1.12,1.092-2.017,2.759-2.017c1.976,0,3.04,0.867,3.04,1.946c0,1.204-1.023,2.003-1.989,2.298
		c2.031,0.434,2.438,1.639,2.438,2.408C332.382,248.717,331.359,250.117,328.852,250.117z"/>
</g>
<g>
	<path d="M259.011,218.558c-0.062,4.293,0.148,8.432,0.187,12.75c0.082,9.439,0.033,18.848-0.495,28.238
		c-0.215,3.811-0.063,15.916,1.319,15.908c3.071,0.023,5.278-0.012,8.254-0.012c0.719-4.008,0.324-11.258,0.324-15.496
		c0-8.887,0.125-17.658,0.33-26.5c0.117-5.156,0.454-10.387,0.279-15.523c-2.918-0.064-8.514-0.842-10.194,0.408L259.011,218.558z"
		/>
</g>
<g>
	<path d="M269.646,286.008c-0.062,4.293,0.148,8.432,0.187,12.75c0.082,9.439,0.033,18.848-0.495,28.238
		c-0.215,3.811-0.063,15.916,1.319,15.908c3.071,0.023,5.278-0.012,8.254-0.012c0.719-4.008,0.324-11.258,0.324-15.496
		c0-8.887,0.125-17.658,0.33-26.5c0.117-5.156,0.454-10.387,0.279-15.523c-2.918-0.064-8.514-0.842-10.194,0.408L269.646,286.008z"
		/>
</g>
<g>
	<path d="M310.124,312.764h-9.567c-0.168,0-0.574,0-0.574-0.421c0-0.435,0.434-0.435,0.645-0.435h9.427c0.21,0,0.645,0,0.645,0.435
		C310.698,312.764,310.292,312.764,310.124,312.764z M310.054,315.9h-9.427c-0.211,0-0.645,0-0.645-0.434
		c0-0.42,0.406-0.42,0.574-0.42h9.567c0.168,0,0.574,0,0.574,0.42C310.698,315.9,310.264,315.9,310.054,315.9z"/>
	<path d="M321.096,317.371c-0.686,0-2.171,0-2.787,0.043v-0.658h1.947v-7.242c-0.826,0.266-1.598,0.279-1.821,0.279h-0.28v-0.658
		h0.28c0.294,0,1.737,0,2.815-0.799c0.127-0.098,0.154-0.098,0.309-0.098c0.363,0,0.363,0.141,0.363,0.449v8.068h1.962v0.658
		C323.268,317.371,321.782,317.371,321.096,317.371z"/>
	<path d="M330.336,317.371c-0.602,0-1.877,0-2.408,0.043v-0.658h1.568v-1.527h-4.034v-0.658l4.889-6.121
		c0.168-0.211,0.183-0.225,0.476-0.225c0.393,0,0.421,0.07,0.421,0.448v5.897h1.358v0.658h-1.358v1.527h1.358v0.658
		C332.115,317.371,330.896,317.371,330.336,317.371z M329.65,310.228l-3.46,4.343h3.46V310.228z"/>
</g>
<g>
	<path d="M259.011,286.008c-0.062,4.293,0.148,8.432,0.187,12.75c0.082,9.439,0.033,18.848-0.495,28.238
		c-0.215,3.811-0.063,15.916,1.319,15.908c3.071,0.023,5.278-0.012,8.254-0.012c0.719-4.008,0.324-11.258,0.324-15.496
		c0-8.887,0.125-17.658,0.33-26.5c0.117-5.156,0.454-10.387,0.279-15.523c-2.918-0.064-8.514-0.842-10.194,0.408L259.011,286.008z"
		/>
</g>
<g>
	<path d="M246.635,245.141c0.04,4.645,2.357,12.053,8.294,8.916c4.62-2.441,5.263-12.822-0.116-15.117
		C249.168,236.529,246.053,241.197,246.635,245.141"/>
</g>
<g>
	<path d="M246.635,228.611c0.04,4.645,2.357,12.053,8.294,8.916c4.62-2.441,5.263-12.822-0.116-15.117
		C249.168,220,246.053,224.668,246.635,228.611"/>
</g>
<g>
	<path d="M246.635,261.669c0.04,4.646,2.357,12.055,8.294,8.918c4.62-2.441,5.263-12.822-0.116-15.119
		C249.168,253.06,246.053,257.728,246.635,261.669"/>
</g>
<g>
	<path d="M247.396,305.472c0.035,4.052,2.056,10.513,7.234,7.777c4.029-2.13,4.59-11.185-0.102-13.186
		C249.606,297.961,246.889,302.032,247.396,305.472"/>
</g>
<g>
	<path d="M247.396,291.055c0.035,4.051,2.056,10.513,7.234,7.776c4.029-2.129,4.59-11.184-0.102-13.186
		C249.606,283.544,246.889,287.615,247.396,291.055"/>
</g>
<g>
	<path d="M247.396,319.889c0.035,4.053,2.056,10.515,7.234,7.778c4.029-2.13,4.59-11.184-0.102-13.188
		C249.606,312.379,246.889,316.45,247.396,319.889"/>
</g>
<g>
	<path d="M247.396,334.486c0.035,4.051,2.056,10.513,7.234,7.776c4.029-2.129,4.59-11.184-0.102-13.186
		C249.606,326.976,246.889,331.047,247.396,334.486"/>
</g>
<g>
	<path d="M414.911,9.744c-0.062,4.292,0.148,8.431,0.187,12.749c0.082,9.439,0.033,18.849-0.495,28.238
		c-0.215,3.811-0.063,15.916,1.319,15.908c3.071,0.024,5.278-0.011,8.254-0.011c0.719-4.009,0.324-11.258,0.324-15.497
		c0-8.887,0.125-17.657,0.33-26.499c0.117-5.156,0.454-10.387,0.279-15.523c-2.918-0.064-8.514-0.842-10.194,0.407L414.911,9.744z"
		/>
</g>
<g>
	<path d="M455.39,36.499h-9.567c-0.168,0-0.574,0-0.574-0.42c0-0.434,0.434-0.434,0.645-0.434h9.427c0.21,0,0.645,0,0.645,0.434
		C455.964,36.499,455.558,36.499,455.39,36.499z M455.319,39.637h-9.427c-0.211,0-0.645,0-0.645-0.435c0-0.42,0.406-0.42,0.574-0.42
		h9.567c0.168,0,0.574,0,0.574,0.42C455.964,39.637,455.529,39.637,455.319,39.637z"/>
	<path d="M466.361,41.107c-0.686,0-2.171,0-2.787,0.042v-0.658h1.947v-7.242c-0.826,0.266-1.598,0.28-1.821,0.28h-0.28v-0.658h0.28
		c0.294,0,1.737,0,2.815-0.799c0.127-0.098,0.154-0.098,0.309-0.098c0.363,0,0.363,0.14,0.363,0.448v8.068h1.962v0.658
		C468.533,41.107,467.048,41.107,466.361,41.107z"/>
	<path d="M473.907,41.304c-1.737,0-2.829-1.191-2.829-2.381c0-0.854,0.729-0.98,0.938-0.98c0.337,0,0.939,0.21,0.939,0.952
		c0,0.575-0.406,0.911-0.91,0.938c0.588,0.799,1.471,0.869,1.807,0.869c1.681,0,1.681-1.401,1.681-2.423
		c0-1.121,0-2.353-1.247-2.353c-0.574,0-1.33,0.14-1.877,0.784c-0.098,0.112-0.126,0.168-0.309,0.168
		c-0.308,0-0.308-0.182-0.308-0.434v-4.09c0-0.224,0-0.378,0.196-0.378c0.042,0,0.057,0.014,0.182,0.056
		c0.365,0.126,1.107,0.393,2.172,0.393c0.602,0,1.344-0.084,2.143-0.393c0.154-0.056,0.168-0.056,0.211-0.056
		c0.168,0,0.195,0.154,0.195,0.252c0,0.35-1.289,1.933-3.334,1.933c-0.476,0-0.63-0.028-1.021-0.098v1.849
		c0.658-0.448,1.4-0.49,1.807-0.49c2.072,0,3.18,1.303,3.18,2.914C477.521,40.043,476.148,41.304,473.907,41.304z"/>
</g>
<g>
	<path d="M404.276,9.744c-0.062,4.292,0.148,8.431,0.187,12.749c0.082,9.439,0.033,18.849-0.495,28.238
		c-0.215,3.811-0.063,15.916,1.319,15.908c3.071,0.024,5.278-0.011,8.254-0.011c0.719-4.009,0.324-11.258,0.324-15.497
		c0-8.887,0.125-17.657,0.33-26.499c0.117-5.156,0.454-10.387,0.279-15.523c-2.918-0.064-8.514-0.842-10.194,0.407L404.276,9.744z"
		/>
</g>
<g>
	<path d="M393.642,9.744c-0.062,4.292,0.148,8.431,0.187,12.749c0.082,9.439,0.033,18.849-0.495,28.238
		c-0.215,3.811-0.063,15.916,1.319,15.908c3.071,0.024,5.278-0.011,8.254-0.011c0.719-4.009,0.324-11.258,0.324-15.497
		c0-8.887,0.125-17.657,0.33-26.499c0.117-5.156,0.454-10.387,0.279-15.523c-2.918-0.064-8.514-0.842-10.194,0.407L393.642,9.744z"
		/>
</g>
<g>
	<path d="M415.949,79.064c-0.062,4.292,0.148,8.431,0.187,12.749c0.082,9.439,0.033,18.849-0.495,28.238
		c-0.215,3.811-0.063,15.916,1.319,15.908c3.071,0.024,5.278-0.011,8.254-0.011c0.719-4.009,0.324-11.258,0.324-15.497
		c0-8.887,0.125-17.657,0.33-26.499c0.117-5.156,0.454-10.387,0.279-15.523c-2.918-0.064-8.514-0.842-10.194,0.407L415.949,79.064z"
		/>
</g>
<g>
	<path d="M456.428,105.819h-9.567c-0.168,0-0.574,0-0.574-0.421c0-0.434,0.435-0.434,0.645-0.434h9.427c0.211,0,0.645,0,0.645,0.434
		C457.002,105.819,456.596,105.819,456.428,105.819z M456.357,108.957h-9.427c-0.21,0-0.645,0-0.645-0.435
		c0-0.42,0.406-0.42,0.574-0.42h9.567c0.168,0,0.574,0,0.574,0.42C457.002,108.957,456.568,108.957,456.357,108.957z"/>
	<path d="M467.4,110.428c-0.688,0-2.172,0-2.788,0.042v-0.658h1.947v-7.242c-0.827,0.267-1.597,0.28-1.821,0.28h-0.28v-0.658h0.28
		c0.295,0,1.736,0,2.815-0.799c0.126-0.098,0.154-0.098,0.309-0.098c0.364,0,0.364,0.141,0.364,0.448v8.068h1.961v0.658
		C469.57,110.428,468.086,110.428,467.4,110.428z"/>
	<path d="M475.394,110.624c-0.98,0-2.045-0.337-2.704-1.401c-0.574-0.967-0.699-2.087-0.699-3.193c0-3.529,2.311-4.734,4.216-4.734
		c1.485,0,2.073,0.883,2.073,1.751c0,0.532-0.336,0.896-0.883,0.896c-0.546,0-0.868-0.393-0.868-0.868
		c0-0.421,0.252-0.799,0.757-0.869c-0.322-0.322-0.799-0.364-1.051-0.364c-0.855,0-1.611,0.505-1.947,1.163
		c-0.098,0.21-0.393,0.812-0.393,2.409v0.267c0.588-1.064,1.373-1.064,1.682-1.064c1.694,0,3.109,1.021,3.109,2.982
		C478.686,109.475,477.341,110.624,475.394,110.624z M475.449,105.119c-0.77,0-1.526,0.658-1.526,2.409c0,0.252,0,1.274,0.224,1.723
		c0.112,0.224,0.49,0.771,1.219,0.771c1.415,0,1.415-1.037,1.415-2.451C476.78,106.17,476.78,105.119,475.449,105.119z"/>
</g>
<g>
	<path d="M405.314,79.064c-0.062,4.292,0.148,8.431,0.187,12.749c0.082,9.439,0.033,18.849-0.495,28.238
		c-0.215,3.811-0.063,15.916,1.319,15.908c3.071,0.024,5.278-0.011,8.254-0.011c0.719-4.009,0.324-11.258,0.324-15.497
		c0-8.887,0.125-17.657,0.33-26.499c0.117-5.156,0.454-10.387,0.279-15.523c-2.918-0.064-8.514-0.842-10.194,0.407L405.314,79.064z"
		/>
</g>
<g>
	<path d="M394.68,79.064c-0.062,4.292,0.148,8.431,0.187,12.749c0.082,9.439,0.033,18.849-0.495,28.238
		c-0.215,3.811-0.063,15.916,1.319,15.908c3.071,0.024,5.278-0.011,8.254-0.011c0.719-4.009,0.324-11.258,0.324-15.497
		c0-8.887,0.125-17.657,0.33-26.499c0.117-5.156,0.454-10.387,0.279-15.523c-2.918-0.064-8.514-0.842-10.194,0.407L394.68,79.064z"
		/>
</g>
<g>
	<path d="M416.988,150.744c-0.062,4.292,0.148,8.431,0.187,12.749c0.082,9.439,0.033,18.849-0.495,28.238
		c-0.215,3.811-0.063,15.916,1.319,15.908c3.071,0.024,5.278-0.011,8.254-0.011c0.719-4.009,0.324-11.258,0.324-15.497
		c0-8.887,0.125-17.657,0.33-26.499c0.117-5.156,0.454-10.387,0.279-15.523c-2.918-0.064-8.514-0.842-10.194,0.407L416.988,150.744z
		"/>
</g>
<g>
	<path d="M457.467,177.499h-9.567c-0.168,0-0.574,0-0.574-0.421c0-0.434,0.435-0.434,0.645-0.434h9.427c0.211,0,0.645,0,0.645,0.434
		C458.041,177.499,457.635,177.499,457.467,177.499z M457.396,180.637h-9.427c-0.21,0-0.645,0-0.645-0.435
		c0-0.42,0.406-0.42,0.574-0.42h9.567c0.168,0,0.574,0,0.574,0.42C458.041,180.637,457.607,180.637,457.396,180.637z"/>
	<path d="M468.439,182.107c-0.688,0-2.172,0-2.788,0.042v-0.658h1.947v-7.242c-0.827,0.267-1.597,0.28-1.821,0.28h-0.28v-0.658h0.28
		c0.295,0,1.736,0,2.815-0.799c0.126-0.098,0.154-0.098,0.309-0.098c0.364,0,0.364,0.141,0.364,0.448v8.068h1.961v0.658
		C470.609,182.107,469.125,182.107,468.439,182.107z"/>
	<path d="M480.033,173.801l-2.172,2.521c-0.49,0.574-0.784,1.4-0.91,2.34c-0.098,0.658-0.141,1.33-0.141,2.002v0.645
		c0,0.925-0.658,0.995-0.883,0.995c-0.084,0-0.867,0-0.867-0.981c0-2.072,1.008-3.963,2.353-5.532
		c0.253-0.308,0.519-0.603,0.771-0.911h-2.367c-0.238,0-1.373,0-1.527,0.084c-0.056,0.029-0.238,0.211-0.378,1.275h-0.658
		l0.49-3.559h0.658c0.028,0.141,0.042,0.267,0.337,0.322c0.195,0.057,2.255,0.127,2.576,0.127h2.858
		C480.173,173.619,480.173,173.646,480.033,173.801z"/>
</g>
<g>
	<path d="M406.354,150.744c-0.062,4.292,0.148,8.431,0.187,12.749c0.082,9.439,0.033,18.849-0.495,28.238
		c-0.215,3.811-0.063,15.916,1.319,15.908c3.071,0.024,5.278-0.011,8.254-0.011c0.719-4.009,0.324-11.258,0.324-15.497
		c0-8.887,0.125-17.657,0.33-26.499c0.117-5.156,0.454-10.387,0.279-15.523c-2.918-0.064-8.514-0.842-10.194,0.407L406.354,150.744z
		"/>
</g>
<g>
	<path d="M395.719,150.744c-0.062,4.292,0.148,8.431,0.187,12.749c0.082,9.439,0.033,18.849-0.495,28.238
		c-0.215,3.811-0.063,15.916,1.319,15.908c3.071,0.024,5.278-0.011,8.254-0.011c0.719-4.009,0.324-11.258,0.324-15.497
		c0-8.887,0.125-17.657,0.33-26.499c0.117-5.156,0.454-10.387,0.279-15.523c-2.918-0.064-8.514-0.842-10.194,0.407L395.719,150.744z
		"/>
</g>
<g>
	<path d="M416.987,218.558c-0.062,4.292,0.148,8.431,0.187,12.749c0.082,9.439,0.033,18.849-0.495,28.238
		c-0.215,3.811-0.063,15.916,1.319,15.908c3.071,0.024,5.278-0.011,8.254-0.011c0.719-4.009,0.324-11.258,0.324-15.497
		c0-8.887,0.125-17.657,0.33-26.499c0.117-5.156,0.454-10.387,0.279-15.523c-2.918-0.064-8.514-0.842-10.194,0.407L416.987,218.558z
		"/>
</g>
<g>
	<path d="M457.466,245.312h-9.567c-0.168,0-0.574,0-0.574-0.42c0-0.435,0.434-0.435,0.645-0.435h9.427c0.21,0,0.645,0,0.645,0.435
		C458.04,245.312,457.634,245.312,457.466,245.312z M457.396,248.45h-9.427c-0.211,0-0.645,0-0.645-0.435
		c0-0.42,0.406-0.42,0.574-0.42h9.567c0.168,0,0.574,0,0.574,0.42C458.04,248.45,457.605,248.45,457.396,248.45z"/>
	<path d="M468.438,249.921c-0.686,0-2.171,0-2.787,0.042v-0.658h1.947v-7.242c-0.826,0.266-1.598,0.28-1.821,0.28h-0.28v-0.658h0.28
		c0.294,0,1.737,0,2.815-0.799c0.127-0.098,0.154-0.098,0.309-0.098c0.363,0,0.363,0.14,0.363,0.448v8.068h1.962v0.658
		C470.609,249.921,469.124,249.921,468.438,249.921z"/>
	<path d="M476.348,250.117c-1.807,0-3.32-0.715-3.32-2.41c0-1.036,0.617-1.834,1.793-2.353c-1.092-0.616-1.344-1.499-1.344-2.115
		c0-1.345,0.98-2.451,2.928-2.451c1.596,0,2.871,0.63,2.871,2.06c0,0.812-0.435,1.428-1.415,1.933
		c0.687,0.392,1.863,1.05,1.863,2.563C479.724,248.885,478.589,250.117,476.348,250.117z M477.385,246.797l-1.92-1.064
		c-0.49,0.28-1.232,0.883-1.232,1.975c0,1.094,0.799,1.808,2.172,1.808c0.798,0,2.114-0.224,2.114-1.401
		C478.519,247.441,478,247.147,477.385,246.797z M476.348,241.334c-0.561,0-1.82,0.098-1.82,1.078c0,0.477,0.392,0.715,0.615,0.842
		l2.102,1.176c0.616-0.406,0.98-0.883,0.98-1.568C478.225,241.908,477.524,241.334,476.348,241.334z"/>
</g>
<g>
	<path d="M406.353,218.558c-0.062,4.292,0.148,8.431,0.187,12.749c0.082,9.439,0.033,18.849-0.495,28.238
		c-0.215,3.811-0.063,15.916,1.319,15.908c3.071,0.024,5.278-0.011,8.254-0.011c0.719-4.009,0.324-11.258,0.324-15.497
		c0-8.887,0.125-17.657,0.33-26.499c0.117-5.156,0.454-10.387,0.279-15.523c-2.918-0.064-8.514-0.842-10.194,0.407L406.353,218.558z
		"/>
</g>
<g>
	<path d="M395.718,218.558c-0.062,4.292,0.148,8.431,0.187,12.749c0.082,9.439,0.033,18.849-0.495,28.238
		c-0.215,3.811-0.063,15.916,1.319,15.908c3.071,0.024,5.278-0.011,8.254-0.011c0.719-4.009,0.324-11.258,0.324-15.497
		c0-8.887,0.125-17.657,0.33-26.499c0.117-5.156,0.454-10.387,0.279-15.523c-2.918-0.064-8.514-0.842-10.194,0.407L395.718,218.558z
		"/>
</g>
<g>
	<path d="M416.988,285.918c-0.062,4.292,0.148,8.431,0.187,12.749c0.082,9.439,0.033,18.849-0.495,28.238
		c-0.215,3.811-0.063,15.916,1.319,15.908c3.071,0.024,5.278-0.011,8.254-0.011c0.719-4.009,0.324-11.258,0.324-15.497
		c0-8.887,0.125-17.657,0.33-26.499c0.117-5.156,0.454-10.387,0.279-15.523c-2.918-0.064-8.514-0.842-10.194,0.407L416.988,285.918z
		"/>
</g>
<g>
	<path d="M457.467,312.673h-9.567c-0.168,0-0.574,0-0.574-0.421c0-0.434,0.435-0.434,0.645-0.434h9.427c0.211,0,0.645,0,0.645,0.434
		C458.041,312.673,457.635,312.673,457.467,312.673z M457.396,315.811h-9.427c-0.21,0-0.645,0-0.645-0.435
		c0-0.42,0.406-0.42,0.574-0.42h9.567c0.168,0,0.574,0,0.574,0.42C458.041,315.811,457.607,315.811,457.396,315.811z"/>
	<path d="M468.439,317.281c-0.688,0-2.172,0-2.788,0.042v-0.658h1.947v-7.242c-0.827,0.267-1.597,0.28-1.821,0.28h-0.28v-0.658h0.28
		c0.295,0,1.736,0,2.815-0.799c0.126-0.098,0.154-0.098,0.309-0.098c0.364,0,0.364,0.141,0.364,0.448v8.068h1.961v0.658
		C470.609,317.281,469.125,317.281,468.439,317.281z"/>
	<path d="M475.704,317.478c-1.555,0-2.269-0.799-2.269-1.751c0-0.532,0.336-0.896,0.882-0.896s0.868,0.393,0.868,0.868
		c0,0.63-0.518,0.827-0.686,0.868c0.42,0.281,0.924,0.309,1.176,0.309c0.967,0,1.569-0.631,1.808-1.177
		c0.21-0.476,0.336-1.303,0.336-2.325v-0.309c-0.532,0.98-1.19,1.079-1.681,1.079c-1.723,0-3.109-1.051-3.109-2.983
		c0-1.877,1.387-3.012,3.375-3.012c3.32,0,3.32,3.628,3.32,4.566C479.725,316.301,477.525,317.478,475.704,317.478z
		 M477.637,309.577c-0.056-0.14-0.377-0.883-1.204-0.883c-1.499,0-1.499,1.121-1.499,2.493c0,1.401,0,2.451,1.331,2.451
		c1.177,0,1.54-1.428,1.54-2.311C477.805,310.852,477.805,310.039,477.637,309.577z"/>
</g>
<g>
	<path d="M406.354,285.918c-0.062,4.292,0.148,8.431,0.187,12.749c0.082,9.439,0.033,18.849-0.495,28.238
		c-0.215,3.811-0.063,15.916,1.319,15.908c3.071,0.024,5.278-0.011,8.254-0.011c0.719-4.009,0.324-11.258,0.324-15.497
		c0-8.887,0.125-17.657,0.33-26.499c0.117-5.156,0.454-10.387,0.279-15.523c-2.918-0.064-8.514-0.842-10.194,0.407L406.354,285.918z
		"/>
</g>
<g>
	<path d="M395.719,285.918c-0.062,4.292,0.148,8.431,0.187,12.749c0.082,9.439,0.033,18.849-0.495,28.238
		c-0.215,3.811-0.063,15.916,1.319,15.908c3.071,0.024,5.278-0.011,8.254-0.011c0.719-4.009,0.324-11.258,0.324-15.497
		c0-8.887,0.125-17.657,0.33-26.499c0.117-5.156,0.454-10.387,0.279-15.523c-2.918-0.064-8.514-0.842-10.194,0.407L395.719,285.918z
		"/>
</g>
<g>
	<path d="M382.842,105.646c0.04,4.646,2.357,12.054,8.294,8.917c4.62-2.441,5.263-12.822-0.116-15.118
		C385.375,97.036,382.26,101.704,382.842,105.646"/>
</g>
<g>
	<path d="M385.032,82.144c-1.702,1.125-2.76,3.238-2.76,5.518c0,0.346,0.025,0.689,0.069,0.957c0.03,3.494,1.267,7.975,3.911,9.553
		c1.478,0.881,3.198,0.814,5.116-0.199c2.369-1.25,3.961-4.59,3.961-8.307l0,0c0-3.674-1.576-6.629-4.113-7.713
		C388.257,80.688,386.22,81.358,385.032,82.144z M385.584,82.978c1.27-0.84,2.87-0.943,4.652-0.326
		c0.383,0.59,0.664,1.457,0.85,2.488c-0.139,0.148-0.266,0.309-0.384,0.463c-0.14,0.184-0.284,0.373-0.411,0.479
		c-0.549,0.463-1.043,0.67-1.766,0.74c-1.707,0.17-3.893-0.018-5.036-0.773C383.83,84.761,384.565,83.649,385.584,82.978z
		 M383.336,88.54c-0.042-0.287-0.063-0.582-0.063-0.879c0-0.188,0.015-0.371,0.031-0.557c1.938,1.004,4.935,0.75,5.32,0.713
		c0.919-0.09,1.61-0.381,2.312-0.971c0.12-0.102,0.229-0.223,0.333-0.348c0.144,1.574,0.106,3.355-0.113,5.064l-0.169-0.127
		c-0.809,1.076-2.177,1.301-3.184,1.301h-0.119c-1.141,0-3.504-0.002-4.003-1.033C383.464,90.651,383.347,89.565,383.336,88.54z
		 M386.766,97.312c-1.207-0.719-2.105-2.258-2.68-4.057c1.131,0.471,2.634,0.482,3.597,0.482h0.12
		c1.275,0.002,2.338-0.314,3.15-0.902c-0.395,2.096-1.079,3.93-2.046,4.91C388.126,97.835,387.408,97.696,386.766,97.312z
		 M394.33,89.665L394.33,89.665c0,3.357-1.378,6.34-3.428,7.424c-0.139,0.072-0.273,0.133-0.409,0.193
		c1.245-2.156,1.872-5.619,1.872-8.797c0-1.947-0.239-3.779-0.711-5.145C393.605,84.702,394.33,87.403,394.33,89.665z"/>
</g>
<g>
	<path d="M385.032,116.21c-1.702,1.125-2.76,3.238-2.76,5.518c0,0.346,0.025,0.69,0.069,0.957c0.03,3.494,1.267,7.975,3.911,9.553
		c1.478,0.882,3.198,0.814,5.116-0.198c2.369-1.251,3.961-4.59,3.961-8.308l0,0c0-3.674-1.576-6.629-4.113-7.713
		C388.257,114.756,386.22,115.426,385.032,116.21z M385.584,117.044c1.27-0.839,2.87-0.943,4.652-0.326
		c0.383,0.591,0.664,1.457,0.85,2.488c-0.139,0.148-0.266,0.31-0.384,0.464c-0.14,0.183-0.284,0.372-0.411,0.479
		c-0.549,0.462-1.043,0.669-1.766,0.74c-1.707,0.169-3.893-0.019-5.036-0.773C383.83,118.827,384.565,117.717,385.584,117.044z
		 M383.336,122.607c-0.042-0.288-0.063-0.583-0.063-0.88c0-0.188,0.015-0.371,0.031-0.556c1.938,1.003,4.935,0.75,5.32,0.712
		c0.919-0.09,1.61-0.381,2.312-0.971c0.12-0.102,0.229-0.223,0.333-0.348c0.144,1.574,0.106,3.355-0.113,5.064l-0.169-0.127
		c-0.809,1.077-2.177,1.302-3.184,1.301h-0.119c-1.141,0-3.504-0.002-4.003-1.033C383.464,124.718,383.347,123.632,383.336,122.607z
		 M386.766,131.378c-1.207-0.719-2.105-2.258-2.68-4.057c1.131,0.471,2.634,0.482,3.597,0.482h0.12
		c1.275,0.002,2.338-0.314,3.15-0.902c-0.395,2.097-1.079,3.931-2.046,4.91C388.126,131.901,387.408,131.763,386.766,131.378z
		 M394.33,123.731L394.33,123.731c0,3.357-1.378,6.34-3.428,7.424c-0.139,0.073-0.273,0.133-0.409,0.194
		c1.245-2.157,1.872-5.62,1.872-8.798c0-1.947-0.239-3.779-0.711-5.145C393.605,118.769,394.33,121.47,394.33,123.731z"/>
</g>
<g>
	<path d="M382.842,160.294c0.04,4.645,2.357,12.053,8.294,8.916c4.62-2.441,5.263-12.822-0.116-15.117
		C385.375,151.683,382.26,156.351,382.842,160.294"/>
</g>
<g>
	<path d="M385.032,170.856c-1.702,1.125-2.76,3.238-2.76,5.518c0,0.346,0.025,0.69,0.069,0.957c0.03,3.494,1.267,7.975,3.911,9.553
		c1.478,0.882,3.198,0.814,5.116-0.198c2.369-1.251,3.961-4.59,3.961-8.308l0,0c0-3.674-1.576-6.629-4.113-7.713
		C388.257,169.402,386.22,170.072,385.032,170.856z M385.584,171.69c1.27-0.839,2.87-0.943,4.652-0.326
		c0.383,0.591,0.664,1.457,0.85,2.488c-0.139,0.148-0.266,0.31-0.384,0.464c-0.14,0.183-0.284,0.372-0.411,0.479
		c-0.549,0.462-1.043,0.669-1.766,0.74c-1.707,0.169-3.893-0.019-5.036-0.773C383.83,173.474,384.565,172.363,385.584,171.69z
		 M383.336,177.254c-0.042-0.288-0.063-0.583-0.063-0.88c0-0.188,0.015-0.371,0.031-0.556c1.938,1.003,4.935,0.75,5.32,0.712
		c0.919-0.09,1.61-0.381,2.312-0.971c0.12-0.102,0.229-0.223,0.333-0.348c0.144,1.574,0.106,3.355-0.113,5.064l-0.169-0.127
		c-0.809,1.077-2.177,1.302-3.184,1.301h-0.119c-1.141,0-3.504-0.002-4.003-1.033C383.464,179.364,383.347,178.278,383.336,177.254z
		 M386.766,186.024c-1.207-0.719-2.105-2.258-2.68-4.057c1.131,0.471,2.634,0.482,3.597,0.482h0.12
		c1.275,0.002,2.338-0.314,3.15-0.902c-0.395,2.097-1.079,3.931-2.046,4.91C388.126,186.548,387.408,186.409,386.766,186.024z
		 M394.33,178.378L394.33,178.378c0,3.357-1.378,6.34-3.428,7.424c-0.139,0.073-0.273,0.133-0.409,0.194
		c1.245-2.157,1.872-5.62,1.872-8.798c0-1.947-0.239-3.779-0.711-5.145C393.605,173.415,394.33,176.116,394.33,178.378z"/>
</g>
<g>
	<path d="M382.842,194.359c0.04,4.646,2.357,12.055,8.294,8.918c4.62-2.441,5.263-12.822-0.116-15.119
		C385.375,185.75,382.26,190.418,382.842,194.359"/>
</g>
<g>
	<path d="M382.842,245.141c0.04,4.645,2.357,12.053,8.294,8.916c4.62-2.441,5.263-12.822-0.116-15.117
		C385.375,236.529,382.26,241.197,382.842,245.141"/>
</g>
<g>
	<path d="M382.842,228.611c0.04,4.645,2.357,12.053,8.294,8.916c4.62-2.441,5.263-12.822-0.116-15.117
		C385.375,220,382.26,224.668,382.842,228.611"/>
</g>
<g>
	<path d="M382.842,261.669c0.04,4.646,2.357,12.055,8.294,8.918c4.62-2.441,5.263-12.822-0.116-15.119
		C385.375,253.06,382.26,257.728,382.842,261.669"/>
</g>
<g>
	<path d="M383.604,305.562c0.035,4.052,2.056,10.513,7.234,7.777c4.029-2.13,4.59-11.185-0.102-13.186
		C385.813,298.051,383.096,302.122,383.604,305.562"/>
</g>
<g>
	<path d="M383.604,291.145c0.035,4.051,2.056,10.513,7.234,7.776c4.029-2.129,4.59-11.184-0.102-13.186
		C385.813,283.634,383.096,287.705,383.604,291.145"/>
</g>
<g>
	<path d="M383.604,319.979c0.035,4.053,2.056,10.515,7.234,7.778c4.029-2.13,4.59-11.184-0.102-13.188
		C385.813,312.469,383.096,316.54,383.604,319.979"/>
</g>
<g>
	<path d="M383.604,334.576c0.035,4.051,2.056,10.513,7.234,7.776c4.029-2.129,4.59-11.184-0.102-13.186
		C385.813,327.065,383.096,331.137,383.604,334.576"/>
</g>
</svg>
